<svg id="SvgjsSvg1728" width="288" height="288" xmlns="http://www.w3.org/2000/svg" version="1.1" xmlns:xlink="http://www.w3.org/1999/xlink" xmlns:svgjs="http://svgjs.com/svgjs"><defs id="SvgjsDefs1729"></defs><g id="SvgjsG1730"><svg xmlns="http://www.w3.org/2000/svg" viewBox="0 0 38 39" width="288" height="288"><g clip-path="url(#a)"><path fill="#cad0ff" d="M.068.023h37.24v38.61H.068z" class="svgShape colorfad7d7-1 selectable"></path><path stroke="#231F20" stroke-miterlimit="10" stroke-width=".19" d="m16.28 31.132-.487-3.89" fill="none" class="svgStroke colorStroke231f20-2 selectable"></path><path fill="#fff" stroke="#231F20" stroke-miterlimit="10" stroke-width=".19" d="M37.197 32.46c-.366.138-.822.308-1.351.504-4.046 1.496-12.368 4.433-17.551 5.302h-.01q-.264.045-.516.081l-.158.023q-1.133.166-2.308.166-1.422-.001-2.777-.242c.172-.09.425-.474.717-1.063.379-.766.821-1.883 1.229-3.148.305-.947.547-1.835.709-2.577q.036-.164.067-.32h.055q.523 0 1.03-.063l-.504-3.893-.01-.069-.148-.07s-.62 1.648-.987 2.511l-.018.039c-.234.579-.446 1.086-.602 1.456q-.02-.002-.042-.006h-.005a8.54 8.54 0 0 1-5.649-3.432 1.65 1.65 0 0 1-.194-.766 1.44 1.44 0 0 1 .31-.894q.033-.044.073-.084a1.3 1.3 0 0 1 .137-.13l.021-.017a.54.54 0 0 0 .206-.42v-.005a.8.8 0 0 0-.183-.508c.724-1.588 2.407-5.163 4.097-7.86.465-.74.943-1.263 1.408-1.621.755-.585 1.473-.747 2.055-.735h.076c.829 1.564 2.197 1.501 3.333 1.069.133.245.371.798.347 1.554.789 0 1.78-.323 2.936-1.368a9 9 0 0 1 .675-.552 1.704 1.704 0 0 0 3.262-.587c.303.135.639.211.99.211.761 0 1.442-.352 1.884-.903q.006 0 .011.004a2.92 2.92 0 0 1 1.605 1.216c.747 1.15 1.433 2.576 2.058 4.12l.15.379c1.866 4.762 3.122 10.49 3.568 12.691z" class="svgShape colorffffff-3 svgStroke colorStroke231f20-3 selectable"></path><path stroke="#231F20" stroke-miterlimit="10" stroke-width=".19" d="M15.82 27.187a3.363 3.363 0 0 1-.754-5.75M14.63 29.65c-.206.484-.423.972-.644 1.45l-.029.063M30.092 13.533l-.032.07" fill="none" class="svgStroke colorStroke231f20-4 selectable"></path><path fill="#050c4e" stroke="#231F20" stroke-miterlimit="10" stroke-width=".19" d="M16.338 14.425c.023.093.042.177.04.196a3.5 3.5 0 0 0-2.165.742c-.032-.07-.04-.155-.083-.221-.444-.71.417-1.456.47-1.52q.045-.05.084-.106c.381-.543.17-1.277-.42-1.578a1.69 1.69 0 0 1-.65-2.435 2.089 2.089 0 0 1 .55-3.96c.372.32.789.59 1.24.795a2.93 2.93 0 0 0-.527 2.273q.014.07.024.135.092.465.191.858c.25.98.497 1.675.757 2.298.306.738.386 1.546.406 1.961q.012.284.08.562z" class="svgShape color6b3293-5 svgStroke colorStroke231f20-5 selectable"></path><path stroke="#231F20" stroke-miterlimit="10" stroke-width=".19" d="M33.48 14.945q-.12.2-.261.39M15.644 6.057s-.105.097-.239.28" fill="none" class="svgStroke colorStroke231f20-6 selectable"></path><path fill="#050c4e" stroke="#231F20" stroke-miterlimit="10" stroke-width=".19" d="M34.059 19.021a2.3 2.3 0 0 1-.458.3q-.076.038-.154.072c-.623-1.544-1.311-2.97-2.058-4.12a2.92 2.92 0 0 0-1.605-1.216q-.005 0-.011-.004a2.42 2.42 0 0 1-2.874.692 1.704 1.704 0 0 1-3.262.587 1.7 1.7 0 0 1 .095-1.54c-.41-.257-.68-.71-.68-1.229 0-.638.413-1.181.985-1.376a1.45 1.45 0 0 1 1.058-1.17 1.5 1.5 0 0 1 .295-.381 1.19 1.19 0 0 0 .814-1.256 1.21 1.21 0 0 0-1.066-1.077 1.2 1.2 0 0 0-1.328 1.289.424.424 0 0 1-.35.447q-.008 0-.014.002c-.253.038-.474-.162-.49-.417a1.45 1.45 0 0 0-.922-1.27 1.7 1.7 0 0 1-.865-1.97 5.21 5.21 0 0 1-4.821 1.283 5.215 5.215 0 0 1-2.184-1.12 5.3 5.3 0 0 1-1.11-1.333 6.225 6.225 0 0 1 9.298-3.052 3.402 3.402 0 0 1 4.932 2.012 3.406 3.406 0 0 1 2.933 4.158 5.103 5.103 0 0 1 3.264 7.615 2.418 2.418 0 0 1 .58 4.074z" class="svgShape color795ca7-7 svgStroke colorStroke231f20-7 selectable"></path><path stroke="#231F20" stroke-miterlimit="10" stroke-width=".19" d="m14.83 19.57.233 1.868" fill="none" class="svgStroke colorStroke231f20-8 selectable"></path><path fill="#fff" stroke="#231F20" stroke-miterlimit="10" stroke-width=".19" d="M10.982 36.813c-.68.941-1.73 1.572-2.897 1.68-1.452.138-3.43-.373-5.713-2.799-.015-.015-.004-.044.02-.042.325.033.685.048 1.068.033.888-.038 1.894-.248 2.851-.818a18 18 0 0 0 4.67 1.946Z" class="svgShape colorffffff-9 svgStroke colorStroke231f20-9 selectable"></path><path stroke="#231F20" stroke-miterlimit="10" stroke-width=".19" d="M23.455 20.076c.25.806.386 1.662.386 2.55a8.57 8.57 0 0 1-7.542 8.51" fill="none" class="svgStroke colorStroke231f20-10 selectable"></path><path fill="#050c4e" stroke="#231F20" stroke-miterlimit="10" stroke-width=".19" d="M13.206 37.243c-.29.589-.543.974-.717 1.063q-.078-.013-.154-.028c-.097-.138-.092-.559.004-1.167q.43.078.869.134z" class="svgShape color795ca7-11 svgStroke colorStroke231f20-11 selectable"></path><path stroke="#231F20" stroke-miterlimit="10" stroke-width=".19" d="M12.364 36.941q-.016.087-.027.166M12.333 38.275a.12.12 0 0 0 .057.046q.042.014.1-.015" fill="none" class="svgStroke colorStroke231f20-12 selectable"></path><path fill="#F8991D" stroke="#240F32" stroke-miterlimit="10" stroke-width=".19" d="M15.21 31.198q-.03.155-.064.318a28 28 0 0 1-.709 2.577c-.41 1.265-.852 2.38-1.23 3.148a18 18 0 0 1-2.223-.429c-.941-.242-1.85-.56-2.725-.945a20 20 0 0 1-.71-.33 16 16 0 0 1-.997-.531q-.12-.068-.239-.138l-.095-.057q-.165-.099-.326-.2a18.16 18.16 0 0 1-5.47-5.366c-.342-.515-.348-1.195.022-1.69l.046-.06c-.193-.815.175-1.3.44-1.53 0-.003-.006-.01-.008-.013-.205-.4-.358-.87-.373-1.399-.02-.621.3-.989.716-1.202.296-.153.635-.23.942-.267l.066 1.686c.679.62 1.994 1.44 4.484 2.047.018-.587.214-1.13.538-1.576q.062-.083.13-.162a3 3 0 0 1 .417-.402h.004a.51.51 0 0 1 .413-.105.8.8 0 0 1 .452.275.8.8 0 0 1 .18.507v.003a.59.59 0 0 1-.224.439 2 2 0 0 0-.137.13 1.5 1.5 0 0 0-.138.173 1.44 1.44 0 0 0-.245.806 1.63 1.63 0 0 0 .518 1.183c.198.238.408.469.63.68q.168.168.35.32.477.424 1.015.763.366.238.76.433c.793.4 1.658.678 2.57.815h.005q.021.002.042.006.58.085 1.181.09z" class="svgShape colorf8991d-13 svgStroke colorStroke240f32-13 selectable"></path><path fill="#F8991D" stroke="#240F32" stroke-miterlimit="10" stroke-width=".19" d="m9.765 19.914-.088.093c-.827.903-1.271 1.961-1.498 2.702l-.026-.638a1.06 1.06 0 0 0-.824-.985l-3.533-.799a.7.7 0 0 0-.547.107l-.747.513a.6.6 0 0 0-.339.394.5.5 0 0 0-.023.189l.063 1.591a2.8 2.8 0 0 0-.941.267c.09-1.248.259-2.586.528-4.017 0 0 .491-2.958 1.473-3.06.474-.05.764.13.941.33v-.136c0-1.016.823-1.84 1.839-1.84a1.02 1.02 0 0 1 .854.462c.127-.766.508-2.112 1.625-1.934.616.097 1.054.655 1.054 1.278v1.04a.84.84 0 0 1-.797.84h-.045a.89.89 0 0 1-.639-.275c-.167.777-.453 2.36-.366 3.695a3 3 0 0 1 1.064-1.067.6.6 0 0 1 .257-.086h.013c.423-.03.814.28.875.701a.82.82 0 0 1-.171.635z" class="svgShape colorf8991d-14 svgStroke colorStroke240f32-14 selectable"></path><path stroke="#231F20" stroke-miterlimit="10" stroke-width=".19" d="M1.305 26.559a7 7 0 0 1-.383-.612M1.006 28.609c-.284-.427-.444-.799-.517-1.117M7.032 26.881q-.141-.032-.276-.065M2.272 24.769c-.566-.517-.692-.892-.692-.892M4.203 16.604l.02.022c.15.183.22.421.22.658v.377a.84.84 0 0 1-.84.84.689.689 0 0 1-.688-.688v-.491" fill="none" class="svgStroke colorStroke231f20-15 selectable"></path><path fill="#F8991D" stroke="#240F32" stroke-miterlimit="10" stroke-width=".19" d="M6.311 34.865c-.956.572-1.963.78-2.85.818-.197-.351-.422-.795-.65-1.332a19 19 0 0 1-1.058-3.331 18.1 18.1 0 0 0 4.558 3.843z" class="svgShape colorf8991d-16 svgStroke colorStroke240f32-16 selectable"></path><path stroke="#231F20" stroke-miterlimit="10" stroke-width=".19" d="M6.894 15.086c.105.158.166.35.166.554v1.144a.873.873 0 1 1-1.746 0v-.825M7.85 14.625v.802c0 .239.091.452.245.61M6.604 20.142s.439-.331 1.005-.179c0 0 .036-.091.12-.233" fill="none" class="svgStroke colorStroke231f20-17 selectable"></path><path fill="#050c4e" stroke="#231F20" stroke-miterlimit="10" stroke-width=".19" d="M7.422 25.074a2.813 2.813 0 0 0-.667 1.738c-2.49-.608-3.805-1.427-4.484-2.046l-.067-1.687-.062-1.591a.5.5 0 0 1 .022-.189.611.611 0 0 1 .724-.432l3.951.892c.263.059.455.29.467.56l.11 2.591.008.162z" class="svgShape color6b3293-18 svgStroke colorStroke231f20-18 selectable"></path><path fill="#0059ff" stroke="#231F20" stroke-miterlimit="10" stroke-width=".19" d="M8.257 24.57c-.034-.008-.202-.018-.412.104h-.003a1.3 1.3 0 0 0-.418.402l-.007-.162-.11-2.591a.6.6 0 0 0-.468-.56l-3.95-.893a.6.6 0 0 0-.385.039l.747-.513a.7.7 0 0 1 .547-.107l3.533.799c.465.106.802.508.823.985l.027.638.07 1.696.008.162zM3.46 35.684c-.398.017-.773 0-1.109-.037a.06.06 0 0 1-.05-.078q.21-.702.51-1.217c.228.535.453.98.65 1.332Z" class="svgShape color795ca7-19 svgStroke colorStroke231f20-19 selectable"></path><path fill="#F8991D" stroke="#240F32" stroke-miterlimit="10" stroke-width=".19" d="M36.121 35.814 18.26 38.272c5.183-.869 13.505-3.807 17.55-5.301a673 673 0 0 0 .311 2.843Z" class="svgShape colorf8991d-20 svgStroke colorStroke240f32-20 selectable"></path><path fill="#050c4e" stroke="#231F20" stroke-miterlimit="10" stroke-width=".19" d="M11.412 30.286c-.166.861-.542 1.877-1.102 2.9-.621 1.136-1.357 2.074-2.054 2.682-.61.533-1.191.813-1.635.754a.8.8 0 0 1-.267-.086.8.8 0 0 1-.217-.18q.18-.03.375-.115c.32-.137.673-.377 1.033-.703.673-.608 1.376-1.517 1.972-2.609.599-1.094.986-2.18 1.134-3.076.08-.476.092-.897.034-1.238-.045-.265-.131-.484-.263-.64a.86.86 0 0 1 .574.075.87.87 0 0 1 .374.44c.179.416.188 1.047.042 1.796Z" class="svgShape colored1c24-21 svgStroke colorStroke231f20-21 selectable"></path><path fill="#8E1A1C" stroke="#231F20" stroke-miterlimit="10" stroke-width=".19" d="M10.689 28.611a3.7 3.7 0 0 0-.911.596 8 8 0 0 1-.604-.556c.45-.38.88-.617 1.25-.68.131.156.217.375.263.64zM6.514 36.237a1.6 1.6 0 0 1-.375.114c-.284-.34-.362-.962-.25-1.748q.327.207.661.399c-.08.472-.091.893-.034 1.235z" class="svgShape color8e1a1c-22 svgStroke colorStroke231f20-22 selectable"></path><path stroke="#231F20" stroke-miterlimit="10" stroke-width=".19" d="M16.299 31.136q-.509.063-1.031.063h-.055q-.6 0-1.182-.09c.155-.37.366-.876.602-1.456l.018-.038c.367-.863.987-2.511.987-2.511l.148.07.01.069.505 3.893z" fill="none" class="svgStroke colorStroke231f20-23 selectable"></path><path stroke="#231F20" stroke-miterlimit="10" stroke-width=".19" d="M15.635 27.102c-.28.79-.62 1.648-.987 2.511.312-.77.666-1.662.987-2.511ZM17.733 38.357a15.9 15.9 0 0 0 9.649-5.403 15.86 15.86 0 0 0 3.803-10.328q0-1.268-.192-2.482" fill="none" class="svgStroke colorStroke231f20-24 selectable"></path><mask id="b" width="30" height="25" x="8" y="14" maskUnits="userSpaceOnUse" style="mask-type:luminance"><path fill="#fff" d="M37.197 32.463c-.366.14-.822.309-1.351.505-4.046 1.496-12.368 4.432-17.551 5.301h-.01q-.264.046-.516.082l-.158.023q-1.133.165-2.308.166-1.422-.001-2.777-.242c.172-.09.425-.474.717-1.063.379-.766.821-1.883 1.229-3.148.305-.948.547-1.836.709-2.577q.036-.165.067-.32h.055q.523 0 1.03-.063l-.504-3.893-.01-.069-.148-.07s-.62 1.648-.987 2.511l-.018.038c-.234.58-.446 1.087-.602 1.456q-.02-.001-.042-.005h-.005a8.54 8.54 0 0 1-5.649-3.432 1.65 1.65 0 0 1-.194-.766 1.44 1.44 0 0 1 .52-1.108l.021-.017a.54.54 0 0 0 .206-.42v-.005a.8.8 0 0 0-.183-.509c.724-1.587 2.407-5.162 4.097-7.858.465-.742.943-1.264 1.408-1.622.755-.585 1.473-.747 2.055-.736h.076c.829 1.565 2.197 1.502 3.333 1.07.133.245.371.798.347 1.554.789 0 1.78-.323 2.936-1.368a9 9 0 0 1 .675-.552 1.704 1.704 0 0 0 3.262-.587c.303.135.639.211.99.211.761 0 1.442-.352 1.884-.903q.006 0 .011.004a2.92 2.92 0 0 1 1.605 1.216c.747 1.15 1.433 2.576 2.058 4.12l.15.379c1.866 4.762 3.122 10.49 3.568 12.691z" class="svgShape colorffffff-26 selectable"></path></mask><g stroke-miterlimit="10" mask="url(#b)"><path d="m10.2 22.422 2.262-.927a.56.56 0 0 0 .306-.73l-.926-2.263a.56.56 0 0 0-.731-.306l-2.263.927a.56.56 0 0 0-.306.73l.927 2.263a.56.56 0 0 0 .73.306ZM28.71 17.263l2.022-.25a.764.764 0 0 0 .664-.853l-.251-2.022a.764.764 0 0 0-.853-.664l-2.021.251a.764.764 0 0 0-.664.853l.25 2.021a.764.764 0 0 0 .853.664ZM32.698 30.3l.745.333c.244.109.53 0 .639-.245l.332-.745a.484.484 0 0 0-.244-.639l-.745-.332a.484.484 0 0 0-.64.244l-.332.745c-.109.244 0 .53.245.64ZM26.773 24.706l.338 1.158a.137.137 0 0 0 .17.094l1.158-.338a.137.137 0 0 0 .093-.17l-.337-1.158a.137.137 0 0 0-.17-.094l-1.158.338a.137.137 0 0 0-.094.17ZM11.747 34.174l.173.593a.137.137 0 0 0 .17.093l.592-.173a.137.137 0 0 0 .094-.17l-.173-.593a.137.137 0 0 0-.17-.093l-.593.173a.137.137 0 0 0-.093.17ZM19.645 31.87l.955 2.33a.484.484 0 0 0 .631.265l2.331-.955a.484.484 0 0 0 .265-.631l-.955-2.331a.484.484 0 0 0-.631-.265l-2.331.955a.484.484 0 0 0-.265.631ZM16.531 22.55l.494.649a.484.484 0 0 0 .678.092l.65-.494a.484.484 0 0 0 .092-.678l-.494-.65a.484.484 0 0 0-.678-.091l-.65.493a.484.484 0 0 0-.092.679Z" fill="none" stroke="#050c4e" stroke-width=".19" class="svgStroke colorStrokeed1c53-28 selectable"></path></g><path fill="#F8991D" d="M19.608 17.213c.153.023.319.038.452.03z" class="svgShape colorf8991d-29 selectable"></path><path stroke="#240F32" stroke-miterlimit="10" stroke-width=".19" d="M19.608 17.213c.153.023.319.038.452.03" fill="none" class="svgStroke colorStroke240f32-30 selectable"></path><path fill="#F8991D" stroke="#240F32" stroke-miterlimit="10" stroke-width=".19" d="M25.859 9.343a1.47 1.47 0 0 0-.765.67 1.46 1.46 0 0 0-1.057 1.17 1.455 1.455 0 0 0-.985 1.376c0 .52.272.974.68 1.23a1.7 1.7 0 0 0-.095 1.54q-.344.254-.675.552c-1.157 1.044-2.148 1.368-2.937 1.368a3.1 3.1 0 0 0-.346-1.555c-1.7.678-2.651-.099-3.093-.684-.202-.269-.3-.6-.303-.936-.01-.874-.189-1.5-.429-2.174-.227-.636-.509-1.319-.757-2.298a15 15 0 0 1-.215-.993 2.92 2.92 0 0 1 .528-2.273q.451.208.943.325a5.23 5.23 0 0 0 4.821-1.282 1.707 1.707 0 0 0 1.009 2.035c.46.238.749.703.779 1.204.015.256.238.456.49.418.02-.006.02.011.194-.145a.5.5 0 0 0 .168-.375v-.023a1.202 1.202 0 0 1 2.369-.279 1.2 1.2 0 0 1-.319 1.129z" class="svgShape colorf8991d-31 svgStroke colorStroke240f32-31 selectable"></path><path stroke="#231F20" stroke-miterlimit="10" stroke-width=".19" d="M21.625 14.543s-.869.743-1.947 1.155" fill="none" class="svgStroke colorStroke231f20-32 selectable"></path><path fill="#231F20" d="M20.213 10.738c.168-.063.198-.4.067-.751-.132-.352-.376-.586-.544-.523s-.198.4-.067.751c.132.352.375.586.544.523" class="svgShape color231f20-33 selectable"></path><path fill="#231F20" d="M19.849 9.465s.53.242.779-.291c0 0 .03.789-.688.535zM16.91 11.681c.168-.063.198-.4.066-.751-.132-.352-.375-.586-.544-.523-.168.063-.198.4-.066.752.131.351.375.585.543.522" class="svgShape color231f20-34 selectable"></path><path fill="#231F20" d="M16.327 10.494s-.385.437-.829.05c0 0 .293.733.846.21l-.015-.262zM18.39 8.772s.974-1.35 2.407-1.012a.9.9 0 0 0-.64-.573c-.448-.103-1.138-.069-1.836.705zM14.991 8.905c.429-.621 1.407-.324 1.407-.324l.434.863s-1.19-.673-1.713.09l-.13-.63z" class="svgShape color231f20-35 selectable"></path><path stroke="#231F20" stroke-miterlimit="10" stroke-width=".19" d="M17.723 10.606s.474.983.228 1.503.574.52.574.52" fill="none" class="svgStroke colorStroke231f20-36 selectable"></path><path fill="#231F20" d="M19.635 13.822a.478.478 0 1 0 0-.957.478.478 0 0 0 0 .957" class="svgShape color231f20-37 selectable"></path><path fill="#E15E26" d="M21.198 11.319a.427.427 0 1 0 0-.854.427.427 0 0 0 0 .854M16.67 12.81a.427.427 0 1 0 0-.853.427.427 0 0 0 0 .854" class="svgShape colore15e26-38 selectable"></path><path fill="#fff" stroke="#231F20" stroke-miterlimit="10" stroke-width=".19" d="M25.81 9.963a.7.7 0 0 1-.232.527.71.71 0 0 1-.715.15.716.716 0 0 1 .048-1.374.712.712 0 0 1 .633.133.71.71 0 0 1 .27.564z" class="svgShape colorffffff-39 svgStroke colorStroke231f20-39 selectable"></path><path stroke="#231F20" stroke-miterlimit="10" stroke-width=".19" d="M24.453 8.17a.61.61 0 0 1 .465-.247.6.6 0 0 1 .56.314c.08.147.094.307.057.45" fill="none" class="svgStroke colorStroke231f20-40 selectable"></path><path fill="#341E54" d="M12.736 37.164s1.334-1.934 2.514-5.973c0 0-1.29 4.98-2.007 6.043z" class="svgShape color341e54-41 selectable"></path></g><defs><clipPath id="a"><path fill="#fff" d="M.068.023h37.24v38.61H.068z" class="svgShape colorffffff-44 selectable"></path></clipPath></defs></svg></g></svg>