<svg id="SvgjsSvg1006" width="288" height="288" xmlns="http://www.w3.org/2000/svg" version="1.1" xmlns:xlink="http://www.w3.org/1999/xlink" xmlns:svgjs="http://svgjs.com/svgjs"><defs id="SvgjsDefs1007"></defs><g id="SvgjsG1008"><svg xmlns="http://www.w3.org/2000/svg" viewBox="0 0 140 52" width="288" height="288"><defs><linearGradient id="a" x1="113.16" x2="113.16" y1="44.2" y2="38.81" gradientTransform="matrix(1 0 0 -1 0 58)" gradientUnits="userSpaceOnUse"><stop offset="0" stop-color="#c63131" class="svgShape stopColor3184c6-2"></stop><stop offset="1" stop-color="#661818" stop-opacity=".85" class="svgShape stopColor183a66-3"></stop></linearGradient></defs><path fill="none" stroke="#ac1414" stroke-linecap="round" stroke-linejoin="round" d="M127.73 12.24V28.35a3.08 3.08 0 01-3.07 3.07h0M129.66 5.05V1.38M125.49 5.05V1.38" class="svgStroke colorStroke1499ac-4 selectable"></path><path fill="#ac1414" fill-rule="evenodd" d="M130.76,7.5a1,1,0,0,1,1,1v6.39a4.2,4.2,0,0,1-8.33,0V8.48a1,1,0,0,1,1-1Z" class="svgShape color1499ac-5 selectable"></path><path fill="none" stroke="#ffffff" stroke-linecap="round" d="M129,9.14l-3.82,2.53a.25.25,0,0,0,.14.45h4a.24.24,0,0,1,.15.44l-3.93,3" class="svgStroke colorStrokeffffff-6 selectable"></path><path fill="#991616" d="M124.88,48.42c0,.55-25.89,1-57.82,1S9.24,49,9.24,48.42s25.89-2,57.82-2S124.88,47.88,124.88,48.42Z" class="svgShape color164b99-7 selectable"></path><path fill="#ffffff" d="M37,21.36A105.26,105.26,0,0,1,61.9,10.64C71.1,8,87.65,9.31,110.09,12.79l-1.63,1.07,5.69,2.68,5.68,2.68,4.88,1.07L123.63,24c1.09,4,.91,6.11.27,10.46l1,2-1,3.92-11.48,2.27-14.88,1.7s-9.6-.79-14.52-1-47.65,0-47.65,0l-15,.49H11.54L8.29,41.2l2.17-2.14V37.45L8.83,36.38l-.54-3.76L9.92,31l-.54-2.14C14.79,25.12,20.75,22.44,37,21.36Z" class="svgShape colorffffff-8 selectable"></path><path fill="#f1cece" d="M38.72,30.64l-2,1.26,1.44,10,55.15-2.94L94.5,28.73l-7.83-1.34a14,14,0,0,0-2.82-.19L45.43,28.6A13.76,13.76,0,0,0,38.72,30.64Z" class="svgShape colorceddf1-9 selectable"></path><path fill="#5f1a1a" d="M95.7 47.44a13.75 13.75 0 01-4.14-3.92h5.15l4.65 3.92zM36.16 48.12a10.71 10.71 0 004.44-4.6l-5.79.31-5 4.59z" class="svgShape color1a345f-10 selectable"></path><path fill="#991616" stroke="#991616" d="M105,14.64l-.24,0c-1.07-.15-2.6-.36-4.47-.6-3.73-.48-8.8-1.09-14.14-1.62s-11-1-15.79-1.06-8.84.09-11,.79a114.33,114.33,0,0,0-20.86,9.05h.63c1.43,0,3.49,0,6-.08,5-.12,11.63-.36,18.48-.65,13.7-.58,28-1.36,30.75-1.78a30.46,30.46,0,0,0,8-2.67C103.35,15.5,104.27,15,105,14.64Z" class="svgShape color164b99-11 svgStroke colorStroke164b99-11 selectable"></path><path fill="#f1cece" d="M85.72,39c7-1.08,28-11.8,38.81-18.47l-.92,3.54a23.49,23.49,0,0,1,.46,10.59l.81,1.8-1,3.88-10.67,2.23-17.73,1.7s-9.16-1.13-12.59-1.13-71.46.61-71.46.61L8.26,41.16,39.7,40.6S78.68,40.07,85.72,39Z" class="svgShape colorceddf1-12 selectable"></path><path fill="#991616" d="M39.7,40.58s40.66-.85,46-1.73c2.69-.45,9.73-3.61,17.54-4.49,8,2.22,16.29.55,20.81-.2l1,2.42-1.21,4-10.71,2.13L95.46,44.54s-8.33-.89-11.76-.89-71.63.89-71.63.89L8.26,41.18Z" class="svgShape color164b99-13 selectable"></path><path fill="none" stroke="#991616" stroke-width=".5" d="M124,34.17c.64-4.34.68-6.1-.41-10.13l1.08-3.75-4.88-1.07-5.68-2.68-5.69-2.68,1.63-1.07C87.65,9.31,71.1,8,61.9,10.64A105.26,105.26,0,0,0,37,21.36c-16.24,1.08-22.2,3.76-27.61,7.51L9.92,31,8.29,32.62l.54,3.76,1.63,1.07v1.61L8.29,41.2" class="svgStroke colorStroke164b99-14 selectable"></path><path fill="url(#a)" d="M106.3,14.36,108,13.8l12,5.66h-2.29Z" class="svgShape colorgradient-15 selectable"></path><path fill="none" stroke="#b42222" stroke-width=".35" d="M124.62,20.41C113.78,27.08,92.76,37.92,85.72,39s-49.24,1.63-49.24,1.63L8.33,41.1" class="svgStroke colorStroke226ab4-16 selectable"></path><path fill="#13487f" d="M66,20.23c2.62-.08,3.08-.11,5.78-.24,0,0,1.08-1.32.88-2.31s-2.34-1.79-3.49-1.3a2.39,2.39,0,0,0-.32.16,3,3,0,0,0-.7.51A10.75,10.75,0,0,0,66,20.23Z" class="svgShape color13487f-17 selectable"></path><path fill="#13487f" d="M66,20.23c2.62-.08,3.08-.11,5.78-.24,0,0,1.08-1.32.88-2.31s-2.34-1.79-3.49-1.3a2.39,2.39,0,0,0-.32.16,3,3,0,0,0-.7.51A10.75,10.75,0,0,0,66,20.23Z" class="svgShape color13487f-18 selectable"></path><path fill="#7f1313" d="M66 20.23c2.62-.08 3.08-.11 5.78-.24 0 0 1.08-1.32.88-2.31s-2.34-1.79-3.49-1.3a2.39 2.39 0 00-.32.16 3 3 0 00-.7.51A10.75 10.75 0 0066 20.23zM92.22 19.15c2.51-.43 2.14-.32 4.78-.77 0 0 .7-1.45.46-2.12s-2.8-1.07-3.18-.85a1.87 1.87 0 00-.29.2 2.81 2.81 0 00-.63.6A8.58 8.58 0 0092.22 19.15z" class="svgShape color13487f-19 selectable"></path><path fill="#13487f" d="M92.22,19.15c2.51-.43,2.14-.32,4.78-.77,0,0,.7-1.45.46-2.12s-2.8-1.07-3.18-.85a1.87,1.87,0,0,0-.29.2,2.81,2.81,0,0,0-.63.6A8.58,8.58,0,0,0,92.22,19.15Z" class="svgShape color13487f-20 selectable"></path><path fill="#7f1313" d="M92.22,19.15c2.51-.43,2.14-.32,4.78-.77,0,0,.7-1.45.46-2.12s-2.8-1.07-3.18-.85a1.87,1.87,0,0,0-.29.2,2.81,2.81,0,0,0-.63.6A8.58,8.58,0,0,0,92.22,19.15Z" class="svgShape color13487f-21 selectable"></path><path fill="#e39d9d" d="M35.73,27.26l-1.07-.49c20.49-1.71,35.29-2.13,67.51-1.94-24.92.93-39.3.74-63.95,2.87A5,5,0,0,1,35.73,27.26Z" class="svgShape color9dbce3-22 selectable"></path><path fill="none" stroke="#be3939" stroke-width=".25" d="M72,11.25l-2.4,9.52c-1.72,3.18-2.37,9.65-2,19.07M40.29,21.42c-1.47,6.33-1.68,10.8,0,18.9M95.64,18.77s3.73,3.69,3.73,8.26" class="svgStroke colorStroke397abe-23 selectable"></path><path fill="#991616" d="M14.07,37.76a13.18,13.18,0,0,1,26.27,2.15c-.4,4.84-.74,4.31-16.63,5.33C14.73,44.6,13.47,44.94,14.07,37.76Z" class="svgShape color164b99-24 selectable"></path><circle cx="27.37" cy="38.13" r="10.29" fill="#d27373" class="svgShape color739cd2-25 selectable"></circle><path fill="#991616" d="M27.37,46.46a8.33,8.33,0,1,1,8.33-8.33A8.32,8.32,0,0,1,27.37,46.46Z" class="svgShape color164b99-26 selectable"></path><path fill="#f7fcfe" d="M27.31 40l.52 5.45a.48.48 0 01-.62.52l-4.35-1.26 3.05-1.28a1 1 0 00.56-.62zM25.15 38.66L19.9 40.82a.48.48 0 01-.67-.44L19.13 36l2.2 2.4a1 1 0 00.75.32zM25.76 36.25L22 32.14a.5.5 0 01.21-.8l4.24-1.44-1.67 2.75a1 1 0 00-.08.85zM28.33 36.08l2.92-4.72a.49.49 0 01.8-.05L34.8 34.8l-3.26-.7a1 1 0 00-.79.17zM29.29 38.38l5.53 1.23a.48.48 0 01.29.76l-2.55 3.56-.32-3.18A1 1 0 0031.8 40z" class="svgShape colorf7fcfe-27 selectable"></path><path fill="#991616" d="M91,38.2c0-6.85,5.9-12.41,13.18-12.41s13.19,5.56,13.19,12.41c0,4.62-2,4.15-16.13,6.34C93.35,43.75,91,45.05,91,38.2Z" class="svgShape color164b99-28 selectable"></path><circle cx="104.79" cy="38.13" r="10.29" fill="#d27373" class="svgShape color739cd2-29 selectable"></circle><path fill="#991616" d="M104.79,46.46a8.33,8.33,0,1,1,8.33-8.33A8.32,8.32,0,0,1,104.79,46.46Z" class="svgShape color164b99-30 selectable"></path><path fill="#f7fcfe" d="M104.74 40l.51 5.45a.49.49 0 01-.62.52l-4.35-1.26 3-1.28a1 1 0 00.56-.62zM102.57 38.66l-5.25 2.16a.48.48 0 01-.67-.44L96.55 36l2.2 2.4a1 1 0 00.75.32zM103.18 36.25l-3.72-4.11a.5.5 0 01.21-.8l4.24-1.44-1.67 2.75a1 1 0 00-.08.85zM105.75 36.08l2.92-4.72a.49.49 0 01.8-.05l2.75 3.49L109 34.1a1 1 0 00-.79.17zM106.71 38.38l5.53 1.23a.48.48 0 01.29.76L110 43.93l-.32-3.18a1 1 0 00-.44-.72z" class="svgShape colorf7fcfe-31 selectable"></path></svg></g></svg>