<svg id="SvgjsSvg1074" width="288" height="288" xmlns="http://www.w3.org/2000/svg" version="1.1" xmlns:xlink="http://www.w3.org/1999/xlink" xmlns:svgjs="http://svgjs.com/svgjs"><defs id="SvgjsDefs1075"></defs><g id="SvgjsG1076"><svg xmlns="http://www.w3.org/2000/svg" viewBox="0 0 140 52" width="288" height="288"><path fill="#5f1a1a" d="M32.26 47.21a16.52 16.52 0 005-8.78l-4.61-.34L22.11 48.25zM103.64 47.21a16.52 16.52 0 01-5-8.78l4.62-.34L113.8 48.25z" class="svgShape color1a345f-0 selectable"></path><ellipse cx="70" cy="48.22" fill="#991616" rx="68.6" ry="1.79" class="svgShape color164b99-1 selectable"></ellipse><path fill="#fff" fill-opacity=".6" d="M123.45,38.25l13.25-4.62A2,2,0,0,0,138,32.05l.61-4.29-.78-.66.78-7.29-.6-.58V15.47a2,2,0,0,0-2-2l-37.89.31a1,1,0,0,1-1-.91l-.57-8.26a1.94,1.94,0,0,0-1.8-1.8C91.05,2.58,81.75,2,73.16,2,65,2,58.1,2.36,54.77,2.57a7.64,7.64,0,0,0-3.88,1.37L37,13.68a6.94,6.94,0,0,1-3.81,1.24c-14.05.37-20.53,1.33-28.41,2.87a2,2,0,0,0-1.57,1.8L2.8,26.53l.51,1.67v1.91l-.79.66v3.05a2,2,0,0,0,1.06,1.74l7.58,3.92,23.18-.77h67.73Z" class="svgShape colorffffff-2 selectable"></path><path fill="#f1cece" d="M123.45,38.25l13.25-4.62A2,2,0,0,0,138,32.05l.61-4.29-.78-.66.78-7.29-.6-.58V15.47a2,2,0,0,0-2-2l-37.89.31a1,1,0,0,1-1-.91l-.57-8.26a1.94,1.94,0,0,0-1.8-1.8C91.05,2.58,81.75,2,73.16,2,65,2,58.1,2.36,54.77,2.57a7.64,7.64,0,0,0-3.88,1.37L37,13.68a6.94,6.94,0,0,1-3.81,1.24c-14.05.37-20.53,1.33-28.41,2.87a2,2,0,0,0-1.57,1.8L2.8,26.53l.51,1.67v1.91l-.79.66v3.05a2,2,0,0,0,1.06,1.74l7.58,3.92,23.18-.77h67.73Z" class="svgShape colorceddf1-3 selectable"></path><path fill="#fef7f7" d="M80.9,28.42,3.45,28.16c-.66-3.89-.39-8.61.46-10.43C14.17,15.18,21.3,15,38.83,14.35L54.33,4.18,73.9,3.63l14.6.28L91,4.07A2,2,0,0,1,92.79,6v8.12a7.85,7.85,0,0,1-1.64,4.8l-5.58,7.2A5.91,5.91,0,0,1,80.9,28.42Z" class="svgShape colorf7fcfe-4 selectable"></path><path fill="#fff" d="M89.27,11.82l-5.72,3.23a5.92,5.92,0,0,1-2.79.76l-27.63.46H11.89c10.55-1.25,15.91-1.5,27.4-1.93l15-10.4,19.54-.48,15.44.45a1,1,0,0,1,1,1v5.23A2,2,0,0,1,89.27,11.82Z" class="svgShape colorffffff-5 selectable"></path><path fill="#991616" d="M124.18,38.4l12.59-4.73A2,2,0,0,0,138,32l.37-5.55S136,28.18,134.6,29s-21.32,4.76-21.32,4.76L100,32.25l-79.44.9-8.91-5.27H8.84a1,1,0,0,1-1-1v-4a1,1,0,0,0-1-1H3v4.3l.51,1.67V29.8l-1.14.72v3.07a2,2,0,0,0,1,1.73L12.15,40l22.2-.84h67.77Z" class="svgShape color164b99-6 selectable"></path><path fill="#481212" d="M17.17,22.15c4.19-.17,9-.07,12,0a4.48,4.48,0,0,1,4,2.68,58.69,58.69,0,0,1,4.12,13.72L11.33,39,8.81,37.74c1.13-5.66,2.2-9,4.57-13.26A4.53,4.53,0,0,1,17.17,22.15Z" class="svgShape color122448-7 selectable"></path><path fill="none" stroke="#991616" d="M8.55,37.94a42.49,42.49,0,0,1,4.58-13.58A4.53,4.53,0,0,1,16.94,22c4.24-.17,9.11-.06,12,0a4.44,4.44,0,0,1,3.92,2.51A52.81,52.81,0,0,1,37.5,38.83" class="svgStroke colorStroke164b99-8 selectable"></path><path fill="#481212" d="M106.93,22.71c4.38-.18,9.43-.08,12.37,0A4.21,4.21,0,0,1,123,25a34.11,34.11,0,0,1,3.62,12.37l-3.17,1.16L101.17,39h-3a44.89,44.89,0,0,1,5-13.94A4.5,4.5,0,0,1,106.93,22.71Z" class="svgShape color122448-9 selectable"></path><path fill="none" stroke="#991616" d="M97.87,38.87A45.67,45.67,0,0,1,103,24.72a4.53,4.53,0,0,1,3.77-2.31c4.41-.17,9.53-.05,12.5.05A4.32,4.32,0,0,1,123,24.71a41.28,41.28,0,0,1,4.22,12.51" class="svgStroke colorStroke164b99-10 selectable"></path><path fill="#991616" stroke="#991616" d="M88.94,8.93V4.79a.49.49,0,0,0-.47-.49c-12.39-.49-20.22-.52-32.24,0a6.45,6.45,0,0,0-3.22,1L39.76,14l40.68-.28a9.37,9.37,0,0,0,4.22-1l3-1.54A2.45,2.45,0,0,0,88.94,8.93Z" class="svgShape color164b99-11 svgStroke colorStroke164b99-11 selectable"></path><path fill="#7f1313" d="M62.16,14.24c2.82,0,2.51.14,4.9,0a5.79,5.79,0,0,0,0-2c-.19-1-.64-1.1-2.62-1.1a1.24,1.24,0,0,0-.86.48A7.85,7.85,0,0,0,62.16,14.24Z" class="svgShape color13487f-12 selectable"></path><path fill="#7f1313" d="M62.16,14.24c2.82,0,2.51.14,4.9,0a5.79,5.79,0,0,0,0-2c-.19-1-.64-1.1-2.62-1.1a1.24,1.24,0,0,0-.86.48A7.85,7.85,0,0,0,62.16,14.24Z" class="svgShape color13487f-13 selectable"></path><path fill="#7f1313" d="M62.16,14.24c2.82,0,2.51.14,4.9,0a5.79,5.79,0,0,0,0-2c-.19-1-.64-1.1-2.62-1.1a1.24,1.24,0,0,0-.86.48A7.85,7.85,0,0,0,62.16,14.24Z" class="svgShape color13487f-14 selectable"></path><path fill="#991616" d="M71.44,3.55h-3L66.08,14.24H71Z" class="svgShape color164b99-15 selectable"></path><path fill="#7f1313" d="M83.72,12.94c.89,0,1-.17,2.45-.66,0,0,2.56-1.25,2.45-2C88.54,9.8,87,9.6,85.85,10l-.33.14a3.42,3.42,0,0,0-.73.49C84.36,11.05,84.22,11.46,83.72,12.94Z" class="svgShape color13487f-16 selectable"></path><path fill="#7f1313" d="M83.72,12.94c.89,0,1-.17,2.45-.66,0,0,2.56-1.25,2.45-2C88.54,9.8,87,9.6,85.85,10l-.33.14a3.42,3.42,0,0,0-.73.49C84.36,11.05,84.22,11.46,83.72,12.94Z" class="svgShape color13487f-17 selectable"></path><path fill="#7f1313" d="M83.72,12.94c.89,0,1-.17,2.45-.66,0,0,2.56-1.25,2.45-2C88.54,9.8,87,9.6,85.85,10l-.33.14a3.42,3.42,0,0,0-.73.49C84.36,11.05,84.22,11.46,83.72,12.94Z" class="svgShape color13487f-18 selectable"></path><path fill="none" stroke="#991616" stroke-width=".25" d="M66.53,14c-1.29,3.66-1.46,8.37-.86,18.57M39.2,14.44c-2,1.45-2.21,4-2.41,5.82-.17,3.63-.11,5.83,1.56,12.67" class="svgStroke colorStroke164b99-19 selectable"></path><path fill="#fff" d="M97.29,13.56l38.82-.32,1.42.87.38,1.19-38.65.32a2,2,0,0,1-2-2Z" class="svgShape colorffffff-20 selectable"></path><path fill="none" stroke="#991616" stroke-width=".35" d="M138.34,26.41l-.67-.71.93-6.21-.6-.58V15.16a2,2,0,0,0-2-2l-37.88.3a1,1,0,0,1-1-.92l-.45-7.86a1.94,1.94,0,0,0-1.78-1.83C91.29,2.61,82.31,2,73.77,2c-8.2,0-15.62.3-19.17.48a7.58,7.58,0,0,0-4,1.39L37,13.36a7,7,0,0,1-3.81,1.25C19.15,15,12.67,15.93,4.79,17.47a2,2,0,0,0-1.57,1.81L2.8,26.21l.51,1.67V29.8l-.79.65" class="svgStroke colorStroke164b99-21 selectable"></path><ellipse cx="112.52" cy="37.41" fill="#991616" rx="11.48" ry="11.41" class="svgShape color164b99-22 selectable"></ellipse><path fill="#991616" stroke="#fff" d="M120.36,37.4a7.84,7.84,0,1,0-7.84,7.78A7.81,7.81,0,0,0,120.36,37.4Z" class="svgShape color164b99-23 svgStroke colorStrokeffffff-23 selectable"></path><path fill="#fff" d="M111.82 40a.49.49 0 00-.49.49v3.13a.49.49 0 00.48.49h1.26a.48.48 0 00.5-.49V40.48a.49.49 0 00-.49-.49zM114.57 38.92a.49.49 0 00.32.62l3 1a.5.5 0 00.62-.32L118.9 39a.48.48 0 00-.31-.62l-3-1a.48.48 0 00-.62.31zM114.41 36a.49.49 0 00.68-.1L117 33.35a.5.5 0 00-.11-.69l-1-.73a.49.49 0 00-.68.11l-1.86 2.54a.5.5 0 00.11.69zM111.54 35.25a.48.48 0 00.11-.68L109.81 32a.48.48 0 00-.68-.11l-1 .72a.5.5 0 00-.11.69l1.85 2.53a.48.48 0 00.68.11zM110 37.71a.5.5 0 00-.62-.31l-3 1A.48.48 0 00106 39l.37 1.18a.5.5 0 00.62.32l3-1a.48.48 0 00.31-.62z" class="svgShape colorffffff-24 selectable"></path><ellipse cx="22.73" cy="37.4" fill="#991616" rx="11.48" ry="11.41" class="svgShape color164b99-25 selectable"></ellipse><path fill="#991616" stroke="#fff" d="M30.56,37.4a7.84,7.84,0,1,0-7.84,7.78A7.81,7.81,0,0,0,30.56,37.4Z" class="svgShape color164b99-26 svgStroke colorStrokeffffff-26 selectable"></path><path fill="#fff" d="M22 40a.49.49 0 00-.49.49v3.13a.49.49 0 00.48.49h1.26a.5.5 0 00.5-.49V40.48a.49.49 0 00-.49-.49zM24.77 38.92a.49.49 0 00.32.62l3 1a.48.48 0 00.62-.31L29.1 39a.49.49 0 00-.32-.62l-3-1a.49.49 0 00-.61.32zM24.61 36a.49.49 0 00.68-.1l1.86-2.54a.5.5 0 00-.11-.69l-1-.73a.49.49 0 00-.68.11L23.5 34.58a.5.5 0 00.11.69zM21.74 35.25a.48.48 0 00.11-.68L20 32a.48.48 0 00-.68-.11l-1 .72a.49.49 0 00-.11.69l1.85 2.53a.48.48 0 00.68.11zM20.15 37.71a.5.5 0 00-.62-.31l-3 1a.48.48 0 00-.32.61l.37 1.18a.49.49 0 00.62.32l3-1a.48.48 0 00.31-.62z" class="svgShape colorffffff-27 selectable"></path></svg></g></svg>