<svg xmlns="http://www.w3.org/2000/svg" xmlns:xlink="http://www.w3.org/1999/xlink" width="2000" zoomAndPan="magnify" viewBox="0 0 1500 1499.999933" height="2000" preserveAspectRatio="xMidYMid meet" version="1.0"><defs><g/><clipPath id="b869b2ef02"><path d="M 469.644531 899.558594 L 1302 899.558594 L 1302 917 L 469.644531 917 Z M 469.644531 899.558594 " clip-rule="nonzero"/></clipPath><clipPath id="dc6b1bf591"><path d="M 626 925 L 1302.894531 925 L 1302.894531 997 L 626 997 Z M 626 925 " clip-rule="nonzero"/></clipPath><clipPath id="f4c3787ac0"><path d="M 130 507 L 751.015625 507 L 751.015625 948 L 130 948 Z M 130 507 " clip-rule="nonzero"/></clipPath><clipPath id="288a7155c7"><path d="M 2 1 L 621.015625 1 L 621.015625 441 L 2 441 Z M 2 1 " clip-rule="nonzero"/></clipPath><clipPath id="adfc092064"><rect x="0" width="622" y="0" height="441"/></clipPath><clipPath id="2204c76153"><path d="M 199 964 L 1090 964 L 1090 1030 L 199 1030 Z M 199 964 " clip-rule="nonzero"/></clipPath><clipPath id="b9c1ff2c8e"><path d="M 198.804688 1013.570312 L 1088.746094 954.777344 L 1090.453125 980.597656 L 200.507812 1039.386719 Z M 198.804688 1013.570312 " clip-rule="nonzero"/></clipPath><clipPath id="9e3a3c2cce"><path d="M 643.738281 984.175781 C 398.007812 1000.410156 199.183594 1019.347656 199.65625 1026.476562 C 200.125 1033.609375 399.710938 1026.226562 645.441406 1009.996094 C 891.171875 993.761719 1089.996094 974.824219 1089.523438 967.691406 C 1089.054688 960.5625 889.46875 967.941406 643.738281 984.175781 Z M 643.738281 984.175781 " clip-rule="nonzero"/></clipPath><clipPath id="605c146f03"><path d="M 0 0 L 891 0 L 891 66 L 0 66 Z M 0 0 " clip-rule="nonzero"/></clipPath><clipPath id="2355fe85a9"><path d="M -0.195312 49.570312 L 889.746094 -9.222656 L 891.453125 16.597656 L 1.507812 75.386719 Z M -0.195312 49.570312 " clip-rule="nonzero"/></clipPath><clipPath id="f4d4629989"><path d="M 444.738281 20.175781 C 199.007812 36.410156 0.183594 55.347656 0.65625 62.476562 C 1.125 69.609375 200.710938 62.226562 446.441406 45.996094 C 692.171875 29.761719 890.996094 10.824219 890.523438 3.691406 C 890.054688 -3.4375 690.46875 3.941406 444.738281 20.175781 Z M 444.738281 20.175781 " clip-rule="nonzero"/></clipPath><clipPath id="1e573a6054"><rect x="0" width="891" y="0" height="66"/></clipPath><clipPath id="f3fba9f306"><rect x="0" width="416" y="0" height="287"/></clipPath><clipPath id="61e4a6cfe7"><rect x="0" width="583" y="0" height="287"/></clipPath><clipPath id="fed9c5a2de"><rect x="0" width="177" y="0" height="44"/></clipPath></defs><rect x="-150" width="1800" fill="#ffffff" y="-149.999993" height="1799.99992" fill-opacity="1"/><rect x="-150" width="1800" fill="#ffffff" y="-149.999993" height="1799.99992" fill-opacity="1"/><path fill="#000000" d="M 517.199219 925.273438 L 588.886719 996.960938 L 566.925781 996.960938 L 495.238281 925.273438 Z M 517.199219 925.273438 " fill-opacity="1" fill-rule="nonzero"/><g clip-path="url(#b869b2ef02)"><path fill="#000000" d="M 1301.191406 915.105469 L 486.585938 916.621094 L 469.644531 899.679688 Z M 1301.191406 915.105469 " fill-opacity="1" fill-rule="nonzero"/></g><path fill="#000000" d="M 550.332031 925.273438 L 622.011719 996.960938 L 598.59375 996.960938 L 526.90625 925.273438 Z M 550.332031 925.273438 " fill-opacity="1" fill-rule="nonzero"/><path fill="#000000" d="M 583.984375 925.273438 L 655.671875 996.960938 L 631.71875 996.960938 L 560.039062 925.273438 Z M 583.984375 925.273438 " fill-opacity="1" fill-rule="nonzero"/><path fill="#000000" d="M 617.289062 925.273438 L 688.976562 996.960938 L 665.378906 996.960938 L 593.691406 925.273438 Z M 617.289062 925.273438 " fill-opacity="1" fill-rule="nonzero"/><g clip-path="url(#dc6b1bf591)"><path fill="#00cc5d" d="M 791.371094 958.660156 L 829.675781 996.960938 L 698.683594 996.960938 L 626.996094 925.273438 L 1302.589844 925.273438 Z M 791.371094 958.660156 " fill-opacity="1" fill-rule="nonzero"/></g><g clip-path="url(#f4c3787ac0)"><g transform="matrix(1, 0, 0, 1, 130, 507)"><g clip-path="url(#adfc092064)"><g clip-path="url(#288a7155c7)"><path fill="#000000" d="M 233.171875 3.929688 C 85.945312 28.402344 -12.96875 233.203125 24.949219 369.398438 C 25.074219 369.78125 24.820312 370.035156 24.566406 370.160156 C 24.316406 370.289062 23.933594 370.160156 23.808594 369.90625 C -14.234375 301.429688 1.234375 207.589844 43.210938 132.261719 C 88.480469 50.976562 164.566406 -9.132812 233.046875 2.789062 C 233.300781 2.789062 233.554688 3.042969 233.554688 3.421875 C 233.554688 3.804688 233.425781 3.929688 233.171875 3.929688 M 383.316406 133.148438 C 380.78125 106.898438 374.820312 77.988281 349.585938 64.039062 C 298.226562 35.503906 220.238281 113.875 167.863281 206.828125 C 115.492188 299.527344 88.734375 406.808594 139.710938 435.976562 C 146.6875 439.90625 155.183594 441.300781 164.695312 440.539062 L 371.015625 420.757812 L 216.8125 423.039062 C 225.308594 418.601562 233.679688 413.53125 241.667969 408.078125 L 621.34375 387.027344 L 265.507812 390.195312 C 272.484375 384.363281 278.699219 378.53125 283.898438 372.949219 L 500.996094 355.957031 L 297.972656 354.816406 L 284.53125 354.941406 L 283.136719 354.941406 C 243.953125 397.550781 193.859375 429.507812 166.089844 413.910156 C 90.003906 370.921875 268.171875 55.160156 344.257812 98.023438 C 358.84375 106.265625 365.308594 126.554688 365.945312 151.917969 L 368.734375 151.917969 L 605.363281 149.636719 Z M 383.316406 133.148438 " fill-opacity="1" fill-rule="evenodd"/></g><path fill="#00cc5d" d="M 266.398438 21.429688 C 284.023438 22.699219 303.046875 30.050781 316.488281 39.816406 C 307.992188 26.121094 280.472656 17.5 266.398438 21.429688 M 230.257812 58.332031 C 242.558594 54.273438 257.519531 55.414062 269.695312 60.613281 C 259.550781 50.214844 238.5 50.34375 230.257812 58.332031 Z M 210.347656 57.191406 C 217.066406 45.523438 234.441406 43.113281 235.835938 30.179688 C 236.214844 27.390625 236.214844 24.472656 236.089844 21.683594 C 235.960938 20.542969 235.960938 19.527344 235.835938 18.386719 C 235.707031 17.246094 235.582031 16.230469 235.328125 15.089844 C 235.203125 14.582031 235.074219 14.203125 234.820312 13.820312 C 234.566406 13.441406 234.1875 13.058594 233.808594 12.804688 C 233.425781 12.550781 232.917969 12.425781 232.539062 12.300781 C 232.03125 12.171875 231.652344 12.171875 231.144531 12.300781 C 219.222656 15.089844 207.050781 19.402344 195.003906 25.105469 C 182.957031 30.8125 171.035156 37.789062 159.242188 46.15625 L 158.859375 46.539062 C 158.355469 47.046875 157.972656 47.804688 157.847656 48.441406 C 157.71875 49.328125 157.847656 50.214844 158.480469 50.976562 C 160.003906 53.132812 161.523438 55.414062 162.792969 57.699219 C 164.0625 59.980469 165.203125 62.261719 166.089844 64.546875 C 166.851562 66.574219 167.609375 68.476562 168.246094 70.503906 C 168.753906 72.40625 169.261719 74.4375 169.640625 76.464844 C 169.765625 77.351562 170.273438 78.242188 171.035156 78.75 C 171.796875 79.253906 172.683594 79.507812 173.570312 79.382812 C 178.261719 78.621094 182.957031 78.367188 187.773438 78.367188 C 192.59375 78.367188 197.664062 78.75 202.738281 79.507812 C 209.078125 80.398438 215.417969 81.917969 221.757812 84.074219 C 227.972656 86.101562 234.1875 88.640625 240.402344 91.808594 C 241.035156 92.0625 241.667969 92.191406 242.429688 92.191406 C 243.0625 92.0625 243.699219 91.808594 244.332031 91.429688 C 250.925781 85.851562 257.648438 80.777344 264.242188 76.085938 C 270.835938 71.394531 277.558594 67.082031 284.40625 63.152344 C 284.910156 62.898438 285.292969 62.390625 285.671875 61.882812 C 285.925781 61.375 286.179688 60.867188 286.179688 60.234375 C 286.179688 59.601562 286.054688 59.09375 285.800781 58.585938 C 285.546875 58.078125 285.164062 57.570312 284.65625 57.316406 C 282.121094 55.667969 279.585938 54.148438 276.921875 52.75 C 253.460938 40.832031 231.777344 39.691406 210.347656 57.191406 Z M 186.125 86.484375 C 163.933594 86.484375 152.265625 95.867188 142.503906 108.550781 C 146.179688 97.136719 161.90625 87.246094 159.496094 73.800781 C 158.859375 70.503906 157.972656 67.335938 156.578125 64.039062 C 155.945312 62.644531 155.3125 61.25 154.675781 59.980469 C 153.914062 58.585938 153.28125 57.316406 152.394531 55.921875 C 152.140625 55.667969 152.011719 55.289062 151.632812 55.160156 C 151.378906 54.90625 151 54.78125 150.617188 54.78125 C 150.238281 54.78125 149.859375 54.78125 149.605469 54.78125 C 149.222656 54.90625 148.96875 55.035156 148.714844 55.289062 C 137.050781 64.546875 125.636719 75.070312 114.730469 86.863281 C 104.078125 98.277344 94.0625 110.832031 84.675781 124.398438 C 84.296875 124.90625 84.167969 125.542969 84.296875 126.046875 C 84.296875 126.683594 84.550781 127.191406 85.058594 127.570312 C 87.464844 129.851562 89.621094 132.261719 91.652344 134.796875 C 93.679688 137.335938 95.457031 139.871094 97.105469 142.535156 C 98.371094 144.691406 99.511719 146.71875 100.527344 148.875 C 101.542969 151.03125 102.429688 153.1875 103.0625 155.34375 C 103.191406 155.722656 103.316406 155.976562 103.570312 156.230469 C 103.824219 156.484375 104.078125 156.738281 104.460938 156.863281 C 104.710938 156.992188 105.09375 157.117188 105.472656 157.117188 C 105.855469 157.117188 106.109375 157.117188 106.488281 156.992188 C 111.308594 155.089844 116.378906 153.566406 121.832031 152.550781 C 127.285156 151.539062 132.863281 150.902344 138.570312 150.777344 C 145.164062 150.648438 152.140625 151.03125 159.113281 152.171875 C 166.089844 153.1875 173.0625 154.835938 180.039062 157.117188 C 180.546875 157.246094 181.054688 157.246094 181.558594 157.117188 C 182.066406 156.992188 182.449219 156.609375 182.828125 156.230469 C 190.691406 145.703125 198.808594 135.6875 207.175781 126.300781 C 215.671875 116.792969 224.421875 108.042969 233.300781 99.925781 C 233.554688 99.671875 233.808594 99.292969 233.933594 98.910156 C 234.058594 98.53125 234.058594 98.148438 234.058594 97.644531 C 233.933594 97.261719 233.808594 96.882812 233.554688 96.5 C 233.300781 96.121094 232.917969 95.867188 232.539062 95.742188 C 227.972656 93.710938 223.410156 92.0625 218.714844 90.667969 C 214.023438 89.273438 209.332031 88.257812 204.640625 87.5 C 198.425781 86.355469 192.210938 86.101562 186.125 86.484375 Z M 102.175781 188.945312 C 116.378906 179.5625 136.035156 171.953125 154.167969 171.953125 C 136.035156 164.980469 108.769531 175.757812 102.175781 188.945312 Z M 157.847656 160.667969 C 152.773438 160.035156 147.703125 159.78125 142.757812 159.90625 C 135.65625 160.035156 128.808594 161.046875 122.339844 162.699219 C 98.753906 167.644531 87.214844 187.679688 78.589844 205.8125 C 80.871094 190.597656 97.230469 169.417969 92.03125 154.074219 C 90.890625 150.648438 89.242188 147.226562 87.214844 143.929688 C 86.324219 142.40625 85.3125 141.011719 84.296875 139.617188 C 83.28125 138.222656 82.140625 136.828125 81 135.433594 C 80.746094 135.179688 80.492188 135.050781 80.238281 134.925781 C 79.984375 134.796875 79.605469 134.796875 79.351562 134.796875 C 78.96875 134.796875 78.714844 134.925781 78.464844 135.050781 C 78.210938 135.179688 77.957031 135.433594 77.828125 135.6875 C 76.5625 137.714844 75.164062 139.871094 73.898438 142.027344 C 72.628906 144.054688 71.363281 146.210938 70.09375 148.496094 C 61.976562 162.699219 54.875 177.027344 49.042969 191.355469 C 43.082031 206.066406 38.265625 220.902344 34.714844 235.488281 C 34.585938 235.867188 34.585938 236.375 34.839844 236.753906 C 34.964844 237.136719 35.21875 237.515625 35.601562 237.769531 C 38.390625 239.671875 40.925781 241.828125 43.464844 243.984375 C 46 246.140625 48.28125 248.421875 50.566406 250.703125 C 52.464844 252.734375 54.242188 254.761719 55.890625 256.917969 C 57.539062 259.074219 59.1875 261.230469 60.582031 263.386719 C 60.710938 263.640625 60.964844 263.894531 61.214844 264.019531 C 61.46875 264.144531 61.722656 264.273438 61.976562 264.273438 C 62.230469 264.273438 62.484375 264.273438 62.863281 264.273438 C 63.117188 264.144531 63.371094 264.019531 63.625 263.894531 C 67.429688 260.847656 71.742188 258.441406 76.433594 256.410156 C 81.125 254.382812 86.199219 252.859375 91.652344 251.84375 C 97.105469 250.832031 102.8125 250.324219 108.769531 250.324219 C 114.605469 250.324219 120.691406 250.957031 126.90625 252.097656 C 127.410156 252.226562 127.917969 252.097656 128.300781 251.84375 C 128.679688 251.59375 129.0625 251.210938 129.1875 250.832031 C 132.863281 241.828125 136.796875 232.824219 141.234375 223.945312 C 145.546875 215.070312 150.238281 206.195312 155.3125 197.445312 C 158.355469 192.117188 161.523438 186.917969 164.695312 181.847656 C 167.863281 176.773438 171.289062 171.699219 174.585938 166.882812 C 174.839844 166.628906 174.964844 166.246094 174.964844 165.996094 C 174.964844 165.613281 174.964844 165.359375 174.839844 164.980469 C 174.710938 164.597656 174.585938 164.347656 174.332031 164.21875 C 174.078125 163.964844 173.824219 163.839844 173.445312 163.710938 C 168.117188 162.316406 162.917969 161.300781 157.847656 160.667969 Z M 71.363281 294.582031 C 81.125 283.800781 95.710938 274.292969 110.164062 272.261719 C 94.695312 267.316406 74.660156 280.757812 71.363281 294.582031 Z M 109.660156 260.59375 C 78.210938 261.484375 57.285156 273.65625 56.398438 308.023438 C 52.214844 284.816406 59.0625 273.65625 41.6875 255.394531 C 40.546875 254.253906 39.40625 253.113281 38.265625 251.972656 C 37.121094 250.832031 35.855469 249.816406 34.585938 248.800781 C 34.332031 248.675781 34.078125 248.546875 33.824219 248.421875 C 33.570312 248.421875 33.316406 248.421875 33.066406 248.546875 C 32.8125 248.675781 32.558594 248.800781 32.429688 249.054688 C 32.304688 249.308594 32.175781 249.5625 32.050781 249.816406 C 29.261719 264.273438 27.613281 278.347656 27.230469 292.042969 C 26.722656 305.742188 27.484375 319.054688 29.386719 331.609375 C 29.386719 331.863281 29.515625 332.117188 29.640625 332.242188 C 29.765625 332.371094 29.894531 332.625 30.148438 332.75 C 33.445312 334.652344 36.488281 336.683594 39.53125 338.710938 C 42.574219 340.742188 45.617188 343.023438 48.535156 345.304688 C 50.816406 347.082031 53.101562 348.855469 55.257812 350.757812 C 57.414062 352.660156 59.695312 354.5625 61.851562 356.589844 C 61.976562 356.71875 62.230469 356.84375 62.484375 356.972656 C 62.738281 357.097656 62.863281 357.097656 63.117188 357.097656 C 63.371094 357.097656 63.625 356.972656 63.753906 356.84375 C 64.007812 356.71875 64.132812 356.589844 64.261719 356.339844 C 66.035156 353.675781 68.191406 351.265625 70.601562 349.109375 C 73.011719 346.828125 75.671875 344.925781 78.589844 343.148438 C 82.140625 340.992188 86.070312 339.34375 90.257812 337.949219 C 94.441406 336.554688 98.878906 335.667969 103.570312 335.160156 C 103.953125 335.160156 104.207031 334.90625 104.460938 334.78125 C 104.710938 334.527344 104.839844 334.273438 104.964844 333.890625 C 106.742188 322.480469 109.152344 310.8125 112.195312 299.019531 C 115.238281 287.351562 119.042969 275.433594 123.355469 263.511719 C 123.480469 263.257812 123.480469 263.003906 123.480469 262.75 C 123.480469 262.496094 123.355469 262.242188 123.226562 262.117188 C 123.101562 261.863281 122.972656 261.738281 122.71875 261.609375 C 122.464844 261.484375 122.339844 261.355469 122.085938 261.355469 C 118.027344 260.722656 113.84375 260.59375 109.660156 260.59375 Z M 73.136719 371.175781 C 76.179688 363.691406 81.632812 357.605469 88.734375 353.292969 C 92.539062 351.011719 96.851562 349.238281 101.542969 348.09375 C 101.796875 348.09375 101.921875 348.09375 102.050781 348.222656 C 102.175781 348.347656 102.304688 348.601562 102.304688 348.730469 C 98.5 385.25 100.527344 397.804688 110.292969 425.703125 C 110.417969 425.957031 110.292969 426.210938 110.039062 426.335938 C 109.785156 426.464844 109.53125 426.589844 109.277344 426.464844 C 105.347656 424.183594 98.878906 420.503906 96.089844 418.855469 C 60.457031 398.691406 47.015625 390.703125 35.09375 349.871094 C 34.964844 349.617188 35.09375 349.363281 35.347656 349.238281 C 35.601562 349.109375 35.855469 349.109375 36.109375 349.238281 C 37.757812 350.503906 39.53125 351.644531 41.054688 352.914062 C 48.15625 358.367188 54.75 364.453125 60.710938 370.792969 C 63.5 373.839844 78.210938 395.140625 78.335938 395.140625 C 78.84375 395.015625 69.714844 382.839844 73.136719 371.175781 Z M 270.074219 40.324219 C 262.972656 37.660156 255.617188 35.757812 248.261719 34.871094 C 247.882812 34.871094 247.628906 34.492188 247.757812 34.238281 C 248.136719 31.066406 248.136719 27.898438 248.007812 24.601562 C 247.882812 21.300781 247.375 18.003906 246.613281 14.707031 C 246.613281 14.582031 246.613281 14.328125 246.742188 14.203125 C 246.867188 14.074219 246.996094 13.949219 247.25 13.949219 C 284.910156 10.523438 308.878906 25.105469 329.804688 42.480469 C 330.054688 42.605469 330.183594 42.859375 330.054688 43.242188 C 329.929688 43.496094 329.804688 43.75 329.421875 43.75 C 317.628906 44.128906 305.328125 48.820312 295.183594 53.894531 C 294.929688 54.019531 294.675781 54.019531 294.550781 53.894531 C 287.066406 48.058594 278.699219 43.496094 270.074219 40.324219 Z M 270.074219 40.324219 " fill-opacity="1" fill-rule="evenodd"/></g></g></g><g clip-path="url(#2204c76153)"><g clip-path="url(#b9c1ff2c8e)"><g clip-path="url(#9e3a3c2cce)"><g transform="matrix(1, 0, 0, 1, 199, 964)"><g clip-path="url(#1e573a6054)"><g clip-path="url(#605c146f03)"><g clip-path="url(#2355fe85a9)"><g clip-path="url(#f4d4629989)"><path fill="#000000" d="M -0.195312 49.570312 L 889.644531 -9.214844 L 891.351562 16.605469 L 1.507812 75.386719 Z M -0.195312 49.570312 " fill-opacity="1" fill-rule="nonzero"/></g></g></g></g></g></g></g></g><g transform="matrix(1, 0, 0, 1, 368, 625)"><g clip-path="url(#f3fba9f306)"><g fill="#000000" fill-opacity="1"><g transform="translate(0.664054, 213.9778)"><g><path d="M 57.65625 -115.921875 L 52.546875 -86.078125 L 99.359375 -86.078125 L 94.65625 -59.703125 L 47.84375 -59.703125 L 42.125 -27.59375 L 95.078125 -27.59375 L 90.15625 0 L 2.25 0 L 27.59375 -143.53125 L 115.515625 -143.53125 L 110.609375 -115.921875 Z M 57.65625 -115.921875 "/></g></g></g><g fill="#000000" fill-opacity="1"><g transform="translate(98.986359, 213.9778)"><g><path d="M 64 -151.296875 L 37.203125 0 L 2.25 0 L 29.03125 -151.296875 Z M 64 -151.296875 "/></g></g></g><g fill="#000000" fill-opacity="1"><g transform="translate(147.021409, 213.9778)"><g><path d="M 42.125 -125.9375 C 36.664062 -125.9375 32.332031 -127.398438 29.125 -130.328125 C 25.925781 -133.265625 24.328125 -136.984375 24.328125 -141.484375 C 24.328125 -147.617188 26.710938 -152.863281 31.484375 -157.21875 C 36.253906 -161.582031 42.046875 -163.765625 48.859375 -163.765625 C 54.316406 -163.765625 58.613281 -162.296875 61.75 -159.359375 C 64.882812 -156.429688 66.453125 -152.65625 66.453125 -148.03125 C 66.453125 -142.03125 64.066406 -136.847656 59.296875 -132.484375 C 54.523438 -128.117188 48.800781 -125.9375 42.125 -125.9375 Z M 57.25 -114.078125 L 37.203125 0 L 2.25 0 L 22.28125 -114.078125 Z M 57.25 -114.078125 "/></g></g></g><g fill="#000000" fill-opacity="1"><g transform="translate(195.056459, 213.9778)"><g><path d="M 49.6875 -39.25 C 49.550781 -38.570312 49.484375 -37.6875 49.484375 -36.59375 C 49.484375 -34.144531 50.195312 -32.375 51.625 -31.28125 C 53.050781 -30.1875 55.398438 -29.640625 58.671875 -29.640625 L 71.15625 -29.640625 L 65.828125 0 L 48.046875 0 C 25.148438 0 13.703125 -9.609375 13.703125 -28.828125 C 13.703125 -31.691406 14.039062 -35.300781 14.71875 -39.65625 L 22.90625 -85.046875 L 9 -85.046875 L 14.109375 -114.078125 L 28.015625 -114.078125 L 32.921875 -141.890625 L 67.875 -141.890625 L 62.96875 -114.078125 L 85.875 -114.078125 L 80.765625 -85.046875 L 57.859375 -85.046875 Z M 49.6875 -39.25 "/></g></g></g><g fill="#000000" fill-opacity="1"><g transform="translate(265.782085, 213.9778)"><g><path d="M 73.40625 -115.71875 C 88.125 -115.71875 99.804688 -111.726562 108.453125 -103.75 C 117.109375 -95.78125 121.4375 -84.914062 121.4375 -71.15625 C 121.4375 -66.65625 121.097656 -62.632812 120.421875 -59.09375 C 119.878906 -55.957031 119.0625 -52.613281 117.96875 -49.0625 L 38.84375 -49.0625 C 38.707031 -48.25 38.640625 -46.957031 38.640625 -45.1875 C 38.640625 -39.1875 40.273438 -34.617188 43.546875 -31.484375 C 46.816406 -28.347656 51.179688 -26.78125 56.640625 -26.78125 C 65.359375 -26.78125 72.035156 -30.460938 76.671875 -37.828125 L 113.875 -37.828125 C 108.96875 -26.242188 100.992188 -16.769531 89.953125 -9.40625 C 78.921875 -2.039062 66.519531 1.640625 52.75 1.640625 C 38.03125 1.640625 26.273438 -2.445312 17.484375 -10.625 C 8.691406 -18.8125 4.296875 -29.921875 4.296875 -43.953125 C 4.296875 -48.179688 4.703125 -52.546875 5.515625 -57.046875 C 7.566406 -68.898438 11.796875 -79.253906 18.203125 -88.109375 C 24.609375 -96.972656 32.578125 -103.789062 42.109375 -108.5625 C 51.648438 -113.332031 62.082031 -115.71875 73.40625 -115.71875 Z M 86.078125 -66.859375 C 86.347656 -68.765625 86.484375 -70.054688 86.484375 -70.734375 C 86.484375 -76.191406 84.78125 -80.382812 81.375 -83.3125 C 77.96875 -86.238281 73.46875 -87.703125 67.875 -87.703125 C 61.875 -87.703125 56.59375 -85.894531 52.03125 -82.28125 C 47.46875 -78.675781 44.164062 -73.535156 42.125 -66.859375 Z M 86.078125 -66.859375 "/></g></g></g><g fill="#000000" fill-opacity="1"><g transform="translate(379.494125, 213.9778)"><g/></g></g></g></g><g transform="matrix(1, 0, 0, 1, 768, 639)"><g clip-path="url(#61e4a6cfe7)"><g fill="#000000" fill-opacity="1"><g transform="translate(2.737643, 213.940397)"><g><path d="M 190.140625 -143.53125 L 164.796875 0 L 129.828125 0 L 145.15625 -86.078125 L 97.734375 0 L 69.515625 0 L 52.34375 -86.484375 L 37.203125 0 L 2.25 0 L 27.59375 -143.53125 L 68.90625 -143.53125 L 91.796875 -44.15625 L 149.046875 -143.53125 Z M 190.140625 -143.53125 "/></g></g></g><g fill="#000000" fill-opacity="1"><g transform="translate(178.126216, 213.940397)"><g><path d="M 54.390625 1.640625 C 44.566406 1.640625 35.835938 -0.332031 28.203125 -4.28125 C 20.578125 -8.238281 14.6875 -13.828125 10.53125 -21.046875 C 6.375 -28.273438 4.296875 -36.660156 4.296875 -46.203125 C 4.296875 -59.148438 7.359375 -70.941406 13.484375 -81.578125 C 19.617188 -92.210938 28.070312 -100.5625 38.84375 -106.625 C 49.613281 -112.6875 61.609375 -115.71875 74.828125 -115.71875 C 84.640625 -115.71875 93.394531 -113.707031 101.09375 -109.6875 C 108.800781 -105.664062 114.765625 -100.039062 118.984375 -92.8125 C 123.210938 -85.59375 125.328125 -77.210938 125.328125 -67.671875 C 125.328125 -54.585938 122.222656 -42.765625 116.015625 -32.203125 C 109.816406 -21.640625 101.300781 -13.359375 90.46875 -7.359375 C 79.632812 -1.359375 67.609375 1.640625 54.390625 1.640625 Z M 59.296875 -28.421875 C 65.015625 -28.421875 70.15625 -30.15625 74.71875 -33.625 C 79.289062 -37.101562 82.835938 -41.601562 85.359375 -47.125 C 87.878906 -52.644531 89.140625 -58.40625 89.140625 -64.40625 C 89.140625 -71.21875 87.296875 -76.460938 83.609375 -80.140625 C 79.929688 -83.828125 75.300781 -85.671875 69.71875 -85.671875 C 63.851562 -85.671875 58.707031 -83.929688 54.28125 -80.453125 C 49.851562 -76.972656 46.410156 -72.4375 43.953125 -66.84375 C 41.503906 -61.257812 40.28125 -55.398438 40.28125 -49.265625 C 40.28125 -42.585938 42.050781 -37.441406 45.59375 -33.828125 C 49.132812 -30.222656 53.703125 -28.421875 59.296875 -28.421875 Z M 59.296875 -28.421875 "/></g></g></g><g fill="#000000" fill-opacity="1"><g transform="translate(296.072821, 213.940397)"><g><path d="M 49.6875 -39.25 C 49.550781 -38.570312 49.484375 -37.6875 49.484375 -36.59375 C 49.484375 -34.144531 50.195312 -32.375 51.625 -31.28125 C 53.050781 -30.1875 55.398438 -29.640625 58.671875 -29.640625 L 71.15625 -29.640625 L 65.828125 0 L 48.046875 0 C 25.148438 0 13.703125 -9.609375 13.703125 -28.828125 C 13.703125 -31.691406 14.039062 -35.300781 14.71875 -39.65625 L 22.90625 -85.046875 L 9 -85.046875 L 14.109375 -114.078125 L 28.015625 -114.078125 L 32.921875 -141.890625 L 67.875 -141.890625 L 62.96875 -114.078125 L 85.875 -114.078125 L 80.765625 -85.046875 L 57.859375 -85.046875 Z M 49.6875 -39.25 "/></g></g></g><g fill="#000000" fill-opacity="1"><g transform="translate(366.798447, 213.940397)"><g><path d="M 54.390625 1.640625 C 44.566406 1.640625 35.835938 -0.332031 28.203125 -4.28125 C 20.578125 -8.238281 14.6875 -13.828125 10.53125 -21.046875 C 6.375 -28.273438 4.296875 -36.660156 4.296875 -46.203125 C 4.296875 -59.148438 7.359375 -70.941406 13.484375 -81.578125 C 19.617188 -92.210938 28.070312 -100.5625 38.84375 -106.625 C 49.613281 -112.6875 61.609375 -115.71875 74.828125 -115.71875 C 84.640625 -115.71875 93.394531 -113.707031 101.09375 -109.6875 C 108.800781 -105.664062 114.765625 -100.039062 118.984375 -92.8125 C 123.210938 -85.59375 125.328125 -77.210938 125.328125 -67.671875 C 125.328125 -54.585938 122.222656 -42.765625 116.015625 -32.203125 C 109.816406 -21.640625 101.300781 -13.359375 90.46875 -7.359375 C 79.632812 -1.359375 67.609375 1.640625 54.390625 1.640625 Z M 59.296875 -28.421875 C 65.015625 -28.421875 70.15625 -30.15625 74.71875 -33.625 C 79.289062 -37.101562 82.835938 -41.601562 85.359375 -47.125 C 87.878906 -52.644531 89.140625 -58.40625 89.140625 -64.40625 C 89.140625 -71.21875 87.296875 -76.460938 83.609375 -80.140625 C 79.929688 -83.828125 75.300781 -85.671875 69.71875 -85.671875 C 63.851562 -85.671875 58.707031 -83.929688 54.28125 -80.453125 C 49.851562 -76.972656 46.410156 -72.4375 43.953125 -66.84375 C 41.503906 -61.257812 40.28125 -55.398438 40.28125 -49.265625 C 40.28125 -42.585938 42.050781 -37.441406 45.59375 -33.828125 C 49.132812 -30.222656 53.703125 -28.421875 59.296875 -28.421875 Z M 59.296875 -28.421875 "/></g></g></g><g fill="#000000" fill-opacity="1"><g transform="translate(484.745053, 213.940397)"><g><path d="M 53.5625 -93.4375 C 58.882812 -100.25 64.984375 -105.597656 71.859375 -109.484375 C 78.742188 -113.367188 85.9375 -115.3125 93.4375 -115.3125 L 86.890625 -78.3125 L 77.28125 -78.3125 C 68.5625 -78.3125 61.675781 -76.4375 56.625 -72.6875 C 51.582031 -68.9375 48.242188 -62.359375 46.609375 -52.953125 L 37.203125 0 L 2.25 0 L 22.28125 -114.078125 L 57.25 -114.078125 Z M 53.5625 -93.4375 "/></g></g></g></g></g><g transform="matrix(1, 0, 0, 1, 1145, 646)"><g clip-path="url(#fed9c5a2de)"><g fill="#00cc5d" fill-opacity="1"><g transform="translate(1.768885, 32.859157)"><g><path d="M 12.875 -1.890625 C 14.195312 -1.890625 15.492188 -2.140625 16.765625 -2.640625 C 18.035156 -3.148438 19.15625 -3.851562 20.125 -4.75 L 21.40625 -3.046875 C 20.1875 -1.953125 18.816406 -1.109375 17.296875 -0.515625 C 15.773438 0.0664062 14.242188 0.359375 12.703125 0.359375 C 11.191406 0.359375 9.78125 0.09375 8.46875 -0.4375 C 7.164062 -0.976562 6.039062 -1.722656 5.09375 -2.671875 C 4.15625 -3.628906 3.410156 -4.753906 2.859375 -6.046875 C 2.316406 -7.335938 2.046875 -8.734375 2.046875 -10.234375 C 2.046875 -11.953125 2.375 -13.566406 3.03125 -15.078125 C 3.6875 -16.597656 4.5625 -17.925781 5.65625 -19.0625 C 6.757812 -20.195312 8.0625 -21.09375 9.5625 -21.75 C 11.0625 -22.414062 12.644531 -22.75 14.3125 -22.75 C 16.175781 -22.75 17.847656 -22.398438 19.328125 -21.703125 C 20.816406 -21.015625 22.054688 -20.03125 23.046875 -18.75 L 21.21875 -17.078125 C 20.46875 -18.160156 19.476562 -19.003906 18.25 -19.609375 C 17.019531 -20.210938 15.664062 -20.515625 14.1875 -20.515625 C 12.832031 -20.515625 11.566406 -20.25 10.390625 -19.71875 C 9.222656 -19.195312 8.203125 -18.472656 7.328125 -17.546875 C 6.460938 -16.628906 5.78125 -15.550781 5.28125 -14.3125 C 4.78125 -13.070312 4.53125 -11.742188 4.53125 -10.328125 C 4.53125 -9.128906 4.738281 -8.007812 5.15625 -6.96875 C 5.570312 -5.9375 6.144531 -5.046875 6.875 -4.296875 C 7.613281 -3.546875 8.5 -2.957031 9.53125 -2.53125 C 10.5625 -2.101562 11.675781 -1.890625 12.875 -1.890625 Z M 12.875 -1.890625 "/></g></g></g><g fill="#00cc5d" fill-opacity="1"><g transform="translate(24.524914, 32.859157)"><g><path d="M 6 0.21875 C 4.351562 0.21875 3.023438 -0.191406 2.015625 -1.015625 C 1.015625 -1.835938 0.515625 -2.921875 0.515625 -4.265625 C 0.515625 -5.828125 1.109375 -7.085938 2.296875 -8.046875 C 3.484375 -9.015625 5.070312 -9.5 7.0625 -9.5 C 7.976562 -9.5 8.882812 -9.375 9.78125 -9.125 C 10.6875 -8.882812 11.492188 -8.550781 12.203125 -8.125 L 12.609375 -10.015625 C 12.910156 -11.472656 12.738281 -12.5625 12.09375 -13.28125 C 11.457031 -14.007812 10.359375 -14.375 8.796875 -14.375 C 8.109375 -14.375 7.378906 -14.269531 6.609375 -14.0625 C 5.835938 -13.863281 4.960938 -13.550781 3.984375 -13.125 L 3.34375 -15.015625 C 4.425781 -15.484375 5.453125 -15.828125 6.421875 -16.046875 C 7.398438 -16.265625 8.316406 -16.375 9.171875 -16.375 C 11.335938 -16.375 12.929688 -15.820312 13.953125 -14.71875 C 14.984375 -13.613281 15.296875 -12.097656 14.890625 -10.171875 L 12.734375 0 L 10.46875 0 L 10.75 -1.3125 C 10.019531 -0.800781 9.257812 -0.414062 8.46875 -0.15625 C 7.675781 0.09375 6.851562 0.21875 6 0.21875 Z M 2.734375 -4.5 C 2.734375 -3.59375 3.070312 -2.882812 3.75 -2.375 C 4.4375 -1.863281 5.390625 -1.609375 6.609375 -1.609375 C 7.441406 -1.609375 8.238281 -1.738281 9 -2 C 9.757812 -2.269531 10.484375 -2.679688 11.171875 -3.234375 L 11.8125 -6.265625 C 11.1875 -6.773438 10.476562 -7.148438 9.6875 -7.390625 C 8.894531 -7.640625 8.007812 -7.765625 7.03125 -7.765625 C 5.789062 -7.765625 4.765625 -7.453125 3.953125 -6.828125 C 3.140625 -6.210938 2.734375 -5.4375 2.734375 -4.5 Z M 2.734375 -4.5 "/></g></g></g><g fill="#00cc5d" fill-opacity="1"><g transform="translate(40.765454, 32.859157)"><g><path d="M 0.25 0 L 3.6875 -16.078125 L 5.96875 -16.078125 L 5.546875 -14.0625 C 6.148438 -14.8125 6.847656 -15.394531 7.640625 -15.8125 C 8.429688 -16.226562 9.273438 -16.4375 10.171875 -16.4375 C 10.472656 -16.4375 10.78125 -16.40625 11.09375 -16.34375 C 11.414062 -16.289062 11.675781 -16.222656 11.875 -16.140625 L 11.421875 -13.953125 C 11.210938 -14.066406 10.9375 -14.15625 10.59375 -14.21875 C 10.25 -14.28125 9.914062 -14.3125 9.59375 -14.3125 C 8.675781 -14.3125 7.820312 -14.046875 7.03125 -13.515625 C 6.238281 -12.992188 5.539062 -12.234375 4.9375 -11.234375 L 2.5625 0 Z M 0.25 0 "/></g></g></g><g fill="#00cc5d" fill-opacity="1"><g transform="translate(51.613894, 32.859157)"><g/></g></g><g fill="#00cc5d" fill-opacity="1"><g transform="translate(58.514523, 32.859157)"><g><path d="M -1.578125 0 L 12.234375 -22.46875 L 15.1875 -22.46875 L 19.546875 0 L 17.046875 0 L 15.71875 -7.0625 L 5.390625 -7.0625 L 1.125 0 Z M 6.671875 -9.171875 L 15.34375 -9.171875 L 13.28125 -20.125 Z M 6.671875 -9.171875 "/></g></g></g><g fill="#00cc5d" fill-opacity="1"><g transform="translate(79.248489, 32.859157)"><g><path d="M 5.875 -16.078125 L 3.890625 -6.671875 C 3.566406 -5.203125 3.734375 -4.015625 4.390625 -3.109375 C 5.054688 -2.210938 6.078125 -1.765625 7.453125 -1.765625 C 8.347656 -1.765625 9.191406 -1.960938 9.984375 -2.359375 C 10.773438 -2.753906 11.46875 -3.328125 12.0625 -4.078125 L 14.640625 -16.078125 L 16.953125 -16.078125 L 13.515625 0 L 11.203125 0 L 11.546875 -1.609375 C 10.847656 -0.984375 10.09375 -0.507812 9.28125 -0.1875 C 8.46875 0.125 7.609375 0.28125 6.703125 0.28125 C 5.765625 0.28125 4.921875 0.113281 4.171875 -0.21875 C 3.421875 -0.5625 2.820312 -1.023438 2.375 -1.609375 C 1.925781 -2.203125 1.617188 -2.910156 1.453125 -3.734375 C 1.296875 -4.554688 1.316406 -5.453125 1.515625 -6.421875 L 3.5625 -16.078125 Z M 5.875 -16.078125 "/></g></g></g><g fill="#00cc5d" fill-opacity="1"><g transform="translate(96.5161, 32.859157)"><g><path d="M -0.421875 -2.65625 L 1.125 -4.109375 C 1.851562 -3.296875 2.671875 -2.675781 3.578125 -2.25 C 4.484375 -1.820312 5.441406 -1.609375 6.453125 -1.609375 C 7.628906 -1.609375 8.613281 -1.882812 9.40625 -2.4375 C 10.195312 -3 10.59375 -3.707031 10.59375 -4.5625 C 10.59375 -5.15625 10.390625 -5.628906 9.984375 -5.984375 C 9.578125 -6.335938 8.910156 -6.625 7.984375 -6.84375 L 5.359375 -7.453125 C 4.015625 -7.742188 3.015625 -8.222656 2.359375 -8.890625 C 1.703125 -9.554688 1.375 -10.421875 1.375 -11.484375 C 1.375 -12.941406 1.914062 -14.113281 3 -15 C 4.082031 -15.882812 5.5 -16.328125 7.25 -16.328125 C 8.425781 -16.328125 9.5625 -16.117188 10.65625 -15.703125 C 11.75 -15.285156 12.765625 -14.648438 13.703125 -13.796875 L 12.296875 -12.265625 C 11.503906 -12.960938 10.65625 -13.5 9.75 -13.875 C 8.851562 -14.25 7.976562 -14.4375 7.125 -14.4375 C 6.03125 -14.4375 5.148438 -14.179688 4.484375 -13.671875 C 3.828125 -13.160156 3.5 -12.5 3.5 -11.6875 C 3.5 -11.082031 3.695312 -10.609375 4.09375 -10.265625 C 4.488281 -9.921875 5.144531 -9.644531 6.0625 -9.4375 L 8.703125 -8.828125 C 10.109375 -8.503906 11.144531 -8.007812 11.8125 -7.34375 C 12.476562 -6.6875 12.8125 -5.832031 12.8125 -4.78125 C 12.8125 -4.050781 12.644531 -3.375 12.3125 -2.75 C 11.976562 -2.132812 11.523438 -1.597656 10.953125 -1.140625 C 10.390625 -0.679688 9.71875 -0.320312 8.9375 -0.0625 C 8.15625 0.195312 7.304688 0.328125 6.390625 0.328125 C 5.078125 0.328125 3.800781 0.0625 2.5625 -0.46875 C 1.320312 -1.007812 0.328125 -1.738281 -0.421875 -2.65625 Z M -0.421875 -2.65625 "/></g></g></g><g fill="#00cc5d" fill-opacity="1"><g transform="translate(109.86802, 32.859157)"><g><path d="M 3.046875 -3.8125 L 5.203125 -14.0625 L 1.796875 -14.0625 L 2.25 -16.078125 L 5.609375 -16.078125 L 6.484375 -20.15625 L 8.953125 -20.765625 L 7.953125 -16.078125 L 12.640625 -16.078125 L 12.203125 -14.0625 L 7.515625 -14.0625 L 5.421875 -4.328125 C 5.234375 -3.410156 5.316406 -2.753906 5.671875 -2.359375 C 6.035156 -1.960938 6.742188 -1.765625 7.796875 -1.765625 C 8.078125 -1.765625 8.359375 -1.789062 8.640625 -1.84375 C 8.929688 -1.894531 9.269531 -1.976562 9.65625 -2.09375 L 9.25 0 C 8.90625 0.0820312 8.523438 0.148438 8.109375 0.203125 C 7.691406 0.253906 7.289062 0.28125 6.90625 0.28125 C 5.40625 0.28125 4.316406 -0.0703125 3.640625 -0.78125 C 2.960938 -1.5 2.765625 -2.507812 3.046875 -3.8125 Z M 3.046875 -3.8125 "/></g></g></g><g fill="#00cc5d" fill-opacity="1"><g transform="translate(121.32627, 32.859157)"><g><path d="M 0.25 0 L 3.6875 -16.078125 L 5.96875 -16.078125 L 5.546875 -14.0625 C 6.148438 -14.8125 6.847656 -15.394531 7.640625 -15.8125 C 8.429688 -16.226562 9.273438 -16.4375 10.171875 -16.4375 C 10.472656 -16.4375 10.78125 -16.40625 11.09375 -16.34375 C 11.414062 -16.289062 11.675781 -16.222656 11.875 -16.140625 L 11.421875 -13.953125 C 11.210938 -14.066406 10.9375 -14.15625 10.59375 -14.21875 C 10.25 -14.28125 9.914062 -14.3125 9.59375 -14.3125 C 8.675781 -14.3125 7.820312 -14.046875 7.03125 -13.515625 C 6.238281 -12.992188 5.539062 -12.234375 4.9375 -11.234375 L 2.5625 0 Z M 0.25 0 "/></g></g></g><g fill="#00cc5d" fill-opacity="1"><g transform="translate(131.340231, 32.859157)"><g><path d="M 6 0.21875 C 4.351562 0.21875 3.023438 -0.191406 2.015625 -1.015625 C 1.015625 -1.835938 0.515625 -2.921875 0.515625 -4.265625 C 0.515625 -5.828125 1.109375 -7.085938 2.296875 -8.046875 C 3.484375 -9.015625 5.070312 -9.5 7.0625 -9.5 C 7.976562 -9.5 8.882812 -9.375 9.78125 -9.125 C 10.6875 -8.882812 11.492188 -8.550781 12.203125 -8.125 L 12.609375 -10.015625 C 12.910156 -11.472656 12.738281 -12.5625 12.09375 -13.28125 C 11.457031 -14.007812 10.359375 -14.375 8.796875 -14.375 C 8.109375 -14.375 7.378906 -14.269531 6.609375 -14.0625 C 5.835938 -13.863281 4.960938 -13.550781 3.984375 -13.125 L 3.34375 -15.015625 C 4.425781 -15.484375 5.453125 -15.828125 6.421875 -16.046875 C 7.398438 -16.265625 8.316406 -16.375 9.171875 -16.375 C 11.335938 -16.375 12.929688 -15.820312 13.953125 -14.71875 C 14.984375 -13.613281 15.296875 -12.097656 14.890625 -10.171875 L 12.734375 0 L 10.46875 0 L 10.75 -1.3125 C 10.019531 -0.800781 9.257812 -0.414062 8.46875 -0.15625 C 7.675781 0.09375 6.851562 0.21875 6 0.21875 Z M 2.734375 -4.5 C 2.734375 -3.59375 3.070312 -2.882812 3.75 -2.375 C 4.4375 -1.863281 5.390625 -1.609375 6.609375 -1.609375 C 7.441406 -1.609375 8.238281 -1.738281 9 -2 C 9.757812 -2.269531 10.484375 -2.679688 11.171875 -3.234375 L 11.8125 -6.265625 C 11.1875 -6.773438 10.476562 -7.148438 9.6875 -7.390625 C 8.894531 -7.640625 8.007812 -7.765625 7.03125 -7.765625 C 5.789062 -7.765625 4.765625 -7.453125 3.953125 -6.828125 C 3.140625 -6.210938 2.734375 -5.4375 2.734375 -4.5 Z M 2.734375 -4.5 "/></g></g></g><g fill="#00cc5d" fill-opacity="1"><g transform="translate(147.580771, 32.859157)"><g><path d="M 7.515625 -23.015625 L 2.625 0 L 0.328125 0 L 5.109375 -22.46875 Z M 7.515625 -23.015625 "/></g></g></g><g fill="#00cc5d" fill-opacity="1"><g transform="translate(153.935787, 32.859157)"><g><path d="M 5.6875 -19.15625 C 5.28125 -19.15625 4.941406 -19.296875 4.671875 -19.578125 C 4.398438 -19.859375 4.265625 -20.203125 4.265625 -20.609375 C 4.265625 -21.078125 4.441406 -21.488281 4.796875 -21.84375 C 5.148438 -22.195312 5.5625 -22.375 6.03125 -22.375 C 6.4375 -22.375 6.773438 -22.238281 7.046875 -21.96875 C 7.316406 -21.695312 7.453125 -21.359375 7.453125 -20.953125 C 7.453125 -20.484375 7.273438 -20.066406 6.921875 -19.703125 C 6.566406 -19.335938 6.15625 -19.15625 5.6875 -19.15625 Z M 6.03125 -16.078125 L 2.625 0 L 0.328125 0 L 3.71875 -16.078125 Z M 6.03125 -16.078125 "/></g></g></g><g fill="#00cc5d" fill-opacity="1"><g transform="translate(160.290802, 32.859157)"><g><path d="M 6 0.21875 C 4.351562 0.21875 3.023438 -0.191406 2.015625 -1.015625 C 1.015625 -1.835938 0.515625 -2.921875 0.515625 -4.265625 C 0.515625 -5.828125 1.109375 -7.085938 2.296875 -8.046875 C 3.484375 -9.015625 5.070312 -9.5 7.0625 -9.5 C 7.976562 -9.5 8.882812 -9.375 9.78125 -9.125 C 10.6875 -8.882812 11.492188 -8.550781 12.203125 -8.125 L 12.609375 -10.015625 C 12.910156 -11.472656 12.738281 -12.5625 12.09375 -13.28125 C 11.457031 -14.007812 10.359375 -14.375 8.796875 -14.375 C 8.109375 -14.375 7.378906 -14.269531 6.609375 -14.0625 C 5.835938 -13.863281 4.960938 -13.550781 3.984375 -13.125 L 3.34375 -15.015625 C 4.425781 -15.484375 5.453125 -15.828125 6.421875 -16.046875 C 7.398438 -16.265625 8.316406 -16.375 9.171875 -16.375 C 11.335938 -16.375 12.929688 -15.820312 13.953125 -14.71875 C 14.984375 -13.613281 15.296875 -12.097656 14.890625 -10.171875 L 12.734375 0 L 10.46875 0 L 10.75 -1.3125 C 10.019531 -0.800781 9.257812 -0.414062 8.46875 -0.15625 C 7.675781 0.09375 6.851562 0.21875 6 0.21875 Z M 2.734375 -4.5 C 2.734375 -3.59375 3.070312 -2.882812 3.75 -2.375 C 4.4375 -1.863281 5.390625 -1.609375 6.609375 -1.609375 C 7.441406 -1.609375 8.238281 -1.738281 9 -2 C 9.757812 -2.269531 10.484375 -2.679688 11.171875 -3.234375 L 11.8125 -6.265625 C 11.1875 -6.773438 10.476562 -7.148438 9.6875 -7.390625 C 8.894531 -7.640625 8.007812 -7.765625 7.03125 -7.765625 C 5.789062 -7.765625 4.765625 -7.453125 3.953125 -6.828125 C 3.140625 -6.210938 2.734375 -5.4375 2.734375 -4.5 Z M 2.734375 -4.5 "/></g></g></g></g></g></svg>