<svg id="SvgjsSvg1649" width="288" height="288" xmlns="http://www.w3.org/2000/svg" version="1.1" xmlns:xlink="http://www.w3.org/1999/xlink" xmlns:svgjs="http://svgjs.com/svgjs"><defs id="SvgjsDefs1650"></defs><g id="SvgjsG1651"><svg xmlns="http://www.w3.org/2000/svg" viewBox="0 0 416 400" width="288" height="288"><g clip-path="url(#a)"><g stroke-miterlimit="10" clip-path="url(#b)" opacity=".12"><path d="M342.826-37.494c-89.03-75.197-172.144-111.965-249.36-110.305-28.822-.962-57.6 7.275-81.958 23.47-9.637 6.893-17.476 15.893-22.861 26.229-5.376 10.335-8.116 21.682-7.991 33.058-.555 11.56 1.9 22.937 7.144 33.082C-6.955-21.823.905-13.25 10.654-7.048c20.65 13.933 61.783 27.69 123.417 41.25 97.697 20.535 168.818 48.509 213.377 83.93 44.56 35.43 66.043 92.027 64.441 169.799-1.749 77.75-31.896 138.411-90.442 181.975s-130.822 66.241-216.812 68.025c-57.563 1.046-114.484-7.215-168.432-24.453-53.408-16.224-102.761-42.206-145.482-76.599" fill="none" stroke="#ACACAC" class="svgStroke colorStrokeacacac-2 selectable"></path><path d="M-206.098 432.509c43.652 34.97 93.836 60.934 148.045 76.576 53.06 16.711 108.997 24.446 165.402 22.921 83.509-1.958 153.68-24.194 210.504-66.676 56.815-42.491 86.069-101.541 87.76-177.135 1.563-75.634-19.312-130.771-62.617-165.37C299.69 88.226 230.591 60.89 135.731 40.841 75.388 27.277 33.936 13.469 11.391-.583c-12-6.564-21.596-15.748-28.068-26.76-6.471-11.027-9.526-23.821-8.935-37.385-.126-12.109 2.787-24.192 8.481-35.207 5.712-11.008 14.033-20.624 24.252-28.002 25.429-17.186 55.707-25.952 86.584-25.086C172.73-154.722 257-117.684 346.527-41.901" fill="none" stroke="#ACACAC" class="svgStroke colorStrokeacacac-3 selectable"></path><path d="M-202.916 428.129c44.591 35.556 95.608 61.494 150.609 76.564 52.18 16.183 107.124 23.383 162.379 21.378 81.028-2.13 149.102-23.917 204.188-65.326s83.445-98.858 85.071-172.296c1.523-73.495-18.744-127.172-60.795-160.948-42.051-33.768-109.113-60.467-201.16-80.039C78.314 33.895 36.56 20.035 12.105 5.873-2.157-1.054-13.47-10.84-21.178-22.733c-7.699-11.901-11.353-26.122-10.726-41.681-.127-12.841 2.95-25.66 8.97-37.347 6.03-11.688 14.833-21.905 25.643-29.766C29.216-149.714 60.988-159 93.927-158.229c80.828-1.739 166.26 35.568 256.285 111.93" fill="none" stroke="#ACACAC" class="svgStroke colorStrokeacacac-4 selectable"></path><path d="M-199.737 423.743c45.539 36.133 97.37 62.053 153.172 76.541 51.3 15.655 105.26 22.322 159.357 19.845 78.538-2.295 144.516-23.648 197.871-63.967 53.355-40.328 80.822-96.175 82.391-167.465 1.483-71.356-18.176-123.566-58.973-156.519-40.788-32.946-105.829-59.007-195.047-78.093-57.771-13.57-99.845-27.49-126.202-41.762C-3.682 5.031-16.731-5.357-25.666-18.132c-8.934-12.784-13.18-28.422-12.517-45.977-.136-13.573 3.112-27.128 9.46-39.496 6.357-12.368 15.632-23.184 27.034-31.538 27.586-19.178 60.858-28.994 95.843-28.318 82.639-1.778 169.216 35.798 259.757 112.747" fill="none" stroke="#ACACAC" class="svgStroke colorStrokeacacac-5 selectable"></path><path d="M-196.556 419.363c46.479 36.718 99.141 62.621 155.745 76.527 50.41 15.128 103.396 21.26 156.335 18.304 76.057-2.468 139.937-23.372 191.562-62.618s78.208-93.492 79.711-162.626c1.444-69.217-17.616-119.967-57.15-152.098-39.533-32.122-102.545-57.538-188.935-76.139C84.222 47.15 41.848 33.168 13.579 18.778-5.186 11.124-19.971.126-30.133-13.515c-10.162-13.665-15-30.722-14.308-50.28-.137-14.314 3.275-28.596 9.95-41.645 6.684-13.04 16.432-24.472 28.424-33.311 28.674-20.178 63.43-30.514 100.478-29.926 84.45-1.817 172.181 36.037 263.219 113.555" fill="none" stroke="#ACACAC" class="svgStroke colorStrokeacacac-6 selectable"></path><path d="M-193.371 414.986c47.418 37.295 100.903 63.179 158.308 76.504 49.522 14.6 101.524 20.207 153.304 16.771 73.567-2.641 135.351-23.104 185.246-61.268 49.903-38.165 75.592-90.809 77.038-157.787 1.414-67.079-17.047-116.369-55.327-147.668S225.936 85.46 142.376 67.344c-55.2-13.567-97.893-27.6-128.056-42.1-21.026-8.017-37.537-19.617-48.927-34.14-11.397-14.54-16.826-33.022-16.09-54.577-.138-15.046 3.438-30.064 10.44-43.793 7.011-13.72 17.231-25.752 29.815-35.075 29.752-21.169 66.01-32.035 105.112-31.542 86.251-1.857 175.137 36.267 266.682 114.372" fill="none" stroke="#ACACAC" class="svgStroke colorStrokeacacac-7 selectable"></path><path d="M-190.191 410.608c48.358 37.88 102.675 63.738 160.872 76.49 48.642 14.072 99.66 19.145 150.291 15.221 71.085-2.814 130.764-22.827 178.937-59.919 48.165-37.083 72.961-88.125 74.35-152.947 1.374-64.94-16.48-112.77-53.504-143.247s-95.979-54.61-176.718-72.248C90.119 60.388 47.123 46.294 15.049 31.684c-23.277-8.38-41.525-20.59-54.15-35.987-12.624-15.421-18.653-35.322-17.881-58.872-.148-15.778 3.601-31.532 10.93-45.933 7.33-14.401 18.03-27.032 31.205-36.848 30.831-22.169 68.581-33.556 109.738-33.158 88.062-1.896 178.102 36.497 270.145 115.18" fill="none" stroke="#ACACAC" class="svgStroke colorStrokeacacac-8 selectable"></path><path d="M-187.011 406.227c49.297 38.457 104.437 64.297 163.435 76.468 47.762 13.544 97.787 18.083 147.26 13.687 68.595-2.978 126.186-22.558 172.62-58.56 46.435-36.01 70.337-85.442 71.669-148.117 1.335-62.801-15.91-109.163-51.681-138.826-35.762-29.654-92.695-53.148-170.605-70.302C93.051 67.013 49.744 52.86 15.768 38.13-9.77 29.387-29.744 16.575-43.596.296c-13.86-16.295-20.481-37.622-19.673-63.176-.148-16.519 3.765-33 11.42-48.082 7.657-15.081 18.83-28.32 32.588-38.62 31.91-23.16 71.161-35.077 114.372-34.774 89.864-1.944 181.067 36.727 273.607 115.996" fill="none" stroke="#ACACAC" class="svgStroke colorStrokeacacac-9 selectable"></path><path d="M-183.83 401.841c50.237 39.043 106.209 64.856 165.999 76.455 46.882 13.016 95.932 17.029 144.246 12.153 66.114-3.151 121.599-22.281 166.312-57.21 44.705-34.929 67.723-82.759 68.98-143.277 1.295-60.671-15.351-105.565-49.858-134.397-34.508-28.823-89.412-51.68-164.492-68.356C96.01 73.642 52.393 59.435 16.507 44.597c-27.79-9.107-49.5-22.53-64.58-39.673-15.087-17.178-22.3-39.922-21.464-67.472-.149-17.25 3.936-34.468 11.91-50.23 7.984-15.754 19.63-29.601 33.978-40.393 32.99-24.16 73.733-36.597 119.007-36.39 91.675-1.984 184.023 36.957 277.07 116.804" fill="none" stroke="#ACACAC" class="svgStroke colorStrokeacacac-10 selectable"></path><path d="M-180.65 397.462c51.176 39.62 107.98 65.415 168.57 76.44 45.993 12.488 94.06 15.968 141.216 10.612 63.624-3.324 117.021-22.013 159.995-55.86 42.975-33.848 65.099-80.076 66.299-138.438 1.256-58.533-14.782-101.967-48.035-129.976-33.253-28-86.128-50.22-158.379-66.402-50.065-13.57-93.992-27.829-131.773-42.786-30.05-9.47-53.487-23.494-69.794-41.52-16.323-18.06-24.127-42.23-23.255-71.767-.15-17.984 4.099-35.937 12.4-52.37 8.31-16.435 20.429-30.881 35.368-42.157C6.03-181.915 48.275-194.881 95.594-194.76q140.216-3.033 280.533 117.62" fill="none" stroke="#ACACAC" class="svgStroke colorStrokeacacac-11 selectable"></path><path d="M-177.47 393.084c52.116 40.197 109.742 65.983 171.134 76.418 45.105 11.961 92.187 14.906 138.194 9.071 61.143-3.498 112.434-21.737 153.687-54.503 41.244-32.766 62.475-77.392 63.618-133.599 1.217-56.393-14.214-98.359-46.212-125.546-31.999-27.178-82.836-48.751-152.276-64.457q-73.176-20.36-132.704-42.95c-32.302-9.833-57.474-24.467-75.008-43.367-17.55-18.934-25.954-44.53-25.046-76.071-.159-18.724 4.262-37.405 12.89-54.519 8.629-17.115 21.228-32.17 36.759-43.93 35.146-26.144 78.884-39.639 128.266-39.614 95.288-2.063 189.945 37.417 283.996 118.438" fill="none" stroke="#ACACAC" class="svgStroke colorStrokeacacac-12 selectable"></path><path d="M-174.288 388.704c53.055 40.783 111.514 66.542 173.698 76.405 44.225 11.432 90.323 13.844 135.172 7.537 58.661-3.662 107.847-21.468 147.37-53.153 39.522-31.684 59.852-74.708 60.938-128.759 1.177-54.255-13.655-94.761-44.39-121.125-30.736-26.355-79.553-47.291-146.163-62.511-47.493-13.567-92.04-27.947-133.635-43.124C-15.853 53.778-42.76 38.542-61.521 18.76-80.298-1.056-89.302-28.07-88.358-61.607c-.16-19.456 4.425-38.873 13.38-56.668s22.028-33.449 38.15-45.702c36.225-27.143 81.464-41.151 132.892-41.23q145.634-3.153 287.458 119.246" fill="none" stroke="#ACACAC" class="svgStroke colorStrokeacacac-13 selectable"></path><path d="M-171.101 384.317c53.994 41.36 113.276 67.101 176.261 76.382 43.345 10.905 88.45 12.782 132.141 5.996 56.172-3.835 103.269-21.191 141.062-51.803 37.792-30.603 57.237-72.025 58.257-123.929 1.138-52.116-13.085-91.162-42.567-116.695s-76.269-45.823-140.049-60.566Q84.684 93.348 19.437 70.406C-17.378 59.846-46.013 44-66.001 23.352-86.014 2.654-95.6-25.778-94.628-61.31c-.161-20.189 4.587-40.341 13.87-58.808s22.826-34.729 39.54-47.466c37.303-28.135 84.043-42.673 137.526-42.847 98.9-2.141 195.865 37.877 290.92 120.063" fill="none" stroke="#ACACAC" class="svgStroke colorStrokeacacac-14 selectable"></path><path d="M-167.923 379.94c54.934 41.946 115.047 67.66 178.833 76.368 42.456 10.377 86.587 11.729 129.12 4.454 53.69-4.008 98.682-20.922 134.744-50.453 36.063-29.53 54.614-69.342 55.577-119.089 1.098-49.978-12.517-87.564-40.744-112.274-28.227-24.702-72.986-44.363-133.937-58.621A4214 4214 0 0 1 20.18 76.864C-18.885 65.949-49.246 49.492-70.47 27.963-91.711 6.39-101.9-23.468-100.89-61.004c-.161-20.929 4.75-41.808 14.36-60.956 9.609-19.147 23.626-36.017 40.93-49.239 38.383-29.135 86.615-44.193 142.16-44.462q151.054-3.273 294.385 120.87" fill="none" stroke="#ACACAC" class="svgStroke colorStrokeacacac-15 selectable"></path><path d="M-164.744 375.56c55.873 42.523 116.81 68.219 181.397 76.346 41.576 9.849 84.714 10.667 126.097 2.921 51.2-4.181 94.104-20.655 128.427-49.095 34.341-28.449 52-66.659 52.897-114.25 1.058-47.839-11.949-83.958-38.922-107.845-26.964-23.879-69.702-42.894-127.832-56.666-43.64-13.567-89.12-28.12-136.421-43.635C-20.43 72.059-52.517 54.99-74.968 32.588c-22.476-22.454-33.255-53.731-32.21-93.262-.171-21.661 4.914-43.277 14.85-63.105s24.426-37.297 42.321-51.012c39.462-30.126 89.195-45.713 146.786-46.078 102.513-2.22 201.796 38.337 297.847 121.688" fill="none" stroke="#ACACAC" class="svgStroke colorStrokeacacac-16 selectable"></path><path d="M-161.553 371.179c56.812 43.108 118.58 68.786 183.96 76.332 40.687 9.322 82.85 9.605 123.075 1.379 48.719-4.345 89.517-20.377 122.119-47.745s49.367-63.976 50.207-109.411c1.02-45.7-11.389-80.358-37.098-103.423-25.71-23.057-66.419-41.434-121.72-54.721A59435 59435 0 0 0 21.638 89.782c-43.58-11.64-77.403-29.31-101.081-52.596-23.704-23.327-35.082-56.03-34.001-97.557-.172-22.393 5.085-44.745 15.34-65.245s25.233-38.578 43.703-52.784c40.54-31.126 91.766-47.234 151.42-47.686 104.315-2.26 204.751 38.567 301.309 122.495" fill="none" stroke="#ACACAC" class="svgStroke colorStrokeacacac-17 selectable"></path><path d="M-158.37 366.802c57.752 43.686 120.343 69.346 186.524 76.31 39.807 8.794 80.987 8.543 120.053-.162 46.229-4.519 84.931-20.11 115.803-46.396 30.872-26.285 46.752-61.292 47.527-104.58.979-43.561-10.821-76.76-35.276-98.994s-63.136-39.965-115.607-52.775Q99.041 119.847 22.37 96.232C-23.47 84.23-59.02 65.95-83.934 41.798c-24.94-24.21-36.901-58.331-35.792-101.861-.173-23.126 5.247-46.214 15.829-67.394s26.034-39.866 45.094-54.548c41.62-32.118 94.346-48.755 156.046-49.302 106.126-2.299 207.716 38.797 304.78 123.312" fill="none" stroke="#ACACAC" class="svgStroke colorStrokeacacac-18 selectable"></path><path d="M-155.191 362.415c58.692 44.27 122.114 69.904 189.087 76.295 38.919 8.267 79.115 7.49 117.031-1.695 43.748-4.692 80.353-19.833 109.495-45.037 29.141-25.205 44.128-58.61 44.846-99.741.949-41.423-10.252-73.162-33.445-94.573-23.201-21.411-59.851-38.505-109.494-50.83-39.786-13.566-86.188-28.293-139.206-44.146-48.092-12.367-85.378-31.249-111.52-56.282-26.165-25.092-38.727-60.63-37.582-106.157-.173-23.866 5.411-47.681 16.319-69.542 10.909-21.86 26.834-41.146 46.485-56.321 42.698-33.117 96.917-50.275 160.68-50.918q161.879-3.507 308.235 124.121" fill="none" stroke="#ACACAC" class="svgStroke colorStrokeacacac-19 selectable"></path><path d="M-152.007 358.035c59.64 44.847 123.886 70.463 191.66 76.273 38.039 7.73 77.25 6.428 114-3.237 41.258-4.865 75.766-19.564 103.178-43.687s41.505-55.926 42.165-94.902c.91-39.284-9.692-69.555-31.622-90.143-21.938-20.589-56.559-37.037-103.39-48.884-38.504-13.57-85.217-28.348-140.137-44.32-50.352-12.73-89.365-32.214-116.734-58.129-27.402-25.965-40.555-62.93-39.365-110.453-.183-24.598 5.574-49.149 16.809-71.69s27.633-42.426 47.876-58.094c43.776-34.108 99.497-51.796 165.314-52.534 109.739-2.386 213.637 39.265 311.706 124.937" fill="none" stroke="#ACACAC" class="svgStroke colorStrokeacacac-20 selectable"></path><path d="M-148.824 353.656c60.58 45.433 125.648 71.022 194.223 76.259 37.15 7.202 75.378 5.366 110.978-4.77 38.776-5.029 71.188-19.287 96.869-42.338 25.682-23.05 38.882-53.242 39.485-90.062.87-37.145-9.124-65.957-29.799-85.722-20.684-19.758-53.276-35.577-97.277-46.93q-55.821-20.362-141.07-44.485c-52.603-13.093-93.351-33.187-121.947-59.976-28.629-26.848-42.383-65.231-41.156-114.757-.184-25.33 5.736-50.617 17.299-73.83 11.554-23.213 28.432-43.715 49.265-59.858 44.865-35.101 102.07-53.317 169.94-54.15 111.541-2.426 216.594 39.495 315.169 125.745" fill="none" stroke="#ACACAC" class="svgStroke colorStrokeacacac-21 selectable"></path><path d="M-145.648 349.279c61.519 46.01 127.419 71.59 196.786 76.246 36.27 6.674 73.514 4.304 107.957-6.312 36.286-5.203 66.6-19.019 90.552-40.988 23.951-21.969 36.258-50.56 36.804-85.232.831-35.015-8.555-62.358-27.976-81.301-19.429-18.935-49.992-34.108-91.164-44.985q-53.9-20.36-142-44.657c-54.856-13.457-97.34-34.152-127.163-61.816-29.857-27.72-44.201-67.53-42.947-119.052-.185-26.07 5.899-52.085 17.788-75.979 11.881-23.893 29.233-44.994 50.657-61.63 45.943-36.101 104.649-54.838 174.574-55.758 113.351-2.465 219.559 39.725 318.631 126.562" fill="none" stroke="#ACACAC" class="svgStroke colorStrokeacacac-22 selectable"></path><path d="M-142.468 344.9c62.458 46.596 129.182 72.149 199.35 76.223 35.381 6.147 71.65 3.242 104.934-7.853 33.805-5.376 62.014-18.743 84.244-39.63 22.221-20.887 33.644-47.876 34.124-80.392.791-32.877-7.987-58.76-26.153-76.872-18.175-18.112-46.709-32.648-85.052-43.039-34.651-13.569-82.287-28.522-142.923-44.823-57.116-13.82-101.327-35.126-132.377-63.663-31.093-28.603-46.029-69.83-44.739-123.347-.185-26.803 6.063-53.554 18.279-78.128 12.208-24.574 30.032-46.282 52.047-63.403 47.022-37.092 107.22-56.358 179.2-57.374 115.154-2.504 222.524 39.955 322.094 127.37" fill="none" stroke="#ACACAC" class="svgStroke colorStrokeacacac-23 selectable"></path><path d="M-139.284 340.513c63.397 47.173 130.953 72.708 201.913 76.209 34.502 5.619 69.778 2.189 101.912-9.386 31.324-5.549 57.436-18.474 77.927-38.28s31.021-45.193 31.435-75.553c.752-30.738-7.427-55.153-24.331-72.451-16.912-17.289-43.425-31.179-78.947-41.093-33.361-13.572-81.315-28.576-143.854-44.996-59.369-14.183-105.315-36.09-137.592-65.51-32.319-29.486-47.856-72.13-46.529-127.651-.195-27.536 6.234-55.022 18.768-80.268 12.535-25.255 30.831-47.563 53.438-65.176 48.1-38.092 109.8-57.871 183.835-58.99q175.442-3.816 325.556 128.186" fill="none" stroke="#ACACAC" class="svgStroke colorStrokeacacac-24 selectable"></path><path d="M-136.107 336.134c64.337 47.758 132.716 73.267 204.486 76.187 33.621 5.09 67.914 1.127 98.89-10.929 28.834-5.712 52.849-18.197 71.619-36.93 18.761-18.724 28.397-42.51 28.754-70.713.712-28.599-6.859-51.555-22.508-68.022-15.657-16.466-40.142-29.719-72.834-39.147-32.08-13.575-80.336-28.632-144.786-45.17-61.629-14.546-109.302-37.064-142.806-67.357-33.556-30.36-49.683-74.43-48.32-131.947-.196-28.276 6.396-56.49 19.258-82.416 12.853-25.927 31.63-48.843 54.828-66.94 49.18-39.083 112.372-59.392 188.47-60.606 118.765-2.584 228.444 40.414 329.018 128.994" fill="none" stroke="#ACACAC" class="svgStroke colorStrokeacacac-25 selectable"></path><path d="M-132.923 331.753c65.276 48.335 134.486 73.826 207.049 76.173 32.732 4.563 66.041.065 95.859-12.462 26.352-5.886 48.271-17.929 65.302-35.572 17.031-17.651 25.773-39.826 26.073-65.874.673-26.46-6.29-47.956-20.685-63.6-14.403-15.636-36.858-28.251-66.722-37.194-30.798-13.569-79.364-28.686-145.717-45.334-63.88-14.909-113.28-38.03-148.021-69.196-34.782-31.242-51.502-76.731-50.111-136.251-.196-29.009 6.56-57.958 19.748-84.565 13.181-26.607 32.431-50.131 56.21-68.712 50.26-40.084 114.952-60.913 193.095-62.223 120.577-2.622 231.401 40.645 332.482 129.812" fill="none" stroke="#ACACAC" class="svgStroke colorStrokeacacac-26 selectable"></path><path d="M-129.743 327.375c66.215 48.921 136.249 74.385 209.612 76.151 31.853 4.035 64.178-.997 92.837-14.003 23.863-6.059 43.684-17.652 58.994-34.222 15.301-16.57 23.158-37.144 23.393-61.044.633-24.321-5.722-44.358-18.862-59.171-13.149-14.812-33.575-26.79-60.609-35.248-29.508-13.572-78.394-28.749-146.64-45.507-66.141-15.273-117.268-39.003-153.236-71.044-36.018-32.123-53.329-79.03-51.902-140.546-.205-29.74 6.723-59.426 20.238-86.705 13.508-27.288 33.23-51.411 57.601-70.485 51.337-41.075 117.523-62.433 197.729-63.83 122.378-2.662 234.366 40.875 335.944 130.628" fill="none" stroke="#ACACAC" class="svgStroke colorStrokeacacac-27 selectable"></path><path d="M-126.559 322.997c67.155 49.497 138.02 74.952 212.176 76.136 30.964 3.508 62.314-2.05 89.815-15.544 21.381-6.232 39.097-17.384 52.677-32.873s20.535-34.46 20.712-56.204c.595-22.183-5.162-40.751-17.039-54.75-11.886-13.99-30.283-25.321-54.505-33.302-28.226-13.575-77.413-28.805-147.57-45.681-68.394-15.636-121.256-39.968-158.451-72.89C-165.989 54.89-183.9 6.557-182.437-56.954c-.207-30.472 6.885-60.894 20.728-88.853 13.834-27.96 34.029-52.691 58.992-72.258 52.416-42.074 120.102-63.954 202.354-65.445 124.189-2.702 237.322 41.104 339.407 131.435" fill="none" stroke="#ACACAC" class="svgStroke colorStrokeacacac-28 selectable"></path><path d="M-123.378 318.61c68.094 50.075 139.791 75.511 214.74 76.114 30.083 2.98 60.44-3.111 86.792-17.078 18.891-6.396 34.52-17.115 46.36-31.522 11.849-14.407 17.912-31.777 18.032-51.365.555-20.044-4.594-37.153-15.217-50.32-10.631-13.168-26.999-23.862-48.391-31.357-26.945-13.578-76.443-28.86-148.503-45.846-70.654-15.999-125.242-40.941-163.673-74.738-38.481-33.879-56.984-83.63-55.484-149.146-.208-31.213 7.048-62.362 21.218-91.002 14.161-28.64 34.828-53.979 60.382-74.022 53.495-43.066 122.674-65.474 206.989-67.062 125.991-2.749 240.286 41.335 342.869 132.253" fill="none" stroke="#ACACAC" class="svgStroke colorStrokeacacac-29 selectable"></path><path d="M-120.197 314.23c69.034 50.661 141.554 76.071 217.312 76.101 29.195 2.452 58.577-4.174 83.771-18.62 16.409-6.569 29.932-16.838 40.051-30.164s15.288-29.094 15.343-46.526c.524-17.905-4.025-33.554-13.394-45.899-9.377-12.345-23.716-22.393-42.279-29.411-25.655-13.572-75.463-28.923-149.434-46.019-72.905-16.354-129.23-41.907-168.888-76.577-39.708-34.753-58.81-85.94-57.275-153.441-.208-31.946 7.211-63.831 21.699-93.142 14.48-29.321 35.628-55.26 61.773-75.795 54.574-44.066 125.254-66.995 211.623-68.678 127.802-2.789 243.252 41.565 346.332 133.061" fill="none" stroke="#ACACAC" class="svgStroke colorStrokeacacac-30 selectable"></path><path d="M-117.015 309.852c69.974 51.237 143.325 76.629 219.875 76.078 28.316 1.924 56.705-5.235 80.741-20.161 13.92-6.742 25.354-16.57 33.734-28.814 8.389-12.245 12.674-26.411 12.663-41.696.484-15.766-3.466-29.946-11.571-41.469-8.123-11.513-20.433-20.933-36.167-27.457-24.373-13.575-74.492-28.978-150.356-46.193-75.158-16.717-133.217-42.88-174.103-78.424-40.935-35.635-60.629-88.24-59.066-157.737-.217-32.677 7.383-65.298 22.189-95.29 14.806-30.001 36.428-56.54 63.164-77.567 55.652-45.058 127.834-68.516 216.248-70.294 129.613-2.829 246.208 41.794 349.804 133.877" fill="none" stroke="#ACACAC" class="svgStroke colorStrokeacacac-31 selectable"></path><path d="M-113.839 305.474c70.913 51.823 145.088 77.188 222.438 76.064 27.427 1.396 54.841-6.289 77.719-21.694 11.438-6.916 20.767-16.294 27.426-27.465s10.05-23.727 9.982-36.856c.445-13.628-2.897-26.348-9.748-37.048-6.86-10.691-17.149-19.464-30.062-25.512-23.083-13.577-73.513-29.033-151.289-46.357-77.417-17.08-137.204-43.845-179.316-80.271-42.172-36.518-62.457-90.54-60.858-162.042-.218-33.418 7.546-66.766 22.679-97.439 15.134-30.672 37.228-57.827 64.554-79.331 56.731-46.049 130.406-70.037 220.883-71.902 131.415-2.867 249.173 42.033 353.267 134.686" fill="none" stroke="#ACACAC" class="svgStroke colorStrokeacacac-32 selectable"></path><path d="M-110.655 301.086c71.852 52.4 146.858 77.756 225.002 76.05 26.546.869 52.968-7.35 74.696-23.236 8.948-7.08 16.181-16.025 21.109-26.106 4.929-10.09 7.427-21.044 7.301-32.017.406-11.489-2.328-22.75-7.925-32.627-5.606-9.868-13.865-18.004-23.949-23.566-21.802-13.572-72.541-29.088-152.22-46.531-79.67-17.443-141.191-44.818-184.531-82.118-43.398-37.392-64.284-92.84-62.639-166.337-.219-34.15 7.708-68.235 23.168-99.579 15.461-31.354 38.027-59.108 65.945-81.104 57.81-47.049 132.985-71.558 225.517-73.518 133.225-2.907 252.129 42.263 356.729 135.502" fill="none" stroke="#ACACAC" class="svgStroke colorStrokeacacac-33 selectable"></path></g><g clip-path="url(#c)"><path fill="#7A5DA5" d="M301.068 84.149s1.198.28 2.532.892c.128.298.247.595.366.9" class="svgShape color7a5da5-35 selectable"></path><path stroke="#2E054E" stroke-linejoin="round" stroke-width=".85" d="M301.068 84.149s1.198.28 2.532.892c.128.298.247.595.366.9" fill="none" class="svgStroke colorStroke2e054e-36 selectable"></path><path fill="#050c4e" d="M301.068 84.149c-15.092-4.81-47.756-5.753-54.647 18.609-2.125 7.495.764 15.61 7.256 19.91 1.182.781 2.133 1.206 2.822 1.444-.06-.306-.119-.612-.196-.918-1.563-1.342-3.892-3.696-4.945-6.594-1.623-4.495.654-7.545 3.118-9.007.017-.008.026-.017.043-.025 4.758-2.804 25.993-2.303 32.494-12.662.765 1.292 2.575 5.464.408 13.426 0 0-.722 2.142 5.498 8.022a8.95 8.95 0 0 1 2.787 6.033l.195 3.841 8.26-.416 9.347-8.489s.79-1.581 1.513-4.096c1.555-5.43 3.738-21.711-8.821-25.968l-5.141-3.11" class="svgShape colora272f7-37 selectable"></path><path stroke="#2E054E" stroke-linejoin="round" stroke-width=".85" d="M301.068 84.149c-15.092-4.81-47.756-5.753-54.647 18.609-2.125 7.495.764 15.61 7.256 19.91 1.182.781 2.133 1.206 2.822 1.444-.06-.306-.119-.612-.196-.918-1.563-1.342-3.892-3.696-4.945-6.594-1.623-4.495.654-7.545 3.118-9.007.017-.008.026-.017.043-.025 4.758-2.804 25.993-2.303 32.494-12.662.765 1.292 2.575 5.464.408 13.426 0 0-.722 2.142 5.498 8.022a8.95 8.95 0 0 1 2.787 6.033l.195 3.841 8.26-.416 9.347-8.489s.79-1.581 1.513-4.096c1.555-5.43 3.738-21.711-8.821-25.968l-5.141-3.11" fill="none" class="svgStroke colorStroke2e054e-38 selectable"></path><path fill="#F90" stroke="#2E054E" stroke-linejoin="round" stroke-width=".85" d="m311.63 136.034.722 21.703c-6.687 7.58-26.308 12.95-26.308 12.95l-8.667-8.336-.493-3.756-.297-2.286c-17.794-.051-19.867-13.256-19.4-21.566.195-3.569 0-7.147-.688-10.631-.06-.305-.119-.611-.196-.917a31 31 0 0 0-.467-1.887c-2.065-7.452-1.7-11.862-1.36-13.715 4.682-2.838 26.019-2.302 32.528-12.686.765 1.291 2.575 5.464.408 13.426 0 0-.722 2.141 5.515 8.03a8.9 8.9 0 0 1 2.779 6.008l.195 3.857 6.424-.323c1.088 5.957 4.937 10.308 9.297 10.138z" class="svgShape colorff9900-39 svgStroke colorStroke2e054e-39 selectable"></path><path fill="#2E054E" stroke="#2E054E" stroke-linejoin="round" stroke-width=".85" d="M311.638 112.021c-1.13-.553-2.311-.782-3.501-.629a5.9 5.9 0 0 0-2.532.969c-.468-4.938-.697-19.842-6.577-28.34-.145-.212-.213-.467-.332-.696 2.456.34 6.169 1.308 8.489 4.29 4.113 6.476 3.994 19.715 4.444 24.397zM256.312 123.195c-1.563-1.343-3.892-3.697-4.945-6.594-1.623-4.496.654-7.546 3.118-9.008-.348 1.853-.705 6.263 1.36 13.715.178.629.331 1.258.467 1.887Z" class="svgShape color2e054e-40 svgStroke colorStroke2e054e-40 selectable"></path><path stroke="#2E054E" stroke-linejoin="round" stroke-width=".85" d="M272.389 133.485c-2.285 1.02-4.104 1.045-5.438.731-1.581-.374-2.983-2.091-2.235-3.535 1.215-2.346 1.309-6.237.96-9.517" fill="none" class="svgStroke colorStroke2e054e-41 selectable"></path><path fill="#2E054E" stroke="#2E054E" stroke-linejoin="round" stroke-width=".85" d="M282.773 115.539c-7.69-5.473-11.531-1.283-11.531-1.283l.128 2.464s4.512-2.787 11.488.467zM263.111 118.292s-6.374-1.598-7.963.272a30 30 0 0 1-.484-2.269c2.107-2.277 7.588-.51 7.588-.51l.859 2.498z" class="svgShape color2e054e-42 svgStroke colorStroke2e054e-42 selectable"></path><path fill="#2E054E" d="M279.527 126.507c.754-.038 1.301-1.349 1.221-2.929s-.756-2.829-1.511-2.791-1.302 1.35-1.222 2.929c.081 1.58.757 2.829 1.512 2.791M263.077 127.313c.754-.038 1.301-1.35 1.221-2.929-.08-1.58-.757-2.829-1.511-2.791-.755.038-1.302 1.35-1.222 2.929.08 1.58.757 2.829 1.512 2.791" class="svgShape color2e054e-43 selectable"></path><path fill="#fff" stroke="#2E054E" stroke-linejoin="round" stroke-width=".85" d="M265.993 139.226a18 18 0 0 1-2.332-.447c1.084 1.142 2.731 4.691 6.396 4.889 3.029.171 6.594-1.466 10.94-5.63-6.667 1.709-11.686 1.656-15.004 1.179z" class="svgShape colorffffff-44 svgStroke colorStroke2e054e-44 selectable"></path><path stroke="#2E054E" stroke-linejoin="round" stroke-width=".85" d="M267.307 145.79s3.187 3.45 8.073-.57" fill="none" class="svgStroke colorStroke2e054e-45 selectable"></path><path fill="#231F20" stroke="#2E054E" stroke-linejoin="round" stroke-width=".85" d="m276.884 158.596-.298-2.286c2.473.008 5.26-.23 8.387-.79 0 0-4.605 2.226-8.089 3.076Z" class="svgShape color231f20-46 svgStroke colorStroke2e054e-46 selectable"></path><path stroke="#2E054E" stroke-linejoin="round" stroke-width=".85" d="M249.013 118.122c-7.13-9.891-2.94-28.925 29.749-30.582M290.957 91.176s-1.963-.501-3.935 3.73M312.438 122.965s-8.659 22.51-26.614 20.062" fill="none" class="svgStroke colorStroke2e054e-47 selectable"></path><path fill="#2E054E" stroke="#2E054E" stroke-linejoin="round" stroke-width=".85" d="m289.243 140.783-3.225.163a2.073 2.073 0 1 0 .21 4.142l3.225-.164a2.074 2.074 0 0 0-.21-4.141Z" class="svgShape color2e054e-48 svgStroke colorStroke2e054e-48 selectable"></path><path fill="#0022ff" stroke="#2E054E" stroke-linejoin="round" stroke-width=".85" d="M318.293 122.668c.365 7.18-3.365 13.196-8.319 13.451h-.068c-4.359.17-8.209-4.181-9.296-10.137a18 18 0 0 1-.281-2.405c-.297-5.846 2.125-10.936 5.719-12.755a6.4 6.4 0 0 1 2.6-.696c1.198-.06 2.363.22 3.433.79.918.476 1.768 1.155 2.524 2.005 2.056 2.286 3.476 5.778 3.679 9.755z" class="svgShape colord4bdfa-49 svgStroke colorStroke2e054e-49 selectable"></path><path fill="#E8DBFF" stroke="#2E054E" stroke-linejoin="round" stroke-width=".85" d="M312.861 131.445c3.23-.164 5.656-4.085 5.419-8.757-.237-4.673-3.047-8.329-6.276-8.165-3.229.163-5.655 4.084-5.419 8.757s3.047 8.328 6.276 8.165Z" class="svgShape colore8dbff-50 svgStroke colorStroke2e054e-50 selectable"></path><path fill="#0028ff" stroke="#2E054E" stroke-linejoin="round" stroke-width=".85" d="m284.438 169.141-.161-.068c-1.759-.705-3.739.34-4.13 2.201l-1.869 8.718-2.448 11.37-1.24-23.98.416-1.793 1.649-7.07h.374l.297 3.781 7.104 6.849z" class="svgShape color6e00aa-51 svgStroke colorStroke2e054e-51 selectable"></path><path fill="#2E054E" stroke="#2E054E" stroke-linejoin="round" stroke-width=".85" d="m278.371 179.499 5.489-10.299.807.187c-1.657-1.631-4.376.051-4.597 2.269l-1.691 7.835z" class="svgShape color2e054e-52 svgStroke colorStroke2e054e-52 selectable"></path><path fill="#0028ff" stroke="#2E054E" stroke-linejoin="round" stroke-width=".85" d="M314.664 164.042c-2.073 10.885-18.881 29.019-18.881 29.019-.621-3.756-2.524-9.152-4.402-13.885a215 215 0 0 0-3.781-8.922c4.673-1.385 18.643-5.923 24.753-12.509l-.051-1.47h.442l1.64 6.552z" class="svgShape color6e00aa-53 svgStroke colorStroke2e054e-53 selectable"></path><path fill="#F90" stroke="#2E054E" stroke-linejoin="round" stroke-width=".85" d="M382.593 272.775c-.391 5.277-4.079 9.781-9.194 11.124-19.443 5.123-38.332 2.268-54.886-1.352-4.393-.951-8.624-1.963-12.644-2.897-.671-.994-1.291-2.244-1.767-3.824-1.623-5.336-8.149-5.073-10.172 0h-35.281c.178-4.861 1.385-13.384 7.129-19.689 3.221-3.526 7.869-6.364 14.556-7.46 4.852-.799 10.588-.748 16.995-.281 13.137.952 29.053 3.646 45.708 4.359 12.763.544 25.968-.076 38.681-3.526.815 6.806 1.478 15.61.892 23.538z" class="svgShape colorff9900-54 svgStroke colorStroke2e054e-54 selectable"></path><path fill="#050c4e" d="M365.588 186.917c-12.899-17.097-42.368-22.748-51.214-24.082l.281 1.207c-2.074 10.885-18.882 29.018-18.882 29.018-.62-3.755-2.524-9.151-4.402-13.884a215 215 0 0 0-3.781-8.923l-1.555.442-1.597-1.546-.162-.068c-1.759-.706-3.739.339-4.13 2.2L278.277 180l-2.447 11.369-1.241-23.979.416-1.793c-7.732 1.657-30.31 7.52-42.988 21.668-18.516 20.657-31.925 72.976-36.99 95.316h43.193v-6.713h20.411c.178-4.86 1.385-13.383 7.129-19.688 3.221-3.527 7.869-6.365 14.556-7.461 4.852-.799 10.588-.748 16.995-.281 13.137.952 29.053 3.646 45.708 4.36 12.763.543 25.968-.077 38.68-3.527.34-.952 2.482-5.642 3.986-8.922a5.4 5.4 0 0 0 .204-3.952c-7.232-21.566-13.146-39.972-20.301-49.455z" class="svgShape color6e00aa-55 selectable"></path><mask id="d" width="192" height="121" x="195" y="162" maskUnits="userSpaceOnUse" style="mask-type:luminance"><path fill="#fff" d="M365.586 186.918c-12.899-17.097-42.368-22.747-51.214-24.082l.281 1.207c-2.074 10.885-18.882 29.019-18.882 29.019-.62-3.756-2.524-9.152-4.401-13.885a216 216 0 0 0-3.782-8.922l-1.555.442-1.597-1.547-.162-.068c-1.759-.705-3.739.34-4.13 2.201l-1.869 8.718-2.447 11.37-1.241-23.98.416-1.793c-7.732 1.657-30.31 7.52-42.988 21.669-18.516 20.657-31.925 72.976-36.99 95.316h43.193v-6.713h20.411c.178-4.861 1.385-13.384 7.129-19.689 3.221-3.526 7.869-6.365 14.556-7.461 4.852-.799 10.588-.748 16.995-.28 13.137.952 29.053 3.645 45.708 4.359 12.763.544 25.968-.076 38.68-3.526.34-.952 2.482-5.643 3.986-8.923a5.39 5.39 0 0 0 .204-3.951c-7.232-21.567-13.146-39.972-20.301-49.455z" class="svgShape colorffffff-57 selectable"></path></mask><g mask="url(#d)"><path stroke="#2E054E" stroke-linejoin="round" stroke-width=".85" d="m282.192 172.327.11 39.53h6.688v-39.683l-3.17-6.16z" fill="none" class="svgStroke colorStroke2e054e-59 selectable"></path></g><path stroke="#2E054E" stroke-linejoin="round" stroke-width=".85" d="M365.588 186.917c-12.899-17.097-42.368-22.748-51.214-24.082l.281 1.207c-2.074 10.885-18.882 29.018-18.882 29.018-.62-3.755-2.524-9.151-4.402-13.884a215 215 0 0 0-3.781-8.923l-1.555.442-1.597-1.546-.162-.068c-1.759-.706-3.739.339-4.13 2.2L278.277 180l-2.447 11.369-1.241-23.979.416-1.793c-7.732 1.657-30.31 7.52-42.988 21.668-18.516 20.657-31.925 72.976-36.99 95.316h43.193v-6.713h20.411c.178-4.86 1.385-13.383 7.129-19.688 3.221-3.527 7.869-6.365 14.556-7.461 4.852-.799 10.588-.748 16.995-.281 13.137.952 29.053 3.646 45.708 4.36 12.763.543 25.968-.077 38.68-3.527.34-.952 2.482-5.642 3.986-8.922a5.4 5.4 0 0 0 .204-3.952c-7.232-21.566-13.146-39.972-20.301-49.455zM245.528 202.663l-4.402 47.942" fill="none" class="svgStroke colorStroke2e054e-60 selectable"></path><path fill="#acaeff" stroke="#221F1F" stroke-miterlimit="10" stroke-width=".85" d="M296.351 275.843H238.22v6.713h58.131z" class="svgShape color6567ad-61 svgStroke colorStroke221f1f-61 selectable"></path><path fill="#D67B03" stroke="#2E054E" stroke-linejoin="round" stroke-width=".85" d="M296.361 277.61v-1.767h-2.439c2.022-5.073 8.548-5.337 10.171 0 .485 1.58 1.097 2.821 1.768 3.823-3.314-.764-6.484-1.478-9.509-2.056z" class="svgShape colord67b03-62 svgStroke colorStroke2e054e-62 selectable"></path><path fill="#acaeff" stroke="#341E54" stroke-miterlimit="10" stroke-width=".85" d="M259.898 282.557h-99.76l-22.578-78.644h99.76z" class="svgShape colorb4b8dd-63 svgStroke colorStroke341e54-63 selectable"></path><path stroke="#2E054E" stroke-linejoin="round" stroke-width=".85" d="M286.045 254.999s-14.072 1.036-16.358 20.844M283.546 275.843c-.526-15.474 15.525-15.737 15.525-15.737" fill="none" class="svgStroke colorStroke2e054e-64 selectable"></path><path fill="#050c4e" stroke="#221F1F" stroke-miterlimit="10" stroke-width=".85" d="m185.774 239.576 5.906-8.259c.552-.774 1.81-.774 2.795 0l10.605 8.259c.994.774 1.351 2.031.799 2.796l-5.906 8.259c-.552.774-1.81.774-2.795 0l-10.605-8.259c-.994-.773-1.351-2.031-.799-2.796Z" class="svgShape colore7dbfc-65 svgStroke colorStroke221f1f-65 selectable"></path><path fill="#000cff" stroke="#2E054E" stroke-linejoin="round" stroke-width=".85" d="m323.999 208.669-5.709-5.709a1.55 1.55 0 0 0-2.19 0l-5.71 5.709a1.55 1.55 0 0 0 0 2.19l5.71 5.71a1.55 1.55 0 0 0 2.19 0l5.709-5.71a1.55 1.55 0 0 0 0-2.19Z" class="svgShape coloreb4974-66 svgStroke colorStroke2e054e-66 selectable"></path><path stroke="#2E054E" stroke-linejoin="round" stroke-width=".85" d="M339.824 207.107c2.473 20.148 3.059 38.264 3.195 45.657" fill="none" class="svgStroke colorStroke2e054e-67 selectable"></path></g></g><defs><clipPath id="a"><path fill="#fff" d="M0 20C0 8.954 8.954 0 20 0h376c11.046 0 20 8.954 20 20v360c0 11.046-8.954 20-20 20H20c-11.046 0-20-8.954-20-20z" class="svgShape colorffffff-70 selectable"></path></clipPath><clipPath id="b"><path fill="#fff" d="M0-21.165h478v538H0z" class="svgShape colorffffff-72 selectable"></path></clipPath><clipPath id="c"><path fill="#fff" d="M137 80.997h249.596V287.11H137z" class="svgShape colorffffff-74 selectable"></path></clipPath></defs></svg></g></svg>