<svg id="SvgjsSvg1941" width="288" height="288" xmlns="http://www.w3.org/2000/svg" version="1.1" xmlns:xlink="http://www.w3.org/1999/xlink" xmlns:svgjs="http://svgjs.com/svgjs"><defs id="SvgjsDefs1942"></defs><g id="SvgjsG1943"><svg xmlns="http://www.w3.org/2000/svg" viewBox="0 0 132 146" width="288" height="288"><mask id="a" width="111" height="119" x="11" y="17" maskUnits="userSpaceOnUse" style="mask-type:luminance"><path fill="#fff" d="m13.42 42.01 51.07-24.445a4.29 4.29 0 0 1 3.676 0l51.07 24.445a4.25 4.25 0 0 1 2.421 3.835V58.42c0 31.137-17.869 59.498-45.954 72.944l-7.537 3.604a4.29 4.29 0 0 1-3.675 0l-7.538-3.604C28.87 117.927 11 89.557 11 58.42V45.845a4.25 4.25 0 0 1 2.42-3.835" class="svgShape colorffffff-1 selectable"></path></mask><g mask="url(#a)"><path stroke="#050c4e" stroke-miterlimit="10" stroke-width=".446" d="M37.927 76.271H-1.201M133.048 76.271h-38.06M43.667 54.015l-25.21-25.202" fill="none" class="svgStroke colorStroke30ce95-3 selectable"></path><path stroke="#B994F8" stroke-miterlimit="10" stroke-width=".446" d="m113.389 123.738-8.347-8.339" fill="none" class="svgStroke colorStrokeb994f8-4 selectable"></path><path stroke="#050c4e" stroke-miterlimit="10" stroke-width=".446" d="m92.326 49.868 21.063-21.055" fill="none" class="svgStroke colorStroke30ce95-5 selectable"></path><path stroke="#B994F8" stroke-miterlimit="10" stroke-width=".446" d="m18.457 123.738 10.696-10.696" fill="none" class="svgStroke colorStrokeb994f8-6 selectable"></path><path stroke="#050c4e" stroke-miterlimit="10" stroke-width=".446" d="M65.923 22.7V9.146M65.923 143.395v-21.357" fill="none" class="svgStroke colorStroke30ce95-7 selectable"></path><path fill="#fff" stroke="#2E054E" stroke-miterlimit="10" stroke-width=".446" d="M92.682 87.635c-1.37-.872-3.453-1.112-5.553-.498-1.637.48-2.98 1.379-3.818 2.456-.818 1.05-1.165 2.251-.836 3.372 0 0-.4-.471-2.03-5.401q-.103-.323-.222-.659c.258-.151.508-.302.739-.454.25-.15.41-.373.49-.614.08-.222.088-.462.026-.685a1 1 0 0 0-.178-.383 1.1 1.1 0 0 0-.525-.409h-.018a28 28 0 0 0-1.53-.57c-.01-.044-.018 0-.018 0-4.174-1.423-8.837-1.993-12.903-2.162-.641.018-1.273.063-1.486.08h-.08c-3.667.25-11.355 2.047-11.364 2.092a28 28 0 0 0-1.53.57h-.019c-.231.088-.41.24-.525.426a1.198 1.198 0 0 0-.142 1.059c.08.24.24.463.49.614q.36.228.747.454c-.08.231-.151.454-.223.668-1.628 4.93-2.029 5.401-2.029 5.401.33-1.121-.017-2.323-.836-3.373-.837-1.067-2.18-1.975-3.818-2.456-2.109-.614-4.182-.373-5.553.499a80 80 0 0 0 3.435-8.178c.864-2.065 2.047-10.412 3.453-14.247a12.3 12.3 0 0 1 2.465-4.067 12.2 12.2 0 0 1 4.806-3.24c2.286-.836 3.968-1.69 5.205-2.491.56.56 1.282 1.183 2.136 1.682.961.56 2.091.96 3.328.952 1.041 0 2.162-.303 3.328-1.032.828-.517 1.691-1.255 2.563-2.26 1.112.515 4.04 1.112 6.523 1.566 3.355.605 6.256 2.714 7.804 5.757.018.027.027.053.044.08 1.771 3.497 2.199 13.162 4.245 17.3a78 78 0 0 0 3.445 8.187z" class="svgShape colorffffff-8 svgStroke colorStroke2e054e-8 selectable"></path><path fill="#F7981D" stroke="#240E32" stroke-miterlimit="10" stroke-width=".446" d="M74.307 42.464c0 2.305-1.78 2.492-1.78 2.492l-.694-.152s-.623 3.07-3.061 4.975c-.071.267-.134.57-.205.907-.33 1.656.499 3.338 2.03 4.05l.035.017c-.872 1.006-1.736 1.745-2.563 2.26-1.175.73-2.296 1.033-3.328 1.033-1.246 0-2.367-.4-3.328-.952a10.4 10.4 0 0 1-2.136-1.682c.08-.054.151-.098.222-.151a3.72 3.72 0 0 0 1.584-3.658 29 29 0 0 0-.213-1.157c-3.026-1.664-3.667-5.277-3.667-5.277h-.418s-1.477-.471-1.61-2.572v-.026c-.072-1.264.453-1.7.934-1.834.4-.106.827.072 1.077.41l.765 1.068s1.077-.356.302-2.652a9 9 0 0 0-.08-.258c-.276-1.148.392-2.27 1.478-2.75a2.43 2.43 0 0 0 1.423-1.86 7.28 7.28 0 0 0 4.699 1.682c1.468 0 2.83-.418 3.96-1.139a1.75 1.75 0 0 0 .41 1.806c.133.178.329.365.613.561 1.077.73.463 2.519.143 3.257a1.63 1.63 0 0 0-.116.943c.062.33.214.686.587.81l.837-1.308c.258-.4.738-.632 1.201-.507.454.124.908.534.908 1.682z" class="svgShape colorf7981d-9 svgStroke colorStroke240e32-9 selectable"></path><path fill="#050c4e" stroke="#2E054E" stroke-miterlimit="10" stroke-width=".446" d="M102.524 115.533c-3.123 2.776-8.952 5.188-19.8 3.702-7.973-1.095-13.028-1.281-15.884-1.05l-.009-.018a35.7 35.7 0 0 0 2.323-6.701c.16-.667.293-1.317.4-1.958.863-4.975.392-9.032-.151-11.533 4.431 1.05 10.305 2.341 14.095 2.83a83 83 0 0 1 7.44-3.658c7.217.614 11.097 3.916 13.17 7.404 2.136 3.578 1.549 8.215-1.566 10.982zM62.016 107.186l-1.175 7.448-.765 4.85c-1.745-.258-4.886-.418-9.709.391-2.27.383-15.956 4.138-21.642-2.971-2.376-2.964-2.58-7.084-.819-10.456 1.976-3.783 5.874-7.45 13.358-9.122a3.8 3.8 0 0 1 1.7 0c1.779.382 5.97 1.495 9.94 4.084.56.365 1.236.811 2.01 1.3a438 438 0 0 0 7.093 4.476z" class="svgShape color6b3192-10 svgStroke colorStroke2e054e-10 selectable"></path><path stroke="#2E054E" stroke-miterlimit="10" stroke-width=".446" d="M37.296 108.209s1.931-3.595 9.913-4.307c2.75-.249 5.42-.632 7.715-1.201" fill="none" class="svgStroke colorStroke2e054e-11 selectable"></path><path fill="#F7981D" stroke="#240E32" stroke-miterlimit="10" stroke-width=".446" d="M69.545 109.518c-.107.631-.24 1.289-.4 1.957-.472-.267-.944-.552-1.433-.836-.036-.027-.072-.045-.107-.063a312 312 0 0 1-5.589-3.382 483 483 0 0 1-9.103-5.775c-2.234-1.46-4.53-2.447-6.443-3.105-.32-.107-.623-.205-.916-.303a32.114 32.114 0 0 0-2.58-.685c-.072-.018-.134-.027-.206-.045a3.8 3.8 0 0 0-1.486.045c.499-3.266 3.337-2.323 3.337-2.323.196-.365.534-.605.97-.766a4.2 4.2 0 0 1 1.273-.221h.427c.854 0 1.797.142 2.687.32.605.124 1.22.205 1.834.24 1.672.107 3.363-.09 4.974-.605a43 43 0 0 1 1.86-.56c4.627-1.318 4.707 3.105 4.707 3.105s2.207.57 5.277 1.3c.258.062.525.124.792.186.543 2.501 1.024 6.559.151 11.533z" class="svgShape colorf7981d-12 svgStroke colorStroke240e32-12 selectable"></path><path stroke="#2E054E" stroke-miterlimit="10" stroke-width=".446" d="M83.49 100.805c1.148.152 2.1.223 2.767.196 4.61-.205 8.214 2.901 8.214 2.901" fill="none" class="svgStroke colorStroke2e054e-13 selectable"></path><path fill="#F7981D" stroke="#240E32" stroke-miterlimit="10" stroke-width=".446" d="M67.605 110.568c-.018.053-.027.097-.045.151a194 194 0 0 1-6.718 3.915l1.175-7.448a331 331 0 0 0 5.588 3.382ZM90.697 97.246a83.12 83.12 0 0 0-7.208 3.56c-3.792-.49-9.665-1.78-14.096-2.83l-.792-.187c.026 0 .035-.01.035-.01s-.035-.782.276-1.61c.427-1.14 1.513-2.367 4.227-1.772.712.16 1.335.304 1.887.446 1.895.49 3.88.96 5.802.738a8 8 0 0 0 1.005-.195c1.042-.276 2.171-.499 3.141-.499.525 0 1.006.063 1.398.205.026 0 .053.018.08.036.33.133.596.337.765.614 0 0 2.848-.855 3.453 1.494z" class="svgShape colorf7981d-14 svgStroke colorStroke240e32-14 selectable"></path><path fill="#372856" stroke="#2E054E" stroke-miterlimit="10" stroke-width=".446" d="M69.144 111.466a35.5 35.5 0 0 1-2.313 6.692c-.32-1.112-.356-3.266.738-7.44a.8.8 0 0 0 .143-.088c.49.284.96.569 1.432.836Z" class="svgShape color372856-15 svgStroke colorStroke2e054e-15 selectable"></path><path stroke="#2E054E" stroke-miterlimit="10" stroke-width=".446" d="M51.284 84.76c1.424-3.167 2.243-6.95 2.643-9.308.054-.32.107-.614.143-.872" fill="none" class="svgStroke colorStroke2e054e-16 selectable"></path><path stroke="#2E054E" stroke-miterlimit="10" stroke-width=".446" d="M55.894 75.773a5.09 5.09 0 0 1-3.284-4.761c0-1.255.454-2.412 1.21-3.302l-.275-2.883" fill="none" class="svgStroke colorStroke2e054e-17 selectable"></path><path fill="#F7981D" stroke="#240E32" stroke-miterlimit="10" stroke-width=".446" d="M79.734 87.172c-.098.054-.187.107-.285.16-4.111-.845-12.414-3.399-26.305 0-.098-.053-.196-.106-.285-.16l.534-3.417c3.649-1.246 7.68-1.833 11.346-2.082h.125c.49-.036.961-.054 1.441-.08 4.067.178 8.73.747 12.904 2.162l.534 3.417z" class="svgShape colorf7981d-18 svgStroke colorStroke240e32-18 selectable"></path><path stroke="#2E054E" stroke-miterlimit="10" stroke-width=".446" d="M76.183 35.852a8 8 0 0 0-.25-1.032M56.162 35.452a2.6 2.6 0 0 1-.534-.632" fill="none" class="svgStroke colorStroke2e054e-19 selectable"></path><path fill="#050c4e" stroke="#2E054E" stroke-miterlimit="10" stroke-width=".446" d="M59.49 55.252c-.071.053-.152.098-.223.151-1.237.8-2.91 1.655-5.206 2.492a12.14 12.14 0 0 0-4.805 3.239l-.276-.098a2.81 2.81 0 0 1-1.406-2.447 2.82 2.82 0 0 1 2.821-2.821h-.142a2.82 2.82 0 0 0 2.82-2.821c0-.57-.124-1.104-.382-1.549-.178-.311-1.628-2.064-1.7-3.8-.07-1.735.873-3.274 2.198-4.182a5.09 5.09 0 0 1-1.512-3.63c0-2.421 1.69-4.441 3.95-4.957a2.721 2.721 0 0 1 3.132-4.013c.277 1.53 1.113 2.883 2.288 3.87a2.38 2.38 0 0 1-1.424 1.86c-1.085.472-1.753 1.602-1.477 2.75.018.089.044.178.08.258.774 2.296-.303 2.652-.303 2.652l-.765-1.068c-.249-.338-.667-.516-1.077-.41-.48.134-1.005.57-.934 1.834v.027c.125 2.1 1.61 2.571 1.61 2.571h.419s.64 3.613 3.666 5.277c.072.339.143.73.214 1.157a3.73 3.73 0 0 1-1.584 3.658z" class="svgShape color795ca6-20 svgStroke colorStroke2e054e-20 selectable"></path><path fill="#2E054E" stroke="#2E054E" stroke-miterlimit="10" stroke-width=".446" d="m59.418 39.67.018-.623s.996-1.985 3.488-.632l.116 1.068s-2.1-1.05-3.63.187zM69.616 39.67l-.018-.623s-.996-1.985-3.488-.632l-.116 1.068s2.1-1.05 3.63.187z" class="svgShape color2e054e-21 svgStroke colorStroke2e054e-21 selectable"></path><path stroke="#2E054E" stroke-miterlimit="10" stroke-width=".446" d="M66.396 41.966s1.076.542 2.189-.143M60.325 41.85s1.015.65 2.19.09M64.107 41.68s-.09 1.452-.507 2.502c0 0 .16.293.738.533M61.411 45.899s2.536 1.815 5.66-.169" fill="none" class="svgStroke colorStroke2e054e-22 selectable"></path><path fill="#050c4e" stroke="#2E054E" stroke-miterlimit="10" stroke-width=".446" d="M87.28 58.669a3.79 3.79 0 0 1-2.279 3.48c-.017-.027-.026-.054-.044-.08-1.549-3.035-4.45-5.153-7.804-5.758-2.483-.445-5.41-1.041-6.523-1.566l-.036-.018c-1.53-.712-2.358-2.403-2.028-4.05.07-.337.133-.64.204-.907 2.438-1.904 3.061-4.974 3.061-4.974l.694.15s1.78-.195 1.78-2.49c0-1.149-.454-1.558-.908-1.683-.462-.124-.943.107-1.2.508l-.837 1.308c-.374-.125-.525-.48-.588-.81-.062-.32 0-.64.116-.944.311-.73.934-2.527-.142-3.256a2.4 2.4 0 0 1-.614-.561 1.74 1.74 0 0 1-.41-1.807 7.34 7.34 0 0 1-3.96 1.14 7.3 7.3 0 0 1-4.698-1.682c-1.175-.988-2.011-2.34-2.287-3.871a6 6 0 0 1-.107-1.148c0-.454.053-.9.142-1.326a12.06 12.06 0 0 1 5.954-1.558c5.33 0 9.824 3.409 11.176 8.045a3.7 3.7 0 0 1 1.442-.258c1.869.036 3.47 1.468 3.684 3.32a3.78 3.78 0 0 1-.845 2.882 5.48 5.48 0 0 1 2.59 4.663c0 .837-.187 1.638-.526 2.35a4.64 4.64 0 0 1 4.227 3.648 4.61 4.61 0 0 1-1.032 4.014 3.78 3.78 0 0 1 1.807 3.23z" class="svgShape color795ca6-23 svgStroke colorStroke2e054e-23 selectable"></path><path stroke="#2E054E" stroke-miterlimit="10" stroke-width=".446" d="M82.279 47.786a5.4 5.4 0 0 1-1.086 1.54" fill="none" class="svgStroke colorStroke2e054e-24 selectable"></path><path fill="#fff" stroke="#2E054E" stroke-miterlimit="10" stroke-width=".446" d="M72.793 46.068a1.006 1.006 0 1 0 0-2.011 1.006 1.006 0 0 0 0 2.011ZM56.242 46.068a1.006 1.006 0 1 0 0-2.011 1.006 1.006 0 0 0 0 2.011Z" class="svgShape colorffffff-25 svgStroke colorStroke2e054e-25 selectable"></path><path fill="#795CA6" stroke="#2E054E" stroke-miterlimit="10" stroke-width=".446" d="M50.109 92.956a1.27 1.27 0 0 1-.97.872c-.48.099-1.202.152-2.154-.053.721-1.246 1.486-2.634 2.296-4.191.819 1.041 1.166 2.251.837 3.372zM53.385 83.755l-.534 3.417c-.16-.089-.33-.187-.49-.285a27 27 0 0 1-.747-.454 1.13 1.13 0 0 1-.49-.614 1.2 1.2 0 0 1-.026-.685q.091-.186.169-.373c.124-.178.302-.33.525-.428h.018a28 28 0 0 1 1.53-.57h.018z" class="svgShape color795ca6-26 svgStroke colorStroke2e054e-26 selectable"></path><path stroke="#2E054E" stroke-miterlimit="10" stroke-width=".446" d="M81.3 84.743c-1.415-3.16-2.233-6.941-2.643-9.29-.062-.374-.115-.704-.169-.997" fill="none" class="svgStroke colorStroke2e054e-27 selectable"></path><path stroke="#2E054E" stroke-miterlimit="10" stroke-width=".446" d="M76.69 75.621a5.094 5.094 0 0 0 2.038-8.098l.054-.026.258-2.67" fill="none" class="svgStroke colorStroke2e054e-28 selectable"></path><path fill="#F7981D" stroke="#240E32" stroke-miterlimit="10" stroke-width=".446" d="M105.131 100.556a.8.8 0 0 1-.143.454l-.791 1.183a2.3 2.3 0 0 1-2.091 1.015 2.2 2.2 0 0 1-.997-.32c-.107-.446-.436-.917-.934-1.255a2 2 0 0 0-.312-.178 1.245 1.245 0 0 1-1.69-.036 1 1 0 0 0-.277.267c-.41.606-.045 1.567.81 2.136l-1.46-.027 1.442 1.131.178-.117a.86.86 0 0 1 .49-.142.6.6 0 0 1 .169.018.89.89 0 0 1 .551 1.406c-.035.053-.08.098-.124.151-.748.828-2.056.837-2.883.089l-2.563-2.278s-3.15-.436-8.872-10.27a105 105 0 0 1-2.296-4.19c.837-1.068 2.18-1.976 3.818-2.456 2.109-.614 4.182-.374 5.552.498 2.403 4.885 5.642 9.976 9.727 13.215l.685-.632a1.8 1.8 0 0 1 1.219-.471c.481 0 .819.391.819.818z" class="svgShape colorf7981d-29 svgStroke colorStroke240e32-29 selectable"></path><path stroke="#2E054E" stroke-miterlimit="10" stroke-width=".446" d="m102.407 100.841-.543.498M95.37 98.01c.418 2.395 2.589 1.514 2.589 1.514-.338.632-.24 1.183 0 1.611.062.107.133.204.214.275M97.959 96.952s3.996 2.599 1.904 4.494" fill="none" class="svgStroke colorStroke2e054e-30 selectable"></path><path fill="#F7981D" stroke="#240E32" stroke-miterlimit="10" stroke-width=".446" d="M100.984 103.769c-.409.605-1.432.631-2.286.062-.855-.578-1.22-1.531-.81-2.136a1 1 0 0 1 .275-.267c.375.365.953.454 1.415.223a1 1 0 0 0 .277-.187c.106.044.204.107.311.178.498.338.828.8.934 1.254.08.321.044.632-.124.89z" class="svgShape colorf7981d-31 svgStroke colorStroke240e32-31 selectable"></path><path stroke="#2E054E" stroke-miterlimit="10" stroke-width=".446" d="m98.697 104.944-.018-.018M98.68 104.926l-.578.382" fill="none" class="svgStroke colorStroke2e054e-32 selectable"></path><path fill="#050c4e" stroke="#2E054E" stroke-miterlimit="10" stroke-width=".446" d="M80.845 95.59c-1.923.232-3.907-.249-5.802-.738a45 45 0 0 0-1.887-.445c-2.723-.596-3.8.623-4.227 1.771-.311.827-.276 1.61-.276 1.61s-.009 0-.035.01c-3.07-.73-5.277-1.3-5.277-1.3s-.08-4.413-4.708-3.106c-.703.196-1.317.383-1.86.561-1.61.517-3.292.721-4.974.606l1.023-7.155.036-.232c.098.054.196.107.285.16 13.89-3.399 22.202-.845 26.304 0 .098-.053.187-.106.285-.16l.036.232z" class="svgShape color6b3192-33 svgStroke colorStroke2e054e-33 selectable"></path><path fill="#795CA6" stroke="#2E054E" stroke-miterlimit="10" stroke-width=".446" d="M85.606 93.784c-.952.204-1.673.151-2.153.054a1.26 1.26 0 0 1-.97-.873c-.33-1.121.017-2.323.836-3.372a91 91 0 0 0 2.296 4.19zM81.452 85.82c-.08.24-.24.462-.49.614-.24.15-.48.302-.739.453-.16.09-.32.187-.489.285l-.534-3.417h.018c.516.178 1.032.365 1.53.57h.018c.223.088.4.23.525.409.054.133.116.258.178.383.063.23.054.471-.026.694z" class="svgShape color795ca6-34 svgStroke colorStroke2e054e-34 selectable"></path><path fill="#F7981D" stroke="#240E32" stroke-miterlimit="10" stroke-width=".446" d="M49.274 89.584a91 91 0 0 1-2.296 4.191c-5.722 9.834-8.872 10.27-8.872 10.27l-2.563 2.277c-.836.748-2.136.74-2.883-.089a1 1 0 0 1-.125-.15.86.86 0 0 1-.178-.535c0-.409.276-.792.73-.871a1 1 0 0 1 .17-.018c.168 0 .337.053.489.142l.169.115 1.441-1.129-1.46.026c.855-.579 1.22-1.531.81-2.135a.9.9 0 0 0-.275-.268 1.26 1.26 0 0 1-1.424.223 1.1 1.1 0 0 1-.276-.187 1.6 1.6 0 0 0-.311.178c-.499.329-.828.801-.935 1.246a2.288 2.288 0 0 1-3.088-.694l-.792-1.184a.8.8 0 0 1-.142-.453c0-.428.338-.82.819-.82.453 0 .89.17 1.219.472l.685.632c4.084-3.23 7.324-8.33 9.726-13.215 1.37-.872 3.453-1.112 5.553-.498 1.629.48 2.972 1.38 3.818 2.456z" class="svgShape colorf7981d-35 svgStroke colorStroke240e32-35 selectable"></path><path stroke="#2E054E" stroke-miterlimit="10" stroke-width=".446" d="m33.148 101.517-.143.125M30.72 101.339l-.543-.498M34.42 101.419c.081-.08.152-.169.215-.276.23-.427.329-.979 0-1.61 0 0 2.17.881 2.59-1.513M32.72 101.455c-2.09-1.895 1.905-4.494 1.905-4.494" fill="none" class="svgStroke colorStroke2e054e-36 selectable"></path><path fill="#F7981D" stroke="#240E32" stroke-miterlimit="10" stroke-width=".446" d="M33.887 103.83c-.854.579-1.878.553-2.287-.061-.169-.259-.205-.57-.125-.891.107-.444.436-.916.935-1.245.098-.071.205-.125.311-.178.09.08.178.142.276.187.463.231 1.05.142 1.424-.223.107.071.205.16.276.267.41.606.044 1.566-.81 2.136z" class="svgShape colorf7981d-37 svgStroke colorStroke240e32-37 selectable"></path><path stroke="#2E054E" stroke-miterlimit="10" stroke-width=".446" d="m33.906 104.926-.018.018M34.483 105.308l-.579-.382" fill="none" class="svgStroke colorStroke2e054e-38 selectable"></path><path fill="#050c4e" stroke="#231F20" stroke-miterlimit="10" stroke-width=".446" d="M47.983 96.205c-.338.756-1.477 1.041-2.99.89.178-.232.383-.854.668-1.148 0 0 1.317.177 1.059-.614-.837-1.006-2.287-2.065-4.076-2.865-1.789-.81-3.542-1.202-4.85-1.157a70 70 0 0 1-.96 1.61c-.562-.739-.775-1.442-.526-1.985.276-.622 1.103-.925 2.243-.925 1.29 0 2.963.392 4.68 1.166 1.994.898 3.569 2.11 4.334 3.204.472.675.64 1.317.418 1.824Z" class="svgShape colorec1c24-39 svgStroke colorStroke231f20-39 selectable"></path><path stroke="#2E054E" stroke-miterlimit="10" stroke-width=".446" d="M47.262 96.134a4.4 4.4 0 0 0-.535-.793M37.803 91.31q-.497.014-.899.107" fill="none" class="svgStroke colorStroke2e054e-40 selectable"></path><path fill="#050c4e" stroke="#231F20" stroke-miterlimit="10" stroke-width=".446" d="M84.7 96.551c.338.757 1.69 1.05 3.203.89-.178-.231-.436-.712-.783-1.192 0 0-1.406.223-1.157-.57.836-1.005 2.287-2.064 4.076-2.865 1.789-.81 3.515-1.201 4.814-1.157.303.525.65 1.06.988 1.611.56-.739.774-1.442.525-1.985-.276-.623-1.103-.925-2.242-.925-1.29 0-2.964.391-4.681 1.166-1.994.899-3.569 2.109-4.334 3.203-.472.677-.64 1.317-.418 1.824z" class="svgShape colorec1c24-41 svgStroke colorStroke231f20-41 selectable"></path><path stroke="#2E054E" stroke-miterlimit="10" stroke-width=".446" d="M85.429 96.48a4.4 4.4 0 0 1 .534-.792M94.88 91.657c.33.009.633.045.9.107M60.85 50.446a6.6 6.6 0 0 0 1.806.659 7.8 7.8 0 0 0 1.985.151h.088c1.718-.089 3.035-.685 4.04-1.468" fill="none" class="svgStroke colorStroke2e054e-42 selectable"></path><mask id="b" width="54" height="39" x="39" y="54" maskUnits="userSpaceOnUse" style="mask-type:luminance"><path fill="#fff" d="M92.68 87.635c-1.37-.872-3.452-1.113-5.552-.498-1.637.48-2.98 1.379-3.818 2.456-.818 1.05-1.165 2.251-.836 3.372 0 0-.4-.471-2.03-5.401q-.104-.323-.222-.659c.259-.151.508-.302.739-.454.25-.15.41-.373.49-.614.08-.222.089-.462.026-.685a1 1 0 0 0-.178-.383 1.1 1.1 0 0 0-.525-.409h-.018a29 29 0 0 0-1.53-.57c-.01-.044-.018 0-.018 0-4.174-1.423-8.837-1.993-12.903-2.162-.641.018-1.273.063-1.486.08h-.08c-3.667.25-7.698.837-11.347 2.083 0 0 0-.036-.017 0-.516.178-1.033.365-1.53.57h-.019c-.231.088-.409.24-.525.426a1.197 1.197 0 0 0-.142 1.059c.08.24.24.463.49.614q.36.228.747.454c-.08.231-.151.454-.223.668-1.628 4.93-2.029 5.401-2.029 5.401.33-1.121-.017-2.323-.836-3.373-.837-1.067-2.18-1.975-3.818-2.456-2.109-.614-4.182-.373-5.553.499a80 80 0 0 0 3.435-8.178c.864-2.065 2.047-10.412 3.453-14.247a12.3 12.3 0 0 1 2.465-4.067 12.2 12.2 0 0 1 4.806-3.24c2.287-.836 3.968-1.69 5.205-2.491.56.56 1.282 1.183 2.136 1.682.961.56 2.091.96 3.328.952 1.041 0 2.163-.303 3.328-1.032.828-.516 1.691-1.255 2.563-2.26 1.112.515 4.04 1.112 6.523 1.565 3.355.606 6.256 2.715 7.804 5.758.018.027.027.053.044.08 1.771 3.497 2.199 13.162 4.245 17.3a78 78 0 0 0 3.445 8.187z" class="svgShape colorffffff-44 selectable"></path></mask><g stroke-miterlimit="10" mask="url(#b)"><path d="m48.309 63.322 3.393.591a.783.783 0 0 0 .906-.637l.591-3.392a.783.783 0 0 0-.637-.907l-3.393-.591a.783.783 0 0 0-.906.637l-.591 3.393a.783.783 0 0 0 .637.906ZM81.735 77.162l5.223 3.476a1.227 1.227 0 0 0 1.702-.341l3.477-5.223a1.23 1.23 0 0 0-.342-1.703l-5.223-3.476a1.23 1.23 0 0 0-1.702.342l-3.477 5.222a1.23 1.23 0 0 0 .342 1.703ZM75.727 79.83l1.048.469c.341.152.741-.001.894-.342l.467-1.049a.676.676 0 0 0-.342-.893l-1.048-.468a.676.676 0 0 0-.893.342l-.468 1.049a.676.676 0 0 0 .342.893ZM45.319 80.438l.478 1.64c.03.1.133.156.232.127l1.64-.478a.187.187 0 0 0 .128-.232l-.479-1.64a.187.187 0 0 0-.232-.127l-1.64.478a.187.187 0 0 0-.127.232ZM76.02 60.907l.247.846c.029.099.133.156.232.127l.845-.247a.187.187 0 0 0 .128-.232l-.247-.845a.187.187 0 0 0-.232-.127l-.846.246a.187.187 0 0 0-.127.232ZM62.463 66.33l1.342 3.278a.676.676 0 0 0 .882.37l3.278-1.343a.677.677 0 0 0 .37-.882l-1.343-3.277a.676.676 0 0 0-.882-.37l-3.278 1.342a.676.676 0 0 0-.37.882ZM59.949 76.835l.695.914c.226.297.65.355.948.129l.913-.696a.676.676 0 0 0 .129-.947l-.695-.914a.676.676 0 0 0-.948-.129l-.914.696a.676.676 0 0 0-.128.947Z" fill="none" stroke="#050c4e" stroke-width=".446" class="svgStroke colorStrokeec1b53-46 selectable"></path></g><path fill="#E25E26" d="M68.06 44.11a.534.534 0 1 0 0-1.068.534.534 0 0 0 0 1.068M60.93 44.11a.534.534 0 1 0 0-1.068.534.534 0 0 0 0 1.068" class="svgShape colore25e26-47 selectable"></path><path stroke="#2E054E" stroke-miterlimit="10" stroke-width=".446" d="M56.536 41.823s-.596-.098-.374 1.22M72.668 42.17s.828-.32.534.872" fill="none" class="svgStroke colorStroke2e054e-48 selectable"></path><path stroke="#F90" stroke-miterlimit="10" stroke-width=".446" d="m93.768 62.674 9.334-3.782M41.727 64.4 32.5 61.775M84.299 35.238l2.368-5.918M48.82 35.238l-3.311-5.918M29.759 86.976l7.36-2.67M96.313 84.307l7.732 2.67" fill="none" class="svgStroke colorStrokeff9900-49 selectable"></path></g><path stroke="#050c4e" stroke-width=".892" d="m13.42 42.01 51.07-24.445a4.29 4.29 0 0 1 3.676 0l51.07 24.445a4.25 4.25 0 0 1 2.421 3.835V58.42c0 31.137-17.869 59.497-45.954 72.944l-7.537 3.604a4.29 4.29 0 0 1-3.675 0l-7.538-3.604C28.87 117.927 11 89.557 11 58.42V45.845a4.25 4.25 0 0 1 2.42-3.835Z" fill="none" class="svgStroke colorStroke30ce95-50 selectable"></path><path fill="#F7CD47" stroke="#F90" stroke-linecap="round" stroke-linejoin="round" stroke-width=".446" d="m112.686 49.814 2.438-.382-2.438-.383c-1.655-.258-2.954-1.593-3.203-3.284l-.649-4.387-.65 4.387c-.25 1.7-1.549 3.026-3.204 3.284l-2.438.383 2.438.382c1.655.258 2.954 1.593 3.204 3.284l.65 4.387.649-4.387c.249-1.7 1.548-3.026 3.203-3.284M26.858 125.695l2.056-.32-2.056-.321c-1.397-.213-2.483-1.343-2.696-2.767l-.543-3.702-.543 3.702c-.213 1.432-1.308 2.545-2.696 2.767l-2.056.321 2.056.32c1.397.214 2.483 1.344 2.696 2.768l.543 3.702.543-3.702c.213-1.433 1.308-2.545 2.696-2.768M114.788 14.04l1.903-.293-1.903-.294c-1.291-.196-2.306-1.237-2.502-2.563l-.507-3.426-.507 3.426c-.196 1.326-1.21 2.358-2.5 2.563l-1.905.294 1.905.293c1.29.196 2.304 1.238 2.5 2.563l.507 3.426.507-3.426c.196-1.326 1.211-2.358 2.502-2.563M30.711 56.372l3.506-.542-3.506-.543c-2.376-.365-4.236-2.287-4.6-4.717l-.935-6.309-.934 6.31c-.356 2.438-2.225 4.342-4.601 4.716l-3.506.543 3.506.542c2.376.365 4.236 2.287 4.6 4.717l.935 6.31.934-6.31c.356-2.438 2.225-4.343 4.601-4.717" class="svgShape colorf7cd47-51 svgStroke colorStrokeff9900-51 selectable"></path></svg></g></svg>