<svg id="SvgjsSvg1777" width="288" height="288" xmlns="http://www.w3.org/2000/svg" version="1.1" xmlns:xlink="http://www.w3.org/1999/xlink" xmlns:svgjs="http://svgjs.com/svgjs"><defs id="SvgjsDefs1778"></defs><g id="SvgjsG1779"><svg xmlns="http://www.w3.org/2000/svg" viewBox="0 0 400 400" width="288" height="288"><g clip-path="url(#a)"><mask id="b" width="82" height="126" x="77" y="107" maskUnits="userSpaceOnUse" style="mask-type:luminance"><path fill="#fff" d="M158.61 112.25v115.31c0 2.76-2.24 4.99-4.99 4.99H89.05c-9.23-5.13-10.38-14.32-11.68-27.64v-92.66c0-2.76 2.24-4.99 4.99-4.99h71.26c2.76 0 4.99 2.24 4.99 4.99" class="svgShape colorffffff-2 selectable"></path></mask><g mask="url(#b)"><path fill="#fff" d="M118.53 165.89c-3.76 2.52-8.88 2.8-10.97 2.62l-30.3-1.36-2.09-17h8.36c3.83-.17 13.16.84 19.85 6.29s12.88 8.57 15.15 9.44zM144.65 181.1v-8.39c2.44.87 7.31 4.41 7.31 11.54-6.27 0-7.49-2.1-7.31-3.15" class="svgShape colorffffff-4 selectable"></path><path fill="#001bff" stroke="#341E54" stroke-miterlimit="10" d="m77.27 167.16 1.05 7.65v18.88h32.55c-.11-.68-.17-1.38-.17-2.1 0-4.98 2.88-9.28 7.06-11.33 1.66-.81 3.52-1.26 5.48-1.26 6.92 0 12.54 5.63 12.54 12.59 0 .9-.09 1.78-.28 2.62h13.85c.87-.35 2.62-2.83 2.62-9.97-6.27 0-7.49-2.1-7.32-3.15v-8.4l-26.11-6.81c-.32.21-.64.4-.97.58-3.63 1.98-8.09 2.2-10 2.04l-30.3-1.36z" class="svgShape colorb5b9dd-5 svgStroke colorStroke341e54-5 selectable"></path><path fill="#979aff" fill-rule="evenodd" stroke="#231F20" stroke-miterlimit="10" d="M135.5 194.22c.18-.85.27-1.72.27-2.62 0-6.95-5.61-12.59-12.54-12.59-6.92 0-12.54 5.64-12.54 12.59 0 .71.06 1.42.17 2.1.99 5.95 6.15 10.49 12.36 10.49s11.06-4.27 12.26-9.97zm-12.26 3.67c3.46 0 6.27-2.82 6.27-6.29s-2.81-6.29-6.27-6.29-6.27 2.82-6.27 6.29 2.81 6.29 6.27 6.29Z" clip-rule="evenodd" class="svgShape color8c8dc5-6 svgStroke colorStroke231f20-6 selectable"></path><path fill="#001dff" d="M123.24 185.3c-3.46 0-6.27 2.82-6.27 6.29s2.81 6.29 6.27 6.29 6.27-2.82 6.27-6.29-2.81-6.29-6.27-6.29" class="svgShape colorffffff-7 selectable"></path><path fill="#B5B9DD" stroke="#341E54" stroke-miterlimit="10" d="M30.43 193.69h-9.05c-2.96-.35-8.88-3.25-8.88-12.06h5.22c1.15 0 2.09-.94 2.09-2.1v-7.34c0-1.16-.94-2.1-2.09-2.1H12.5v-2.62c.17-1.4 1.67-4.2 6.27-4.2 5.75 0 9.92-2.1 14.63-4.2 1.28-.57 3.37-1.52 5.75-2.62l4.72 4.5c3.35 3.19 7.74 5.06 12.36 5.27l21.04.94 1.04 7.65v18.88H55.15c.11-.68.17-1.38.17-2.1 0-6.95-5.61-12.59-12.54-12.59-6.92 0-12.54 5.64-12.54 12.59 0 .71.06 1.42.17 2.1z" class="svgShape colorb5b9dd-8 svgStroke colorStroke341e54-8 selectable"></path><path stroke="#341E54" d="M72.57 177.43h-7.83m32.38 0h-7.83m-10.97 16.26v-18.88l-1.05-7.65m0 0-2.09-17m2.09 17-21.04-.94c-4.62-.21-9.01-2.08-12.36-5.27l-4.73-4.49c1.24-.57 2.56-1.18 3.88-1.8a48.5 48.5 0 0 1 20.38-4.5h11.77m-20.03 43.53h24.43m-.21 0h31.49m0 0c.42 2.48 1.55 4.72 3.2 6.48 2.28 2.46 5.55 4.01 9.17 4.01 6.03 0 11.06-4.27 12.26-9.97m-24.63-.52c-.11-.68-.17-1.38-.17-2.1 0-4.98 2.88-9.28 7.06-11.33 1.66-.81 3.52-1.26 5.48-1.26 6.92 0 12.54 5.63 12.54 12.59 0 .9-.09 1.78-.28 2.62m0 0h13.85c.87-.35 2.62-2.83 2.62-9.97-6.27 0-7.49-2.1-7.32-3.15v-8.4m0 0c2.44.88 7.32 4.41 7.32 11.54m-7.32-11.54-26.11-6.81c-.31.21-.64.4-.97.58-3.63 1.98-8.09 2.2-10 2.04l-30.3-1.36m-2.08-17h8.35c.67-.03 1.5-.03 2.46.03 3.84.24 9.68 1.33 14.73 4.39.92.55 1.82 1.18 2.67 1.87 5.84 4.77 11.31 7.74 14.11 9 .41.18.76.33 1.04.44M12.5 170.08v-2.62c.18-1.4 1.67-4.19 6.27-4.19 5.75 0 9.93-2.1 14.63-4.2 1.28-.57 3.37-1.53 5.75-2.62M12.5 181.63v-11.54h5.23c1.15 0 2.09.94 2.09 2.1v7.34c0 1.16-.93 2.1-2.09 2.1zm0 0c0 5.43 2.24 8.62 4.66 10.34 1.51 1.08 3.08 1.59 4.22 1.72h9.05m24.73 0c.11-.68.17-1.38.17-2.1 0-5.55-3.57-10.25-8.52-11.93-1.26-.43-2.61-.66-4.01-.66-1.56 0-3.04.28-4.42.81a12.3 12.3 0 0 0-3.78 2.26c-1.15.99-2.11 2.19-2.84 3.54-.96 1.78-1.51 3.81-1.51 5.98 0 .72.06 1.42.17 2.1 1 5.96 6.16 10.49 12.37 10.49s11.36-4.53 12.36-10.49m61.82-2.1c0 3.48 2.8 6.3 6.27 6.3s6.27-2.82 6.27-6.3c0-3.47-2.8-6.29-6.27-6.29s-6.27 2.82-6.27 6.29Z" fill="none" class="svgStroke colorStroke341e54-9 selectable"></path></g><path stroke="#231F20" stroke-miterlimit="10" d="M158.61 231.98V117.34c0-2.76-2.24-5-5-5H82.35c-2.76 0-4.99 2.23-4.99 4.99v115.32c0 2.76 2.23 4.99 4.99 4.99h70.6c3.13 0 5.66-2.53 5.66-5.66ZM105.82 120.91h30.92" fill="none" class="svgStroke colorStroke231f20-10 selectable"></path><path fill="#fff" stroke="#231F20" stroke-miterlimit="10" d="M100.59 122.26a1.35 1.35 0 1 0 .001-2.699 1.35 1.35 0 0 0-.001 2.699Z" class="svgShape colorffffff-11 svgStroke colorStroke231f20-11 selectable"></path><path fill="#fff" d="M152.66 118.02v113.94H93.17c-.52-.7-1.16-1.32-1.94-1.83-1.55-1.03-3.24-1.44-4.74-1.8-.45-.11-1.06-.26-1.49-.39-1.88-5.57-2.23-10.63-2.23-18.35v-91.57zm.68-5H82.08c-2.38 0-4.32 1.94-4.32 4.32v92.25c0 8.09.35 13.99 2.78 20.75 1.45 4.06 9.67 1.68 9.01 6.63h63.79c2.38 0 4.32-1.94 4.32-4.32V117.34c0-2.38-1.94-4.32-4.32-4.32" class="svgShape colorffffff-12 selectable"></path><path fill="#050c4e" d="m94.33 137.2.888-1.68c.444.42 1.116.816 1.836.816.42 0 .672-.132.804-.276.12-.12.204-.3.204-.504a.63.63 0 0 0-.228-.48c-.204-.18-.516-.264-1.032-.42l-.54-.168c-.336-.108-.828-.288-1.152-.648-.408-.444-.456-1.008-.456-1.416 0-.984.384-1.584.732-1.932.408-.408 1.08-.756 2.052-.756.792 0 1.716.252 2.472.648l-.828 1.62c-.624-.492-1.092-.54-1.368-.54-.204 0-.48.048-.684.24-.12.12-.204.252-.204.432 0 .144.024.252.108.36.06.072.204.216.696.36l.636.192c.504.156 1.032.336 1.452.792.408.432.516.876.516 1.428 0 .732-.18 1.44-.756 2.016-.684.684-1.512.816-2.364.816-.504 0-.984-.048-1.572-.264a5.6 5.6 0 0 1-1.212-.636m11.764-7.284v1.764h-2.472v1.332h2.34v1.764h-2.34v1.38h2.472v1.764h-4.548v-8.004zm1.323 0h2.076v6.24h2.496v1.764h-4.572zm5.636 0h2.076v6.24h2.496v1.764h-4.572zm14.186 5.328v2.46c-.828.3-1.284.396-1.8.396-1.392 0-2.436-.552-3.096-1.2a4.2 4.2 0 0 1-1.212-2.916c0-1.14.492-2.22 1.212-2.952a4.25 4.25 0 0 1 3.024-1.248c.384 0 1.008.06 1.872.408v2.484c-.672-.828-1.464-.876-1.812-.876-.6 0-1.056.18-1.44.528-.492.456-.696 1.08-.696 1.644 0 .552.228 1.164.648 1.56.348.324.9.552 1.488.552.312 0 1.08-.036 1.812-.84m6.694 2.676-.492-1.344h-2.904l-.54 1.344h-2.196l3.072-8.004h2.268l3.012 8.004zm-2.82-2.928h1.776l-.9-2.592zm5.964-5.076h3.24c.6 0 1.368.096 1.956.708.456.468.684 1.164.684 1.8 0 .684-.24 1.284-.636 1.668-.312.3-.732.48-1.104.552l2.508 3.276h-2.58l-1.992-3.072v3.072h-2.076zm2.076 1.608v1.98h.396c.312 0 .756-.084 1.008-.324a1 1 0 0 0 .264-.672.94.94 0 0 0-.276-.672c-.192-.192-.54-.312-.996-.312z" class="svgShape color6b3293-13 selectable"></path><path fill="#0017ff" stroke="#09B088" d="M129.61 217.32h-23.25a2.05 2.05 0 0 0-2.05 2.05v3.52a2.05 2.05 0 0 0 2.05 2.05h23.25a2.05 2.05 0 0 0 2.05-2.05v-3.52a2.05 2.05 0 0 0-2.05-2.05Z" class="svgShape color58c0a0-14 svgStroke colorStroke09b088-14 selectable"></path><path stroke="#231F20" stroke-miterlimit="10" d="m217.76 263.24-2.56-20.41" fill="none" class="svgStroke colorStroke231f20-15 selectable"></path><path fill="#fff" stroke="#231F20" stroke-miterlimit="10" d="M327.52 270.21c-1.92.73-4.31 1.62-7.09 2.65-21.23 7.85-64.9 23.26-92.1 27.82h-.05a107 107 0 0 1-3.54.55c-3.96.58-8 .87-12.11.87-4.97 0-9.84-.43-14.57-1.27.9-.47 2.23-2.49 3.76-5.58 1.99-4.02 4.31-9.88 6.45-16.52 1.6-4.97 2.87-9.63 3.72-13.52.13-.57.24-1.14.35-1.68h.29c1.83 0 3.63-.11 5.41-.33l-2.65-20.43-.05-.36-.78-.37s-3.25 8.65-5.18 13.18c-.03.07-.06.13-.09.2-1.23 3.04-2.34 5.7-3.16 7.64-.07 0-.15-.02-.22-.03h-.03c-11.2-1.67-21.05-7.48-27.94-15.82-.59-.71-1.16-1.45-1.7-2.19a8.66 8.66 0 0 1-1.02-4.02c0-1.57.48-3.02 1.29-4.23.11-.16.22-.32.34-.46.12-.15.24-.3.38-.44.12-.13.25-.26.38-.38.11-.11.23-.21.34-.3.03-.03.07-.06.11-.09.67-.54 1.08-1.35 1.08-2.21v-.02c0-1.01-.36-1.94-.96-2.67 3.8-8.33 12.63-27.09 21.5-41.24 2.44-3.89 4.95-6.63 7.39-8.51 3.96-3.07 7.73-3.92 10.78-3.86h.4c4.35 8.21 11.53 7.88 17.49 5.61.7 1.29 1.95 4.19 1.82 8.16 4.14 0 9.34-1.7 15.41-7.18 1.16-1.04 2.34-2.01 3.54-2.9a8.94 8.94 0 0 0 8.2 5.38c4.77 0 8.68-3.75 8.92-8.46 1.59.71 3.35 1.11 5.19 1.11 4 0 7.57-1.85 9.89-4.74.02 0 .04.01.06.02 3.47 1.03 6.44 3.34 8.42 6.38 3.92 6.04 7.52 13.52 10.8 21.62.26.66.52 1.33.79 1.99 9.79 24.99 16.38 55.05 18.72 66.6z" class="svgShape colorffffff-16 svgStroke colorStroke231f20-16 selectable"></path><path stroke="#231F20" stroke-miterlimit="10" d="M215.33 242.54c-6.33-2.68-10.77-8.95-10.77-16.25 0-5.66 2.66-10.69 6.81-13.92M209.1 255.47c-1.08 2.54-2.22 5.1-3.38 7.61l-.15.33M290.23 170.89c-.05.12-.11.25-.17.37" fill="none" class="svgStroke colorStroke231f20-17 selectable"></path><path fill="#050c4e" stroke="#231F20" stroke-miterlimit="10" d="M218.06 175.57c.12.49.22.93.21 1.03-3.04-.05-7.41.82-11.36 3.89-.17-.37-.21-.81-.44-1.16-2.33-3.72 2.19-7.64 2.47-7.97.16-.18.3-.37.44-.56 2-2.85.89-6.7-2.21-8.28a8.86 8.86 0 0 1-4.86-7.91c0-1.8.53-3.47 1.45-4.87-3.76-1.73-6.38-5.54-6.38-9.95 0-5.48 4.02-10.02 9.27-10.83 1.95 1.68 4.14 3.1 6.51 4.17-1.53 2.09-3.8 6.31-2.77 11.93.05.24.09.48.13.71a85 85 0 0 0 1 4.5c1.31 5.14 2.61 8.79 3.97 12.06 1.61 3.87 2.03 8.11 2.13 10.29.05.99.18 1.98.42 2.95z" class="svgShape color6b3293-18 svgStroke colorStroke231f20-18 selectable"></path><path stroke="#231F20" stroke-miterlimit="10" d="M308 178.31c-.42.7-.88 1.38-1.37 2.04M214.41 131.66s-.55.51-1.25 1.47" fill="none" class="svgStroke colorStroke231f20-19 selectable"></path><path fill="#050c4e" stroke="#231F20" stroke-miterlimit="10" d="M311.05 199.69c-.75.63-1.56 1.16-2.4 1.57-.26.14-.54.26-.81.38-3.27-8.1-6.88-15.58-10.8-21.62-1.98-3.04-4.95-5.35-8.42-6.38-.02 0-.04-.01-.06-.02a12.68 12.68 0 0 1-15.08 3.63c-.25 4.71-4.15 8.46-8.92 8.46-3.67 0-6.82-2.22-8.2-5.38a8.9 8.9 0 0 1-.73-3.55c0-1.66.45-3.2 1.23-4.53a7.6 7.6 0 0 1-3.57-6.45c0-3.35 2.17-6.2 5.17-7.22a7.63 7.63 0 0 1 5.55-6.14c.4-.75.94-1.43 1.55-2 .94-.31 1.78-.83 2.46-1.51 1.27-1.29 2-3.1 1.81-5.08-.28-2.93-2.66-5.34-5.59-5.65a6.3 6.3 0 0 0-6.98 6.27c0 .16 0 .33.01.49.09 1.12-.72 2.17-1.84 2.35-.03 0-.05 0-.07.01-1.33.2-2.49-.85-2.57-2.19a7.61 7.61 0 0 0-4.09-6.32c-.24-.13-.48-.24-.75-.34a8.91 8.91 0 0 1-4.86-7.95c0-.83.11-1.63.32-2.39a27.33 27.33 0 0 1-18.85 7.5c-2.22 0-4.38-.26-6.45-.77-1.72-.41-3.38-.98-4.95-1.71a27.557 27.557 0 0 1-12.33-11.16c4.56-12.53 16.58-21.46 30.68-21.46 6.69 0 12.92 2.01 18.09 5.47a17.8 17.8 0 0 1 8.74-2.28c8.12 0 14.98 5.42 17.14 12.84 8.92 1 15.86 8.57 15.86 17.75 0 1.4-.16 2.76-.47 4.07 11.99 2.65 20.97 13.34 20.97 26.13 0 5.06-1.4 9.8-3.84 13.83 1.76.76 3.37 1.94 4.68 3.51 4.48 5.39 3.75 13.39-1.64 17.87z" class="svgShape color795ca7-20 svgStroke colorStroke231f20-20 selectable"></path><path stroke="#231F20" stroke-miterlimit="10" d="m210.13 202.57 1.24 9.8" fill="none" class="svgStroke colorStroke231f20-21 selectable"></path><path fill="#fff" stroke="#231F20" stroke-miterlimit="10" d="M189.95 293.05c-3.57 4.94-9.08 8.25-15.2 8.82-7.62.72-18-1.96-29.98-14.69-.08-.08-.02-.23.1-.22 1.71.17 3.6.25 5.61.17 4.66-.2 9.94-1.3 14.96-4.29a94 94 0 0 0 24.51 10.21Z" class="svgShape colorffffff-22 svgStroke colorStroke231f20-22 selectable"></path><path stroke="#231F20" stroke-miterlimit="10" d="M255.4 205.22c1.31 4.23 2.03 8.72 2.03 13.38 0 23.02-17.28 42-39.58 44.66" fill="none" class="svgStroke colorStroke231f20-23 selectable"></path><path fill="#795CA7" stroke="#231F20" stroke-miterlimit="10" d="M201.61 295.3c-1.52 3.09-2.85 5.11-3.76 5.58-.27-.05-.55-.09-.81-.15-.51-.72-.48-2.93.02-6.12 1.51.27 3.02.5 4.56.7z" class="svgShape color795ca7-24 svgStroke colorStroke231f20-24 selectable"></path><path stroke="#231F20" stroke-miterlimit="10" d="M197.2 293.73c-.05.3-.1.59-.14.87M197.04 300.72c.09.12.18.2.3.24.15.05.32.02.52-.08" fill="none" class="svgStroke colorStroke231f20-25 selectable"></path><path fill="#F8991D" stroke="#240F32" stroke-miterlimit="10" d="M212.14 263.59c-.11.54-.22 1.1-.34 1.67-.85 3.89-2.12 8.56-3.72 13.52-2.15 6.64-4.47 12.49-6.46 16.52-1.53-.2-3.05-.43-4.55-.7-2.4-.42-4.77-.94-7.11-1.55a93 93 0 0 1-14.3-4.96c-1.25-.55-2.5-1.13-3.73-1.73-1.77-.87-3.53-1.8-5.23-2.79-.42-.23-.84-.48-1.25-.72-.17-.1-.33-.2-.5-.3-.58-.34-1.15-.7-1.71-1.05a95.3 95.3 0 0 1-21.71-18.82 91 91 0 0 1-7-9.34c-1.79-2.7-1.82-6.27.12-8.87.08-.11.17-.22.24-.31-1.01-4.28.92-6.82 2.31-8.03 0-.02-.03-.05-.04-.07-1.08-2.1-1.88-4.57-1.96-7.34-.1-3.26 1.58-5.19 3.76-6.31 1.55-.8 3.33-1.21 4.94-1.4l.35 8.85c3.56 3.25 10.46 7.55 23.53 10.74.09-3.08 1.12-5.93 2.82-8.27.22-.29.44-.58.68-.85.66-.77 1.39-1.48 2.19-2.11h.02c.59-.46 1.33-.69 2.07-.57.04 0 .07 0 .1.02.96.2 1.77.71 2.37 1.44.6.72.95 1.65.95 2.66v.02c0 .9-.49 1.72-1.18 2.3-.12.1-.23.2-.34.3a7.444 7.444 0 0 0-.76.82c-.12.15-.24.3-.34.47a7.55 7.55 0 0 0-1.29 4.23c0 1.39.36 2.8 1.02 4.02.44.83 1.02 1.58 1.7 2.19 1.04 1.25 2.14 2.46 3.31 3.57.59.58 1.19 1.15 1.83 1.68 1.67 1.48 3.45 2.81 5.33 4 1.28.83 2.61 1.59 3.99 2.27 4.16 2.1 8.7 3.56 13.48 4.28h.03c.07 0 .15.02.22.03 2.03.3 4.1.46 6.2.47z" class="svgShape colorf8991d-26 svgStroke colorStroke240f32-26 selectable"></path><path fill="#F8991D" stroke="#240F32" stroke-miterlimit="10" d="m183.55 204.38-.46.49c-4.34 4.74-6.67 10.29-7.86 14.18l-.14-3.35a5.56 5.56 0 0 0-4.32-5.17l-18.54-4.19c-.99-.22-2.04-.02-2.87.56l-3.92 2.69c-.86.37-1.53 1.13-1.78 2.07q-.15.465-.12.99l.33 8.35c-1.61.19-3.39.6-4.94 1.4.47-6.55 1.36-13.57 2.77-21.08 0 0 2.58-15.52 7.73-16.06 2.49-.26 4.01.69 4.94 1.74v-.72a9.65 9.65 0 0 1 9.65-9.65c1.48 0 2.81.6 3.78 1.56.26.26.49.55.7.86.67-4.02 2.67-11.08 8.53-10.15 3.23.51 5.53 3.44 5.53 6.71v5.46c0 2.34-1.84 4.28-4.18 4.4h-.24c-1.31 0-2.51-.56-3.35-1.44-.88 4.08-2.38 12.39-1.92 19.39.67-1.15 1.92-2.92 3.94-4.48.49-.39 1.04-.76 1.64-1.12.41-.24.88-.41 1.35-.45h.07c2.22-.16 4.27 1.47 4.59 3.68.18 1.26-.19 2.44-.9 3.33z" class="svgShape colorf8991d-27 svgStroke colorStroke240f32-27 selectable"></path><path stroke="#231F20" stroke-miterlimit="10" d="M139.16 239.25c-.19-.26-1.19-1.72-2.01-3.21M137.59 250c-1.49-2.24-2.33-4.19-2.71-5.86M169.21 240.93c-.49-.11-.98-.23-1.45-.34M144.24 229.85c-2.97-2.71-3.63-4.68-3.63-4.68M154.38 187l.1.12c.79.96 1.16 2.21 1.16 3.45v1.98c0 2.44-1.97 4.41-4.41 4.41-1 0-1.9-.4-2.55-1.06a3.62 3.62 0 0 1-1.06-2.55v-2.58" fill="none" class="svgStroke colorStroke231f20-28 selectable"></path><path fill="#F8991D" stroke="#240F32" stroke-miterlimit="10" d="M165.44 282.84c-5.02 3-10.3 4.09-14.96 4.29a72 72 0 0 1-3.41-6.99c-1.94-4.54-3.96-10.36-5.55-17.48a95 95 0 0 0 23.92 20.17z" class="svgShape colorf8991d-29 svgStroke colorStroke240f32-29 selectable"></path><path stroke="#231F20" stroke-miterlimit="10" d="M168.5 179.04c.55.83.87 1.84.87 2.91v6a4.58 4.58 0 0 1-4.58 4.58 4.573 4.573 0 0 1-4.58-4.58v-4.33M173.51 176.62v4.21c0 1.25.48 2.37 1.29 3.2M166.98 205.58s2.3-1.74 5.27-.94c0 0 .19-.48.63-1.22" fill="none" class="svgStroke colorStroke231f20-30 selectable"></path><path fill="#050c4e" stroke="#231F20" stroke-miterlimit="10" d="M171.27 231.46c-.23.27-.46.56-.68.85-1.7 2.34-2.73 5.19-2.82 8.27-13.07-3.19-19.97-7.49-23.53-10.74l-.35-8.85-.33-8.35q-.03-.525.12-.99c.25-.94.92-1.69 1.78-2.07.61-.27 1.3-.36 2.02-.2l20.73 4.68c1.38.31 2.39 1.52 2.45 2.94l.58 13.6.04.85z" class="svgShape color6b3293-31 svgStroke colorStroke231f20-31 selectable"></path><path fill="#9fc5ff" stroke="#231F20" stroke-miterlimit="10" d="M175.64 228.8c-.18-.04-1.06-.09-2.16.55h-.02c-.69.39-1.45 1.04-2.19 2.11l-.04-.85-.58-13.6a3.16 3.16 0 0 0-2.45-2.94l-20.73-4.68c-.71-.17-1.41-.08-2.02.2l3.92-2.69c.83-.58 1.88-.77 2.87-.56l18.54 4.19c2.44.56 4.21 2.67 4.32 5.17l.14 3.35.37 8.9.04.85zM150.48 287.13c-2.09.09-4.06 0-5.82-.19a.31.31 0 0 1-.26-.41c.73-2.46 1.63-4.58 2.67-6.39 1.2 2.81 2.38 5.14 3.41 6.99Z" class="svgShape color795ca7-32 svgStroke colorStroke231f20-32 selectable"></path><path stroke="#240F32" stroke-miterlimit="10" d="M228.14 300.72c27.2-4.56 70.87-19.98 92.1-27.82.67 6.31 1.63 14.92 1.63 14.92" fill="none" class="svgStroke colorStroke240f32-33 selectable"></path><path fill="#050c4e" stroke="#231F20" stroke-miterlimit="10" d="M192.21 258.8c-.87 4.52-2.84 9.85-5.78 15.22-3.26 5.96-7.12 10.88-10.78 14.07-3.2 2.8-6.25 4.27-8.58 3.96-.5-.07-.97-.22-1.4-.45-.44-.24-.81-.56-1.14-.95.63-.1 1.29-.3 1.97-.6 1.68-.72 3.53-1.98 5.42-3.69 3.53-3.19 7.22-7.96 10.35-13.69 3.14-5.74 5.17-11.44 5.95-16.14.42-2.5.48-4.71.18-6.5-.24-1.39-.69-2.54-1.38-3.36 1.12-.2 2.15-.07 3.01.4s1.51 1.26 1.96 2.31c.94 2.18.99 5.49.22 9.42Z" class="svgShape colored1c24-34 svgStroke colorStroke231f20-34 selectable"></path><path fill="#8E1A1C" stroke="#231F20" stroke-miterlimit="10" d="M188.41 250.02c-1.49.64-3.12 1.7-4.78 3.13-1.11-.92-2.17-1.9-3.17-2.92 2.36-1.99 4.62-3.24 6.56-3.57.69.82 1.14 1.97 1.38 3.36zM166.51 290.04c-.69.3-1.35.5-1.97.6-1.49-1.78-1.9-5.05-1.31-9.17 1.14.72 2.3 1.42 3.47 2.09-.42 2.48-.48 4.69-.18 6.48z" class="svgShape color8e1a1c-35 svgStroke colorStroke231f20-35 selectable"></path><path stroke="#231F20" stroke-miterlimit="10" d="M217.84 263.26c-1.78.22-3.58.33-5.41.33h-.29c-2.1 0-4.17-.16-6.2-.47.81-1.94 1.92-4.6 3.16-7.64.03-.07.06-.13.09-.2 1.93-4.53 5.18-13.18 5.18-13.18l.78.37.05.36 2.65 20.43z" fill="none" class="svgStroke colorStroke231f20-36 selectable"></path><path stroke="#231F20" stroke-miterlimit="10" d="M214.37 242.09c-1.47 4.15-3.25 8.65-5.18 13.18 1.64-4.04 3.5-8.72 5.18-13.18ZM225.38 301.15c20.17-3.14 37.96-13.5 50.63-28.35 12.45-14.59 19.96-33.52 19.96-54.2 0-4.43-.34-8.78-1.01-13.02" fill="none" class="svgStroke colorStroke231f20-37 selectable"></path><mask id="c" width="153" height="130" x="175" y="173" maskUnits="userSpaceOnUse" style="mask-type:luminance"><path fill="#fff" d="M327.52 270.21c-1.92.73-4.31 1.62-7.09 2.65-21.23 7.85-64.9 23.26-92.1 27.82h-.05a107 107 0 0 1-3.54.55c-3.96.58-8 .87-12.11.87-4.97 0-9.84-.43-14.57-1.27.9-.47 2.23-2.49 3.76-5.58 1.99-4.02 4.31-9.88 6.45-16.52 1.6-4.97 2.87-9.63 3.72-13.52.13-.57.24-1.14.35-1.68h.29c1.83 0 3.63-.11 5.41-.33l-2.65-20.43-.05-.36-.78-.37s-3.25 8.65-5.18 13.18c-.03.07-.06.13-.09.2-1.23 3.04-2.34 5.7-3.16 7.64-.07 0-.15-.02-.22-.03h-.03c-11.2-1.67-21.05-7.48-27.94-15.82-.59-.71-1.16-1.45-1.7-2.19a8.66 8.66 0 0 1-1.02-4.02c0-1.57.48-3.02 1.29-4.23.11-.16.22-.32.34-.46.12-.15.24-.3.38-.44.12-.13.25-.26.38-.38.11-.11.23-.21.34-.3.03-.03.07-.06.11-.09.67-.54 1.08-1.35 1.08-2.21v-.02c0-1.01-.36-1.94-.96-2.67 3.8-8.33 12.63-27.09 21.5-41.24 2.44-3.89 4.95-6.63 7.39-8.51 3.96-3.07 7.73-3.92 10.78-3.86h.4c4.35 8.21 11.53 7.88 17.49 5.61.7 1.29 1.95 4.19 1.82 8.16 4.14 0 9.34-1.7 15.41-7.18 1.16-1.04 2.34-2.01 3.54-2.9a8.94 8.94 0 0 0 8.2 5.38c4.77 0 8.68-3.75 8.92-8.46 1.59.71 3.35 1.11 5.19 1.11 4 0 7.57-1.85 9.89-4.74.02 0 .04.01.06.02 3.47 1.03 6.44 3.34 8.42 6.38 3.92 6.04 7.52 13.52 10.8 21.62.26.66.52 1.33.79 1.99 9.79 24.99 16.38 55.05 18.72 66.6z" class="svgShape colorffffff-39 selectable"></path></mask><g stroke-miterlimit="10" mask="url(#c)"><path d="m185.851 217.519 11.873-4.862a2.94 2.94 0 0 0 1.607-3.835l-4.863-11.873a2.94 2.94 0 0 0-3.834-1.606l-11.873 4.862a2.94 2.94 0 0 0-1.607 3.835l4.862 11.873a2.94 2.94 0 0 0 3.835 1.606ZM282.991 190.453l10.609-1.318a4.01 4.01 0 0 0 3.485-4.473l-1.318-10.609a4.01 4.01 0 0 0-4.473-3.485l-10.609 1.318a4.01 4.01 0 0 0-3.485 4.473l1.318 10.609a4.01 4.01 0 0 0 4.473 3.485ZM303.908 258.872l3.908 1.745a2.54 2.54 0 0 0 3.355-1.285l1.744-3.908a2.54 2.54 0 0 0-1.284-3.355l-3.909-1.744a2.54 2.54 0 0 0-3.355 1.284l-1.744 3.909a2.54 2.54 0 0 0 1.285 3.354ZM272.817 229.515l1.773 6.077a.72.72 0 0 0 .892.489l6.077-1.772a.72.72 0 0 0 .49-.893l-1.773-6.077a.72.72 0 0 0-.892-.489l-6.077 1.772a.72.72 0 0 0-.49.893ZM193.959 279.189l.907 3.111a.72.72 0 0 0 .893.489l3.11-.907a.72.72 0 0 0 .49-.893l-.907-3.11a.72.72 0 0 0-.893-.49l-3.11.907a.72.72 0 0 0-.49.893ZM235.404 267.111l5.01 12.234a2.54 2.54 0 0 0 3.313 1.387l12.234-5.01a2.54 2.54 0 0 0 1.388-3.313l-5.01-12.234a2.54 2.54 0 0 0-3.314-1.387l-12.233 5.01a2.54 2.54 0 0 0-1.388 3.313ZM219.071 218.19l2.592 3.406a2.54 2.54 0 0 0 3.559.483l3.406-2.592a2.54 2.54 0 0 0 .484-3.56l-2.592-3.406a2.54 2.54 0 0 0-3.56-.483l-3.406 2.592a2.54 2.54 0 0 0-.483 3.56Z" fill="none" stroke="#050c4e" class="svgStroke colorStrokeed1c53-41 selectable"></path></g><path fill="#F8991D" d="M235.21 190.21c.8.12 1.67.2 2.37.16Z" class="svgShape colorf8991d-42 selectable"></path><path stroke="#240F32" stroke-miterlimit="10" d="M235.21 190.21c.8.12 1.67.2 2.37.16" fill="none" class="svgStroke colorStroke240f32-43 selectable"></path><path fill="#F8991D" stroke="#240F32" stroke-miterlimit="10" d="M268.01 148.9c-.92.35-1.75.87-2.46 1.52-.62.57-1.15 1.25-1.55 2a7.64 7.64 0 0 0-5.55 6.14c-3 1.02-5.17 3.87-5.17 7.22 0 2.73 1.43 5.11 3.57 6.45a8.9 8.9 0 0 0-1.23 4.53c0 1.27.26 2.46.73 3.55-1.2.89-2.38 1.86-3.54 2.9-6.07 5.48-11.27 7.18-15.41 7.18.13-3.97-1.12-6.87-1.82-8.16-8.92 3.56-13.91-.52-16.23-3.59-1.06-1.41-1.57-3.15-1.59-4.91-.05-4.59-.99-7.87-2.25-11.41-1.19-3.34-2.67-6.92-3.97-12.06a76 76 0 0 1-1.13-5.21c-1.04-5.63 1.24-9.84 2.77-11.93 1.57.73 3.23 1.3 4.95 1.71 2.07.5 4.23.77 6.45.77 7.3 0 13.94-2.85 18.85-7.5-.21.76-.32 1.56-.32 2.39 0 3.47 1.97 6.47 4.86 7.95.24.13.49.24.75.34 2.42 1.25 3.93 3.69 4.09 6.32.08 1.34 1.25 2.39 2.57 2.19.11-.03.11.06 1.02-.76.56-.5.88-1.22.88-1.97v-.12c0-3.91 3.57-7 7.64-6.16 2.35.48 4.26 2.36 4.79 4.7.52 2.3-.23 4.46-1.67 5.92z" class="svgShape colorf8991d-44 svgStroke colorStroke240f32-44 selectable"></path><path stroke="#231F20" stroke-miterlimit="10" d="M245.8 176.19s-4.56 3.9-10.22 6.06" fill="none" class="svgStroke colorStroke231f20-45 selectable"></path><path fill="#231F20" d="M238.379 156.222c.884-.331 1.04-2.096.349-3.943s-1.969-3.075-2.853-2.743c-.885.331-1.041 2.096-.35 3.943.692 1.846 1.969 3.074 2.854 2.743" class="svgShape color231f20-46 selectable"></path><path fill="#231F20" d="M236.48 149.55s2.78 1.27 4.09-1.53c0 0 .16 4.14-3.61 2.81zM221.039 161.178c.885-.331 1.041-2.096.35-3.943-.692-1.846-1.969-3.074-2.854-2.743-.884.331-1.04 2.096-.349 3.943s1.969 3.075 2.853 2.743" class="svgShape color231f20-47 selectable"></path><path fill="#231F20" d="M218 154.94s-2.02 2.29-4.35.26c0 0 1.54 3.85 4.44 1.1l-.08-1.37zM228.81 145.9s5.11-7.08 12.63-5.31c-.55-1.5-1.8-2.66-3.36-3.01-2.35-.54-5.97-.36-9.63 3.7zM210.99 146.6c2.25-3.26 7.38-1.7 7.38-1.7l2.28 4.53s-6.24-3.53-8.99.47l-.68-3.3z" class="svgShape color231f20-48 selectable"></path><path stroke="#231F20" stroke-miterlimit="10" d="M225.32 155.53s2.49 5.16 1.2 7.89 3.01 2.73 3.01 2.73" fill="none" class="svgStroke colorStroke231f20-49 selectable"></path><path fill="#231F20" d="M235.35 172.41a2.51 2.51 0 1 0 0-5.02 2.51 2.51 0 0 0 0 5.02" class="svgShape color231f20-50 selectable"></path><path fill="#E15E26" d="M243.56 159.26a2.24 2.24 0 1 0 0-4.48 2.24 2.24 0 0 0 0 4.48M219.79 167.1a2.24 2.24 0 1 0 0-4.48 2.24 2.24 0 0 0 0 4.48" class="svgShape colore15e26-51 selectable"></path><path fill="#fff" stroke="#231F20" stroke-miterlimit="10" d="M267.75 152.16c0 1.1-.47 2.09-1.22 2.77-.67.62-1.56.99-2.54.99-.42 0-.83-.07-1.21-.2-1.5-.5-2.56-1.91-2.56-3.56 0-1.19.55-2.26 1.42-2.95a3.8 3.8 0 0 1 2.36-.83c.89 0 1.7.31 2.35.83.87.68 1.42 1.75 1.42 2.95z" class="svgShape colorffffff-52 svgStroke colorStroke231f20-52 selectable"></path><path stroke="#231F20" stroke-miterlimit="10" d="M260.64 142.74c.54-.73 1.39-1.24 2.44-1.3 1.2-.07 2.37.59 2.94 1.65.42.77.49 1.61.3 2.36" fill="none" class="svgStroke colorStroke231f20-53 selectable"></path></g><defs><clipPath id="a"><path fill="#fff" d="M12 100h316.09v202.61H12z" class="svgShape colorffffff-56 selectable"></path></clipPath></defs></svg></g></svg>