<svg id="SvgjsSvg1873" width="288" height="288" xmlns="http://www.w3.org/2000/svg" version="1.1" xmlns:xlink="http://www.w3.org/1999/xlink" xmlns:svgjs="http://svgjs.com/svgjs"><defs id="SvgjsDefs1874"></defs><g id="SvgjsG1875"><svg xmlns="http://www.w3.org/2000/svg" viewBox="0 0 400 400" width="288" height="288"><mask id="a" width="82" height="126" x="65" y="82" maskUnits="userSpaceOnUse" style="mask-type:luminance"><path fill="#fff" d="M146.25 87.4v115.31c0 2.76-2.24 4.99-4.99 4.99H76.69c2.18-13.51-6.34-25.01-11.68-27.64V87.4c0-2.76 2.24-4.99 4.99-4.99h71.26c2.76 0 4.99 2.24 4.99 4.99" class="svgShape colorffffff-1 selectable"></path></mask><g mask="url(#a)"><path fill="#fff" d="M100.18 147.72c-4.94 3.3-11.66 3.67-14.4 3.44l-39.77-1.78-2.74-22.31h10.97c5.03-.23 17.28 1.1 26.05 8.26 8.78 7.16 16.91 11.25 19.88 12.39zM134.46 167.68v-11.02c3.2 1.15 9.6 5.78 9.6 15.15-8.23 0-9.83-2.75-9.6-4.13" class="svgShape colorffffff-3 selectable"></path><path fill="#fff" d="m46.01 149.37 1.37 10.04v24.79h42.73c-.15-.89-.22-1.81-.22-2.76 0-6.54 3.78-12.19 9.27-14.87 2.18-1.06 4.62-1.65 7.19-1.65 9.08 0 16.46 7.4 16.46 16.52 0 1.18-.12 2.33-.36 3.44h18.19c1.14-.46 3.43-3.71 3.43-13.08-8.23 0-9.83-2.76-9.61-4.13v-11.02l-34.28-8.94c-.41.27-.84.53-1.27.76-4.77 2.6-10.61 2.89-13.12 2.68l-39.77-1.79z" class="svgShape colorffffff-4 selectable"></path><path fill="#fff" fill-rule="evenodd" d="M122.45 184.89c.23-1.11.36-2.26.36-3.44 0-9.13-7.37-16.52-16.46-16.52s-16.46 7.4-16.46 16.52c0 .94.08 1.86.23 2.75 1.31 7.81 8.07 13.77 16.23 13.77s14.52-5.61 16.1-13.08m-16.1 4.82c4.54 0 8.23-3.7 8.23-8.26s-3.68-8.26-8.23-8.26-8.23 3.7-8.23 8.26 3.68 8.26 8.23 8.26" clip-rule="evenodd" class="svgShape colorffffff-5 selectable"></path><path fill="#fff" d="M106.35 173.19c-4.54 0-8.23 3.7-8.23 8.26s3.68 8.26 8.23 8.26 8.23-3.7 8.23-8.26-3.68-8.26-8.23-8.26" class="svgShape colorffffff-6 selectable"></path><path stroke="#341E54" d="M39.84 162.86H29.56m42.51 0H61.79m-14.4 21.35v-24.78l-1.37-10.04-2.74-22.31H27.83c-9.25 0-18.37 2.03-26.76 5.91-1.74.81-3.48 1.61-5.1 2.36l6.21 5.9a25.18 25.18 0 0 0 16.22 6.92l27.62 1.23m-29.03 34.82h32.07m-.27 0h41.34m0 0c.55 3.26 2.04 6.2 4.19 8.51 2.99 3.23 7.28 5.26 12.04 5.26 7.91 0 14.52-5.6 16.09-13.08m-32.32-.69c-.15-.89-.22-1.81-.22-2.76 0-6.54 3.78-12.19 9.27-14.87 2.18-1.06 4.62-1.65 7.19-1.65 9.08 0 16.46 7.4 16.46 16.52 0 1.18-.12 2.33-.36 3.44h18.19c1.14-.46 3.43-3.71 3.43-13.08m0 0c-8.23 0-9.83-2.76-9.61-4.13v-11.02m9.61 15.15c0-9.37-6.41-14-9.61-15.15m0 0-34.28-8.94c-.41.27-.83.53-1.27.76-4.76 2.6-10.61 2.89-13.12 2.68l-39.77-1.79m-2.74-22.31h10.96c.88-.04 1.97-.03 3.23.04 5.05.31 12.71 1.75 19.34 5.77 1.21.73 2.38 1.55 3.5 2.46 7.66 6.25 14.84 10.16 18.52 11.81.54.24.99.44 1.37.58m-139.18 5.5v-3.44c.23-1.84 2.19-5.5 8.22-5.5 7.55 0 13.03-2.76 19.2-5.51 1.68-.75 4.42-2 7.55-3.44m-34.97 17.89v15.15m0-15.15h6.86c1.51 0 2.74 1.23 2.74 2.76v9.64c0 1.52-1.22 2.76-2.74 2.76h-6.86m0 0v-15.15m0 15.15c0 7.12 2.95 11.31 6.12 13.58 1.98 1.41 4.05 2.08 5.53 2.26h11.88C-14.13 192.05-7.36 198 .8 198c8.15 0 14.91-5.95 16.22-13.77m.01 0c.15-.89.22-1.81.22-2.76a16.5 16.5 0 0 0-11.19-15.65 16.4 16.4 0 0 0-5.26-.87c-2.04 0-4 .37-5.8 1.06-1.83.69-3.51 1.7-4.96 2.96-1.51 1.3-2.77 2.88-3.72 4.65a16.36 16.36 0 0 0-1.98 7.85c0 .94.07 1.86.22 2.76m113.56-2.78c0 4.57 3.68 8.27 8.23 8.27s8.22-3.7 8.22-8.27-3.68-8.26-8.22-8.26c-4.55 0-8.23 3.7-8.23 8.26Z" fill="none" class="svgStroke colorStroke341e54-7 selectable"></path></g><mask id="b" width="82" height="126" x="65" y="82" maskUnits="userSpaceOnUse" style="mask-type:luminance"><path fill="#fff" d="M146.25 87.4v115.31c0 2.76-2.24 4.99-4.99 4.99H76.69c2.18-13.51-6.34-25.01-11.68-27.64V87.4c0-2.76 2.24-4.99 4.99-4.99h71.26c2.76 0 4.99 2.24 4.99 4.99" class="svgShape colorffffff-9 selectable"></path></mask><g mask="url(#b)"><path fill="#fff" d="M100.18 147.72c-4.94 3.3-11.66 3.67-14.4 3.44l-39.77-1.78-2.74-22.31h10.97c5.03-.23 17.28 1.1 26.05 8.26 8.78 7.16 16.91 11.25 19.88 12.39zM134.46 167.68v-11.02c3.2 1.15 9.6 5.78 9.6 15.15-8.23 0-9.83-2.75-9.6-4.13" class="svgShape colorffffff-11 selectable"></path><path fill="#a0a9ff" stroke="#341E54" stroke-miterlimit="10" d="m46.01 149.37 1.37 10.04v24.79h42.73c-.15-.89-.22-1.81-.22-2.76 0-6.54 3.78-12.19 9.27-14.87 2.18-1.06 4.62-1.65 7.19-1.65 9.08 0 16.46 7.4 16.46 16.52 0 1.18-.12 2.33-.36 3.44h18.19c1.14-.46 3.43-3.71 3.43-13.08-8.23 0-9.83-2.76-9.61-4.13v-11.02l-34.28-8.94c-.41.27-.84.53-1.27.76-4.77 2.6-10.61 2.89-13.12 2.68l-39.77-1.79z" class="svgShape colorb5b9dd-12 svgStroke colorStroke341e54-12 selectable"></path><path fill="#a0a1ff" fill-rule="evenodd" stroke="#231F20" stroke-miterlimit="10" d="M122.45 184.89c.23-1.11.36-2.26.36-3.44 0-9.13-7.37-16.52-16.46-16.52s-16.46 7.4-16.46 16.52c0 .94.08 1.86.23 2.75 1.31 7.81 8.07 13.77 16.23 13.77s14.52-5.61 16.1-13.08Zm-16.1 4.82c4.54 0 8.23-3.7 8.23-8.26s-3.68-8.26-8.23-8.26-8.23 3.7-8.23 8.26 3.68 8.26 8.23 8.26Z" clip-rule="evenodd" class="svgShape color8c8dc5-13 svgStroke colorStroke231f20-13 selectable"></path><path fill="#fff" d="M106.35 173.19c-4.54 0-8.23 3.7-8.23 8.26s3.68 8.26 8.23 8.26 8.23-3.7 8.23-8.26-3.68-8.26-8.23-8.26" class="svgShape colorffffff-14 selectable"></path><path stroke="#341E54" d="M39.84 162.86H29.56m42.51 0H61.79m-14.4 21.35v-24.78l-1.37-10.04-2.74-22.31H27.83c-9.25 0-18.37 2.03-26.76 5.91-1.74.81-3.48 1.61-5.1 2.36l6.21 5.9a25.18 25.18 0 0 0 16.22 6.92l27.62 1.23m-29.03 34.82h32.07m-.27 0h41.34m0 0c.55 3.26 2.04 6.2 4.19 8.51 2.99 3.23 7.28 5.26 12.04 5.26 7.91 0 14.52-5.6 16.09-13.08m-32.32-.69c-.15-.89-.22-1.81-.22-2.76 0-6.54 3.78-12.19 9.27-14.87 2.18-1.06 4.62-1.65 7.19-1.65 9.08 0 16.46 7.4 16.46 16.52 0 1.18-.12 2.33-.36 3.44h18.19c1.14-.46 3.43-3.71 3.43-13.08m0 0c-8.23 0-9.83-2.76-9.61-4.13v-11.02m9.61 15.15c0-9.37-6.41-14-9.61-15.15m0 0-34.28-8.94c-.41.27-.83.53-1.27.76-4.76 2.6-10.61 2.89-13.12 2.68l-39.77-1.79m-2.74-22.31h10.96c.88-.04 1.97-.03 3.23.04 5.05.31 12.71 1.75 19.34 5.77 1.21.73 2.38 1.55 3.5 2.46 7.66 6.25 14.84 10.16 18.52 11.81.54.24.99.44 1.37.58m-139.18 5.5v-3.44c.23-1.84 2.19-5.5 8.22-5.5 7.55 0 13.03-2.76 19.2-5.51 1.68-.75 4.42-2 7.55-3.44m-34.97 17.89v15.15m0-15.15h6.86c1.51 0 2.74 1.23 2.74 2.76v9.64c0 1.52-1.22 2.76-2.74 2.76h-6.86m0 0v-15.15m0 15.15c0 7.12 2.95 11.31 6.12 13.58 1.98 1.41 4.05 2.08 5.53 2.26h11.88C-14.13 192.05-7.36 198 .8 198c8.15 0 14.91-5.95 16.22-13.77m.01 0c.15-.89.22-1.81.22-2.76a16.5 16.5 0 0 0-11.19-15.65 16.4 16.4 0 0 0-5.26-.87c-2.04 0-4 .37-5.8 1.06-1.83.69-3.51 1.7-4.96 2.96-1.51 1.3-2.77 2.88-3.72 4.65a16.36 16.36 0 0 0-1.98 7.85c0 .94.07 1.86.22 2.76m113.56-2.78c0 4.57 3.68 8.27 8.23 8.27s8.22-3.7 8.22-8.27-3.68-8.26-8.22-8.26c-4.55 0-8.23 3.7-8.23 8.26Z" fill="none" class="svgStroke colorStroke341e54-15 selectable"></path></g><path stroke="#231F20" stroke-miterlimit="10" d="M146.25 202.04V87.4c0-2.76-2.24-5-5-5H69.99c-2.76 0-4.99 2.23-4.99 4.99v115.32c0 2.76 2.23 4.99 4.99 4.99h70.6c3.13 0 5.66-2.53 5.66-5.66ZM93.46 90.97h30.92" fill="none" class="svgStroke colorStroke231f20-16 selectable"></path><path fill="#fff" stroke="#231F20" stroke-miterlimit="10" d="M88.23 92.32a1.35 1.35 0 1 0 0-2.7 1.35 1.35 0 0 0 0 2.7Z" class="svgShape colorffffff-17 svgStroke colorStroke231f20-17 selectable"></path><path fill="#fff" d="M140.3 88.08v113.94H80.81c-.52-.7-1.16-1.32-1.94-1.83-1.55-1.03-3.24-1.44-4.74-1.8-.45-.11-1.06-.26-1.49-.39-1.88-5.57-2.23-10.63-2.23-18.35V88.08zm.68-5H69.72c-2.38 0-4.32 1.94-4.32 4.32v92.25c0 8.09.35 13.99 2.78 20.75 1.46 4.06 9.67 1.68 9.01 6.63h63.79c2.38 0 4.32-1.94 4.32-4.32V87.4c0-2.38-1.94-4.32-4.32-4.32" class="svgShape colorffffff-18 selectable"></path><path fill="#050c4e" d="M105.63 138.39c6.451 0 11.68-5.23 11.68-11.68 0-6.451-5.229-11.68-11.68-11.68s-11.68 5.229-11.68 11.68 5.23 11.68 11.68 11.68" class="svgShape color58c0a0-19 selectable"></path><path stroke="#fff" stroke-miterlimit="10" stroke-width="3" d="m100.29 127.1 2.95 3.52a.89.89 0 0 0 1.39-.03l6.24-8.18" fill="none" class="svgStroke colorStrokeffffff-20 selectable"></path><path fill="#050c4e" d="M74.37 104.36v1.3h-1.02v-3.92h1.62c.34 0 .69.06.99.35.31.29.36.62.36.95 0 .31-.04.68-.35.98s-.67.34-.97.34h-.64zm0-.82h.34c.11 0 .31-.01.43-.12s.13-.26.13-.36c0-.11-.01-.25-.12-.35-.12-.12-.31-.14-.43-.14h-.35zM79.79 105h-1.42l-.26.66h-1.08l1.5-3.92h1.11l1.47 3.92h-1.09l-.24-.66zm-.27-.78-.44-1.27-.43 1.27zM82.92 103.78l-1.42-2.04h1.22l.74 1.07.71-1.07h1.23l-1.46 2.04v1.88h-1.02zM86.15 105.66l.66-3.92h1l.79 2.09.84-2.09h1.02l.59 3.92h-1.02l-.29-2.26-.95 2.26h-.41l-.91-2.26-.33 2.26h-1.01zM94.71 102.6H93.5v.65h1.15v.86H93.5v.68h1.21v.86h-2.23v-3.92h2.23v.87M96.21 105.66v-3.92h1.02l1.87 2.4v-2.4h1.02v3.92H99.1l-1.87-2.4v2.4zM103.17 102.6v3.05h-1.02v-3.05h-.83v-.86H104v.86zM108.59 101.74c.29 0 .67.05.96.35.22.23.33.57.33.88 0 .33-.12.63-.31.82-.15.15-.36.24-.54.27l1.23 1.6H109l-.97-1.5v1.5h-1.02v-3.92h1.59zm-.57 1.76h.19c.15 0 .37-.04.49-.16a.487.487 0 0 0 0-.66c-.09-.09-.26-.15-.49-.15h-.19zM113.67 102.6h-1.21v.65h1.15v.86h-1.15v.68h1.21v.86h-2.23v-3.92h2.23v.87M117.92 105.55c-.41.15-.63.19-.88.19-.68 0-1.19-.27-1.52-.59-.38-.38-.59-.92-.59-1.43 0-.56.24-1.09.59-1.45.35-.35.87-.61 1.48-.61.19 0 .49.03.92.2v1.22c-.33-.41-.72-.43-.89-.43-.29 0-.52.09-.71.26-.24.22-.34.53-.34.8s.11.57.32.76c.17.16.44.27.73.27.15 0 .53-.02.89-.41v1.22M121.65 102.6h-1.21v.65h1.15v.86h-1.15v.68h1.21v.86h-2.23v-3.92h2.23v.87M124.17 101.74v3.92h-1.02v-3.92zM126.45 101.74l.94 2.38.95-2.38h1.1l-1.67 3.92h-.79l-1.64-3.92zM132.84 102.6h-1.21v.65h1.15v.86h-1.15v.68h1.21v.86h-2.23v-3.92h2.23v.87M134.35 105.66v-3.92h1.33c.39 0 1.05.05 1.56.54.46.44.55 1 .55 1.43 0 .52-.13.97-.51 1.36-.31.31-.83.59-1.5.59h-1.43m1.02-.86h.21c.25 0 .59-.02.86-.28.13-.12.3-.37.3-.8 0-.36-.11-.68-.3-.86-.24-.22-.56-.25-.81-.25h-.25v2.19z" class="svgShape color6b3293-21 selectable"></path><path fill="#050c4e" stroke="#231F20" stroke-miterlimit="10" d="M272.41 179.66a208 208 0 0 1-24.37 15.51c-7.56-.02-15.13-.65-22.03-1.54-3.3-10.68 2.67-21.74 6.84-27.76l.72.32h.02c.19.11.39.2.58.29.1.04.2.08.3.11l.04.02c4.74 1.7 10.56-1.79 13.13-7.98 1.44-3.44 1.56-7.01.61-9.88 3.77-7.29 2.5-15.5 3.44-19.97.1-.46 1.69.73 3.46 1.08 1.47.37 2.9 1.01 4.22 1.94 1.74 1.22 3.07 2.8 3.97 4.57 2.08 4.07 1.89 9.12-.92 13.11-.22.31-.45.6-.69.89 4.33 3.58 5.73 9.55 3.62 14.61-.35.85-.8 1.67-1.36 2.45-.47.67-.99 1.28-1.56 1.82 1.66.34 3.29 1.02 4.76 2.07 2.9 2.05 4.69 5.09 5.21 8.34z" class="svgShape color795ca7-22 svgStroke colorStroke231f20-22 selectable"></path><path fill="#F8991D" stroke="#240F32" stroke-miterlimit="10" d="M226.01 193.64c-16.28-2.08-28.84-5.54-28.84-5.54s-2.42-.18-5.93-1.39c6.35-5.44 6.97-11.26 6.63-14.68-4.05-1.13-8.25-3.35-11.27-7.6-.44-.61-.85-1.25-1.23-1.95-1.83-3.33-2.28-7.19-1.4-10.81.15-.62.34-1.23.57-1.82.17-.46.37-.91.58-1.35 1.59-3.23 3.24-7.01 4.63-11.1.73-2.15 1.4-4.4 1.94-6.69.33-1.37.73-2.65 1.21-3.82.1-.23.19-.46.29-.69s.2-.45.3-.67.21-.44.32-.65c.1-.19.19-.37.29-.55s.2-.36.3-.53c.1-.18.2-.35.31-.52.1-.17.21-.34.32-.5.42-.65.87-1.27 1.34-1.83 2.9-3.56 6.37-5.49 8.96-6.51 5.55 8.11 14.27 13.35 24.08 13.35.86 0 1.7-.04 2.54-.12a9.84 9.84 0 0 0-4.05 7.98c0 1.38.28 2.69.79 3.88.2.49.45.96.74 1.41.64 1.47.89 3.03.79 4.54-1.18 1.27-2.19 2.84-2.93 4.62-2.52 6.06-1.02 12.51 3.33 14.8h.02l.92.42 1.29.57c-4.17 6.02-10.14 17.08-6.84 27.76z" class="svgShape colorf8991d-23 svgStroke colorStroke240f32-23 selectable"></path><path fill="#fff" stroke="#231F20" stroke-miterlimit="10" d="M268.76 231.05c-13.18 8.83-23.01 21.91-27.53 37.11-.03.11-.06.22-.09.32-4.54 15.53-4.86 31.02-10.51 44.59.46-1.47-5.75-7.62-10.07-11.39-32.08-28-74.41-29.17-96.37-27.47 7.25-10.37 19.38-27.37 26.33-44.74-3.41-8.43-2.63-14.62-.34-19.07-8.23-12.05-22.3-38.95-18.51-78.04.86-8.91 5.98-16.6 13.33-20.81h.01c13.24-8 25.99-8 25.99-8 .96 2.29 1.81 4.62 2.56 6.95 5.15 16.09 5.5 32.52 5.42 38.66-3.61-1.65-8.16-3.38-13.63-4.84.83 16.33 5.9 26.58 11.76 33.01.38.41.77.82 1.15 1.21 4.51 4.49 9.33 6.89 12.98 8.16 3.51 1.21 5.93 1.39 5.93 1.39s12.56 3.46 28.84 5.54c6.9.89 14.47 1.52 22.03 1.54 6.94-3.76 15.38-8.87 24.37-15.51 6.83-5.04 13.98-10.97 21-17.85-4.94.1-11.82.49-19.45 1.62 2.13-7.28 7.1-20.5 17.39-32.4a73 73 0 0 1 5.05-5.28s18.96 7.95 22.45 10.65c43.92 25.72-20.17 74.63-50.09 94.65Z" class="svgShape colorffffff-24 svgStroke colorStroke231f20-24 selectable"></path><path stroke="#231F20" stroke-miterlimit="10" d="M197.87 172.02c6.7 1.86 13.01.71 13.01.71" fill="none" class="svgStroke colorStroke231f20-25 selectable"></path><path fill="#050c4e" stroke="#231F20" stroke-miterlimit="10" d="M247.22 121.57c-.25 3.45-1.6 9.96-6.9 20.59l-.56-.25c-3.22-.83-6.84.61-9.55 3.55.1-1.51-.15-3.07-.79-4.54-.1-.24-.21-.48-.34-.72-.13-.23-.26-.47-.41-.69-.51-1.19-.79-2.5-.79-3.88 0-3.28 1.6-6.18 4.05-7.98-.84.08-1.69.12-2.54.12-9.81 0-18.53-5.23-24.08-13.35a35.3 35.3 0 0 1-3.84-7.37c-1.2-3.15-2-6.56-2.29-10.12 2.32-1.78 6.64-4.35 12.81-5.17 15.25-2.03 29.77 8.38 34.35 24.5-.16-.11.19.91.41 1.55.16.69.31 1.39.44 2.1.05.55.06 1.09.02 1.63z" class="svgShape color795ca7-26 svgStroke colorStroke231f20-26 selectable"></path><path stroke="#231F20" stroke-miterlimit="10" d="m230.63 164.89.92.41c-.11-.04-.23-.09-.34-.13-.2-.08-.39-.17-.58-.28ZM242.75 143.22l-.81-.35" fill="none" class="svgStroke colorStroke231f20-27 selectable"></path><path fill="#002eff" stroke="#231F20" stroke-miterlimit="10" d="M247.65 158.64c-2.57 6.18-8.38 9.67-13.13 7.98l-.04-.02-.89-.39h-.02c-.23-.13-.44-.26-.66-.41-.1-.06-.19-.13-.29-.2-3.61-2.67-4.72-8.61-2.39-14.2 1.96-4.72 5.81-7.87 9.63-8.34.72-.1 1.44-.09 2.15.03.1.01.18.03.28.04.15.03.3.06.45.1l2.15.95c1.57 1.03 2.71 2.65 3.35 4.59.96 2.86.83 6.44-.61 9.88z" class="svgShape colored1c53-28 svgStroke colorStroke231f20-28 selectable"></path><path stroke="#231F20" stroke-miterlimit="10" d="M234.48 166.59c-.1-.03-.2-.07-.3-.11-.2-.08-.39-.17-.58-.27l.89.39zM244.91 144.17l-2.15-.95c.33.08.65.19.96.32.42.18.82.39 1.19.63Z" fill="none" class="svgStroke colorStroke231f20-29 selectable"></path><path fill="#1638cb" stroke="#231F20" stroke-miterlimit="10" d="M242.3 143.12c-.1-.02-.18-.03-.28-.04-.51-.08-1.03-.11-1.54-.08-.11 0-.21 0-.32.02-.1 0-.2.01-.29.03h-.01c-.1.01-.2.03-.29.04-.35.05-.69.13-1.03.23l-.39.12c-.49.16-.98.37-1.46.62-.11.06-.23.11-.34.18-.11.06-.21.11-.31.18q-.45.27-.9.6c-.11.08-.22.16-.32.25-.41.32-.8.66-1.18 1.03-.16.16-.33.33-.49.51l-.01.01c-.18.2-.37.41-.54.63-.15.18-.3.37-.43.57-.08.09-.14.18-.2.27 0 0-.01.01-.01.02-.13.18-.25.37-.37.56-.03.03-.04.06-.06.08-.15.25-.3.49-.44.75-.14.25-.27.49-.4.75-.01.02-.02.04-.03.07q-.21.42-.39.87c-2.33 5.59-1.22 11.53 2.39 14.2-.36-.07-.72-.16-1.06-.29l-.92-.41h-.02c-4.35-2.3-5.85-8.75-3.33-14.81.74-1.78 1.75-3.34 2.93-4.62 2.72-2.95 6.33-4.38 9.55-3.55l.56.25 1.6.7h.02s.1.08.14.11c.08.05.15.1.22.16z" class="svgShape colorcb1682-30 svgStroke colorStroke231f20-30 selectable"></path><path fill="#0053ff" stroke="#251132" stroke-miterlimit="10" d="M252.84 138.46c-1.14 3.01-2.6 6.45-4.59 10.29-.75 1.46-1.58 2.98-2.48 4.57-.6 1.05-1.23 2.12-1.89 3.22-.63 1.03-1.28 2.09-1.97 3.18-2.36 2.98-5.49 1.58-5.49 1.58-1.79-1.79-1.9-3.36-1.41-5.15.11-.39.24-.77.4-1.14.25-.62.56-1.22.91-1.79.33-.53.65-1.05.96-1.57.65-1.08 1.25-2.12 1.83-3.14 1.08-1.91 2.05-3.72 2.91-5.44.02-.04.04-.08.06-.11 0 0 0-.02.01-.03.1-.2.2-.39.29-.59.1-.2.19-.39.29-.58.19-.39.37-.77.54-1.15.13-.29.27-.58.4-.86.19-.42.37-.83.55-1.24.09-.2.18-.39.25-.58.1-.23.19-.45.29-.67.1-.23.2-.46.29-.68.11-.27.22-.54.32-.8.2-.49.38-.97.55-1.44s.34-.93.49-1.38c.08-.23.16-.45.23-.67.08-.22.15-.44.21-.65.07-.22.14-.43.2-.64.07-.22.13-.42.19-.63s.12-.41.18-.61c.09-.32.18-.63.25-.94l.06-.23.09-.34c.06-.22.11-.44.16-.67.08-.34.15-.68.22-1.01.03-.17.06-.33.1-.48.03-.17.06-.34.1-.51.09-.5.16-.99.23-1.46.03-.15.04-.3.06-.45l.03-.23c.03-.23.05-.45.07-.67v-.08l.03-.35c.02-.25.03-.51 0-.76 0-.09-.01-.18-.02-.28 0-.04 0-.09-.01-.13 0-.08-.01-.15-.03-.23-.01-.1-.03-.21-.04-.32-.01-.07-.03-.14-.04-.21-.04-.18-.08-.37-.12-.54 0-.04-.02-.08-.03-.11-.04-.18-.1-.37-.15-.54 0-.02-.01-.04-.02-.06-.06-.2-.12-.39-.19-.58a15 15 0 0 0-.42-1.04c-.06-.15-.13-.29-.2-.42.21.16 2.54 4.05 4.57 7.5 2.16 3.65 2.71 8.06 1.4 12.1-.19.59-.4 1.19-.62 1.78z" class="svgShape colorec2154-31 svgStroke colorStroke251132-31 selectable"></path><path fill="#0014ff" stroke="#231F20" stroke-miterlimit="10" d="M248.76 121.56v.76c0 .12-.01.23-.03.35v.08c-.02.22-.04.44-.07.67l-.09.68c-.06.47-.14.96-.23 1.46-.06.32-.12.65-.19.98-.07.34-.14.68-.22 1.02-.08.33-.16.67-.25 1.01l-.06.23c-.08.31-.16.62-.25.94-.06.2-.11.41-.18.61-.06.21-.12.42-.19.63-.06.21-.13.42-.2.64-.06.22-.13.43-.21.65-.07.22-.15.44-.23.67-.16.45-.32.91-.49 1.38-.18.47-.36.95-.55 1.44-.11.27-.21.54-.32.8-.09.23-.18.45-.29.68-.09.22-.19.44-.29.67-.08.19-.16.39-.25.58-.18.41-.36.82-.55 1.24-.13.29-.27.57-.4.86-.17.38-.35.76-.54 1.15-.1.19-.18.39-.29.58-.1.2-.19.39-.29.59 0 0 0 .02-.01.03-.02.04-.04.08-.06.11-.86 1.72-1.83 3.53-2.91 5.44a125 125 0 0 1-2.79 4.71c-.35.57-.67 1.17-.91 1.78-.16.38-.29.76-.4 1.15-.49 1.79-.38 3.36 1.41 5.15l-.4-.17h-.01c-.18-.1-.35-.21-.52-.34-.99-.73-1.63-1.92-1.87-3.31-.22-1.27-.09-2.7.43-4.11.62-.99 1.21-1.96 1.77-2.9 1.55-2.67 2.89-5.14 4.05-7.43.15-.3.3-.6.45-.89 5.3-10.62 6.65-17.14 6.9-20.59.04-.54.03-1.08-.02-1.62-.06-.73-.7-3.16-.85-3.67.18.13.38.26.58.4.18.13.37.27.56.41.07.14.14.28.2.42.07.15.13.29.19.44.08.2.16.39.23.6.07.19.13.38.19.58 0 .02.01.04.02.06l.15.54c0 .04.02.08.03.11l.12.54c.01.07.03.14.04.21.02.11.03.22.04.32l.03.23c0 .04.01.09.01.13 0 .1.01.19.02.28z" class="svgShape colorcb1682-32 svgStroke colorStroke231f20-32 selectable"></path><path stroke="#231F20" stroke-miterlimit="10" d="M248.31 119.13c-.06-.2-.12-.39-.19-.58M248.62 120.39c-.04-.18-.08-.37-.12-.54M247 130.99c-.06.21-.13.42-.2.64M245.86 134.33c-.17.47-.35.95-.55 1.44M243.61 139.75c-.13.29-.26.57-.4.86M242.67 141.77c-.1.19-.19.39-.29.58M235.68 154.28c-.1.25-.19.5-.26.73M236.42 161.31c-1.16-1.34-2.24-2.6-1.01-6.29" fill="none" class="svgStroke colorStroke231f20-33 selectable"></path><path fill="#050c4e" stroke="#231F20" stroke-miterlimit="10" d="M205.33 114.43c-2.58 1.02-6.06 2.95-8.96 6.51-.46.56-.91 1.18-1.34 1.83-.11.16-.22.33-.32.5-.11.17-.21.34-.31.52-.11.17-.2.35-.3.53s-.2.36-.29.55c-.11.21-.22.42-.32.65-.11.22-.21.44-.3.67-.1.23-.2.46-.29.69-.48 1.17-.88 2.45-1.21 3.82-.54 2.29-1.21 4.54-1.94 6.69-1.39 4.09-3.04 7.87-4.63 11.1-.22.44-.41.89-.58 1.35-1.41-7.55-.37-12.04 1.2-14.68a9.84 9.84 0 0 1-1.72-4.6c-.5-4.76 2.46-9.08 6.87-10.47-.27-.79-.45-1.63-.51-2.5-.03-.24-.03-.48-.03-.73 0-5.46 4.42-9.88 9.88-9.88.43 0 .86.03 1.27.08 1 2.64 2.3 5.11 3.84 7.37z" class="svgShape color6b3293-34 svgStroke colorStroke231f20-34 selectable"></path><path stroke="#231F20" stroke-miterlimit="10" d="M192.07 122.44c-.49-.72-.89-1.51-1.18-2.35M261.74 150.37c-.43.52-.9.99-1.4 1.42M262.44 169.26c-.65.63-1.35 1.17-2.1 1.64M229.61 141.21c-.06-.1-.13-.19-.18-.29M187.27 133.2c-.52.5-1.05 1.14-1.53 1.95" fill="none" class="svgStroke colorStroke231f20-35 selectable"></path><path fill="#050c4e" stroke="#231F20" stroke-miterlimit="10" d="M191.24 186.7c-3.65-1.27-8.47-3.67-12.98-8.16-.38-.39-.77-.8-1.15-1.21.86-1.29 1.98-2.39 3.29-3.22 3.33-2.14 5.61-5.67 6.19-9.59v-.1c3.03 4.25 7.23 6.47 11.28 7.6.34 3.42-.28 9.24-6.63 14.68Z" class="svgShape color6b3293-36 svgStroke colorStroke231f20-36 selectable"></path><path fill="#F8991D" stroke="#240F32" stroke-miterlimit="10" d="M184.02 130.55c.18 1.71.79 3.28 1.72 4.6-1.56 2.65-2.6 7.13-1.2 14.68-.23.6-.42 1.2-.57 1.82-1.39-.77-3.06-1.62-4.99-2.5.08-6.14-.27-22.56-5.42-38.65 5 1.51 10.59 3.81 16.83 7.09.06.87.23 1.7.51 2.5-4.4 1.38-7.37 5.71-6.87 10.47z" class="svgShape colorf8991d-37 svgStroke colorStroke240f32-37 selectable"></path><path stroke="#231F20" stroke-miterlimit="10" d="M145 111.55c-.24.14-.48.29-.72.44M303.01 151.67c-3.15 3.59-6.37 6.97-9.6 10.14M248.04 195.17c-10.69 5.79-17.8 8.37-17.8 8.37" fill="none" class="svgStroke colorStroke231f20-38 selectable"></path><path fill="#F8991D" stroke="#240F32" stroke-miterlimit="10" d="M291.35 131.03c-10.29 11.9-15.26 25.12-17.4 32.4-2.79.41-5.67.92-8.6 1.55 2.11-5.06.72-11.04-3.62-14.61.24-.29.48-.58.69-.89 2.81-3.99 3-9.05.92-13.11 10.91-3.63 20.26-5.08 28-5.33z" class="svgShape colorf8991d-39 svgStroke colorStroke240f32-39 selectable"></path><path stroke="#231F20" stroke-miterlimit="10" d="M124.19 274.21c-1.55 2.17-3.15 4.35-4.8 6.52" fill="none" class="svgStroke colorStroke231f20-40 selectable"></path><path fill="#795CA7" stroke="#231F20" stroke-miterlimit="10" d="M220.55 301.69c3.64 3.18 8.79 8.01 10.11 10.33a.97.97 0 0 1-.51 1.39c-3.69 1.42-8.36 1.58-13.11 1.39z" class="svgShape color795ca7-41 svgStroke colorStroke231f20-41 selectable"></path><path stroke="#231F20" stroke-miterlimit="10" d="m217.04 314.8-2.03 7.6" fill="none" class="svgStroke colorStroke231f20-42 selectable"></path><path fill="#231F20" d="m208.58 135.92 2.3-3.87s10.88 1.22 11.5 6.6l-1.24 3.04s-2-3.85-6.56-4.82-5.99-.94-5.99-.94zM192.45 128.48c.37.15.71.39 1.11.53 2.8.99 5.14 3.22 5.14 3.22l.82-4.43s-1.5-1.65-5.69-2.92l-1.37 3.6z" class="svgShape color231f20-43 selectable"></path><path stroke="#231F20" stroke-miterlimit="10" d="M199.67 138.64s-.07 3.32-3.69 6.89c-2.31 2.27 2.07 4.46 2.07 4.46M190.96 149.71s3.05 8.25 16.99 6.03M207.06 143.7s3.9 3.66 8.41 2.67M194.95 140.18s-4.41-.73-5.2-2.79" fill="none" class="svgStroke colorStroke231f20-44 selectable"></path><path fill="#E15E26" d="M215.01 154.03a2.24 2.24 0 1 0 0-4.48 2.24 2.24 0 0 0 0 4.48M187.53 144.31c.36.24.46.35.92.35 1.24 0 1.97-1.03 2.24-2.24s-.33-2.09-1.45-2.09z" class="svgShape colore15e26-45 selectable"></path><path stroke="#231F20" stroke-miterlimit="10" d="m165.35 144.32-12.95-21.03" fill="none" class="svgStroke colorStroke231f20-46 selectable"></path><path fill="#fff" d="M164.59 195.63a141 141 0 0 1-2.47 4.78s-8.95 2.6-11.93 9.98" class="svgShape colorffffff-47 selectable"></path><path stroke="#231F20" stroke-miterlimit="10" d="M164.59 195.63a141 141 0 0 1-2.47 4.78s-8.95 2.6-11.93 9.98" fill="none" class="svgStroke colorStroke231f20-48 selectable"></path><mask id="c" width="210" height="211" x="124" y="103" maskUnits="userSpaceOnUse" style="mask-type:luminance"><path fill="#fff" d="M268.76 231.05c-13.18 8.83-23.01 21.91-27.53 37.11-.03.11-.06.22-.09.32-4.54 15.53-4.86 31.02-10.51 44.59.46-1.47-5.75-7.62-10.07-11.39-32.08-28-74.41-29.17-96.37-27.47 7.25-10.37 19.38-27.37 26.33-44.74-3.41-8.43-2.63-14.62-.34-19.07-8.23-12.05-22.3-38.95-18.51-78.04.86-8.91 5.98-16.6 13.33-20.81h.01c13.24-8 25.99-8 25.99-8 .96 2.29 1.81 4.62 2.56 6.95 5.15 16.09 5.5 32.52 5.42 38.66-3.61-1.65-8.16-3.38-13.63-4.84.83 16.33 5.9 26.58 11.76 33.01.38.41.77.82 1.15 1.21 4.51 4.49 9.33 6.89 12.98 8.16 3.51 1.21 5.93 1.39 5.93 1.39s12.56 3.46 28.84 5.54c6.9.89 14.47 1.52 22.03 1.54 6.94-3.76 15.38-8.87 24.37-15.51 6.83-5.04 13.98-10.97 21-17.85-4.94.1-11.82.49-19.45 1.62 2.13-7.28 7.1-20.5 17.39-32.4a73 73 0 0 1 5.05-5.28s18.96 7.95 22.45 10.65c43.92 25.72-20.17 74.63-50.09 94.65" class="svgShape colorffffff-50 selectable"></path></mask><g stroke-miterlimit="10" mask="url(#c)"><path d="m164.997 168.906 11.654 2.032a2.67 2.67 0 0 0 3.089-2.172l2.032-11.654a2.67 2.67 0 0 0-2.172-3.089l-11.654-2.032a2.67 2.67 0 0 0-3.089 2.172l-2.032 11.654a2.67 2.67 0 0 0 2.172 3.089ZM226.189 260.053l7.537 20.125a4.23 4.23 0 0 0 5.445 2.478l20.125-7.537a4.23 4.23 0 0 0 2.478-5.445l-7.537-20.125a4.23 4.23 0 0 0-5.444-2.478l-20.126 7.537a4.23 4.23 0 0 0-2.478 5.445ZM294.141 139.52l3.625 1.618a2.31 2.31 0 0 0 3.051-1.168l1.618-3.626a2.31 2.31 0 0 0-1.168-3.051l-3.625-1.618a2.31 2.31 0 0 0-3.051 1.168l-1.618 3.626a2.31 2.31 0 0 0 1.168 3.051ZM164.032 240.297l1.632 5.597a.65.65 0 0 0 .806.442l5.597-1.633a.65.65 0 0 0 .442-.806l-1.633-5.597a.65.65 0 0 0-.806-.441l-5.596 1.632a.65.65 0 0 0-.442.806ZM245.3 179.585l.837 2.871a.65.65 0 0 0 .806.442l2.871-.837a.65.65 0 0 0 .442-.806l-.837-2.871a.65.65 0 0 0-.806-.442l-2.871.837a.65.65 0 0 0-.442.806ZM122.984 125.164l4.612 11.262a2.31 2.31 0 0 0 3.013 1.262l11.263-4.612a2.31 2.31 0 0 0 1.262-3.013l-4.612-11.262a2.31 2.31 0 0 0-3.013-1.263l-11.263 4.613a2.31 2.31 0 0 0-1.262 3.013ZM284.893 178.416l-4.96 11.113a2.31 2.31 0 0 0 1.168 3.051l11.113 4.96a2.31 2.31 0 0 0 3.051-1.168l4.96-11.114a2.31 2.31 0 0 0-1.168-3.051l-11.114-4.959a2.31 2.31 0 0 0-3.05 1.168ZM206.801 213.89l2.404 3.16a2.31 2.31 0 0 0 3.237.439l3.16-2.404a2.31 2.31 0 0 0 .439-3.237l-2.404-3.159a2.31 2.31 0 0 0-3.237-.44l-3.16 2.404a2.31 2.31 0 0 0-.439 3.237Z" fill="none" stroke="#050c4e" class="svgStroke colorStrokeed1c53-52 selectable"></path></g><path fill="#FFCE06" stroke="#231F20" stroke-linecap="round" stroke-linejoin="round" d="m280.48 96.58 3.61-.55-3.61-.55a5.64 5.64 0 0 1-4.74-4.74l-.96-6.34-.96 6.34a5.64 5.64 0 0 1-4.74 4.74l-3.61.55 3.61.55c2.45.37 4.37 2.29 4.74 4.74l.96 6.34.96-6.34a5.64 5.64 0 0 1 4.74-4.74" class="svgShape colorffce06-53 svgStroke colorStroke231f20-53 selectable"></path><path fill="#F8991D" stroke="#231F20" stroke-miterlimit="10" d="m114 237.57-2.33 3.04c-5.14 6.73-18.18 5.4-29.13-2.97s-15.66-20.6-10.52-27.33l3.22-4.22c-.55.72-.99 1.49-1.31 2.33-.95 2.38-1 5.2-.28 8.17 1.4 5.68 5.67 11.92 12.1 16.83 6.42 4.9 13.56 7.39 19.4 7.25 3.05-.07 5.75-.85 7.81-2.38.32-.24.64-.5.93-.78l.1.06z" class="svgShape colorf8991d-54 svgStroke colorStroke231f20-54 selectable"></path><path fill="#FFCE06" stroke="#231F20" stroke-miterlimit="10" d="M79.17 207.17c.46-.42.97-.78 1.51-1.09 5.31-3.03 14.47-1.27 22.35 4.75.39.3.77.6 1.14.91-.37-.31-.75-.62-1.13-.92-7.83-6.06-16.84-7.97-21.99-5.09-.7.39-1.34.87-1.88 1.44Zm29.82 9.5c3.87 4.93 5.58 10.33 4.49 14.5a8.2 8.2 0 0 1-1.45 3.02q-.285.39-.63.72c.33-.29.64-.63.91-.99.66-.87 1.1-1.86 1.36-2.94.99-4.07-.79-9.4-4.68-14.32z" class="svgShape colorffce06-55 svgStroke colorStroke231f20-55 selectable"></path><path fill="#FFCE06" stroke="#231F20" stroke-miterlimit="10" d="M73.67 216.59c1.4 5.68 5.67 11.92 12.1 16.83 6.42 4.9 13.56 7.4 19.4 7.26 3.06-.07 5.75-.85 7.81-2.39.32-.23.64-.5.92-.78.36-.35.69-.71 1-1.12 1.03-1.34 1.67-2.91 1.93-4.63 1.07-6.84-3.7-16.01-12.44-22.69-10.96-8.37-23.99-9.7-29.13-2.98-.06.09-.13.19-.2.27-.46.64-.82 1.33-1.1 2.06-.96 2.39-1.01 5.2-.28 8.17zm37.73 18.32c-.2.19-.41.36-.63.52-4.94 3.71-14.59 1.96-22.92-4.48-8.34-6.45-12.53-15.41-10.3-21.21a7.6 7.6 0 0 1 1.58-2.54c0-.02.02-.03.05-.05.55-.57 1.18-1.05 1.88-1.44 5.15-2.88 14.16-.97 21.99 5.09.39.3.76.6 1.13.92.74.62 1.44 1.25 2.1 1.91l.31.31q.78.78 1.47 1.59.21.225.39.45c.19.22.37.44.54.67 3.89 4.91 5.67 10.25 4.68 14.32-.26 1.09-.7 2.08-1.36 2.94-.27.36-.58.7-.91.99z" class="svgShape colorffce06-56 svgStroke colorStroke231f20-56 selectable"></path><path fill="#FFCE06" stroke="#231F20" stroke-miterlimit="10" d="M87.85 230.96c8.33 6.44 17.99 8.19 22.92 4.48.22-.16.43-.33.63-.52.33-.29.64-.63.91-.99.66-.87 1.1-1.86 1.36-2.94.99-4.07-.79-9.4-4.68-14.32-.17-.23-.35-.45-.54-.67-.13-.15-.25-.3-.39-.45q-.69-.81-1.47-1.59l-.31-.31c-.66-.65-1.36-1.29-2.1-1.91-.37-.31-.75-.62-1.13-.92-7.83-6.06-16.84-7.97-21.99-5.09-.7.39-1.34.87-1.88 1.44-.02.02-.04.03-.05.05-.19.2-.36.41-.53.63-.44.59-.79 1.23-1.05 1.91-2.23 5.8 1.96 14.76 10.3 21.21z" class="svgShape colorffce06-57 svgStroke colorStroke231f20-57 selectable"></path><path fill="#fff" d="m89.79 215.69 7.15-.76c.76-.08 1.58.46 1.82 1.21l2.32 7.03c.25.75-.17 1.42-.93 1.5l-7.15.76c-.76.08-1.58-.46-1.82-1.21l-2.32-7.03c-.25-.75.17-1.42.93-1.5" class="svgShape colorffffff-58 selectable"></path><path fill="#F8991D" stroke="#231F20" stroke-miterlimit="10" d="m286.44 289.23 3.25 2.81c7.18 6.21 21.2 1.78 31.31-9.91s12.49-26.2 5.31-32.42l-4.51-3.9c.77.66 1.42 1.42 1.97 2.26 1.59 2.4 2.29 5.48 2.17 8.91-.24 6.56-3.51 14.39-9.44 21.25-5.93 6.85-13.21 11.22-19.65 12.39-3.37.62-6.51.38-9.12-.84-.41-.19-.81-.41-1.2-.65l-.09.09z" class="svgShape colorf8991d-59 svgStroke colorStroke231f20-59 selectable"></path><path fill="#FFCE06" stroke="#231F20" stroke-miterlimit="10" d="M315.35 246.74c-6.31-1.99-15.77 2.16-22.99 10.61-.36.42-.7.84-1.04 1.27.34-.42.68-.84 1.05-1.26 7.28-8.41 16.94-12.43 23.47-10.32.67.21 1.31.49 1.91.85-.73-.5-1.54-.89-2.4-1.15Zm-30.06 35.19c.53 1.13 1.24 2.12 2.17 2.92.38.34.8.64 1.22.88-.3-.2-.58-.41-.85-.65-.97-.83-1.72-1.84-2.28-2.99-2.15-4.34-1.51-10.65 1.62-16.95-3.15 6.29-3.89 12.55-1.87 16.79z" class="svgShape colorffce06-60 svgStroke colorStroke231f20-60 selectable"></path><path fill="#FFCE06" stroke="#231F20" stroke-miterlimit="10" d="M323.77 248.07c-.48-.74-1.03-1.41-1.68-2.01-.1-.08-.19-.17-.28-.25-7.18-6.21-21.2-1.77-31.32 9.92-8.08 9.34-11.22 20.5-8.49 27.76.68 1.83 1.74 3.41 3.18 4.65.43.38.87.7 1.35 1 .38.24.79.46 1.19.65 2.61 1.22 5.75 1.46 9.12.84 6.45-1.17 13.72-5.55 19.65-12.4 5.94-6.86 9.2-14.69 9.44-21.24.12-3.43-.58-6.51-2.18-8.91zm-36.31 36.77c-.92-.8-1.63-1.79-2.17-2.92-2.02-4.24-1.28-10.51 1.87-16.79.13-.29.28-.57.44-.86.1-.2.21-.38.32-.58.38-.7.8-1.39 1.25-2.09l.27-.42c.58-.87 1.2-1.72 1.87-2.57.33-.43.68-.85 1.04-1.27 7.22-8.45 16.68-12.6 22.99-10.61.86.26 1.66.65 2.4 1.15.03.01.05.03.06.04.26.18.49.37.73.57.62.54 1.15 1.17 1.58 1.85 3.77 5.86 1.21 16.66-6.47 25.65-7.68 8.98-17.88 13.1-24.15 10.16-.28-.13-.54-.26-.81-.43-.43-.24-.84-.54-1.22-.88Z" class="svgShape colorffce06-61 svgStroke colorStroke231f20-61 selectable"></path><path fill="#FFCE06" stroke="#231F20" stroke-miterlimit="10" d="M313.65 276c-7.68 8.98-17.88 13.1-24.15 10.16-.28-.13-.54-.26-.81-.43-.43-.24-.84-.54-1.22-.88-.92-.8-1.63-1.79-2.17-2.92-2.02-4.24-1.28-10.51 1.87-16.79.13-.29.28-.57.44-.86l.32-.58c.38-.7.8-1.39 1.25-2.09l.27-.42c.58-.87 1.2-1.72 1.87-2.57.33-.43.68-.85 1.04-1.27 7.22-8.45 16.68-12.6 22.99-10.61.86.26 1.66.65 2.4 1.15.03.01.05.03.06.04.26.18.49.37.73.57.62.54 1.15 1.17 1.58 1.85 3.77 5.86 1.21 16.66-6.47 25.65Z" class="svgShape colorffce06-62 svgStroke colorStroke231f20-62 selectable"></path><path fill="#fff" d="m308.03 259.68-8.03.8c-.85.08-1.63.86-1.73 1.74l-.94 8.25c-.1.88.51 1.52 1.36 1.44l8.03-.8c.85-.08 1.63-.86 1.73-1.74l.94-8.25c.1-.88-.51-1.52-1.36-1.44" class="svgShape colorffffff-63 selectable"></path></svg></g></svg>