<svg id="SvgjsSvg1838" width="288" height="288" xmlns="http://www.w3.org/2000/svg" version="1.1" xmlns:xlink="http://www.w3.org/1999/xlink" xmlns:svgjs="http://svgjs.com/svgjs"><defs id="SvgjsDefs1839"></defs><g id="SvgjsG1840"><svg xmlns="http://www.w3.org/2000/svg" viewBox="0 0 400 400" width="288" height="288"><path fill="#fff" d="m202.26 104.61-3.84 31.27 38.71-1.74c8.5-.38 16.58-3.82 22.74-9.69l8.69-8.27c-2.28-1.05-4.7-2.17-7.14-3.3a89.25 89.25 0 0 0-37.49-8.28h-21.66z" class="svgShape colorffffff-0 selectable"></path><path fill="#fff" d="M122.51 133.56c6.92 4.63 16.34 5.15 20.18 4.82l55.73-2.5 3.84-31.27h-15.38c-7.05-.32-24.22 1.54-36.52 11.58s-23.7 15.76-27.87 17.37zM74.46 161.54V146.1c-4.48 1.61-13.45 8.11-13.45 21.23 11.53 0 13.77-3.86 13.45-5.79" class="svgShape colorffffff-1 selectable"></path><path fill="#0018ff" stroke="#341E54" stroke-miterlimit="10" d="m198.42 135.88-1.92 14.08v34.74h-59.89c.21-1.25.31-2.54.31-3.86 0-9.16-5.3-17.08-12.99-20.84a23 23 0 0 0-10.08-2.32c-12.73 0-23.06 10.37-23.06 23.16 0 1.66.17 3.27.51 4.82H65.81c-1.6-.64-4.81-5.21-4.81-18.33 11.54 0 13.78-3.86 13.46-5.79v-15.45l48.04-12.53c.58.38 1.17.74 1.79 1.07 6.68 3.64 14.88 4.05 18.39 3.76l55.74-2.5z" class="svgShape colorb5b9dd-2 svgStroke colorStroke341e54-2 selectable"></path><path fill="#fff" d="M307.97 141.28c-2.12 0-3.84 1.73-3.84 3.86v13.51c0 2.13 1.72 3.86 3.84 3.86h9.61v-21.23z" class="svgShape colorffffff-3 selectable"></path><path fill="#8C8DC5" fill-rule="evenodd" stroke="#231F20" stroke-miterlimit="10" d="M113.86 204c11.43 0 20.91-8.35 22.74-19.3.21-1.25.32-2.54.32-3.86 0-12.79-10.33-23.16-23.06-23.16-12.74 0-23.06 10.37-23.06 23.16 0 1.65.17 3.27.5 4.82 2.21 10.47 11.47 18.33 22.56 18.33zm11.53-23.16c0-6.4-5.16-11.58-11.53-11.58s-11.53 5.18-11.53 11.58 5.16 11.58 11.53 11.58 11.53-5.18 11.53-11.58Z" clip-rule="evenodd" class="svgShape color8c8dc5-4 svgStroke colorStroke231f20-4 selectable"></path><path fill="#fff" d="M113.86 169.26c6.37 0 11.53 5.18 11.53 11.58s-5.16 11.58-11.53 11.58-11.53-5.18-11.53-11.58 5.16-11.58 11.53-11.58" class="svgShape colorffffff-5 selectable"></path><path fill="#0019ff" stroke="#341E54" stroke-miterlimit="10" d="M284.59 184.7h16.65c5.45-.64 16.34-5.98 16.34-22.19h-9.61c-2.12 0-3.84-1.73-3.84-3.86v-13.51c0-2.13 1.72-3.86 3.84-3.86h9.61v-4.83c-.32-2.57-3.08-7.72-11.53-7.72-10.57 0-18.26-3.86-26.91-7.72-2.36-1.05-6.19-2.8-10.58-4.82l-8.69 8.27a35.25 35.25 0 0 1-22.74 9.69l-38.71 1.74-1.92 14.08v34.74h42.6a23.4 23.4 0 0 1-.32-3.86c0-12.79 10.33-23.16 23.06-23.16 12.74 0 23.06 10.37 23.06 23.16 0 1.32-.11 2.6-.32 3.86z" class="svgShape colorb5b9dd-6 svgStroke colorStroke341e54-6 selectable"></path><path stroke="#0017ff" stroke-miterlimit="10" d="M221.48 154.78h-14.41m-30.75 0h-14.41m36.51-18.9-1.92 14.08v34.74m1.92-48.82 3.84-31.27m-3.84 31.27 38.71-1.73c8.5-.38 16.58-3.83 22.74-9.69l8.7-8.27c-2.27-1.05-4.7-2.16-7.14-3.3-11.76-5.44-24.55-8.28-37.5-8.28h-21.66m36.84 80.09h-44.94m.38 0h-57.93c.21-1.25.31-2.54.31-3.86 0-9.16-5.3-17.08-12.99-20.84a22.9 22.9 0 0 0-10.08-2.32c-12.73 0-23.06 10.37-23.06 23.16 0 1.65.17 3.27.51 4.82 2.2 10.48 11.47 18.33 22.55 18.33 6.67 0 12.67-2.84 16.87-7.37 3.03-3.24 5.11-7.35 5.88-11.92m-75.59-17.37c0 13.13 3.21 17.69 4.81 18.33h25.49M74.48 146.1v15.45c.31 1.92-1.92 5.79-13.46 5.79 0-13.13 8.98-19.62 13.46-21.23m48.04-12.53c.58.38 1.17.74 1.79 1.07 6.68 3.64 14.88 4.05 18.39 3.76l55.74-2.5M74.48 146.12l48.04-12.53c.52-.2 1.16-.48 1.91-.81 5.15-2.32 15.21-7.79 25.95-16.56 1.57-1.28 3.21-2.42 4.9-3.44 9.29-5.64 20.03-7.64 27.1-8.08 1.76-.1 3.29-.12 4.52-.06h15.37m115.32 36.67v-4.82m-49.01-20.26c4.38 2.02 8.22 3.77 10.58 4.82 8.65 3.86 16.34 7.72 26.91 7.72 8.45 0 11.2 5.14 11.53 7.71m-32.99 48.24h16.65c2.09-.24 4.99-1.18 7.76-3.17 4.45-3.18 8.58-9.04 8.58-19.03m-32.99 22.19c.21-1.25.31-2.54.31-3.86 0-3.99-1-7.73-2.77-11-1.33-2.48-3.11-4.7-5.22-6.52a22.7 22.7 0 0 0-6.95-4.15c-2.53-.96-5.26-1.48-8.13-1.48-2.57 0-5.06.43-7.37 1.22a23.14 23.14 0 0 0-15.68 21.94c0 1.32.1 2.61.31 3.86 1.83 10.96 11.32 19.3 22.74 19.3 11.43 0 20.92-8.34 22.75-19.3m-170.75-15.46c-6.37 0-11.53 5.18-11.53 11.57 0 6.4 5.16 11.58 11.53 11.58 6.38 0 11.54-5.18 11.54-11.58s-5.16-11.57-11.54-11.57ZM317.6 141.3v21.23h-9.61c-2.12 0-3.84-1.73-3.84-3.86v-13.51c0-2.13 1.72-3.86 3.84-3.86z" class="svgStroke colorStroke341e54-7 selectable"></path><path fill="#8C8DC5" fill-rule="evenodd" stroke="#231F20" stroke-miterlimit="10" d="M261.84 203.99c11.43 0 20.91-8.35 22.74-19.3.21-1.26.32-2.54.32-3.86 0-12.79-10.33-23.16-23.06-23.16-12.74 0-23.06 10.37-23.06 23.16 0 1.32.11 2.6.32 3.86 1.83 10.95 11.32 19.3 22.74 19.3Zm11.53-23.16c0-6.4-5.16-11.58-11.53-11.58s-11.53 5.18-11.53 11.58 5.16 11.58 11.53 11.58 11.53-5.18 11.53-11.58Z" clip-rule="evenodd" class="svgShape color8c8dc5-8 svgStroke colorStroke231f20-8 selectable"></path><path fill="#050c4e" stroke="#231F20" stroke-miterlimit="10" d="M334.73 302.31H221.69c-.28-4.94-1.31-19.66-4.22-32.78.25-1.09.48-2.15.68-3.19.63-3.11 1.06-5.92 1.36-8.12-.75.62-1.66 1.04-2.69 1.21-.65.1-1.33.21-2.05.27-12.71 1.69-24.41-1.85-31.56-4.84a7.3 7.3 0 0 1-2.61-1.83 7.4 7.4 0 0 1-1.28-8.08c.13-.28.25-.57.39-.87 1.13-2.6 2.31-5.78 3.19-9.32 1.65-6.63 8.41-43.8 44.86-61.26.6-.28 1.21-.57 1.82-.84.32-.15.65-.3.98-.43.02-.01.03-.01.06-.02.54-.24 1.07-.47 1.62-.68.63-.25 1.25-.5 1.89-.75.07-.02.13-.05.19-.07.46-.17.92-.34 1.39-.5.51-.19 1.04-.38 1.57-.56.63-.21 1.26-.41 1.9-.62.5-.16 1.01-.31 1.53-.44.56-.17 1.13-.33 1.7-.48.07-.02.15-.05.22-.06.07-.02.14-.03.21-.06.59-.17 1.2-.32 1.8-.47.77-.18 1.56-.38 2.36-.55.07-.01.15-.03.22-.05.16-.03.34-.08.51-.11.73-.16 1.47-.31 2.22-.44.26-.05.54-.09.82-.14.09-.02.17-.03.26-.05.51-.1 1.04-.19 1.56-.27h.02c.38-.07.75-.13 1.14-.17.6-.1 1.22-.18 1.83-.26.27-.05.55-.08.82-.11l.3-.03c.54-.07 1.07-.13 1.61-.18.41-.05.82-.09 1.24-.13.42-.05.84-.08 1.26-.11.96-.09 1.93-.16 2.91-.22.08-.01.16-.01.24-.01l1.52-.09c.51-.02 1.03-.03 1.54-.06 1.05-.05 2.1-.07 3.17-.08h.06c1.62-.03 3.27-.02 4.96.01.27.16.56.32.84.49 18.76 11.08 49.22 40.59 57.46 117.1.73 6.72 1.12 13.48 1.22 20.24z" class="svgShape color6c3593-9 svgStroke colorStroke231f20-9 selectable"></path><path stroke="#231F20" stroke-miterlimit="10" d="M130.22 170.04c-9.77-1.12-18.97-13.27-21.48-29.25-2.5-15.97 2.54-30.35 11.48-34.41 9.75 1.12 18.96 13.28 21.46 29.25 2.5 15.96-2.53 30.33-11.46 34.41Z" class="svgStroke colorStroke231f20-10 selectable"></path><path fill="#F8991D" stroke="#231F20" stroke-miterlimit="10" d="m132.27 175.82-5.8.9c-12.82 2.01-25.86-13.27-29.13-34.14s4.47-39.42 17.29-41.43l8.04-1.26c-1.37.21-2.67.61-3.92 1.2-3.58 1.63-6.62 4.7-8.96 8.76-4.46 7.77-6.34 19.22-4.42 31.47 1.92 12.23 7.2 22.55 13.82 28.59 3.46 3.16 7.28 5.15 11.18 5.63.61.08 1.24.12 1.86.12l.05.17z" class="svgShape colorf8991d-11 svgStroke colorStroke231f20-11 selectable"></path><path stroke="#231F20" stroke-miterlimit="10" d="M130.22 170.04c-9.77-1.12-18.97-13.27-21.48-29.25-2.5-15.97 2.54-30.35 11.48-34.41 9.75 1.12 18.96 13.28 21.46 29.25 2.5 15.96-2.53 30.33-11.46 34.41Z" class="svgStroke colorStroke231f20-12 selectable"></path><path stroke="#231F20" stroke-miterlimit="10" d="M130.22 170.04c-9.77-1.12-18.97-13.27-21.48-29.25-2.5-15.97 2.54-30.35 11.48-34.41 9.75 1.12 18.96 13.28 21.46 29.25 2.5 15.96-2.53 30.33-11.46 34.41Z" class="svgStroke colorStroke231f20-13 selectable"></path><path fill="#FFCE06" stroke="#231F20" stroke-miterlimit="10" d="M151.8 134.04c-3.27-20.87-16.31-36.16-29.13-34.15-1.37.21-2.67.61-3.92 1.2-3.58 1.63-6.62 4.7-8.96 8.76-4.46 7.77-6.34 19.22-4.42 31.47 1.92 12.23 7.2 22.55 13.82 28.59 3.46 3.16 7.28 5.15 11.18 5.63.61.08 1.24.12 1.86.12.76 0 1.52-.06 2.29-.18 2.57-.41 4.94-1.47 7.05-3.09 8.43-6.45 12.85-21.65 10.24-38.33zm-13.33 34.13c-1.49.93-3.1 1.55-4.82 1.82-1.15.18-2.3.2-3.44.05-9.77-1.12-18.97-13.27-21.48-29.25-2.5-15.97 2.54-30.35 11.48-34.41 1.04-.48 2.16-.83 3.31-1.01 1.73-.28 3.47-.17 5.17.26 9.1 2.26 17.39 13.91 19.75 28.94 2.36 15.04-1.98 28.68-9.96 33.6z" class="svgShape colorffce06-14 svgStroke colorStroke231f20-14 selectable"></path><path fill="#F8991D" stroke="#231F20" stroke-miterlimit="10" d="M138.47 168.17c-1.49.93-3.1 1.55-4.82 1.82-1.15.18-2.3.2-3.44.05 8.94-4.08 13.97-18.45 11.46-34.41-2.5-15.97-11.71-28.12-21.46-29.25 1.04-.48 2.16-.83 3.31-1.01 1.73-.28 3.47-.17 5.17.26 9.1 2.26 17.39 13.91 19.75 28.94 2.36 15.04-1.98 28.68-9.96 33.6z" class="svgShape colorf8991d-15 svgStroke colorStroke231f20-15 selectable"></path><path fill="#fff" stroke="#231F20" stroke-miterlimit="10" d="M130.22 170.04c-9.77-1.12-18.97-13.27-21.48-29.25-2.5-15.97 2.54-30.35 11.48-34.41 9.75 1.12 18.96 13.28 21.46 29.25 2.5 15.96-2.53 30.33-11.46 34.41Z" opacity=".5" class="svgShape colorffffff-16 svgStroke colorStroke231f20-16 selectable"></path><path fill="#F8991D" stroke="#231F20" stroke-miterlimit="10" d="M144.41 181.3c-2.94 3.63-6.9 3.72-9.91 3.03l-2.23-8.52 2.24-.35c2.57-.41 4.94-1.47 7.05-3.09z" class="svgShape colorf8991d-17 svgStroke colorStroke231f20-17 selectable"></path><path fill="#050c4e" stroke="#231F20" stroke-miterlimit="10" d="M161.54 235.07c-.57 3.76-3.94 6.52-7.8 6.28a7.4 7.4 0 0 1-4.93-2.32l-1.8-6.87-12.51-47.82c3.02.68 6.97.6 9.91-3.03l15.12 47.47 2 6.3z" class="svgShape color6c3593-18 svgStroke colorStroke231f20-18 selectable"></path><path fill="#F89921" stroke="#251132" stroke-miterlimit="10" d="M218.16 266.35c-.2 1.04-.43 2.1-.68 3.19-3.21 14-10.21 31.8-24.87 30.81-22.81-1.56-41.79-30.18-46.07-57.37-2.64-2.87-5.55-4.34-8.57-6.24-4.34-2.75-2.73-9.14-2.73-9.14-2.71-2.42-2.85-8.32-2.62-12.04-2.46-2.18-4.2-5.01-3.32-8.49 1.24-4.86 5.64-6.39 9.36-6.78l1.79 6.82c2.86.63 7.14 1.06 12.16-.05l-1.78-5.59c6.81-2.07 11.19 1.79 14.62 7.11 3.02 4.69 4.97 9.98 5.99 15.47 1.05 5.56 3.62 13.18 8.28 20.04-.14.3-.26.58-.39.87a7.38 7.38 0 0 0 1.28 8.08l-1.07 8.2c6.19 3.71 19.96 9.95 37.28 5.48.44-.11.89-.23 1.34-.36z" class="svgShape colorf89921-19 svgStroke colorStroke251132-19 selectable"></path><path stroke="#231F20" stroke-miterlimit="10" d="M219.52 258.22c1.37-1.09 2.22-2.8 2.26-4.67v-.06c.13-7.78 3.47-27.24 3.47-27.24M179.54 261.23l-1.3 10.03M146.53 242.97a78 78 0 0 1-.55-4.23M136.7 218.37c-1.38-.76-2.83-1.7-4.09-2.83M156.43 205.93c-1.31.48-2.6.85-3.83 1.13M140.45 207.11c-2.37-.52-3.75-1.17-3.75-1.17" class="svgStroke colorStroke231f20-20 selectable"></path><path fill="#003fff" stroke="#231F20" stroke-miterlimit="10" d="M219.52 258.22c-.3 2.2-.73 5.01-1.36 8.12-.46.14-.9.25-1.34.36-17.32 4.47-31.09-1.77-37.28-5.48l1.07-8.2c.69.77 1.58 1.4 2.61 1.83 7.14 3 18.84 6.53 31.56 4.84.72-.07 1.4-.17 2.05-.27 1.03-.17 1.94-.59 2.69-1.21z" class="svgShape color6c3593-21 svgStroke colorStroke231f20-21 selectable"></path><path fill="#050c4e" stroke="#231F20" stroke-miterlimit="10" d="M268.26 151.47c-.05.26-.09.51-.13.74-.42 0-.84 0-1.26.01-6.66.08-12.35 1.25-17.18 3.08-2.55-2.4-7.02-7.6-8.23-15.39 2.56-.68 4.51-3.69 4.51-7.3 0-4.11-2.52-7.44-5.61-7.44-.84 0-1.65.25-2.37.71-1.85 1.13-3.14 3.57-3.22 6.41.25 1.37-3.59 3.94-4.19 3.06-1.01-1.46-1.04-8.19 0-10.2-12.78-.25-17.57-7.09-19.58-11.43l-3.93 3.43c-1.79-2.73-3.02-5.14-3.8-7.27-.34-.94-.6-1.82-.78-2.65a13.4 13.4 0 0 1-.32-3.15c.27-10.02 14.11-10.29 14.11-10.29 18.47-6.54 49.26-4.16 53.49 12.59 3.42 13.5-.05 36.63-1.53 45.09z" class="svgShape color7a5da6-22 svgStroke colorStroke231f20-22 selectable"></path><path fill="#002dff" stroke="#231F20" stroke-miterlimit="10" d="M275.86 164.5c-.23-.01-.44-.02-.66-.02-1.69-.03-3.34-.05-4.96-.01h-.06c-1.07.01-2.12.03-3.17.08-.51.02-1.03.03-1.54.06-.51.02-1.01.05-1.52.09-.08 0-.16 0-.24.01-.98.06-1.95.13-2.91.22-.42.03-.84.07-1.26.11-.42.03-.83.08-1.24.13-.54.06-1.07.11-1.61.18l-.3.03c-.27.03-.55.07-.82.11-.6.1-1.2.19-1.81.26-.4.05-.78.1-1.17.17h-.02c-.52.08-1.05.17-1.56.27-.09.01-.17.02-.26.05-.28.05-.56.09-.82.14-.75.14-1.49.28-2.22.44-.17.03-.35.08-.51.11-.07.01-.15.03-.22.05-.8.17-1.58.36-2.36.55-.62.15-1.21.3-1.8.47-.07.02-.14.03-.21.06-.07.01-.15.03-.22.06-.57.15-1.14.31-1.7.48-.51.14-1.03.28-1.53.44-.64.21-1.28.41-1.9.62-.6.2-1.18.41-1.76.63l-1.27.45-.13.05c-.64.25-1.28.5-1.89.75-.55.22-1.08.44-1.62.68-.02.01-.03.01-.06.02-.33.14-.66.28-.98.43-.62.27-1.22.56-1.82.84.73-1.22 1.65-2.6 2.76-4.04 3.79-4.93 9.9-10.72 19.16-14.17 4.83-1.82 10.52-3 17.18-3.08h.02c1.29-.03 2.5.61 3.26 1.65 2.76 3.8 4.57 7.65 5.71 10.63z" class="svgShape color6c3593-23 svgStroke colorStroke231f20-23 selectable"></path><path stroke="#231F20" stroke-miterlimit="10" d="M230.59 125.14c.81.03 1.65.01 2.52-.03" class="svgStroke colorStroke231f20-24 selectable"></path><path fill="#F89921" stroke="#251132" stroke-miterlimit="10" d="M245.98 132.6c0 3.61-1.95 6.62-4.51 7.3-.35.09-.72.14-1.09.14-.84 0-1.65-.25-2.37-.71 1.9-1.18 3.22-3.75 3.22-6.73s-1.32-5.55-3.22-6.73c.72-.46 1.53-.71 2.37-.71 3.09 0 5.61 3.33 5.61 7.44z" class="svgShape colorf89921-25 svgStroke colorStroke251132-25 selectable"></path><path fill="#F89921" stroke="#251132" stroke-miterlimit="10" d="M249.69 155.29c-9.26 3.45-15.37 9.24-19.16 14.17l-2.71-7.07c-2.49.65-5.9 1.03-10.33.47-3.49-.44-6.07-3.46-6.04-6.98.05-6.85-.27-12.03-.27-12.03-2.26-.41-3.08-2.46-3.08-2.46s2.91-3.94 1.85-11.48c-1.17-8.38-.35-14.32.39-17.53 2.01 4.34 7.47 12.52 20.26 12.77-.57 4.47 1.51 7.46 1.51 7.46s1.01 0 2.69-.32c.08-2.85 1.38-5.29 3.22-6.41 1.9 1.18 3.22 3.75 3.22 6.73s-1.32 5.55-3.22 6.73c.72.46 1.53.71 2.37.71.38 0 .74-.05 1.09-.14 1.21 7.79 5.67 12.99 8.23 15.39z" class="svgShape colorf89921-26 svgStroke colorStroke251132-26 selectable"></path><path stroke="#231F20" stroke-miterlimit="10" d="M233.19 159.85s-1.67 1.57-5.37 2.54M230.75 170.04l-.22-.57M213.76 138.08c.083 0 .15-1.227.15-2.74s-.067-2.74-.15-2.74-.15 1.227-.15 2.74.067 2.74.15 2.74ZM211.32 147.73s1.77 0 5.38-1.97" class="svgStroke colorStroke231f20-27 selectable"></path><path fill="#231F20" stroke="#231F20" stroke-miterlimit="10" d="M211.45 127.81s3.37.58 5.17 2.06c.04.03.08 0 .06-.04-.49-.72-1.34-3.13-5.75-4.67z" class="svgShape color231f20-28 svgStroke colorStroke231f20-28 selectable"></path><path fill="#7A5DA6" d="M205.4 105.24s3.94 4.49 5.61 8.47Z" class="svgShape color7a5da6-29 selectable"></path><path stroke="#231F20" stroke-miterlimit="10" d="M205.4 105.24s3.94 4.49 5.61 8.47" class="svgStroke colorStroke231f20-30 selectable"></path></svg></g></svg>