<svg id="SvgjsSvg1476" width="288" height="288" xmlns="http://www.w3.org/2000/svg" version="1.1" xmlns:xlink="http://www.w3.org/1999/xlink" xmlns:svgjs="http://svgjs.com/svgjs"><defs id="SvgjsDefs1477"></defs><g id="SvgjsG1478"><svg xmlns="http://www.w3.org/2000/svg" viewBox="0 0 175 201" width="288" height="288"><g clip-path="url(#a)"><path fill="#F8991D" stroke="#240F32" stroke-miterlimit="10" stroke-width=".852" d="M107.51 163.843c3.162 3.891 5.283 7.973 6.038 11.231a88 88 0 0 1-5.95 2.056c-.272.088-.543.169-.822.25-6.581 1.983-9.692 7.377-10.705 14.245a3.7 3.7 0 0 1 1.218-.206h.03c1.327.007 2.377 1.142 2.413 2.476.096 2.918-.535 5.814-3.22 6.47-3.427.832-5.18-1.334-6.076-3.663-3.06-.147-5.063-1.496-6.361-3.139-.323 1.378-.895 3.125-1.879 4.304-2.164 2.608-7.337 2.969-8.606-1.953-1.38-12.896 2.105-26.397 17.316-35.881.968-.604 1.907-1.201 2.832-1.783 1.386-.885 2.73-1.747 4.02-2.602 3.031 1.401 6.582 4.297 9.752 8.195ZM126.902 168.315a61 61 0 0 1-6.273 3.641 69 69 0 0 1-4.057 1.894c-.507-3.405-2.722-7.967-6.252-12.314-3.037-3.737-6.42-6.552-9.362-8.011a236 236 0 0 0 8.658-6.138c1.357.147 2.869.412 4.41.877.895.272 1.805.604 2.707 1.024 5.32 2.469 10.265 7.789 10.169 19.027Z" class="svgShape colorf8991d-1 svgStroke colorStroke240f32-1 selectable"></path><path fill="#fff" stroke="#231F20" stroke-miterlimit="10" stroke-width=".852" d="M155.987 126.523c-1.497 11.009-5.452 21.577-11.784 30.692-4.453 6.412-10.228 12.528-17.697 17.281-.037.022-.088-.007-.081-.059.316-2.218.47-4.252.484-6.124.088-11.238-4.849-16.558-10.169-19.027a20.6 20.6 0 0 0-2.707-1.024 24.5 24.5 0 0 0-4.41-.877c3.859-2.881 7.029-5.475 9.641-7.782-21.71-10.007-46.305-5.512-56.152-3.029-3.984 5.623-9.12 11.172-15.467 14.974a13.05 13.05 0 0 1-13.772-.25c-13.353-8.659-18.636-27.17-20.5-36.419a27.3 27.3 0 0 0 4.688 2.351c6.377 2.432 15.937 3.11 25.68-7.111.118.405.236.81.36 1.201 8.057-10.074 16.546-25.424 27.544-34.768 4.043-3.427 8.768-4.34 13.288-4.805 4.388-.442 8.592-.464 11.791-1.93 3.537 3.205 12.811 8.983 27.295-.45.154.568.366 1.106.645 1.607a7.96 7.96 0 0 0 7.022 4.222 7.95 7.95 0 0 0 6.736-3.729q2.432.5 4.468 1.032a17.85 17.85 0 0 1 8.57 5.063 17 17 0 0 1 2.722 3.773 17.8 17.8 0 0 1 1.776 4.9c.051.25.102.501.139.752q.042.233.073.464c1.358 9.86 1.974 23.147-.19 39.072z" class="svgShape colorffffff-2 svgStroke colorStroke231f20-2 selectable"></path><path stroke="#231F20" stroke-miterlimit="10" stroke-width=".852" d="M96.071 191.631a37 37 0 0 0-.36 3.979M90.436 196.703c-.858-2.233-.924-4.621-.924-4.621M84.067 193.562c-2.223-2.808-2.421-6.478-2.421-6.478M80.01 195.221s.154-5.173 1.636-6.817" fill="none" class="svgStroke colorStroke231f20-3 selectable"></path><mask id="b" width="145" height="106" x="13" y="69" maskUnits="userSpaceOnUse" style="mask-type:luminance"><path fill="#fff" d="M155.987 126.525c-1.497 11.009-5.452 21.577-11.784 30.692-4.453 6.412-10.228 12.528-17.697 17.281-.037.022-.088-.007-.081-.059.316-2.218.47-4.252.484-6.124.088-11.238-4.849-16.558-10.169-19.027a20.6 20.6 0 0 0-2.707-1.024 24.5 24.5 0 0 0-4.41-.877c3.859-2.882 7.029-5.475 9.641-7.782-21.71-10.007-46.305-5.512-56.152-3.029-3.984 5.623-9.12 11.172-15.467 14.974a13.05 13.05 0 0 1-13.772-.25c-13.353-8.659-18.636-27.17-20.5-36.419a27.3 27.3 0 0 0 4.688 2.351c6.377 2.432 15.937 3.11 25.68-7.111.118.405.236.81.36 1.201 8.057-10.074 16.546-25.424 27.544-34.768 4.043-3.427 8.768-4.34 13.288-4.805 4.388-.442 8.592-.464 11.791-1.93 3.537 3.205 12.811 8.983 27.295-.45.154.568.366 1.106.645 1.607a7.96 7.96 0 0 0 7.022 4.222 7.95 7.95 0 0 0 6.736-3.729 87 87 0 0 1 4.468 1.032 17.85 17.85 0 0 1 8.57 5.063 17 17 0 0 1 2.722 3.773 17.8 17.8 0 0 1 1.776 4.9c.051.25.102.501.139.752q.042.233.073.464c1.358 9.86 1.974 23.147-.19 39.072z" class="svgShape colorffffff-5 selectable"></path></mask><g stroke-miterlimit="10" mask="url(#b)"><path d="m62.795 81.429 9.577 1.677a2.195 2.195 0 0 0 2.538-1.792l1.67-9.62a2.203 2.203 0 0 0-1.785-2.549l-9.577-1.676a2.195 2.195 0 0 0-2.538 1.792l-1.67 9.619a2.203 2.203 0 0 0 1.785 2.549ZM144.705 121.765l14.708 9.833a3.46 3.46 0 0 0 4.812-.97l9.79-14.772a3.495 3.495 0 0 0-.966-4.833l-14.707-9.833a3.464 3.464 0 0 0-4.813.97l-9.79 14.772a3.496 3.496 0 0 0 .966 4.833ZM130.004 146.369l2.981 1.337a1.89 1.89 0 0 0 2.5-.962l1.331-2.994a1.905 1.905 0 0 0-.957-2.511l-2.982-1.337a1.89 1.89 0 0 0-2.5.962l-1.331 2.994a1.905 1.905 0 0 0 .958 2.511ZM27.962 127.518l1.341 4.62c.083.285.38.449.664.366l4.6-1.348a.54.54 0 0 0 .364-.667l-1.341-4.619a.535.535 0 0 0-.665-.366l-4.6 1.347a.54.54 0 0 0-.363.667ZM58.685 151.647l.688 2.37c.083.285.38.449.665.366l2.36-.692a.54.54 0 0 0 .363-.667l-.688-2.37a.534.534 0 0 0-.664-.365l-2.36.691a.54.54 0 0 0-.364.667ZM90.377 91.115l3.792 9.301a1.89 1.89 0 0 0 2.47 1.039l9.261-3.809a1.904 1.904 0 0 0 1.034-2.48l-3.792-9.302a1.89 1.89 0 0 0-2.47-1.039l-9.261 3.81a1.904 1.904 0 0 0-1.034 2.48ZM83.275 120.815l1.977 2.61c.633.835 1.82.997 2.653.361l2.598-1.986a1.906 1.906 0 0 0 .36-2.664l-1.977-2.61a1.89 1.89 0 0 0-2.653-.361l-2.598 1.986a1.906 1.906 0 0 0-.36 2.664Z" fill="none" stroke="#050c4e" stroke-width=".852" class="svgStroke colorStrokeed1c53-7 selectable"></path></g><path fill="#795CA7" stroke="#231F20" stroke-miterlimit="10" stroke-width=".852" d="M126.902 168.316c-.014 1.916-.176 4.001-.506 6.271a.153.153 0 0 1-.198.125c-1.878-.582-3.808-1.459-5.569-2.763a61 61 0 0 0 6.273-3.64z" class="svgShape color795ca7-8 svgStroke colorStroke231f20-8 selectable"></path><path stroke="#231F20" stroke-miterlimit="10" stroke-width=".852" d="M44.094 111.328c2.869 9.727 5.253 16.581 5.253 16.581" fill="none" class="svgStroke colorStroke231f20-9 selectable"></path><path fill="#F8991D" stroke="#240F32" stroke-miterlimit="10" stroke-width=".852" d="M27.416 100.592c-4.894 0-9.296-.73-12.334-1.894-.19-1.047-.374-2.093-.572-3.14-1.585-8.46-3.405-16.404-5.092-19.705-1.416-2.77-3.331-4.384-5.261-5.29a10.7 10.7 0 0 0-1.944-.701c-.8-.206-1.431-.9-1.439-1.732v-.014c0-.472.125-.922.353-1.305.293-.501.836-.796 1.408-.855.793-.073 1.541-.059 2.23.015 1.439.155 2.657.553 3.589.98.675 2.602 3.162 5.343 5.026 5.033 2.443-.405 1.988-4.09 1.49-6.263q-.242.044-.507.044c-.396 0-.793-.081-1.174-.266a2.8 2.8 0 0 1-1.585-2.888c.044-.361.162-.722.36-1.061l1.731-2.978c3.632-4.318 9.106-3.397 11.718-.508 4.945 5.704 9.215 13.493 11.314 24.105.866 4.37 1.886 8.813 2.964 13.132.264 1.038.521 2.063.785 3.08-3.03 1.334-7.755 2.196-13.075 2.196z" class="svgShape colorf8991d-10 svgStroke colorStroke240f32-10 selectable"></path><path stroke="#231F20" stroke-miterlimit="10" stroke-width=".852" d="M30.358 76.717s-3.412-2.307-8.401-2.344c-3.265-.022-3.58 6.102 4.204 6.094 0 0-3.426 6.412 5.29 7.502M63.106 136.584c7.513-10.59 10.99-21.452 10.99-21.452s-4.813-3.928-3.969-9.499c.94-6.22 7.125-9.352 7.125-9.352s.821-4.48.821-4.834" fill="none" class="svgStroke colorStroke231f20-11 selectable"></path><path fill="#050c4e" stroke="#231F20" stroke-miterlimit="10" stroke-width=".852" d="M18.062 117.239a27 27 0 0 1-4.688-2.351l-.066-.347a33 33 0 0 1 3.866-3.271c.338 2.218.639 4.244.896 5.976z" class="svgShape color795ca7-12 svgStroke colorStroke231f20-12 selectable"></path><path fill="#F8991D" stroke="#240F32" stroke-miterlimit="10" stroke-width=".852" d="M43.742 110.128c-9.75 10.221-19.304 9.544-25.68 7.112a631.009 631.009 0 0 0-2.194-14.039c2.986 1.003 7.059 1.614 11.549 1.614 5.936 0 11.145-1.068 14.066-2.682a420 420 0 0 0 2.252 7.995z" class="svgShape colorf8991d-13 svgStroke colorStroke240f32-13 selectable"></path><path fill="#050c4e" stroke="#231F20" stroke-miterlimit="10" stroke-width=".852" d="M43.976 99.132c0 1.106-.91 2.13-2.495 3.007-2.92 1.614-8.13 2.682-14.065 2.682-4.49 0-8.563-.611-11.55-1.614-3.088-1.031-5.01-2.476-5.01-4.075 0-1.348 1.364-2.586 3.66-3.567.199 1.04.382 2.093.573 3.14 3.03 1.164 7.433 1.894 12.334 1.894 5.32 0 10.045-.863 13.075-2.196a269 269 0 0 1-.785-3.08c2.656 1.002 4.27 2.343 4.27 3.81z" class="svgShape colored1c24-14 svgStroke colorStroke231f20-14 selectable"></path><path stroke="#231F20" stroke-miterlimit="10" stroke-width=".852" d="M15.09 98.706a12.7 12.7 0 0 1-2.068-.987M41.76 97.758a12 12 0 0 1-1.269.648M98.595 68.647c-.066.066-.14.125-.213.176M98.919 68.354c-.059.066-.118.117-.184.176M119.264 139.611s.227-.162.741-.619c4.116-3.603 6.999-8.408 8.379-13.721 4.549-17.524 4.549-36.05 4.549-36.05M124.98 107.963c-2.399 4.539-7.337 7.435-12.759 6.956-4.425-.39-8.145-2.947-10.221-6.536" fill="none" class="svgStroke colorStroke231f20-15 selectable"></path><path fill="#050c4e" stroke="#231F20" stroke-miterlimit="10" stroke-width=".852" d="M115.449 178.515c-1.629 1.334-4.571.7-7.851-1.378a88 88 0 0 0 5.95-2.056c-.755-3.257-2.876-7.34-6.038-11.23-3.17-3.899-6.729-6.795-9.752-8.195a309 309 0 0 1-4.02 2.601c-.44-2.328-.125-4.185 1.049-5.151 1.343-1.105 3.588-.862 6.171.428 2.942 1.466 6.324 4.281 9.362 8.01 3.529 4.34 5.752 8.902 6.251 12.314.308 2.1-.029 3.766-1.13 4.665z" class="svgShape colored1c24-16 svgStroke colorStroke231f20-16 selectable"></path><path stroke="#231F20" stroke-miterlimit="10" stroke-width=".852" d="M113.872 177.506c0-.737-.11-1.555-.323-2.432M97.758 155.649a11 11 0 0 0-2.179-.774M96.152 70.025a5 5 0 0 0 .565-.207c.052-.014.103-.044.162-.066M97.4 69.488l-.433.229M99.248 67.998c-.08.088-.161.184-.257.273M100.357 66.408q.099-.165.177-.332c.066-.125.124-.25.183-.383.066-.154.139-.31.198-.471 1.416-3.493 1.211-7.517 1.211-7.517" fill="none" class="svgStroke colorStroke231f20-17 selectable"></path><path fill="#F8991D" stroke="#240F32" stroke-miterlimit="10" stroke-width=".852" d="M127.886 37.55a5.01 5.01 0 0 1-3.529 4.79 2.4 2.4 0 0 0-1.915-.951 2.39 2.39 0 0 0-2.194 1.415h-.008a3.1 3.1 0 0 0-.755.574 3.22 3.22 0 0 0-.741 3.383 6.2 6.2 0 0 0-2.943 2.586c-1.452 2.447-1.13 5.653.962 7.753a.2.2 0 0 0 .044.037 6.37 6.37 0 0 0-2.987 6.602c.11.605.301 1.165.551 1.688 1.225 2.49 3.969 3.972 6.809 3.456a6.35 6.35 0 0 0 2.568-1.105c.044.552.132 1.083.286 1.599-14.484 9.44-23.758 3.655-27.295.45q.078-.032.154-.074l.088-.044a8 8 0 0 0 .433-.229q.156-.09.323-.192c.08-.051.169-.103.257-.169.03-.015.051-.037.08-.052.081-.051.155-.11.235-.176.015-.008.03-.023.052-.037a.2.2 0 0 0 .044-.037c.073-.052.14-.11.213-.177.044-.037.088-.081.139-.118.066-.052.125-.118.183-.177.03-.022.052-.051.081-.08.088-.09.176-.178.257-.273q.119-.133.227-.266.045-.057.088-.103c.052-.066.103-.125.147-.192l.176-.243c.008-.014.015-.03.03-.044q.101-.146.19-.302a.2.2 0 0 0 .037-.06q.09-.142.169-.286a.3.3 0 0 0 .051-.104l.176-.331c.066-.126.125-.258.184-.383.066-.155.139-.31.198-.472.946-2.395 1.188-5.203 1.21-7.517-.895.037-3.287.03-4.116-.03-2.979-.213-5.48-1.053-7.308-2.401-1.291-.973-2.26-2.197-2.832-3.64-1.328-3.317-.653-5.513-.323-10.259.154-2.247.235-5.07-.007-8.85a17 17 0 0 1-.03-.612 30 30 0 0 1-.021-2.432c.132-5.372 1.621-8.57 2.861-10.317 4.256 2.079 10.588 3.14 19.987 2.1 0 0-.506 5.881 5.73 9.507 0 0-1.086 7.937 2.502 4.34a4.97 4.97 0 0 1 4.336-2.557c2.752 0 4.982 2.24 4.982 5.004z" class="svgShape colorf8991d-18 svgStroke colorStroke240f32-18 selectable"></path><path fill="#231F20" d="M102.507 36.038c.693 0 1.254-1.313 1.254-2.933s-.561-2.933-1.254-2.933-1.255 1.313-1.255 2.933.562 2.933 1.255 2.933M91.243 36.34c.705 0 1.276-1.313 1.276-2.933s-.571-2.932-1.276-2.932-1.277 1.313-1.277 2.932c0 1.62.571 2.934 1.277 2.934" class="svgShape color231f20-19 selectable"></path><path stroke="#231F20" stroke-miterlimit="10" stroke-width=".852" d="M104.846 57.15a27 27 0 0 1-4.241.538M121.943 42.45a4.8 4.8 0 0 1-2.047-.92M116.425 13.71a18 18 0 0 0-1.915-3.92M145.554 47.541a12.2 12.2 0 0 1-2.502 3.64" fill="none" class="svgStroke colorStroke231f20-20 selectable"></path><path fill="#050c4e" stroke="#231F20" stroke-miterlimit="10" stroke-width=".852" d="M102.132 57.696c-.022 2.314-.265 5.122-1.211 7.517-.066.162-.132.316-.198.471-.059.125-.118.266-.184.383-.051.118-.117.229-.176.332q-.02.046-.051.103c-.051.096-.11.192-.169.288a.3.3 0 0 1-.036.058c-.059.104-.125.2-.191.303-.008.014-.015.03-.03.044-.05.08-.117.162-.176.243-.044.066-.095.125-.146.192-.03.03-.052.066-.088.103a4 4 0 0 1-.228.265c-.08.096-.169.184-.257.273-.022.03-.051.051-.08.08a4 4 0 0 1-.323.296c-.066.066-.14.117-.213.176a.2.2 0 0 1-.044.037.13.13 0 0 1-.051.037c-.081.066-.154.118-.235.177-.03.015-.052.044-.08.052-.089.066-.177.117-.258.17-.11.065-.212.132-.323.19a8 8 0 0 1-.433.23c-.029.014-.066.029-.087.043-.052.03-.103.052-.155.074-3.199 1.466-7.403 1.481-11.79 1.93-2.172-3.92-1.864-10.75 3.11-14.568.903-.693 1.695-1.46 2.657-1.923 1.826 1.348 4.328 2.188 7.307 2.402.83.059 3.221.066 4.117.03z" class="svgShape color6b3293-21 svgStroke colorStroke231f20-21 selectable"></path><path fill="#231F20" d="M108.339 27.034c0-1.562-.998-3.007-2.51-3.405-2.502-.656-5.716-.015-5.716.332l-.388 3.242s3.228-2.535 8.606-.17zM91.794 24.463l.242 2.572s-2.377-1.452-4.116-.877c0 0 .132-.523.183-.892.06-.39.132-1.15.184-1.201.124-.11 1.753-.825 3.507.39z" class="svgShape color231f20-22 selectable"></path><path stroke="#231F20" stroke-miterlimit="10" stroke-width=".852" d="M95.632 33.104s.14 4.672-1.306 6.263c-1.445 1.592 2.385 2.204 2.385 2.204M92.52 43.828s4.19 4.127 13.002 0" fill="none" class="svgStroke colorStroke231f20-23 selectable"></path><path fill="#231F20" d="M102.975 30.275s1.518 1.533 3.074 0c0 0-.917 2.786-3.074.966zM90.913 30.6s-1.519 1.532-3.074 0c0 0 .917 2.785 3.074.965z" class="svgShape color231f20-24 selectable"></path><path fill="#050c4e" stroke="#231F20" stroke-miterlimit="10" stroke-width=".852" d="M87.537 32.509c.25 3.788.162 6.602.008 8.85a5.97 5.97 0 0 1-5.422-5.947c0-1.805.807-3.434 2.076-4.532a1 1 0 0 1-.059-.088 7.71 7.71 0 0 1-3.654-6.566c0-.656.088-1.297.235-1.909.727-2.852 3.038-5.07 5.936-5.637.125.118.257.22.374.331.272.229.55.45.844.663.132.096.264.185.389.28.418.28.85.546 1.313.804.25.132.492.265.756.383-1.24 1.747-2.73 4.945-2.862 10.317-.022.766-.022 1.577.022 2.432.008.199.015.405.03.611z" class="svgShape color6b3293-25 svgStroke colorStroke231f20-25 selectable"></path><path fill="#050c4e" stroke="#231F20" stroke-miterlimit="10" stroke-width=".852" d="M158.093 81.308c.565.516.91 1.26.91 2.093a2.85 2.85 0 0 1-2.642 2.844c-.066 0-.132.008-.198.008s-.125 0-.191-.008a17.8 17.8 0 0 0-1.775-4.9 17.2 17.2 0 0 0-2.722-3.773 17.911 17.911 0 0 0-8.57-5.063 88 88 0 0 0-4.469-1.032c-1.416 2.24-3.903 3.73-6.735 3.73a7.95 7.95 0 0 1-7.022-4.223 7.7 7.7 0 0 1-.646-1.607 7.7 7.7 0 0 1-.286-1.599 6.24 6.24 0 0 1-2.568 1.105c-2.839.516-5.583-.965-6.809-3.456a6.5 6.5 0 0 1-.55-1.687 6.36 6.36 0 0 1 2.986-6.603.2.2 0 0 0-.044-.037 6.38 6.38 0 0 1-.961-7.752c.257-.45.58-.862.961-1.253a6.3 6.3 0 0 1 1.981-1.334 3.22 3.22 0 0 1 .741-3.382c.228-.236.492-.428.756-.568h.007a3.1 3.1 0 0 1 1.703-.36c.176.036.359.066.535.08a5.252 5.252 0 0 0 1.879-.199 5 5 0 0 0 3.529-4.79c0-2.763-2.231-5.003-4.982-5.003a4.96 4.96 0 0 0-4.336 2.557c-3.588 3.596-2.502-4.34-2.502-4.34-6.23-3.626-5.731-9.507-5.731-9.507-9.399 1.032-15.738-.022-19.986-2.1a15.244 15.244 0 0 1-2.07-1.187c-.132-.088-.264-.184-.396-.272-.293-.221-.58-.435-.844-.664-.124-.11-.256-.213-.381-.331-1.952-1.754-3.126-3.81-3.8-5.83a18.5 18.5 0 0 1 3.096-4.14c7.205-7.237 18.878-7.237 26.083 0 .954.95 1.776 1.982 2.466 3.072 5.818-2.756 12.979-1.724 17.793 3.11 4.747 4.768 5.818 11.828 3.199 17.627a11.97 11.97 0 0 1 7.55 3.5c3.646 3.656 4.475 9.065 2.502 13.508a12.07 12.07 0 0 1 8.936 3.545c4.058 4.082 4.623 10.354 1.681 15.04.843.428 1.672.966 2.355 1.703 6.273 6.743-.25 13.028-.433 13.485z" class="svgShape color795ca7-26 svgStroke colorStroke231f20-26 selectable"></path><path fill="#fff" stroke="#231F20" stroke-miterlimit="10" stroke-width=".937" d="M124.863 44.07c0 1.482-1.196 2.69-2.663 2.69a2.695 2.695 0 0 1-2.679-2.69c0-.397.089-.773.243-1.112h.007c.132-.317.33-.597.565-.825a2.67 2.67 0 0 1 1.856-.752c.859 0 1.629.405 2.106 1.046.352.45.558 1.017.558 1.644z" class="svgShape colorffffff-27 svgStroke colorStroke231f20-27 selectable"></path><path fill="#E15E26" d="M106.05 39.038a1.69 1.69 0 0 0 1.687-1.695 1.69 1.69 0 0 0-1.687-1.695c-.932 0-1.688.76-1.688 1.695 0 .936.756 1.695 1.688 1.695M89.975 40.077c.932 0 1.687-.758 1.687-1.695 0-.936-.755-1.694-1.687-1.694s-1.688.758-1.688 1.694c0 .937.756 1.695 1.688 1.695" class="svgShape colore15e26-28 selectable"></path><path fill="#795CA7" stroke="#231F20" stroke-miterlimit="10" stroke-width=".852" d="M31.995 153.371c.162.059.785.294 1.629.582a6 6 0 0 1-1.042-.317 3.6 3.6 0 0 1-.587-.273zM35.186 154.322c.08.03.542.214 1.225.465a6 6 0 0 1-.602-.163 2 2 0 0 1-.616-.302z" class="svgShape color795ca7-29 svgStroke colorStroke231f20-29 selectable"></path><path fill="#795CA7" stroke="#231F20" stroke-miterlimit="10" stroke-width=".869" d="M35.186 154.322c.08.03.542.214 1.225.465a6 6 0 0 1-.602-.163 2 2 0 0 1-.616-.302z" class="svgShape color795ca7-30 svgStroke colorStroke231f20-30 selectable"></path><path stroke="#231F20" stroke-miterlimit="10" stroke-width=".852" d="M120.924 36.165a2.387 2.387 0 0 1 4.204.722c.132.442.132.892.029 1.305" fill="none" class="svgStroke colorStroke231f20-31 selectable"></path><path fill="#050c4e" stroke="#231F20" stroke-miterlimit="10" stroke-width=".852" d="M17.115 61.286c-.785.051-1.548.184-2.297.39q-1.741.5-3.25 1.518C1.89 69.701-.766 91.588 5.859 115.213c6.553 23.346 19.95 40.487 31.484 41.356a11.3 11.3 0 0 0 3.985-.383c1.592-.457 3.052-1.253 4.365-2.358 8.754-7.391 10.947-28.489 4.586-51.179-6.875-24.503-21.285-42.16-33.164-41.363Zm25.93 43.264c5.444 19.411 4.622 37.657-1.211 47.148a2.146 2.146 0 0 1-2.678.848c-10.25-4.451-20.985-19.963-26.627-40.089-5.745-20.471-4.512-39.646 2.216-48.629 10.734 3.397 22.349 19.492 28.3 40.722Z" class="svgShape color795ca7-32 svgStroke colorStroke231f20-32 selectable"></path><path stroke="#231F20" stroke-miterlimit="10" stroke-width=".852" d="M38.488 154.323c.962-.177 2.033-.744 3.016-2.13" fill="none" class="svgStroke colorStroke231f20-33 selectable"></path><path fill="#050c4e" stroke="#231F20" stroke-miterlimit="10" stroke-width=".852" d="M42.23 151.034a15 15 0 0 1-.388.663 2.1 2.1 0 0 1-.859.781c-4.219-15.38-3.522-29.993-2.362-37.649a4.13 4.13 0 0 1 4.072-3.508c.69 0 1.364-.015 2.025-.022.14.656.264 1.312.389 1.96h-1.534c-1.255 0-2.348.87-2.612 2.108-.939 4.399-2.421 15.821 1.27 35.667ZM43.213 105.145c-6.442-.405-11.57 1.902-15.415-3.338-1.717-3.117-3.566-5.151-5.114-5.475a3.2 3.2 0 0 1 1.122-.192c1.145 0 3.669-.648 6.435.884 5.136 2.845 8.915 5.446 12.43 6.22.131.427.256.87.38 1.304.06.199.11.398.162.597Z" class="svgShape color795ca7-34 svgStroke colorStroke231f20-34 selectable"></path><path fill="#050c4e" stroke="#231F20" stroke-miterlimit="10" stroke-width=".852" d="M42.708 111.33a4.15 4.15 0 0 0-4.094 3.53c-1.16 7.657-1.85 22.255 2.37 37.62-.242.133-3.962-1.201-4.234-1.179-12.48-15.674-15.834-29.691-18.813-37.583a8.97 8.97 0 0 0-6.478-5.608h-.044a118 118 0 0 1-3.14-.73 1.94 1.94 0 0 1-1.402-1.437l-1.093-4.627a.358.358 0 0 1 .44-.435c1.203.324 2.524.641 3.933.95.381.082.777.177 1.173.244 2.451.398 4.307-1.076 5.562-2.66 1.688-2.13 4.3-3.302 7.014-3.28a8.97 8.97 0 0 1 5.415 1.894c3.266 2.542 9.392 6.831 13.904 7.111.14.487.265.966.39 1.445q.614 2.376 1.107 4.709c-.645.014-1.313.022-1.996.022z" class="svgShape color382856-35 svgStroke colorStroke231f20-35 selectable"></path><path fill="#F8991D" stroke="#240F32" stroke-miterlimit="10" stroke-width=".852" d="M13.396 71.985c-1.864.31-4.358-2.431-5.026-5.033-.55-2.107.103-4.126 3.258-4.333a2.81 2.81 0 0 0 1.584 2.889 2.8 2.8 0 0 0 1.68.22c.5 2.175.955 5.852-1.489 6.265z" class="svgShape colorf8991d-36 svgStroke colorStroke240f32-36 selectable"></path><path fill="#F8991D" stroke="#240F32" stroke-miterlimit="10" stroke-width=".852" d="M32.73 69.23c-4.572-4.612-9.363-7.427-13.846-7.899l-2.01 3.147c-.206.324-.47.59-.764.788a2.8 2.8 0 0 1-1.086.457q-.242.044-.506.044c-.396 0-.792-.08-1.174-.265a2.6 2.6 0 0 1-.396-.228 2.7 2.7 0 0 1-.94-1.106c-.197-.42-.3-.891-.27-1.363 0-.066.007-.125.014-.192.044-.36.162-.722.36-1.06l1.731-2.978c3.632-4.318 9.106-3.405 11.718-.508 2.663 3.072 5.128 6.75 7.16 11.15z" class="svgShape colorf8991d-37 svgStroke colorStroke240f32-37 selectable"></path><path stroke="#231F20" stroke-miterlimit="10" stroke-width=".852" d="M14.885 65.722a2.8 2.8 0 0 0 1.849-1.245l3.668-5.74" fill="none" class="svgStroke colorStroke231f20-38 selectable"></path></g><defs><clipPath id="a"><path fill="#fff" d="M.423.916h174.545v200H.423z" class="svgShape colorffffff-41 selectable"></path></clipPath></defs></svg></g></svg>