<svg id="SvgjsSvg1560" width="288" height="288" xmlns="http://www.w3.org/2000/svg" version="1.1" xmlns:xlink="http://www.w3.org/1999/xlink" xmlns:svgjs="http://svgjs.com/svgjs"><defs id="SvgjsDefs1561"></defs><g id="SvgjsG1562"><svg xmlns="http://www.w3.org/2000/svg" viewBox="0 0 243 201" width="288" height="288"><g clip-path="url(#a)"><path fill="#fff" stroke="#231F20" stroke-miterlimit="10" stroke-width=".577" d="m61.837 129.842-48.922-.346s-21.01-26.341-6.487-67.55l48.388.293S35.361 85.15 61.837 129.85z" class="svgShape colorffffff-1 svgStroke colorStroke231f20-1 selectable"></path><path fill="#B5B9DD" d="M37.028 83.812a1.503 1.503 0 0 1-1.512 1.546l-23.374-.164c-.816 0-1.47-.657-1.495-1.478a1.503 1.503 0 0 1 1.512-1.546l23.374.164c.816 0 1.47.657 1.495 1.477M37.218 92.4a1.503 1.503 0 0 1-1.513 1.546l-23.373-.164c-.817 0-1.47-.657-1.496-1.478a1.503 1.503 0 0 1 1.513-1.546l23.373.164c.817 0 1.47.657 1.496 1.477" class="svgShape colorb5b9dd-2 selectable"></path><path fill="#050c4e" d="m31.4 70.464-3.575-3.43a.96.96 0 0 0-.696-.268 1 1 0 0 0-.688.302l-3.411 3.594a.97.97 0 0 0-.267.7 1 1 0 0 0 .301.691l3.575 3.43c.189.182.438.277.696.268a.96.96 0 0 0 .679-.302l3.411-3.594c.18-.19.275-.44.275-.7a.95.95 0 0 0-.3-.683z" class="svgShape colored2b50-3 selectable"></path><path fill="#58C0A0" d="M28.134 121.419c5.685 0 10.294-4.634 10.294-10.35s-4.609-10.35-10.294-10.35-10.295 4.634-10.295 10.35 4.609 10.35 10.295 10.35" class="svgShape color58c0a0-4 selectable"></path><path stroke="#fff" stroke-miterlimit="10" stroke-width="1.73" d="m23.434 111.413 2.595 3.119a.787.787 0 0 0 1.229-.026l5.5-7.248" fill="none" class="svgStroke colorStrokeffffff-5 selectable"></path><path fill="#050c4e" stroke="#231F20" stroke-miterlimit="10" stroke-width=".577" d="M189.646 77.486a179 179 0 0 1-20.942 13.4c-6.497-.017-13.002-.562-18.931-1.33-2.836-9.227 2.294-18.782 5.878-23.983l.618.276h.018c.163.095.335.173.498.25.086.035.172.07.258.096l.034.017c4.073 1.469 9.075-1.546 11.283-6.894 1.238-2.972 1.341-6.056.524-8.536 3.24-6.298 2.149-13.39 2.957-17.252.085-.398 1.452.63 2.973.933 1.263.32 2.492.872 3.626 1.676a10.76 10.76 0 0 1 3.412 3.948c1.787 3.516 1.624 7.879-.791 11.326-.189.268-.387.518-.593.769 3.721 3.093 4.924 8.25 3.111 12.622a10.5 10.5 0 0 1-1.169 2.117c-.404.578-.85 1.105-1.34 1.572 1.426.294 2.827.881 4.09 1.788a10.93 10.93 0 0 1 4.477 7.205z" class="svgShape color795ca7-6 svgStroke colorStroke231f20-6 selectable"></path><path fill="#F8991D" stroke="#240F32" stroke-miterlimit="10" stroke-width=".577" d="M149.772 89.564c-13.99-1.797-24.783-4.786-24.783-4.786s-2.079-.156-5.095-1.201c5.456-4.7 5.989-9.728 5.697-12.683-3.48-.976-7.09-2.894-9.685-6.565-.378-.527-.73-1.08-1.057-1.685-1.572-2.877-1.959-6.212-1.203-9.34.129-.535.292-1.062.49-1.572.146-.397.318-.786.498-1.166 1.367-2.79 2.785-6.056 3.979-9.59a64 64 0 0 0 1.667-5.78 23 23 0 0 1 1.04-3.3c.086-.198.163-.397.249-.596q.129-.295.258-.578.13-.287.275-.562c.086-.164.163-.32.249-.475q.129-.236.258-.458a8 8 0 0 1 .266-.45c.086-.146.181-.293.275-.431.361-.562.748-1.097 1.152-1.581 2.492-3.076 5.474-4.743 7.699-5.624 4.77 7.006 12.263 11.533 20.693 11.533.739 0 1.461-.035 2.183-.104a8.52 8.52 0 0 0-3.48 6.895c0 1.192.24 2.324.678 3.352.172.423.387.829.636 1.218.55 1.27.765 2.618.679 3.922-1.014 1.097-1.882 2.454-2.518 3.991-2.165 5.236-.876 10.808 2.862 12.787h.017l.791.362 1.108.493c-3.583 5.2-8.713 14.756-5.878 23.983z" class="svgShape colorf8991d-7 svgStroke colorStroke240f32-7 selectable"></path><path fill="#ffffff" stroke="#231F20" stroke-miterlimit="10" stroke-width=".577" d="M186.509 121.893c-11.326 7.629-19.774 18.929-23.658 32.061-.026.095-.051.19-.077.276-3.901 13.417-4.176 26.799-9.032 38.523.396-1.27-4.941-6.583-8.653-9.84-27.567-24.19-63.943-25.201-82.814-23.732 6.23-8.959 16.654-23.646 22.627-38.653-2.93-7.283-2.26-12.63-.293-16.475-7.072-10.41-19.163-33.65-15.906-67.421.74-7.698 5.139-14.341 11.455-17.978h.009c11.377-6.912 22.334-6.912 22.334-6.912a75 75 0 0 1 2.199 6.005c4.426 13.9 4.727 28.095 4.658 33.4-3.102-1.426-7.012-2.921-11.713-4.182.714 14.108 5.07 22.963 10.106 28.518.327.354.662.708.988 1.045 3.876 3.88 8.018 5.953 11.154 7.05 3.017 1.045 5.096 1.2 5.096 1.2s10.793 2.99 24.783 4.787c5.93.769 12.435 1.313 18.931 1.33a178.6 178.6 0 0 0 20.942-13.399c5.869-4.354 12.014-9.477 18.046-15.421-4.245.086-10.157.423-16.714 1.4 1.83-6.29 6.101-17.711 14.944-27.992a63 63 0 0 1 4.339-4.561s16.293 6.868 19.292 9.2c37.742 22.22-17.332 64.475-43.043 81.771Z" class="svgShape colorffffff-8 svgStroke colorStroke231f20-8 selectable"></path><path stroke="#231F20" stroke-miterlimit="10" stroke-width=".577" d="M125.591 70.887c5.757 1.607 11.18.613 11.18.613" fill="none" class="svgStroke colorStroke231f20-9 selectable"></path><path fill="#050c4e" stroke="#231F20" stroke-miterlimit="10" stroke-width=".577" d="M168.007 27.302c-.215 2.98-1.375 8.605-5.93 17.788l-.481-.216c-2.767-.717-5.878.527-8.206 3.067a8.5 8.5 0 0 0-.679-3.922 7 7 0 0 0-.292-.622c-.112-.199-.224-.406-.353-.596a8.5 8.5 0 0 1-.679-3.352 8.55 8.55 0 0 1 3.481-6.895c-.722.07-1.453.104-2.183.104-8.43 0-15.923-4.518-20.693-11.533a30.6 30.6 0 0 1-3.3-6.367 32 32 0 0 1-1.967-8.743c1.993-1.538 5.706-3.759 11.008-4.467 13.104-1.754 25.582 7.24 29.518 21.166-.138-.095.163.787.352 1.34.137.596.266 1.2.378 1.814.043.475.052.941.017 1.408z" class="svgShape color795ca7-10 svgStroke colorStroke231f20-10 selectable"></path><path stroke="#231F20" stroke-miterlimit="10" stroke-width=".577" d="m153.751 64.734.791.355c-.095-.035-.198-.078-.293-.113a4 4 0 0 1-.498-.242ZM164.166 46.014l-.705-.31" fill="none" class="svgStroke colorStroke231f20-11 selectable"></path><path fill="#005eff" stroke="#231F20" stroke-miterlimit="10" stroke-width=".577" d="M168.368 59.328c-2.208 5.339-7.201 8.354-11.283 6.894l-.034-.018-.765-.336h-.017a8 8 0 0 1-.567-.355c-.086-.052-.164-.112-.25-.172-3.102-2.307-4.056-7.439-2.053-12.268 1.684-4.078 4.992-6.8 8.275-7.206a6 6 0 0 1 1.847.026c.086.01.155.026.241.035q.194.037.387.086l1.847.821c1.349.89 2.329 2.29 2.879 3.965.825 2.471.713 5.564-.524 8.536z" class="svgShape colored1c53-12 svgStroke colorStroke231f20-12 selectable"></path><path stroke="#231F20" stroke-miterlimit="10" stroke-width=".577" d="M157.051 66.203q-.129-.04-.258-.095a5 5 0 0 1-.498-.233l.765.337zM166.014 46.833l-1.848-.821c.284.069.559.164.825.276.361.156.705.337 1.023.545Z" fill="none" class="svgStroke colorStroke231f20-13 selectable"></path><path fill="#003cff" stroke="#231F20" stroke-miterlimit="10" stroke-width=".577" d="M163.779 45.929a2 2 0 0 0-.241-.035 6.2 6.2 0 0 0-1.323-.069c-.095 0-.181 0-.275.017-.086 0-.172.009-.249.026h-.009c-.086.009-.172.026-.249.035a6 6 0 0 0-.885.198l-.335.104c-.421.138-.843.32-1.255.536-.095.052-.198.095-.292.155-.095.052-.181.095-.267.156q-.386.233-.773.518c-.094.07-.189.138-.275.216a12 12 0 0 0-1.014.89c-.137.138-.284.285-.421.44l-.009.01c-.154.172-.318.353-.464.544-.129.155-.257.32-.369.492-.069.078-.12.155-.172.233 0 0-.009.009-.009.017-.111.156-.214.32-.318.484-.025.026-.034.052-.051.07-.129.215-.258.423-.378.647-.121.216-.232.424-.344.648a.4.4 0 0 0-.026.06q-.18.364-.335.752c-2.002 4.83-1.048 9.962 2.054 12.268a5.5 5.5 0 0 1-.911-.25l-.791-.355h-.017c-3.738-1.987-5.027-7.559-2.861-12.794a13.6 13.6 0 0 1 2.518-3.992c2.337-2.548 5.439-3.784 8.206-3.067l.481.216 1.375.605h.017s.086.07.121.095q.1.063.189.138z" class="svgShape colorcb1682-14 svgStroke colorStroke231f20-14 selectable"></path><path fill="#003fff" stroke="#251132" stroke-miterlimit="10" stroke-width=".577" d="M172.837 41.901a83 83 0 0 1-3.944 8.89 113 113 0 0 1-3.756 6.73c-.541.89-1.099 1.806-1.692 2.747-2.028 2.575-4.718 1.365-4.718 1.365-1.538-1.546-1.633-2.903-1.212-4.449.095-.337.206-.665.344-.985a10.4 10.4 0 0 1 .782-1.546c.284-.458.559-.907.825-1.357a127 127 0 0 0 1.572-2.712c.929-1.65 1.762-3.214 2.501-4.7a1 1 0 0 1 .052-.095s0-.017.008-.026c.086-.173.172-.337.249-.51.086-.173.164-.337.25-.5.163-.338.318-.666.464-.994.111-.251.232-.502.343-.743.164-.363.318-.718.473-1.072.077-.172.155-.337.215-.5.086-.2.163-.39.249-.58a35.58 35.58 0 0 0 .524-1.279c.172-.422.327-.837.473-1.243s.292-.804.421-1.192c.069-.2.138-.39.198-.58.068-.19.129-.38.18-.56q.092-.283.172-.554c.06-.19.112-.363.163-.544q.077-.27.155-.527c.077-.276.155-.544.215-.812l.051-.199.078-.294c.051-.19.094-.38.137-.578.069-.294.129-.588.189-.873.026-.147.052-.285.086-.415.026-.147.052-.293.086-.44.077-.432.138-.856.198-1.262.026-.13.034-.259.051-.388q.013-.107.026-.2c.026-.198.043-.388.06-.578v-.07l.026-.301a3.4 3.4 0 0 0 0-.657c0-.078-.009-.155-.017-.242 0-.035 0-.078-.009-.112 0-.07-.008-.13-.026-.199-.008-.086-.025-.181-.034-.276-.009-.06-.026-.121-.034-.182-.035-.155-.069-.32-.103-.466 0-.035-.018-.07-.026-.095-.035-.156-.086-.32-.129-.467 0-.017-.009-.035-.017-.052a12.187 12.187 0 0 0-.361-1.02c-.052-.129-.103-.258-.163-.38a4 4 0 0 0-.172-.362c.18.138 2.182 3.499 3.927 6.48 1.856 3.153 2.329 6.963 1.203 10.453-.163.51-.344 1.028-.533 1.538z" class="svgShape colorec2154-15 svgStroke colorStroke251132-15 selectable"></path><path fill="#003aff" stroke="#231F20" stroke-miterlimit="10" stroke-width=".577" d="M169.322 27.3v.657c0 .104-.008.199-.026.302v.07c-.017.19-.034.38-.06.578-.026.19-.051.398-.077.588-.052.406-.12.83-.198 1.261-.051.276-.103.562-.163.847-.06.293-.12.587-.189.881-.069.285-.138.579-.215.872l-.051.2q-.101.399-.215.811c-.052.173-.095.355-.155.527-.052.182-.103.363-.163.545-.052.181-.112.362-.172.553-.052.19-.112.371-.181.561-.06.19-.128.38-.197.579-.138.389-.275.786-.421 1.192q-.23.608-.473 1.244c-.094.233-.18.467-.275.691a9 9 0 0 1-.249.588c-.077.19-.163.38-.249.579-.069.164-.138.337-.215.5q-.23.53-.473 1.072c-.112.25-.232.492-.344.743q-.218.49-.464.993c-.085.165-.154.337-.249.502-.086.172-.163.337-.249.51 0 0 0 .017-.009.025a1 1 0 0 1-.051.095 105 105 0 0 1-2.501 4.7 108 108 0 0 1-2.397 4.07 10 10 0 0 0-.782 1.537c-.138.328-.25.657-.344.993-.421 1.547-.327 2.903 1.212 4.45l-.344-.147h-.009a4 4 0 0 1-.447-.294c-.85-.63-1.4-1.659-1.606-2.86-.19-1.097-.078-2.332.369-3.55q.8-1.286 1.521-2.506a129 129 0 0 0 3.867-7.188c4.554-9.174 5.715-14.807 5.929-17.788a8.4 8.4 0 0 0-.017-1.4c-.051-.63-.601-2.73-.73-3.17.154.112.326.224.498.345.155.113.318.234.481.355q.094.18.172.363c.06.13.112.25.164.38.068.172.137.337.197.518.06.164.112.328.163.501 0 .017.009.035.018.052l.129.466c0 .035.017.07.025.095l.103.467c.009.06.026.121.035.181q.024.145.034.277c.009.069.017.138.026.199 0 .034.009.077.009.112q.002.127.017.242z" class="svgShape colorcb1682-16 svgStroke colorStroke231f20-16 selectable"></path><path stroke="#231F20" stroke-miterlimit="10" stroke-width=".577" d="M168.935 25.202a8 8 0 0 0-.164-.5M169.201 26.29c-.035-.155-.069-.319-.103-.466M167.81 35.44q-.08.269-.172.552M166.838 38.334q-.217.608-.473 1.244M164.905 43.016c-.111.25-.223.492-.343.743M164.089 44.754c-.086.164-.163.337-.249.501M158.082 55.56a8 8 0 0 0-.224.631M158.718 61.633c-.997-1.157-1.925-2.246-.868-5.434" fill="none" class="svgStroke colorStroke231f20-17 selectable"></path><path fill="#050c4e" stroke="#231F20" stroke-miterlimit="10" stroke-width=".577" d="M132.01 21.132c-2.217.88-5.208 2.548-7.7 5.624-.395.484-.782 1.02-1.151 1.58a7 7 0 0 0-.275.433 8 8 0 0 0-.267.449c-.094.147-.172.302-.258.458-.085.155-.171.31-.249.475-.094.181-.189.363-.275.562-.094.19-.18.38-.258.578-.085.2-.171.398-.249.596a23 23 0 0 0-1.04 3.3 63 63 0 0 1-1.667 5.78c-1.194 3.534-2.612 6.8-3.978 9.59q-.282.57-.499 1.166c-1.211-6.522-.318-10.401 1.031-12.682a8.55 8.55 0 0 1 4.426-13.02 8.5 8.5 0 0 1-.438-2.16c-.026-.207-.026-.414-.026-.63 0-4.717 3.798-8.536 8.49-8.536.37 0 .739.026 1.091.07a30.6 30.6 0 0 0 3.3 6.367z" class="svgShape color6b3293-18 svgStroke colorStroke231f20-18 selectable"></path><path stroke="#231F20" stroke-miterlimit="10" stroke-width=".577" d="M120.606 28.054a8.6 8.6 0 0 1-1.014-2.03M180.484 52.184c-.369.449-.773.855-1.203 1.226M181.078 68.504c-.559.544-1.16 1.01-1.805 1.417M152.874 44.268c-.051-.086-.111-.164-.154-.25M116.482 37.35a8 8 0 0 0-1.315 1.684" fill="none" class="svgStroke colorStroke231f20-19 selectable"></path><path fill="#050c4e" stroke="#231F20" stroke-miterlimit="10" stroke-width=".577" d="M119.892 83.577c-3.136-1.098-7.278-3.171-11.154-7.05a62 62 0 0 1-.988-1.046 9.6 9.6 0 0 1 2.827-2.781 11.99 11.99 0 0 0 5.319-8.285v-.087c2.604 3.672 6.213 5.59 9.694 6.566.292 2.955-.241 7.983-5.698 12.682Z" class="svgShape color6b3293-20 svgStroke colorStroke231f20-20 selectable"></path><path fill="#F8991D" stroke="#240F32" stroke-miterlimit="10" stroke-width=".577" d="M113.698 35.068a8.4 8.4 0 0 0 1.478 3.974c-1.341 2.29-2.235 6.16-1.032 12.682-.197.519-.36 1.037-.489 1.573a62 62 0 0 0-4.288-2.16c.068-5.304-.232-19.49-4.658-33.39 4.297 1.304 9.1 3.29 14.462 6.124.052.752.198 1.469.439 2.16-3.781 1.192-6.334 4.933-5.904 9.046z" class="svgShape colorf8991d-21 svgStroke colorStroke240f32-21 selectable"></path><path stroke="#231F20" stroke-miterlimit="10" stroke-width=".577" d="M80.158 18.645c-.207.12-.413.25-.619.38M215.949 53.315a161 161 0 0 1-8.25 8.76M168.712 90.895c-9.186 5.002-15.296 7.23-15.296 7.23" fill="none" class="svgStroke colorStroke231f20-22 selectable"></path><path fill="#F8991D" stroke="#240F32" stroke-miterlimit="10" stroke-width=".577" d="M205.929 35.482c-8.843 10.281-13.113 21.702-14.952 27.992a114 114 0 0 0-7.391 1.339c1.814-4.372.619-9.538-3.11-12.622a11.025 11.025 0 0 0 1.383-12.095c9.375-3.136 17.41-4.389 24.061-4.605z" class="svgShape colorf8991d-23 svgStroke colorStroke240f32-23 selectable"></path><path stroke="#231F20" stroke-miterlimit="10" stroke-width=".577" d="M62.275 159.18a237 237 0 0 1-4.125 5.633" fill="none" class="svgStroke colorStroke231f20-24 selectable"></path><path fill="#050c4e" stroke="#231F20" stroke-miterlimit="10" stroke-width=".577" d="M145.089 182.912c3.127 2.747 7.553 6.92 8.687 8.925a.84.84 0 0 1-.438 1.2c-3.171 1.227-7.184 1.365-11.266 1.201z" class="svgShape color795ca7-25 svgStroke colorStroke231f20-25 selectable"></path><path stroke="#231F20" stroke-miterlimit="10" stroke-width=".577" d="m142.073 194.238-1.745 6.566" fill="none" class="svgStroke colorStroke231f20-26 selectable"></path><path fill="#231F20" d="m134.795 39.699 1.976-3.343s9.35 1.053 9.883 5.701l-1.066 2.627s-1.719-3.326-5.637-4.164c-3.919-.838-5.147-.812-5.147-.812zM120.933 33.27c.318.13.61.337.953.458 2.407.855 4.417 2.782 4.417 2.782l.705-3.827s-1.289-1.426-4.89-2.523l-1.177 3.11z" class="svgShape color231f20-27 selectable"></path><path stroke="#231F20" stroke-miterlimit="10" stroke-width=".577" d="M127.146 42.049s-.061 2.868-3.171 5.952c-1.985 1.961 1.778 3.853 1.778 3.853M119.652 51.621s2.621 7.127 14.6 5.21M133.497 46.42s3.351 3.162 7.227 2.307M123.081 43.389s-3.79-.63-4.469-2.41" fill="none" class="svgStroke colorStroke231f20-28 selectable"></path><path fill="#E15E26" d="M140.328 55.345a1.93 1.93 0 0 0 1.925-1.935 1.93 1.93 0 0 0-1.925-1.935 1.93 1.93 0 0 0-1.925 1.935 1.93 1.93 0 0 0 1.925 1.935M116.705 46.948c.309.208.395.303.791.303 1.065 0 1.693-.89 1.925-1.936s-.284-1.805-1.246-1.805z" class="svgShape colore15e26-29 selectable"></path><path stroke="#231F20" stroke-miterlimit="10" stroke-width=".577" d="m97.654 46.957-11.129-18.16" fill="none" class="svgStroke colorStroke231f20-30 selectable"></path><path fill="#fff" d="M96.993 91.283a122 122 0 0 1-2.123 4.13s-7.691 2.246-10.252 8.622" class="svgShape colorffffff-31 selectable"></path><path stroke="#231F20" stroke-miterlimit="10" stroke-width=".577" d="M96.993 91.283a122 122 0 0 1-2.123 4.13s-7.691 2.246-10.252 8.622" fill="none" class="svgStroke colorStroke231f20-32 selectable"></path><mask id="b" width="181" height="182" x="62" y="11" maskUnits="userSpaceOnUse" style="mask-type:luminance"><path fill="#fff" d="M186.509 121.893c-11.326 7.629-19.774 18.929-23.658 32.061-.026.095-.051.19-.077.276-3.901 13.417-4.176 26.799-9.032 38.523.396-1.27-4.941-6.583-8.653-9.84-27.567-24.19-63.943-25.201-82.814-23.732 6.23-8.959 16.654-23.646 22.627-38.653-2.93-7.283-2.26-12.63-.293-16.475-7.072-10.41-19.163-33.65-15.906-67.421.74-7.698 5.139-14.341 11.455-17.978h.009c11.377-6.912 22.334-6.912 22.334-6.912a75 75 0 0 1 2.199 6.005c4.426 13.9 4.727 28.095 4.658 33.4-3.102-1.426-7.012-2.921-11.713-4.182.714 14.108 5.07 22.963 10.106 28.518.327.354.662.708.988 1.045 3.876 3.88 8.018 5.953 11.154 7.05 3.017 1.045 5.096 1.2 5.096 1.2s10.793 2.99 24.783 4.787c5.93.769 12.435 1.313 18.931 1.33a178.6 178.6 0 0 0 20.942-13.399c5.869-4.354 12.014-9.477 18.046-15.421-4.245.086-10.157.423-16.714 1.4 1.83-6.29 6.101-17.711 14.944-27.992a63 63 0 0 1 4.339-4.561s16.293 6.868 19.292 9.2c37.742 22.22-17.332 64.475-43.043 81.771" class="svgShape colorffffff-34 selectable"></path></mask><g stroke-miterlimit="10" mask="url(#b)"><path d="m97.34 68.22 10.014 1.755a2.295 2.295 0 0 0 2.654-1.876l1.746-10.069a2.305 2.305 0 0 0-1.866-2.668l-10.015-1.756a2.296 2.296 0 0 0-2.654 1.877L95.473 65.55a2.306 2.306 0 0 0 1.866 2.668ZM149.971 146.951l6.476 17.386a3.63 3.63 0 0 0 4.679 2.141l17.294-6.511a3.66 3.66 0 0 0 2.129-4.704l-6.476-17.387a3.63 3.63 0 0 0-4.679-2.14l-17.294 6.511a3.66 3.66 0 0 0-2.129 4.704ZM208.321 42.816l3.115 1.398a1.98 1.98 0 0 0 2.622-1.01l1.39-3.131a2 2 0 0 0-1.003-2.636l-3.116-1.398a1.98 1.98 0 0 0-2.622 1.01l-1.39 3.132a2 2 0 0 0 1.004 2.635ZM96.576 129.897l1.402 4.835a.56.56 0 0 0 .693.382l4.809-1.41a.56.56 0 0 0 .38-.696l-1.402-4.836a.56.56 0 0 0-.693-.381l-4.81 1.41a.56.56 0 0 0-.38.696ZM166.401 77.436l.719 2.48a.56.56 0 0 0 .693.382l2.466-.723a.563.563 0 0 0 .38-.697l-.719-2.48a.56.56 0 0 0-.693-.381l-2.467.723a.56.56 0 0 0-.379.696ZM61.331 30.431l3.964 9.73a1.98 1.98 0 0 0 2.589 1.09l9.678-3.984a2 2 0 0 0 1.085-2.603l-3.964-9.73a1.98 1.98 0 0 0-2.589-1.09l-9.678 3.984a2 2 0 0 0-1.085 2.603ZM200.37 76.406l-4.262 9.602a2 2 0 0 0 1.004 2.635l9.55 4.285a1.98 1.98 0 0 0 2.621-1.009l4.262-9.601a2 2 0 0 0-1.003-2.636l-9.55-4.285a1.98 1.98 0 0 0-2.622 1.01ZM133.332 107.073l2.066 2.729a1.976 1.976 0 0 0 2.781.38l2.715-2.077a2 2 0 0 0 .378-2.797l-2.066-2.729a1.98 1.98 0 0 0-2.782-.38l-2.715 2.077a2.003 2.003 0 0 0-.377 2.797Z" fill="none" stroke="#050c4e" stroke-width=".577" class="svgStroke colorStrokeed1c53-36 selectable"></path></g></g><defs><clipPath id="a"><path fill="#fff" d="M.876.916h241.935v200H.876z" class="svgShape colorffffff-39 selectable"></path></clipPath></defs></svg></g></svg>