<svg id="SvgjsSvg1179" width="288" height="288" xmlns="http://www.w3.org/2000/svg" version="1.1" xmlns:xlink="http://www.w3.org/1999/xlink" xmlns:svgjs="http://svgjs.com/svgjs"><defs id="SvgjsDefs1180"></defs><g id="SvgjsG1181"><svg xmlns="http://www.w3.org/2000/svg" viewBox="0 0 334 200" width="288" height="288"><g clip-path="url(#a)"><g clip-path="url(#b)"><path fill="#ffffff" d="M74.17 0h186.189v200H74.169z" class="svgShape colorffffff-2 selectable"></path><path fill="#795ca7" stroke="#231f20" stroke-miterlimit="10" stroke-width=".969" d="M220.469 193.043c-.465 3.799-1.512 6.261-3.005 6.464-1.512.204-3.198-1.919-4.691-5.514 2.482-.213 5.04-.524 7.696-.95Z" class="svgShape color795ca7-3 svgStroke colorStroke231f20-3 selectable"></path><path stroke="#231f20" stroke-miterlimit="10" stroke-width=".969" d="M194.183 193.66a24 24 0 0 1-.882 2.055" fill="none" class="svgStroke colorStroke231f20-4 selectable"></path><path fill="#ffffff" stroke="#231f20" stroke-miterlimit="10" stroke-width=".969" d="M149.379 128.943a25 25 0 0 0-2.85.058c.01.039.029.078.039.117a24 24 0 0 1 2.588-.029h.271s-.039-.097-.048-.136z" class="svgShape colorffffff-5 svgStroke colorStroke231f20-5 selectable"></path><path fill="#ffffff" stroke="#231f20" stroke-miterlimit="10" stroke-width=".969" d="M250.155 107.134c-1.648-3.654-3.664-6.697-5.912-9.237-5.67-6.406-12.823-9.575-19.161-11.116-3.683-.892-7.104-1.231-9.799-1.328a15.7 15.7 0 0 1-6.154 1.24 15.77 15.77 0 0 1-8.965-2.78 13.7 13.7 0 0 1-5.059 2.393c-2.5.6-5.001.475-7.288-.242a31.04 31.04 0 0 1-13.792 3.208 30.9 30.9 0 0 1-15.119-3.916c-4.361 3.828-15.4 4.07-25.102 10.4-4.409 2.868-8.538 6.997-11.63 13.287-5.01 10.186-7.821 23.435-8.81 36.121v.058c0 .097-.009.185-.019.282-.019.261-.039.533-.048.794-.33 4.681-.407 9.275-.243 13.588.01.32.029.64.039.95.116 2.733.33 5.35.64 7.802.213 1.696.465 3.305.765 4.817v.019c.621 3.218 1.435 6.009 2.423 8.199.02.049.049.097.068.146.514 1.143 1.086 2.112 1.696 2.898 0 0 5.961 9.759 16.108 8.286h.049c4.371-.339 11.746-2.888 20.575-13.82v-.01c-.707.252-2.18.736-4.138 1.056-4.526.727-11.65.572-17.93-5.224h19.984c.32-1.085.582-2.18.786-3.266.174.223.358.465.552.708.048.058.097.126.145.184.097.126.204.252.31.388a4.08 4.08 0 0 1 1.222-2.511h.009a1.675 1.675 0 0 1 2.123-.184 36 36 0 0 0 4.972 2.821c-1.638-3.305-6.067-12.716-6.261-13.162a4.1 4.1 0 0 1-.349-1.996c.116-1.454.988-2.801 2.413-3.431a4 4 0 0 1 1.909-.349 41 41 0 0 1-1.376-2.666 4.1 4.1 0 0 1 .281-1.647c.698-1.774 3.082-2.064 4.274-.572 5.563 6.959 11.03 10.651 15.275 12.609a7.1 7.1 0 0 1-.844-3.373c0-.475.049-.94.136-1.395.349-1.764 2.501-2.462 3.79-1.212a41 41 0 0 0 4.487 3.809c.223.165.446.33.669.475a35.6 35.6 0 0 0 6.677 3.722c.708-1.619 1.464-2.84 2.21-3.577.097-.097.204-.193.31-.271.475-.397.96-.581 1.415-.514.921.117 1.677 1.192 2.21 2.966.019.068.039.136.048.204.262.93.485 2.045.63 3.324q1.062.217 2.123.378c.077.01.155.029.242.029 1.725.242 3.431.359 5.098.378 2.888.029 5.67-.252 8.287-.717.639 1.715 1.23 3.692 1.744 5.854.097.387.184.785.271 1.182.378 1.745.708 3.605.979 5.544.756 5.514.853 10.583.388 14.344-.465 3.799-1.512 6.26-3.005 6.464 69.452-5.166 32.691-92.373 32.691-92.373zm-94.777 20.973a3 3 0 0 1-.261.979c-.601 1.405-2.123 2.297-3.664 1.909a3.2 3.2 0 0 1-.979-.436c-.484-.32-.823-.843-1.046-1.483a1 1 0 0 1-.049-.136 25 25 0 0 0-2.849.058c.01.039.029.078.039.117 1.463 4.225-1.241 9.943-6.872 7.85-.417.63-.901 1.066-1.366 1.173-1.299.31-4.875.62-4.197-5.99a26 26 0 0 0-3.111 1.706q0-.059.029-.116c.552-2.801 1.977-5.602 5.437-5.651.814 0 1.493.117 2.055.34 1.134-1.629 3.15-3.751 5.456-2.52.921-2.365 3.237-6.765 7.492-5.951 4.003.766 4.168 5.389 3.886 8.141z" class="svgShape colorffffff-6 svgStroke colorStroke231f20-6 selectable"></path><mask id="c" width="148" height="117" x="112" y="83" maskUnits="userSpaceOnUse" style="mask-type:luminance"><path fill="#ffffff" d="M250.154 107.13c-1.647-3.654-3.663-6.697-5.912-9.236-5.67-6.407-12.822-9.576-19.161-11.117-3.682-.892-7.104-1.23-9.798-1.328a15.7 15.7 0 0 1-6.154 1.24 15.77 15.77 0 0 1-8.965-2.78 13.7 13.7 0 0 1-5.059 2.393 13.63 13.63 0 0 1-7.289-.242 31 31 0 0 1-13.791 3.208 30.9 30.9 0 0 1-15.119-3.916c-4.361 3.828-15.4 4.07-25.102 10.4-4.41 2.868-8.538 6.997-11.63 13.287-5.011 10.186-7.821 23.435-8.81 36.121 0 .117-.019.223-.029.34-.368 4.952-.465 9.827-.3 14.382.106 3.082.339 6.019.678 8.752.213 1.696.465 3.305.766 4.817v.019c.62 3.218 1.434 6.009 2.423 8.199.533 1.202 1.124 2.23 1.763 3.044 0 0 9.954 16.292 26.004 3.624 4.845-3.818 7.482-8.974 8.858-14.15a33 33 0 0 0 .562-2.461c.223.281.456.581.698.891.097.126.203.252.31.388a4.1 4.1 0 0 1 1.221-2.51h.01a1.67 1.67 0 0 1 2.122-.184 36 36 0 0 0 4.972 2.82c-1.638-3.305-6.067-12.716-6.261-13.162a4.15 4.15 0 0 1-.349-1.996c.117-1.454.989-2.801 2.414-3.431a4 4 0 0 1 1.909-.349 41 41 0 0 1-1.376-2.665 4.1 4.1 0 0 1 .281-1.648c.698-1.773 3.082-2.064 4.274-.572 5.563 6.959 11.029 10.652 15.274 12.61a7.1 7.1 0 0 1-.843-3.373c0-.475.048-.94.136-1.396.349-1.764 2.5-2.462 3.789-1.211a41 41 0 0 0 4.487 3.809 36.4 36.4 0 0 0 7.347 4.206c.814-1.832 1.667-3.169 2.51-3.848.475-.397.959-.581 1.415-.514.921.117 1.677 1.193 2.21 2.966.29.979.523 2.161.688 3.518q1.061.219 2.122.378c1.803.262 3.586.388 5.331.407 2.888.029 5.67-.252 8.286-.717.64 1.716 1.231 3.693 1.745 5.854a73 73 0 0 1 1.25 6.726c.756 5.515.853 10.584.388 14.344-.465 3.799-1.512 6.261-3.005 6.464 69.452-5.165 32.691-92.372 32.691-92.372zm-113.675 20.973c.814 0 1.493.116 2.055.339 1.134-1.628 3.15-3.751 5.456-2.52.921-2.365 3.237-6.765 7.492-5.951 4.003.766 4.167 5.389 3.886 8.142-.029.29-.097.581-.203.843-.562 1.483-2.123 2.452-3.722 2.054a3.2 3.2 0 0 1-.979-.436c-.513-.339-.872-.921-1.095-1.618a25 25 0 0 0-2.849.058c1.55 4.235-1.154 10.079-6.833 7.966-.417.63-.901 1.067-1.367 1.173-1.298.31-4.875.62-4.196-5.989a26 26 0 0 0-3.111 1.705c.543-2.839 1.948-5.708 5.466-5.756z" class="svgShape colorffffff-8 selectable"></path></mask><g stroke-miterlimit="10" mask="url(#c)"><path d="m111.494 132.851 11.866-4.859a2.85 2.85 0 0 0 1.557-3.717l-4.859-11.866a2.85 2.85 0 0 0-3.717-1.557l-11.866 4.86a2.85 2.85 0 0 0-1.557 3.716l4.86 11.866a2.847 2.847 0 0 0 3.716 1.557ZM238.934 105.591l10.666-1.325a3.886 3.886 0 0 0 3.378-4.336l-1.325-10.666a3.886 3.886 0 0 0-4.336-3.378l-10.666 1.325a3.887 3.887 0 0 0-3.378 4.336l1.325 10.666a3.887 3.887 0 0 0 4.336 3.378ZM236.276 137.977l3.965 1.77a2.46 2.46 0 0 0 3.251-1.245l1.77-3.965a2.46 2.46 0 0 0-1.245-3.251l-3.965-1.77a2.46 2.46 0 0 0-3.251 1.245l-1.77 3.965a2.46 2.46 0 0 0 1.245 3.251ZM195.156 116.513l1.764 6.048c.108.37.495.582.865.474l6.048-1.764a.697.697 0 0 0 .474-.865l-1.764-6.048a.697.697 0 0 0-.865-.474l-6.048 1.764a.7.7 0 0 0-.474.865ZM131.337 182.336l.906 3.107c.108.37.495.583.865.475l3.108-.906a.7.7 0 0 0 .474-.866l-.906-3.107a.7.7 0 0 0-.865-.475l-3.108.907a.697.697 0 0 0-.474.865ZM232.227 175.062l4.999 12.207a2.46 2.46 0 0 0 3.211 1.345l12.207-4.999a2.46 2.46 0 0 0 1.345-3.211l-4.999-12.207a2.46 2.46 0 0 0-3.211-1.345l-12.206 4.999a2.46 2.46 0 0 0-1.346 3.211ZM156.157 105.162l2.63 3.455a2.46 2.46 0 0 0 3.449.468l3.456-2.629a2.46 2.46 0 0 0 .468-3.45l-2.629-3.455a2.46 2.46 0 0 0-3.45-.468l-3.455 2.629a2.46 2.46 0 0 0-.469 3.45Z" fill="none" stroke="#050c4e" stroke-width=".969" class="svgStroke colorStrokeed1c53-10 selectable"></path></g><path stroke="#231f20" stroke-miterlimit="10" stroke-width=".969" d="M185.811 18.27a34 34 0 0 0-3.741-5.514M198.624 26.209c0 1.405-.232 2.762-.63 4.032" fill="none" class="svgStroke colorStroke231f20-11 selectable"></path><path stroke="#231f20" stroke-miterlimit="10" stroke-width=".969" d="M176.536 15.363a13.5 13.5 0 0 1 5.544-2.597M210.117 42.006c-.436.93-.978 1.793-1.638 2.568M198.624 26.209a11 11 0 0 0-3.257.901" fill="none" class="svgStroke colorStroke231f20-12 selectable"></path><path fill="#f8991d" stroke="#240f32" stroke-miterlimit="10" stroke-width=".969" d="M187.826 86.052a31.04 31.04 0 0 1-13.792 3.208 30.9 30.9 0 0 1-15.119-3.915c.223-.194.417-.388.601-.601 1.715-1.968 1.677-5.776 1.221-9.014-3.935 1.493-8.635 1.997-13.714-.087-3.324-1.357-5.728-4.293-6.474-7.802-1.87-8.664-6.445-12.492-9.895-26.12-.998-3.953-.301-7.84.581-10.612a22.5 22.5 0 0 0 9.818 2.23c7.686 0 14.489-3.82 18.599-9.663a8.5 8.5 0 0 0 8.373 6.978h.291c1.619 1.124 3.111 2.665 3.605 4.69.979 4.003 1.871 4.575 3.053 4.74.262.039.495.03.708-.039a6.23 6.23 0 0 1 2.035-3.76 6.25 6.25 0 0 1 4.216-1.619 6.3 6.3 0 0 1 6.3 6.3 6.3 6.3 0 0 1-3.984 5.864 6.4 6.4 0 0 1-2.326.445c-.504 0-.998-.058-1.463-.174a5 5 0 0 1-.863-.271 3.72 3.72 0 0 0-1.405 2.917 3.715 3.715 0 0 0 2.539 3.528 11.13 11.13 0 0 0-2.016 6.396c0 2.19.63 4.235 1.726 5.96a13.6 13.6 0 0 0-1.803 10.584c1.163 4.836 4.759 8.442 9.178 9.837z" class="svgShape colorf8991d-13 svgStroke colorStroke240f32-13 selectable"></path><path stroke="#231f20" stroke-miterlimit="10" stroke-width=".969" d="M181.857 63.803a13 13 0 0 0-1.405 1.832M203.043 80.95a13.7 13.7 0 0 1-2.869 2.965M183.824 50.3c-.669.437-1.299.94-1.851 1.513-.455.445-.863.94-1.231 1.463M180.452 65.637a11.17 11.17 0 0 0 9.469 5.224" fill="none" class="svgStroke colorStroke231f20-14 selectable"></path><path fill="#050c4e" stroke="#231f20" stroke-miterlimit="10" stroke-width=".969" d="M250.154 87.247c0 4.488-2.355 8.432-5.912 10.652-4.187-4.73-9.178-7.696-14.053-9.547a10.78 10.78 0 0 1-6.513 2.161c-1.008 0-1.997-.135-2.927-.397a12.25 12.25 0 0 1-10.603 6.077c-6.319 0-11.533-4.769-12.211-10.913q-1.324.654-2.821 1.017c-2.5.601-5.001.475-7.288-.242-4.419-1.395-8.015-5-9.178-9.837a13.56 13.56 0 0 1 1.803-10.583 11.16 11.16 0 0 1-1.726-5.96c0-2.375.747-4.585 2.016-6.397a3.715 3.715 0 0 1-2.539-3.528c0-1.183.543-2.24 1.405-2.917.281.116.562.203.863.27.475.117.959.175 1.463.175.824 0 1.609-.155 2.326-.445a6.3 6.3 0 0 0 3.984-5.864 6.3 6.3 0 0 0-6.3-6.3c-1.618 0-3.092.601-4.216 1.619a6.33 6.33 0 0 0-2.035 3.76c-.213.078-.446.078-.708.039-1.192-.165-2.074-.737-3.053-4.74-.494-2.025-1.986-3.566-3.605-4.69h-.291a8.505 8.505 0 0 1-8.373-6.978c-4.11 5.834-10.913 9.663-18.599 9.663-3.518 0-6.852-.795-9.818-2.23a23.5 23.5 0 0 1-2.849-1.618 22.5 22.5 0 0 1-5.079-4.681C127.475 10.75 140.501.486 155.921.486c10.515 0 19.916 4.778 26.148 12.28q1.395-.308 2.879-.31c7.549 0 13.665 6.115 13.665 13.665v.087c.446-.058.892-.087 1.347-.087 6.174 0 11.184 5.01 11.184 11.185 0 1.676-.368 3.266-1.037 4.7a24 24 0 0 1 3.645-.281c13.171 0 23.841 10.68 23.841 23.851 0 3.286-.668 6.426-1.87 9.276.61-.097 1.231-.136 1.87-.136 6.93 0 12.542 5.611 12.542 12.541z" class="svgShape color795ca7-15 svgStroke colorStroke231f20-15 selectable"></path><path fill="#050c4e" stroke="#231f20" stroke-miterlimit="10" stroke-width=".969" d="M159.517 84.747a7 7 0 0 1-.601.601c-4.361 3.828-15.4 4.07-25.102 10.4-1.434-6.107 1.096-10.003 2.268-11.902 4.982-8.103 5.321-15.856-2.481-19.326-1.667-.746-8.393-1.744-7.802-8.034.204-2.094 1.725-4.11 3.305-5.263a12.33 12.33 0 0 1-6.842-11.048 12.33 12.33 0 0 1 6.135-10.671c.901.6 1.86 1.153 2.849 1.618-.882 2.772-1.58 6.659-.581 10.613 3.44 13.627 8.024 17.445 9.895 26.12.746 3.508 3.159 6.444 6.474 7.801 5.078 2.084 9.789 1.58 13.714.087.455 3.238.494 7.046-1.221 9.014z" class="svgShape color6b3293-16 svgStroke colorStroke231f20-16 selectable"></path><path fill="#ffffff" stroke="#231f20" stroke-miterlimit="10" stroke-width=".969" d="M185.665 49.749a3.7 3.7 0 0 1-1.212 2.743c-.668.61-1.55.979-2.52.979-.416 0-.823-.068-1.192-.204a3.72 3.72 0 0 1-2.539-3.528c0-1.182.543-2.239 1.405-2.917a3.55 3.55 0 0 1 1.377-.688c.31-.078.62-.126.959-.126.872 0 1.687.31 2.326.814a3.73 3.73 0 0 1 1.406 2.917z" class="svgShape colorffffff-17 svgStroke colorStroke231f20-17 selectable"></path><path stroke="#231f20" stroke-miterlimit="10" stroke-width=".969" d="M172.272 67.328s-4.556 5.757-11.524 8.403M217.085 166.11a54.4 54.4 0 008.267-2.171c6.183-2.152 10.167-4.72 10.167-4.72M219.073 113.463s8.762 24.956 6.281 50.475" fill="none" class="svgStroke colorStroke231f20-18 selectable"></path><path fill="#231f20" d="M161.726 36.705s-7.375-1.463-13.375 3.053l-1.056-4.274s4.187-3.305 9.711-2.52c2.123.3 3.906 1.764 4.73 3.741zM131.741 44.894s1.183-5.476 6.154-5.757l2.317 3.557s-6.533 1.521-6.872 5.766l-1.609-3.566z" class="svgShape color231f20-19 selectable"></path><path stroke="#231f20" stroke-miterlimit="10" stroke-width=".969" d="M145.386 47.629s2.442 2.878 1.308 7.463c0 0 .989 1.86 4.458 1.017" fill="none" class="svgStroke colorStroke231f20-20 selectable"></path><path fill="#ffffff" stroke="#231f20" stroke-linejoin="round" stroke-width=".969" d="M161.416 56.332c-10.603 5.476-16.03 5.456-16.03 5.456s5.262 2.288 8.606 1.61c3.344-.68 7.414-7.076 7.414-7.076z" class="svgShape colorffffff-21 svgStroke colorStroke231f20-21 selectable"></path><path stroke="#231f20" stroke-miterlimit="10" stroke-width=".969" d="M155.476 46.534s1.356-3.848 5.931-2.045M136.79 53.772s1.056-3.848 4.604-2.045" fill="none" class="svgStroke colorStroke231f20-22 selectable"></path><path fill="#e15e26" d="M161.563 51.591a2.23 2.23 0 1 0 0-4.458 2.23 2.23 0 0 0 0 4.458M140.211 60.312a2.23 2.23 0 1 0 0-4.458 2.23 2.23 0 0 0 0 4.458" class="svgShape colore15e26-23 selectable"></path><path stroke="#231f20" stroke-miterlimit="10" stroke-width=".969" d="M145.386 114.705s.523 5.835.756 7.443" fill="none" class="svgStroke colorStroke231f20-24 selectable"></path><path fill="#ffffff" d="m157.967 129.088-2.2 17.92 22.174-.998a20.22 20.22 0 0 0 13.026-5.554l4.982-4.739a805 805 0 0 1-4.09-1.89 51.2 51.2 0 0 0-21.477-4.739h-12.415000000000001M112.27 145.668c3.963 2.656 9.362 2.946 11.562 2.762l31.925-1.434 2.2-17.92h-8.81c-4.042-.184-13.869.882-20.915 6.629s-13.578 9.033-15.962 9.953zM84.755 161.702v-8.848c-2.568.92-7.705 4.642-7.705 12.163 6.61 0 7.889-2.21 7.705-3.315" class="svgShape colorffffff-25 selectable"></path><path fill="#050c4e" d="m155.756 146.998-1.105 8.063v19.897h-34.309c.116-.717.184-1.453.184-2.209 0-5.244-3.033-9.789-7.443-11.941a13.1 13.1 0 0 0-5.776-1.327c-7.298 0-13.21 5.941-13.21 13.268q0 1.424.29 2.762H79.791c-.92-.368-2.752-2.985-2.752-10.506 6.61 0 7.89-2.21 7.715-3.315v-8.848l27.515-7.182c.329.223.668.427 1.027.611 3.828 2.083 8.519 2.316 10.535 2.151l31.935-1.434z" class="svgShape colorb5b9dd-26 selectable"></path><path fill="#ffffff" d="M218.512 150.092c-1.212 0-2.2.988-2.2 2.209v7.735c0 1.221.988 2.209 2.2 2.209h5.505v-12.163h-5.505z" class="svgShape colorffffff-27 selectable"></path><path fill="#341e54" fill-rule="evenodd" d="M192.091 186.019c6.542 0 11.979-4.778 13.026-11.059.116-.717.184-1.454.184-2.209 0-7.328-5.912-13.269-13.21-13.269s-13.21 5.941-13.21 13.269c0 .755.058 1.492.184 2.209 1.047 6.271 6.484 11.059 13.026 11.059m6.61-13.268c0-3.664-2.956-6.63-6.61-6.63-3.644 0-6.61 2.966-6.61 6.63s2.956 6.629 6.61 6.629 6.61-2.966 6.61-6.629" clip-rule="evenodd" class="svgShape color341e54-28 selectable"></path><path fill="#050c4e" fill-rule="evenodd" d="M107.316 186.019c6.542 0 11.979-4.778 13.026-11.059.116-.717.184-1.454.184-2.209 0-7.328-5.912-13.269-13.21-13.269s-13.21 5.941-13.21 13.269q0 1.424.291 2.762c1.27 5.999 6.571 10.506 12.929 10.506zm6.61-13.268c0-3.664-2.956-6.63-6.61-6.63-3.644 0-6.609 2.966-6.609 6.63s2.956 6.629 6.609 6.629 6.61-2.966 6.61-6.629" clip-rule="evenodd" class="svgShape color8c8dc5-29 selectable"></path><path fill="#ffffff" d="M107.316 166.119c3.644 0 6.61 2.966 6.61 6.629 0 3.664-2.956 6.63-6.61 6.63s-6.61-2.966-6.61-6.63 2.956-6.629 6.61-6.629M192.091 166.119c3.644 0 6.61 2.966 6.61 6.629 0 3.664-2.956 6.63-6.61 6.63s-6.61-2.966-6.61-6.63 2.956-6.629 6.61-6.629" class="svgShape colorffffff-30 selectable"></path><path fill="#050c4e" d="M205.117 174.967h9.536c3.121-.369 9.363-3.431 9.363-12.716h-5.505c-1.212 0-2.2-.988-2.2-2.21v-7.734c0-1.221.988-2.209 2.2-2.209h5.505v-2.763c-.185-1.473-1.764-4.419-6.61-4.419-6.058 0-10.458-2.21-15.41-4.419a719 719 0 0 1-6.058-2.763l-4.981 4.74a20.22 20.22 0 0 1-13.026 5.553l-22.175.998-1.105 8.064v19.897h24.404a14 14 0 0 1-.184-2.21c0-7.327 5.912-13.268 13.21-13.268s13.21 5.941 13.21 13.268c0 .756-.058 1.493-.184 2.21z" class="svgShape colorb5b9dd-31 selectable"></path><path stroke="#341e54" stroke-width=".969" d="M168.975 157.822h-8.257m-17.62 0h-8.257m20.915-10.826-1.105 8.064v19.897m3.305-45.881-2.2 17.91 22.174-.988a20.22 20.22 0 0 0 13.026-5.554l4.982-4.739m-37.982-6.639h12.405a51.2 51.2 0 0 1 21.477 4.739c1.396.65 2.791 1.289 4.09 1.89m-16.883 39.242h-25.741m-32.972 0h12.987m-38.942.553c1.26 6.009 6.571 10.506 12.92 10.506 3.818 0 7.259-1.628 9.662-4.226a13.14 13.14 0 0 0 3.363-6.833c.126-.717.184-1.453.184-2.209 0-5.253-3.043-9.789-7.443-11.941a13.2 13.2 0 0 0-5.776-1.327c-7.288 0-13.21 5.941-13.21 13.268q0 1.425.29 2.762M77.01 164.984c0 7.521 1.841 10.138 2.752 10.506h14.596m17.872-29.841c.329.223.668.426 1.027.61 3.828 2.084 8.519 2.317 10.535 2.152l31.935-1.434m-71.003 5.853 27.515-7.181a22 22 0 0 0 1.096-.465c2.946-1.328 8.712-4.468 14.867-9.489a26 26 0 0 1 2.81-1.977c5.321-3.227 11.476-4.38 15.527-4.632a24 24 0 0 1 2.587-.03h8.801m37.982 6.639a707 707 0 0 0 6.057 2.763c4.953 2.209 9.362 4.419 15.42 4.419 4.846 0 6.416 2.946 6.6 4.419v14.926h-5.505c-1.212 0-2.2-.989-2.2-2.21v-7.734a2.2 2.2 0 0 1 2.2-2.21h5.505v12.163c0 5.719-2.365 9.082-4.914 10.904-1.589 1.134-3.256 1.676-4.448 1.812h-9.537c.116-.717.184-1.454.184-2.21 0-2.287-.572-4.429-1.589-6.299a13.2 13.2 0 0 0-2.986-3.732 13 13 0 0 0-3.983-2.374 13 13 0 0 0-4.652-.853c-1.473 0-2.898.242-4.226.698a13.26 13.26 0 0 0-8.984 12.57c0 .756.058 1.493.184 2.21 1.047 6.27 6.474 11.048 13.026 11.048s11.989-4.768 13.036-11.048m-97.781-8.839c-3.644 0-6.6 2.966-6.6 6.629 0 3.664 2.956 6.639 6.6 6.639s6.61-2.966 6.61-6.639a6.61 6.61 0 0 0-6.61-6.629ZM84.715 152.83v8.849c.184 1.105-1.105 3.315-7.715 3.315 0-7.521 5.137-11.243 7.715-12.164Z" fill="none" class="svgStroke colorStroke341e54-32 selectable"></path><path fill="#f8991d" stroke="#240f32" stroke-miterlimit="10" stroke-width=".969" d="M139.688 136.966c-.417.63-.902 1.066-1.367 1.172-1.298.311-4.875.621-4.196-5.989a26 26 0 0 0-3.111 1.706c.542-2.84 1.948-5.709 5.466-5.757.814 0 1.492.116 2.055.339.833.329 1.415.872 1.792 1.551 1.173 2.045.495 5.253-.639 6.978Z" class="svgShape colorf8991d-33 svgStroke colorStroke240f32-33 selectable"></path><path stroke="#231f20" stroke-miterlimit="10" stroke-width=".969" d="M134.366 130.637c-.029.194-.213 1.337-.242 1.521" fill="none" class="svgStroke colorStroke231f20-34 selectable"></path><path fill="#f8991d" stroke="#240f32" stroke-miterlimit="10" stroke-width=".969" d="M139.687 136.967c1.133-1.725 1.822-4.933.639-6.978-.378-.679-.959-1.221-1.793-1.551 1.134-1.628 3.15-3.751 5.457-2.52.203.107.407.243.62.407.901.708 1.531 1.648 1.909 2.685 1.551 4.235-1.153 10.079-6.832 7.967z" class="svgShape colorf8991d-35 svgStroke colorStroke240f32-35 selectable"></path><path fill="#f8991d" stroke="#240f32" stroke-miterlimit="10" stroke-width=".969" d="M155.378 128.098c-.029.29-.097.581-.203.843-.562 1.483-2.123 2.452-3.722 2.054a3.2 3.2 0 0 1-.979-.436c-.514-.339-.872-.92-1.095-1.618a25 25 0 0 0-2.849.058c-.369-1.037-.999-1.977-1.91-2.685a4 4 0 0 0-.62-.407c.921-2.365 3.237-6.765 7.492-5.95 4.002.765 4.167 5.388 3.886 8.141Z" class="svgShape colorf8991d-36 svgStroke colorStroke240f32-36 selectable"></path><path stroke="#231f20" stroke-miterlimit="10" stroke-width=".969" d="M149.38 128.941c-.727-2.181-.262-5.418-.262-5.418" fill="none" class="svgStroke colorStroke231f20-37 selectable"></path><path fill="#f8991d" stroke="#240f32" stroke-miterlimit="10" stroke-width=".969" d="M197.335 180.132c-.679 5.311-1.822 10.07-3.15 13.53a69 69 0 0 1-3.683-.581c-17.678-3.257-28.465-12.202-34.222-18.744-.979-1.105-1.008-2.821.039-3.858l.019-.019h.01a1.674 1.674 0 0 1 2.123-.184c1.686 1.153 3.44 2.093 4.971 2.82-1.637-3.305-6.067-12.716-6.26-13.161a4.13 4.13 0 0 1-.349-1.997c.116-1.454.988-2.801 2.413-3.431a4 4 0 0 1 1.909-.349 36 36 0 0 1-.969-1.822c-.368-.727-.446-1.58-.174-2.345q.002-.03.019-.058c.678-1.822 3.14-2.104 4.361-.582 5.544 6.91 10.991 10.593 15.226 12.541a7.07 7.07 0 0 1-.843-3.372c0-.398.029-.785.097-1.154.3-1.87 2.636-2.597 4.003-1.279 3.76 3.625 7.705 6.154 11.659 7.841.998.426 1.996.794 2.985 1.114.581 3.79.562 9.188-.204 15.11z" class="svgShape colorf8991d-38 svgStroke colorStroke240f32-38 selectable"></path><path stroke="#231f20" stroke-miterlimit="10" stroke-width=".969" d="M187.7 164.094c-.077 0-3.305-.009-8.073-2.219M161.165 154.148c3.334 5.98 4.73 8.51 7.114 11.97M165.826 177.74s-.989-1.88-2.375-4.642M197.528 165.025a17 17 0 0 0-.368-1.88" fill="none" class="svgStroke colorStroke231f20-39 selectable"></path><path fill="#f8991d" stroke="#240f32" stroke-miterlimit="10" stroke-width=".969" d="M220.469 193.044c-2.655.427-5.214.737-7.695.95-5.437.465-10.448.456-15.061.049 1.386-3.489 2.597-8.403 3.305-13.908.688-5.408.775-10.39.329-14.092 2.53.533 5.03.766 7.453.795 2.888.029 5.67-.252 8.287-.718 1.25 3.364 2.316 7.735 2.985 12.58.756 5.515.853 10.584.388 14.344z" class="svgShape colorf8991d-40 svgStroke colorStroke240f32-40 selectable"></path><path fill="#ed1c24" stroke="#231f20" stroke-miterlimit="10" stroke-width=".969" d="M201.027 180.134c-.707 5.505-1.919 10.418-3.305 13.908-1.386 3.489-2.946 5.543-4.351 5.369-1.415-.184-2.404-2.588-2.859-6.329 1.192.223 2.423.417 3.683.582 1.318-3.46 2.471-8.219 3.149-13.53.756-5.922.776-11.32.204-15.11a33 33 0 0 1-2.985-1.114c1.27-2.879 2.655-4.526 3.925-4.362 1.434.185 2.442 2.656 2.888 6.494.436 3.702.359 8.684-.329 14.092z" class="svgShape colored1c24-41 svgStroke colorStroke231f20-41 selectable"></path><path fill="#ffffff" d="M217.638 166.33a54 54 0 0 0 8.267-2.171c6.183-2.151 10.167-4.72 10.167-4.72l-15.449 19.471s-1.754-10.864-2.985-12.58" class="svgShape colorffffff-42 selectable"></path><path stroke="#231f20" stroke-miterlimit="10" stroke-width=".969" d="M217.27 166.11a54.4 54.4 0 0 0 8.267-2.171c6.183-2.152 10.166-4.72 10.166-4.72" fill="none" class="svgStroke colorStroke231f20-43 selectable"></path><path fill="#795ca7" stroke="#231f20" stroke-miterlimit="10" stroke-width=".969" d="M155.418 179.125c.164.427-2.181.746-4.158 1.066a30 30 0 0 0 1.618-3.857s1.997 1.396 2.54 2.801z" class="svgShape color795ca7-44 svgStroke colorStroke231f20-44 selectable"></path><path fill="#f8991d" stroke="#240f32" stroke-miterlimit="10" stroke-width=".969" d="m153.313 174.965-.088.3c-.106.359-.223.708-.349 1.066a29 29 0 0 1-1.618 3.858c-4.526.727-11.65.572-17.93-5.224z" class="svgShape colorf8991d-45 svgStroke colorStroke240f32-45 selectable"></path><path stroke="#231f20" stroke-miterlimit="10" stroke-width=".969" d="M178.938 39.419c.388-.533.95-.94 1.629-1.154a3.16 3.16 0 0 1 3.954 2.103c.174.582.184 1.173.039 1.726" fill="none" class="svgStroke colorStroke231f20-46 selectable"></path><path fill="#00af88" stroke="#231f20" stroke-miterlimit="10" stroke-width=".969" d="m77.66 45.643-2.721 2.72 9.183 9.184 2.72-2.721z" class="svgShape color00af88-47 svgStroke colorStroke231f20-47 selectable"></path><path fill="#ed1c53" stroke="#231f20" stroke-miterlimit="10" stroke-width=".969" d="m244.557 26.226-3.514-1.568-5.293 11.86 3.514 1.568z" class="svgShape colored1c53-48 svgStroke colorStroke231f20-48 selectable"></path><path fill="#ffce06" stroke="#231f20" stroke-miterlimit="10" stroke-width=".969" d="m87.354 17.34.935-3.733-12.598-3.155-.935 3.733zM224.035 6.777l-.829-3.757-12.682 2.797.829 3.757z" class="svgShape colorffce06-49 svgStroke colorStroke231f20-49 selectable"></path><path fill="#ed1c53" stroke="#231f20" stroke-miterlimit="10" stroke-width=".969" d="m109.326 80.374-3.203-2.132-7.196 10.811 3.203 2.132z" class="svgShape colored1c53-50 svgStroke colorStroke231f20-50 selectable"></path><path fill="#00af88" stroke="#231f20" stroke-miterlimit="10" stroke-width=".969" d="M84.551 124.558 87.426 122l-8.633-9.703-2.874 2.558z" class="svgShape color00af88-51 svgStroke colorStroke231f20-51 selectable"></path><path fill="#341e54" d="m215.555 193.644 4.429-.601s2.016-12.851-3.276-26.924c0 0 2.229 18.715-1.153 27.535z" class="svgShape color341e54-52 selectable"></path><path fill="#231f20" d="M152.392 177.659s-6.775 3.838-19.064-2.694c0 0 5.786 6.968 17.93 5.224z" class="svgShape color231f20-53 selectable"></path></g></g><defs><clipPath id="a"><path fill="#ffffff" d="M.41 0h333.333v200H.41z" class="svgShape colorffffff-56 selectable"></path></clipPath><clipPath id="b"><path fill="#ffffff" d="M74.17 0h186.189v200H74.169z" class="svgShape colorffffff-58 selectable"></path></clipPath></defs></svg></g></svg>