<svg id="SvgjsSvg1604" width="288" height="288" xmlns="http://www.w3.org/2000/svg" version="1.1" xmlns:xlink="http://www.w3.org/1999/xlink" xmlns:svgjs="http://svgjs.com/svgjs"><defs id="SvgjsDefs1605"></defs><g id="SvgjsG1606"><svg xmlns="http://www.w3.org/2000/svg" viewBox="0 0 334 201" width="288" height="288"><g clip-path="url(#a)"><g clip-path="url(#b)"><path fill="#fff" d="m147.139 46.33 2.771 22.478-27.906-1.246a25.45 25.45 0 0 1-16.398-6.967l-6.264-5.941c1.64-.755 3.391-1.56 5.151-2.374a64.54 64.54 0 0 1 27.022-5.95h15.624M204.635 67.139c-4.99 3.33-11.773 3.695-14.544 3.467l-40.172-1.797-2.772-22.479h11.085c5.083-.229 17.459 1.11 26.325 8.324s17.086 11.332 20.086 12.485zM239.265 87.255V76.16c3.23 1.153 9.698 5.823 9.698 15.257-8.313 0-9.928-2.772-9.698-4.162" class="svgShape colorffffff-2 selectable"></path><path fill="#fff" d="m149.909 68.808 1.385 10.12V103.9h43.173a16.5 16.5 0 0 1-.229-2.772c0-6.585 3.816-12.273 9.359-14.977a16.6 16.6 0 0 1 7.267-1.67c9.181 0 16.627 7.451 16.627 16.647 0 1.196-.128 2.348-.366 3.467h18.369c1.157-.458 3.469-3.746 3.469-13.18-8.314 0-9.929-2.772-9.708-4.162V76.15l-34.63-9.01c-.416.27-.841.534-1.283.763-4.812 2.619-10.728 2.907-13.261 2.703L149.9 68.808zM70.942 72.691a2.775 2.775 0 0 1 2.772 2.772v9.714a2.77 2.77 0 0 1-2.772 2.771h-6.927V72.691z" class="svgShape colorffffff-3 selectable"></path><path fill="#fff" fill-rule="evenodd" d="M227.126 104.594a16.7 16.7 0 0 0 .365-3.467c0-9.196-7.446-16.646-16.626-16.646s-16.627 7.45-16.627 16.646q0 1.425.23 2.772c1.317 7.874 8.16 13.875 16.397 13.875s14.671-5.645 16.261-13.18m-16.261 4.857c4.59 0 8.313-3.73 8.313-8.324s-3.723-8.323-8.313-8.323-8.313 3.73-8.313 8.323c0 4.594 3.723 8.324 8.313 8.324" clip-rule="evenodd" class="svgShape colorffffff-4 selectable"></path><path fill="#fff" d="M210.865 92.805c-4.59 0-8.313 3.73-8.313 8.323 0 4.594 3.723 8.324 8.313 8.324s8.313-3.73 8.313-8.324-3.723-8.323-8.313-8.323M87.798 103.902H75.796c-3.927-.466-11.773-4.297-11.773-15.952h6.928a2.775 2.775 0 0 0 2.771-2.772v-9.713a2.77 2.77 0 0 0-2.771-2.772h-6.936v-3.466c.23-1.848 2.218-5.552 8.313-5.552 7.616 0 13.158-2.772 19.397-5.552 1.7-.754 4.463-2.017 7.625-3.467l6.265 5.942a25.5 25.5 0 0 0 16.397 6.967l27.906 1.246 1.386 10.12v24.971h-30.712c.153-.899.23-1.831.23-2.772 0-9.196-7.446-16.647-16.627-16.647s-16.626 7.45-16.626 16.647q0 1.424.23 2.772" class="svgShape colorffffff-5 selectable"></path><path stroke="#8C8DC5" stroke-miterlimit="10" stroke-width=".727" d="M143.671 82.388h-10.388m42.944 0h-10.388m-14.544 21.503V78.913l-1.385-10.12m0 0-2.763-22.48h-15.615a64.6 64.6 0 0 0-27.031 5.951c-1.759.814-3.51 1.619-5.15 2.373l6.272 5.942a25.43 25.43 0 0 0 16.389 6.967zm1.394 35.09h-30.712m32.395 0h-1.692m1.412 0h41.761a16.5 16.5 0 0 0 4.242 8.569 16.56 16.56 0 0 0 12.164 5.298c7.99 0 14.671-5.645 16.261-13.181m0 0c.238-1.118.365-2.271.365-3.466 0-9.197-7.446-16.647-16.626-16.647-2.601 0-5.066.602-7.268 1.67-5.542 2.703-9.359 8.39-9.359 14.977q0 1.424.23 2.771m32.658.695h18.369c1.156-.457 3.468-3.746 3.468-13.18-8.313 0-9.928-2.771-9.707-4.161V76.124c3.238 1.161 9.707 5.823 9.707 15.257M149.91 68.775l40.181 1.797c2.533.212 8.441-.085 13.26-2.704.442-.237.867-.491 1.284-.762l34.63 9.01m-92.118-29.82h11.076a31 31 0 0 1 3.264.043c5.1.314 12.836 1.755 19.534 5.806a31 31 0 0 1 3.536 2.475c7.744 6.298 14.995 10.24 18.709 11.9q.816.369 1.377.586M64.015 72.683v-3.467c.238-1.848 2.218-5.543 8.304-5.543 7.625 0 13.167-2.772 19.398-5.552a830 830 0 0 0 7.625-3.467M64.015 87.948V72.691h6.927a2.77 2.77 0 0 1 2.763 2.772v9.713a2.77 2.77 0 0 1-2.763 2.772zm0 0c0 7.18 2.975 11.392 6.188 13.68 1.997 1.424 4.088 2.102 5.593 2.272h12.002m32.794 0q.23-1.348.23-2.772c0-7.332-4.735-13.553-11.297-15.765a16.5 16.5 0 0 0-5.313-.873 16.4 16.4 0 0 0-5.856 1.068 16.5 16.5 0 0 0-5.007 2.983 16.6 16.6 0 0 0-3.766 4.688 16.5 16.5 0 0 0-1.997 7.908q0 1.424.23 2.771m32.793 0c-1.317 7.875-8.16 13.867-16.388 13.867-8.245 0-15.08-5.992-16.397-13.867m114.728-2.788c0 4.602 3.723 8.323 8.313 8.323s8.305-3.729 8.305-8.323-3.723-8.315-8.305-8.315c-4.598 0-8.313 3.73-8.313 8.315Z" fill="none" class="svgStroke colorStroke8c8dc5-6 selectable"></path><path fill="#050c4e" fill-rule="evenodd" stroke="#8C8DC5" stroke-miterlimit="10" stroke-width=".727" d="M120.584 103.899c.153-.898.23-1.831.23-2.772 0-9.196-7.447-16.646-16.627-16.646s-16.626 7.45-16.626 16.646q0 1.425.23 2.772c1.317 7.874 8.16 13.875 16.396 13.875s15.08-6.001 16.397-13.875Zm-16.397 5.552c4.59 0 8.313-3.73 8.313-8.324s-3.723-8.323-8.313-8.323-8.313 3.73-8.313 8.323c0 4.594 3.723 8.324 8.313 8.324Z" clip-rule="evenodd" class="svgShape colorb5b9dd-7 svgStroke colorStroke8c8dc5-7 selectable"></path><path fill="#F8991D" stroke="#231F20" stroke-miterlimit="10" stroke-width=".727" d="M239.528 127.565c-11.892 12.917-25.603 30.658-35.515 44.991a315 315 0 0 0-2.159 3.153c-1.411 3.865-7.097 11.951-8.721 12.171-10.515 1.45-24.047.645-38.362-2.746-16.473-3.924-30.516-10.476-39.22-17.638a37 37 0 0 1-2.321-2.018c4.429-4.534 9.215-9.815 13.839-15.646 15.249-19.233 28.705-44.347 21.676-67.927-.289-.983-1.216-3.314-2.559-6.205-2.372-5.102.391-11.213 5.848-12.612.043-.017.085-.025.119-.034a11.36 11.36 0 0 1 6.877.483c3.009 1.178 5.279 3.67 6.52 6.645a44 44 0 0 1 1.232 3.306c1.581 4.823 2.295 9.697 2.295 14.553v11.672c5.389 2.644 14.009 14.231 11.807 27.844h58.635z" class="svgShape colorf8991d-8 svgStroke colorStroke231f20-8 selectable"></path><path fill="#050c4e" stroke="#231F20" stroke-miterlimit="10" stroke-width=".727" d="M211.001 187.787c-1.36 5.696-7.88 9.646-17.468 11.485v.017c-3.417.661-7.234 1.059-11.348 1.17-8.985.262-19.389-.814-30.235-3.391-18.386-4.373-33.687-12.002-42.009-20.079-1.53-1.484-2.83-2.984-3.859-4.484-2.439-3.518-3.425-7.027-2.643-10.29 1.64-6.857 10.719-11.172 23.656-12.375-4.624 5.831-9.41 11.103-13.838 15.647a40 40 0 0 0 2.32 2.017c8.704 7.154 22.738 13.714 39.22 17.638 14.315 3.391 27.847 4.196 38.362 2.747 1.624-.221 10.132-14.257 10.88-15.325 5.449 5.128 8.11 10.451 6.988 15.231z" class="svgShape colored1c24-9 svgStroke colorStroke231f20-9 selectable"></path><path stroke="#231F20" stroke-miterlimit="10" stroke-width=".727" d="M113.24 165.488a33 33 0 0 1-3.519-3.814M193.254 187.865c2.796-.619 5.304-1.416 7.455-2.39" fill="none" class="svgStroke colorStroke231f20-10 selectable"></path><mask id="c" width="83" height="127" x="169" y="1" maskUnits="userSpaceOnUse" style="mask-type:luminance"><path fill="#fff" d="M251.176 6.374v116.164c0 2.78-2.261 5.026-5.041 5.026h-65.231c2.201-13.604-6.409-25.199-11.799-27.844V6.374c0-2.78 2.262-5.026 5.041-5.026h71.989a5.034 5.034 0 0 1 5.041 5.026" class="svgShape colorffffff-12 selectable"></path></mask><g mask="url(#c)"><path fill="#fff" d="M204.634 67.137c-4.99 3.331-11.773 3.695-14.544 3.467l-40.172-1.797-2.772-22.479h11.085c5.083-.229 17.459 1.11 26.325 8.324s17.086 11.332 20.086 12.485zM239.264 87.251V76.156c3.23 1.153 9.698 5.823 9.698 15.257-8.313 0-9.928-2.772-9.698-4.162" class="svgShape colorffffff-14 selectable"></path><path fill="#fff" d="m149.909 68.808 1.385 10.12V103.9h43.173a16.5 16.5 0 0 1-.229-2.772c0-6.585 3.816-12.273 9.359-14.977a16.6 16.6 0 0 1 7.267-1.67c9.181 0 16.627 7.451 16.627 16.647 0 1.196-.128 2.348-.366 3.467h18.369c1.157-.458 3.469-3.746 3.469-13.18-8.314 0-9.929-2.772-9.708-4.162V76.15l-34.63-9.01c-.416.27-.841.534-1.283.763-4.812 2.619-10.728 2.907-13.261 2.703L149.9 68.808z" class="svgShape colorffffff-15 selectable"></path><path fill="#fff" fill-rule="evenodd" d="M227.125 104.592a16.7 16.7 0 0 0 .365-3.467c0-9.196-7.446-16.647-16.626-16.647s-16.627 7.45-16.627 16.647q0 1.425.23 2.772c1.317 7.874 8.16 13.875 16.397 13.875s14.671-5.645 16.261-13.18m-16.261 4.857c4.59 0 8.313-3.73 8.313-8.324s-3.723-8.323-8.313-8.323-8.313 3.73-8.313 8.323c0 4.594 3.723 8.324 8.313 8.324" clip-rule="evenodd" class="svgShape colorffffff-16 selectable"></path><path fill="#fff" d="M210.866 92.803c-4.59 0-8.313 3.73-8.313 8.323 0 4.594 3.723 8.324 8.313 8.324s8.313-3.73 8.313-8.324-3.723-8.323-8.313-8.323" class="svgShape colorffffff-17 selectable"></path><path stroke="#341E54" stroke-width=".727" d="M143.67 82.386h-10.388m42.944 0h-10.388m-14.543 21.503V78.911l-1.386-10.12m0 0-2.763-22.48h-15.615a64.6 64.6 0 0 0-27.031 5.951c-1.759.814-3.51 1.619-5.15 2.373l6.273 5.942a25.43 25.43 0 0 0 16.388 6.967zm1.394 35.09h-30.711m32.394 0h-1.691m1.411 0h41.761a16.5 16.5 0 0 0 4.242 8.569 16.56 16.56 0 0 0 12.164 5.298c7.99 0 14.671-5.645 16.261-13.181m0 0c.238-1.118.365-2.271.365-3.466 0-9.197-7.446-16.647-16.626-16.647a16.6 16.6 0 0 0-7.268 1.67c-5.542 2.704-9.359 8.39-9.359 14.977q0 1.424.23 2.771m32.658.695h18.369c1.156-.457 3.468-3.746 3.468-13.18-8.313 0-9.928-2.771-9.707-4.161V76.122c3.238 1.161 9.707 5.823 9.707 15.257m-99.062-22.606 40.181 1.797c2.533.212 8.441-.085 13.26-2.704.442-.237.867-.491 1.284-.763l34.63 9.01m-92.118-29.818h11.076a31 31 0 0 1 3.264.042c5.1.314 12.836 1.755 19.534 5.806a31 31 0 0 1 3.536 2.475c7.744 6.298 14.995 10.24 18.709 11.9q.816.369 1.377.585M64.014 72.682v-3.467c.238-1.848 2.218-5.543 8.304-5.543 7.625 0 13.167-2.772 19.398-5.552a829 829 0 0 0 7.625-3.467M64.014 87.946V72.689h6.927a2.77 2.77 0 0 1 2.763 2.772v9.713a2.77 2.77 0 0 1-2.763 2.772zm0 0c0 7.18 2.975 11.392 6.188 13.68 1.997 1.424 4.088 2.102 5.593 2.272h12.002m32.795 0q.23-1.348.229-2.772c0-7.332-4.735-13.553-11.297-15.765a16.5 16.5 0 0 0-5.313-.873c-2.065 0-4.037.373-5.856 1.068a16.5 16.5 0 0 0-5.007 2.983 16.6 16.6 0 0 0-3.766 4.688 16.5 16.5 0 0 0-1.997 7.908q0 1.424.23 2.771m32.794 0c-1.318 7.875-8.161 13.867-16.389 13.867-8.245 0-15.08-5.992-16.397-13.867m114.728-2.788c0 4.602 3.723 8.323 8.313 8.323s8.305-3.729 8.305-8.323-3.723-8.315-8.305-8.315c-4.598 0-8.313 3.73-8.313 8.315Z" fill="none" class="svgStroke colorStroke341e54-18 selectable"></path></g><path fill="#F8991D" stroke="#240F32" stroke-miterlimit="10" stroke-width=".727" d="M269.135 52.33c0 2.195-.544 4.306-1.547 6.179a12.97 12.97 0 0 1-4.276 4.73l-12.138 8.145v-24.42l3.935-2.432c6.121-3.78 14.026.61 14.026 7.79z" class="svgShape colorf8991d-19 svgStroke colorStroke240f32-19 selectable"></path><path stroke="#231F20" stroke-miterlimit="10" stroke-width=".727" d="M180.902 127.564c-.748 4.586-2.712 9.4-6.452 14.172" fill="none" class="svgStroke colorStroke231f20-20 selectable"></path><mask id="d" width="83" height="127" x="169" y="1" maskUnits="userSpaceOnUse" style="mask-type:luminance"><path fill="#fff" d="M251.176 6.374v116.164c0 2.78-2.261 5.026-5.041 5.026h-65.231c2.201-13.604-6.409-25.199-11.799-27.844V6.374c0-2.78 2.262-5.026 5.041-5.026h71.989a5.034 5.034 0 0 1 5.041 5.026" class="svgShape colorffffff-22 selectable"></path></mask><g mask="url(#d)"><path fill="#fff" d="M204.634 67.137c-4.99 3.331-11.773 3.695-14.544 3.467l-40.172-1.797-2.772-22.479h11.085c5.083-.229 17.459 1.11 26.325 8.324s17.086 11.332 20.086 12.485zM239.264 87.251V76.156c3.23 1.153 9.698 5.823 9.698 15.257-8.313 0-9.928-2.772-9.698-4.162" class="svgShape colorffffff-24 selectable"></path><path fill="#fff" d="m149.909 68.808 1.385 10.12V103.9h43.173a16.5 16.5 0 0 1-.229-2.772c0-6.585 3.816-12.273 9.359-14.977a16.6 16.6 0 0 1 7.267-1.67c9.181 0 16.627 7.451 16.627 16.647 0 1.196-.128 2.348-.366 3.467h18.369c1.157-.458 3.469-3.746 3.469-13.18-8.314 0-9.929-2.772-9.708-4.162V76.15l-34.63-9.01c-.416.27-.841.534-1.283.763-4.812 2.619-10.728 2.907-13.261 2.703L149.9 68.808z" class="svgShape colorffffff-25 selectable"></path><path fill="#050c4e" fill-rule="evenodd" stroke="#240F32" stroke-miterlimit="10" stroke-width=".727" d="M227.125 104.592a16.7 16.7 0 0 0 .365-3.467c0-9.196-7.446-16.647-16.626-16.647s-16.627 7.45-16.627 16.647q0 1.425.23 2.772c1.317 7.874 8.16 13.875 16.397 13.875s14.671-5.645 16.261-13.18Zm-16.261 4.857c4.59 0 8.313-3.73 8.313-8.324s-3.723-8.323-8.313-8.323-8.313 3.73-8.313 8.323c0 4.594 3.723 8.324 8.313 8.324Z" clip-rule="evenodd" class="svgShape color6b3293-26 svgStroke colorStroke240f32-26 selectable"></path><path fill="#fff" d="M210.866 92.803c-4.59 0-8.313 3.73-8.313 8.323 0 4.594 3.723 8.324 8.313 8.324s8.313-3.73 8.313-8.324-3.723-8.323-8.313-8.323" class="svgShape colorffffff-27 selectable"></path><path stroke="#341E54" stroke-width=".727" d="M143.67 82.386h-10.388m42.944 0h-10.388m-14.543 21.503V78.911l-1.386-10.12m0 0-2.763-22.48h-15.615a64.6 64.6 0 0 0-27.031 5.951c-1.759.814-3.51 1.619-5.15 2.373l6.273 5.942a25.43 25.43 0 0 0 16.388 6.967zm1.394 35.09h-30.711m32.394 0h-1.691m1.411 0h41.761a16.5 16.5 0 0 0 4.242 8.569 16.56 16.56 0 0 0 12.164 5.298c7.99 0 14.671-5.645 16.261-13.181m0 0c.238-1.118.365-2.271.365-3.466 0-9.197-7.446-16.647-16.626-16.647a16.6 16.6 0 0 0-7.268 1.67c-5.542 2.704-9.359 8.39-9.359 14.977q0 1.424.23 2.771m32.658.695h18.369c1.156-.457 3.468-3.746 3.468-13.18-8.313 0-9.928-2.771-9.707-4.161V76.122c3.238 1.161 9.707 5.823 9.707 15.257m-99.062-22.606 40.181 1.797c2.533.212 8.441-.085 13.26-2.704.442-.237.867-.491 1.284-.763l34.63 9.01m-92.118-29.818h11.076a31 31 0 0 1 3.264.042c5.1.314 12.836 1.755 19.534 5.806a31 31 0 0 1 3.536 2.475c7.744 6.298 14.995 10.24 18.709 11.9q.816.369 1.377.585M64.014 72.682v-3.467c.238-1.848 2.218-5.543 8.304-5.543 7.625 0 13.167-2.772 19.398-5.552a829 829 0 0 0 7.625-3.467M64.014 87.946V72.689h6.927a2.77 2.77 0 0 1 2.763 2.772v9.713a2.77 2.77 0 0 1-2.763 2.772zm0 0c0 7.18 2.975 11.392 6.188 13.68 1.997 1.424 4.088 2.102 5.593 2.272h12.002m32.795 0q.23-1.348.229-2.772c0-7.332-4.735-13.553-11.297-15.765a16.5 16.5 0 0 0-5.313-.873c-2.065 0-4.037.373-5.856 1.068a16.5 16.5 0 0 0-5.007 2.983 16.6 16.6 0 0 0-3.766 4.688 16.5 16.5 0 0 0-1.997 7.908q0 1.424.23 2.771m32.794 0c-1.318 7.875-8.161 13.867-16.389 13.867-8.245 0-15.08-5.992-16.397-13.867m114.728-2.788c0 4.602 3.723 8.323 8.313 8.323s8.305-3.729 8.305-8.323-3.723-8.315-8.305-8.315c-4.598 0-8.313 3.73-8.313 8.315Z" fill="none" class="svgStroke colorStroke341e54-28 selectable"></path></g><path stroke="#231F20" stroke-miterlimit="10" stroke-width=".727" d="M251.174 6.375v116.163a5.03 5.03 0 0 1-5.041 5.027h-65.239c2.201-13.604-6.409-25.191-11.807-27.844V6.375c0-2.78 2.261-5.035 5.049-5.035h71.989a5.036 5.036 0 0 1 5.041 5.035zM197.844 9.969h31.238" fill="none" class="svgStroke colorStroke231f20-29 selectable"></path><path fill="#fff" stroke="#231F20" stroke-miterlimit="10" stroke-width=".727" d="M192.555 11.324c.751 0 1.36-.607 1.36-1.357 0-.748-.609-1.356-1.36-1.356s-1.36.607-1.36 1.356.609 1.357 1.36 1.357Z" class="svgShape colorffffff-30 svgStroke colorStroke231f20-30 selectable"></path><path fill="#fff" d="M245.86 6.265c.06 0 .111.051.111.11V122.54c0 .06-.051.11-.111.11h-59.944c-.161-11.612-6.451-21.19-12.155-25.589V6.376c0-.06.051-.11.11-.11zm0-4.238h-71.989a4.36 4.36 0 0 0-4.36 4.349v92.939c5.491 3.017 13.677 14.299 11.909 27.572h64.44a4.36 4.36 0 0 0 4.361-4.348V6.376a4.36 4.36 0 0 0-4.361-4.349" class="svgShape colorffffff-31 selectable"></path><path fill="#F8991D" stroke="#240F32" stroke-miterlimit="10" stroke-width=".727" d="M247.519 76.626a93 93 0 0 1 7.82-1.881c7.608-1.475 13.762 6.492 10.081 13.298-.025.051-.059.102-.085.161-1.3 2.323-3.587 3.933-6.196 4.459l-11.807 2.416c-5.109 1.042-9.733-3.323-8.892-8.46l.051-.28c.859-4.678 4.446-8.39 9.028-9.713ZM256.094 115.036c5.81-3.345 8.32-9.855 5.606-14.542-2.713-4.686-9.623-5.774-15.432-2.429s-8.32 9.855-5.607 14.542 9.623 5.774 15.433 2.429Z" class="svgShape colorf8991d-32 svgStroke colorStroke240f32-32 selectable"></path><path fill="#050c4e" d="M210.133 57.738c6.516 0 11.799-5.267 11.799-11.764 0-6.498-5.283-11.765-11.799-11.765s-11.798 5.267-11.798 11.765c0 6.497 5.282 11.764 11.798 11.764" class="svgShape color58c0a0-33 selectable"></path><path stroke="#fff" stroke-miterlimit="10" stroke-width="2.181" d="m204.744 46.364 2.975 3.543a.9.9 0 0 0 1.403-.034l6.307-8.238" fill="none" class="svgStroke colorStrokeffffff-34 selectable"></path><path fill="#050c4e" d="M181.404 23.888c-.459.44-1.113.67-1.785.67s-1.326-.23-1.785-.67a2.34 2.34 0 0 1-.714-1.687c0-.594.23-1.238.714-1.695.459-.441 1.114-.67 1.785-.67.672 0 1.326.229 1.785.67.485.457.714 1.093.714 1.695 0 .601-.229 1.229-.714 1.686m-2.703-2.552a1.23 1.23 0 0 0-.357.89c0 .399.187.678.357.84.221.211.527.355.918.355s.697-.144.91-.356c.212-.212.365-.525.365-.864 0-.34-.153-.661-.365-.865a1.355 1.355 0 0 0-1.828 0M183.563 24.455v-4.517h1.174l2.167 2.763v-2.764h1.173v4.518h-1.173l-2.167-2.763v2.763zM190.949 19.938v3.526h1.411v1h-2.592v-4.518h1.173zM194.757 19.938v4.517h-1.173v-4.517zM196.432 24.455v-4.517h1.173l2.167 2.763v-2.764h1.173v4.518h-1.173l-2.167-2.763v2.763zM205.212 20.929h-1.402v.754h1.326v1h-1.326v.78h1.402v1h-2.575v-4.518h2.575v.992zM209.812 22.955v1.5h-1.173v-4.517h1.878c.391 0 .799.076 1.148.406.357.34.425.72.425 1.102 0 .356-.051.78-.4 1.127-.357.348-.773.39-1.13.39h-.74zm0-.95h.391c.119 0 .357-.016.493-.143.144-.12.153-.306.153-.416 0-.118-.017-.288-.136-.407-.136-.144-.357-.16-.502-.16h-.399zM215.879 23.692h-1.649l-.306.763h-1.241l1.742-4.517h1.284l1.708 4.517h-1.258zm-.315-.898-.51-1.466-.493 1.466zM219.289 22.285l-1.641-2.347h1.403l.859 1.237.824-1.238h1.428l-1.691 2.348v2.17h-1.182zM222.816 24.455l.765-4.517h1.165l.918 2.415.969-2.416h1.173l.68 4.518h-1.173l-.332-2.602-1.096 2.602h-.468l-1.045-2.602-.391 2.602h-1.173zM232.524 20.929h-1.403v.754h1.326v1h-1.326v.78h1.403v1h-2.576v-4.518h2.576v.992zM234.079 24.455v-4.517h1.173l2.168 2.763v-2.764h1.173v4.518h-1.173l-2.168-2.763v2.763zM241.925 20.93v3.525h-1.173V20.93h-.969v-.991h3.103v.991h-.969z" class="svgShape color6b3293-35 selectable"></path></g></g><defs><clipPath id="a"><path fill="#fff" d="M.256.5h333.333v200H.256z" class="svgShape colorffffff-38 selectable"></path></clipPath><clipPath id="b"><path fill="#fff" d="M63.59.916h205.97v200H63.59z" class="svgShape colorffffff-40 selectable"></path></clipPath></defs></svg></g></svg>