<svg id="SvgjsSvg1522" width="288" height="288" xmlns="http://www.w3.org/2000/svg" version="1.1" xmlns:xlink="http://www.w3.org/1999/xlink" xmlns:svgjs="http://svgjs.com/svgjs"><defs id="SvgjsDefs1523"></defs><g id="SvgjsG1524"><svg xmlns="http://www.w3.org/2000/svg" viewBox="0 0 334 200" width="288" height="288"><g clip-path="url(#a)"><path fill="#fff" d="m171.041 13.412-3.63 29.56 36.594-1.645a33.32 33.32 0 0 0 21.496-9.16l8.215-7.818c-2.155-.992-4.443-2.051-6.749-3.12a84.4 84.4 0 0 0-35.441-7.827h-20.475zM95.65 40.776c6.542 4.376 15.447 4.868 19.077 4.556l52.683-2.363 3.63-29.56h-14.539c-6.664-.303-22.895 1.455-34.523 10.946-11.627 9.491-22.404 14.899-26.346 16.42zM50.228 67.227V52.63c-4.235 1.522-12.714 7.666-12.714 20.07 10.9 0 13.017-3.65 12.714-5.474" class="svgShape colorffffff-1 selectable"></path><path fill="#001dff" stroke="#341E54" stroke-miterlimit="10" stroke-width=".55" d="m167.41 42.969-1.815 13.31v32.84h-56.616a22 22 0 0 0 .293-3.649c0-8.659-5.01-16.146-12.28-19.7a21.8 21.8 0 0 0-9.529-2.193c-12.034 0-21.799 9.803-21.799 21.893 0 1.57.16 3.092.482 4.557H42.05c-1.513-.605-4.547-4.925-4.547-17.328 10.909 0 13.026-3.649 12.724-5.473V52.62l45.414-11.845c.548.36 1.105.7 1.692 1.012 6.314 3.44 14.066 3.828 17.384 3.554l52.693-2.363z" class="svgShape colorb5b9dd-2 svgStroke colorStroke341e54-2 selectable"></path><path fill="#fff" d="M270.969 48.074c-2.004 0-3.63 1.636-3.63 3.65v12.77c0 2.014 1.626 3.65 3.63 3.65h9.085v-20.07z" class="svgShape colorffffff-3 selectable"></path><path fill="#0004ff" fill-rule="evenodd" stroke="#231F20" stroke-miterlimit="10" stroke-width=".55" d="M87.471 107.366c10.805 0 19.767-7.894 21.497-18.245.198-1.182.302-2.401.302-3.65 0-12.09-9.765-21.893-21.799-21.893-12.043 0-21.8 9.803-21.8 21.894 0 1.56.162 3.091.473 4.556 2.09 9.898 10.843 17.328 21.327 17.328zm10.9-21.894c0-6.05-4.878-10.947-10.9-10.947s-10.9 4.897-10.9 10.947 4.878 10.947 10.9 10.947 10.9-4.897 10.9-10.947Z" clip-rule="evenodd" class="svgShape color8c8dc5-4 svgStroke colorStroke231f20-4 selectable"></path><path fill="#fff" d="M87.472 74.523c6.022 0 10.9 4.897 10.9 10.947s-4.878 10.947-10.9 10.947-10.9-4.897-10.9-10.947 4.878-10.947 10.9-10.947" class="svgShape colorffffff-5 selectable"></path><path fill="#001dff" stroke="#341E54" stroke-miterlimit="10" stroke-width=".55" d="M248.869 89.12h15.74c5.152-.605 15.447-5.653 15.447-20.977h-9.085c-2.004 0-3.63-1.635-3.63-3.649V51.723c0-2.014 1.626-3.65 3.63-3.65h9.085v-4.565c-.303-2.43-2.912-7.298-10.9-7.298-9.992 0-17.261-3.65-25.439-7.298-2.231-.993-5.851-2.647-10.001-4.556l-8.215 7.817a33.32 33.32 0 0 1-21.497 9.16l-36.593 1.645-1.815 13.31V89.13h40.271a22 22 0 0 1-.303-3.649c0-12.09 9.765-21.894 21.799-21.894 12.044 0 21.8 9.804 21.8 21.894a22 22 0 0 1-.303 3.65z" class="svgShape colorb5b9dd-6 svgStroke colorStroke341e54-6 selectable"></path><path stroke="#341E54" stroke-miterlimit="10" stroke-width=".55" d="M189.207 60.835h-13.623m-29.068 0h-13.623m34.514-17.867-1.815 13.31V89.12m1.815-46.15 3.63-29.561m-3.63 29.56 36.594-1.635a33.37 33.37 0 0 0 21.497-9.16l8.224-7.818c-2.146-.993-4.443-2.042-6.75-3.12a84.4 84.4 0 0 0-35.449-7.827h-20.476m34.826 75.711H163.39m.359 0h-54.763c.199-1.182.293-2.401.293-3.649 0-8.66-5.01-16.146-12.28-19.7a21.64 21.64 0 0 0-9.528-2.194c-12.034 0-21.8 9.803-21.8 21.894 0 1.56.161 3.091.482 4.557 2.08 9.906 10.843 17.327 21.318 17.327 6.305 0 11.977-2.684 15.947-6.967a21.74 21.74 0 0 0 5.559-11.268m-71.458-16.42c0 12.412 3.035 16.722 4.548 17.328h24.096m-15.92-37.398v14.606c.294 1.815-1.814 5.473-12.724 5.473 0-12.412 8.49-18.547 12.725-20.07m45.413-11.844c.548.36 1.106.7 1.692 1.012 6.315 3.44 14.067 3.828 17.385 3.554l52.692-2.364M50.244 52.649l45.413-11.845a45 45 0 0 0 1.806-.765c4.868-2.193 14.378-7.364 24.531-15.655a40 40 0 0 1 4.632-3.252c8.782-5.331 18.935-7.222 25.618-7.638 1.664-.095 3.11-.114 4.273-.057h14.53m109.015 34.665v-4.556m-46.331-19.153a924 924 0 0 0 10.002 4.557c8.177 3.649 15.447 7.298 25.439 7.298 7.988 0 10.587 4.859 10.899 7.288m-31.186 45.603h15.74c1.975-.227 4.717-1.116 7.335-2.997 4.207-3.006 8.111-8.546 8.111-17.99M248.885 89.13a22 22 0 0 0 .293-3.65c0-3.771-.945-7.307-2.618-10.398a21.7 21.7 0 0 0-4.935-6.164 21.4 21.4 0 0 0-6.57-3.923 21.6 21.6 0 0 0-7.686-1.399c-2.429 0-4.783.407-6.967 1.154a21.87 21.87 0 0 0-14.822 20.74c0 1.248.094 2.467.293 3.649 1.73 10.36 10.701 18.245 21.496 18.245 10.805 0 19.777-7.884 21.507-18.245M87.461 74.523c-6.022 0-10.9 4.897-10.9 10.938 0 6.05 4.878 10.947 10.9 10.947 6.031 0 10.91-4.897 10.91-10.947s-4.879-10.938-10.91-10.938Zm192.61-26.431v20.07h-9.084c-2.004 0-3.63-1.636-3.63-3.65V51.741c0-2.014 1.626-3.65 3.63-3.65z" fill="none" class="svgStroke colorStroke341e54-7 selectable"></path><path fill="#8C8DC5" fill-rule="evenodd" stroke="#231F20" stroke-miterlimit="10" stroke-width=".55" d="M227.363 107.358c10.805 0 19.766-7.894 21.496-18.245a22 22 0 0 0 .303-3.649c0-12.09-9.765-21.894-21.799-21.894-12.044 0-21.8 9.803-21.8 21.894 0 1.248.104 2.458.303 3.649 1.73 10.351 10.701 18.245 21.497 18.245Zm10.899-21.894c0-6.05-4.878-10.947-10.899-10.947-6.022 0-10.9 4.897-10.9 10.947s4.878 10.947 10.9 10.947c6.021 0 10.899-4.897 10.899-10.947Z" clip-rule="evenodd" class="svgShape color8c8dc5-8 svgStroke colorStroke231f20-8 selectable"></path><path fill="#050c4e" stroke="#231F20" stroke-miterlimit="10" stroke-width=".55" d="M296.085 200h-106.86c-.265-4.67-1.239-18.585-3.989-30.988.236-1.03.453-2.032.642-3.015.596-2.94 1.002-5.596 1.286-7.676a5.3 5.3 0 0 1-2.543 1.144c-.614.094-1.257.198-1.938.255-12.015 1.598-23.075-1.749-29.834-4.575a6.997 6.997 0 0 1-3.678-9.369c.123-.264.237-.538.369-.822 1.068-2.458 2.184-5.464 3.016-8.811 1.559-6.267 7.95-41.405 42.407-57.91.567-.265 1.144-.54 1.72-.794.303-.142.615-.284.927-.407.019-.01.028-.01.057-.019.51-.227 1.011-.444 1.531-.642.596-.237 1.182-.473 1.787-.71.066-.018.123-.047.179-.066.435-.16.87-.321 1.314-.472.482-.18.983-.36 1.484-.53.596-.198 1.192-.387 1.797-.586.472-.151.954-.293 1.446-.416.529-.16 1.068-.312 1.607-.453.066-.02.142-.048.208-.057.066-.02.132-.029.198-.057.558-.16 1.135-.302 1.702-.444.728-.17 1.475-.36 2.231-.52.066-.01.142-.029.208-.047.151-.029.321-.076.482-.104.69-.152 1.39-.294 2.099-.416.246-.048.51-.085.775-.133.085-.019.161-.028.246-.047.482-.094.983-.18 1.474-.255h.019c.36-.066.709-.123 1.078-.16.567-.096 1.153-.171 1.73-.247.255-.047.52-.075.775-.104.095-.01.18-.019.284-.028.51-.066 1.011-.123 1.522-.17.387-.047.775-.085 1.172-.123.397-.047.794-.076 1.191-.104a85 85 0 0 1 2.751-.208c.076-.01.151-.01.227-.01l1.437-.085c.482-.019.973-.028 1.455-.056a78 78 0 0 1 2.997-.076h.057c1.531-.028 3.091-.019 4.689.01.255.15.529.302.794.463 17.734 10.474 46.529 38.37 54.318 110.697a206 206 0 0 1 1.154 19.134z" class="svgShape color6c3593-9 svgStroke colorStroke231f20-9 selectable"></path><path stroke="#231F20" stroke-miterlimit="10" stroke-width=".55" d="M102.938 75.262c-9.236-1.06-17.933-12.545-20.305-27.651-2.364-15.097 2.4-28.69 10.852-32.529 9.217 1.059 17.923 12.554 20.287 27.65 2.363 15.088-2.392 28.673-10.834 32.53Z" fill="none" class="svgStroke colorStroke231f20-10 selectable"></path><path fill="#F8991D" stroke="#231F20" stroke-miterlimit="10" stroke-width=".55" d="m104.877 80.728-5.483.85c-12.12 1.9-24.446-12.544-27.537-32.273C68.765 29.576 76.082 12.04 88.2 10.14l7.6-1.19a13.4 13.4 0 0 0-3.705 1.134c-3.384 1.54-6.258 4.443-8.47 8.28-4.216 7.346-5.994 18.17-4.178 29.75 1.815 11.561 6.806 21.317 13.064 27.027 3.27 2.987 6.882 4.868 10.569 5.322a14 14 0 0 0 1.758.114l.047.16z" class="svgShape colorf8991d-11 svgStroke colorStroke231f20-11 selectable"></path><path stroke="#231F20" stroke-miterlimit="10" stroke-width=".55" d="M102.938 75.262c-9.236-1.06-17.933-12.545-20.305-27.651-2.364-15.097 2.4-28.69 10.852-32.529 9.217 1.059 17.923 12.554 20.287 27.65 2.363 15.088-2.392 28.673-10.834 32.53Z" fill="none" class="svgStroke colorStroke231f20-12 selectable"></path><path stroke="#231F20" stroke-miterlimit="10" stroke-width=".55" d="M102.938 75.262c-9.236-1.06-17.933-12.545-20.305-27.651-2.364-15.097 2.4-28.69 10.852-32.529 9.217 1.059 17.923 12.554 20.287 27.65 2.363 15.088-2.392 28.673-10.834 32.53Z" fill="none" class="svgStroke colorStroke231f20-13 selectable"></path><path fill="#FFCE06" stroke="#231F20" stroke-miterlimit="10" stroke-width=".55" d="M123.338 41.228C120.247 21.499 107.92 7.045 95.801 8.945a13.4 13.4 0 0 0-3.706 1.135c-3.384 1.54-6.258 4.443-8.47 8.28-4.216 7.346-5.993 18.17-4.178 29.75 1.815 11.561 6.806 21.317 13.064 27.027 3.271 2.987 6.882 4.868 10.569 5.322.577.076 1.172.114 1.758.114.719 0 1.437-.057 2.165-.17 2.43-.388 4.67-1.39 6.665-2.922 7.969-6.097 12.147-20.466 9.68-36.234zm-12.601 32.264a12.1 12.1 0 0 1-4.556 1.72c-1.087.17-2.175.19-3.252.048-9.236-1.059-17.933-12.545-20.306-27.651-2.363-15.097 2.401-28.69 10.852-32.529a11.9 11.9 0 0 1 3.13-.954c1.635-.265 3.28-.161 4.887.245 8.602 2.137 16.439 13.15 18.67 27.358 2.231 14.218-1.872 27.112-9.415 31.763z" class="svgShape colorffce06-14 svgStroke colorStroke231f20-14 selectable"></path><path fill="#F8991D" stroke="#231F20" stroke-miterlimit="10" stroke-width=".55" d="M110.737 73.495a12.1 12.1 0 0 1-4.556 1.72c-1.087.17-2.174.19-3.252.047 8.451-3.856 13.206-17.44 10.833-32.528-2.363-15.097-11.069-26.583-20.286-27.651a11.9 11.9 0 0 1 3.129-.955c1.635-.264 3.28-.16 4.887.246 8.602 2.136 16.439 13.15 18.67 27.358 2.231 14.217-1.872 27.112-9.415 31.763z" class="svgShape colorf8991d-15 svgStroke colorStroke231f20-15 selectable"></path><path fill="#fff" stroke="#231F20" stroke-miterlimit="10" stroke-width=".55" d="M102.938 75.262c-9.236-1.06-17.933-12.545-20.305-27.651-2.364-15.097 2.4-28.69 10.852-32.529 9.217 1.059 17.923 12.554 20.287 27.65 2.363 15.088-2.392 28.673-10.834 32.53Z" opacity=".5" class="svgShape colorffffff-16 svgStroke colorStroke231f20-16 selectable"></path><path fill="#F8991D" stroke="#231F20" stroke-miterlimit="10" stroke-width=".55" d="M116.351 85.907c-2.779 3.431-6.522 3.516-9.368 2.864l-2.108-8.054 2.118-.331c2.429-.388 4.669-1.39 6.664-2.921z" class="svgShape colorf8991d-17 svgStroke colorStroke231f20-17 selectable"></path><path fill="#050c4e" stroke="#231F20" stroke-miterlimit="10" stroke-width=".55" d="M132.546 136.737c-.539 3.554-3.725 6.163-7.374 5.936a7 7 0 0 1-4.66-2.193l-1.702-6.494-11.826-45.206c2.855.643 6.589.567 9.369-2.864l14.293 44.875 1.891 5.955z" class="svgShape color6c3593-18 svgStroke colorStroke231f20-18 selectable"></path><path fill="#F89921" stroke="#251132" stroke-miterlimit="10" stroke-width=".55" d="M186.071 166.304a85 85 0 0 1-.643 3.015c-3.034 13.235-9.651 30.062-23.51 29.126-21.563-1.475-39.505-28.53-43.551-54.234-2.496-2.713-5.247-4.102-8.101-5.898-4.103-2.6-2.581-8.641-2.581-8.641-2.562-2.287-2.694-7.865-2.477-11.381-2.325-2.061-3.97-4.736-3.138-8.026 1.172-4.594 5.331-6.041 8.848-6.41l1.692 6.448c2.704.595 6.75 1.002 11.495-.048l-1.683-5.284c6.438-1.957 10.579 1.692 13.821 6.721 2.855 4.434 4.698 9.435 5.663 14.624.992 5.256 3.422 12.46 7.827 18.945-.132.283-.246.548-.369.822a6.98 6.98 0 0 0 1.21 7.638l-1.011 7.752c5.851 3.507 18.868 9.406 35.241 5.18.416-.104.842-.217 1.267-.34z" class="svgShape colorf89921-19 svgStroke colorStroke251132-19 selectable"></path><path stroke="#231F20" stroke-miterlimit="10" stroke-width=".55" d="M187.357 158.622c1.296-1.03 2.099-2.646 2.137-4.414v-.057c.123-7.355 3.28-25.751 3.28-25.751M149.561 161.469l-1.229 9.481M118.358 144.206a73 73 0 0 1-.52-3.999M109.064 120.951c-1.305-.719-2.676-1.607-3.867-2.676M127.715 109.189a30 30 0 0 1-3.62 1.069M112.608 110.305c-2.24-.491-3.545-1.106-3.545-1.106" fill="none" class="svgStroke colorStroke231f20-20 selectable"></path><path fill="#0018ff" stroke="#231F20" stroke-miterlimit="10" stroke-width=".55" d="M187.357 158.623c-.284 2.079-.69 4.736-1.286 7.676-.435.132-.851.236-1.267.34-16.373 4.226-29.39-1.673-35.242-5.18l1.012-7.752a6.85 6.85 0 0 0 2.467 1.73c6.75 2.836 17.81 6.173 29.835 4.575.68-.066 1.323-.16 1.938-.255a5.3 5.3 0 0 0 2.543-1.144z" class="svgShape color6c3593-21 svgStroke colorStroke231f20-21 selectable"></path><path fill="#050c4e" stroke="#231F20" stroke-miterlimit="10" stroke-width=".55" d="M233.43 57.707c-.047.246-.085.482-.123.7-.397 0-.794 0-1.191.01-6.296.075-11.674 1.18-16.24 2.91-2.411-2.268-6.637-7.184-7.78-14.548 2.42-.643 4.263-3.488 4.263-6.9 0-3.886-2.382-7.034-5.303-7.034-.794 0-1.56.236-2.241.671-1.749 1.069-2.968 3.375-3.044 6.06.237 1.295-3.393 3.724-3.961 2.893-.954-1.38-.983-7.743 0-9.643-12.081-.236-16.609-6.702-18.509-10.805l-3.715 3.243c-1.692-2.581-2.855-4.86-3.592-6.873a19.5 19.5 0 0 1-.738-2.505 12.6 12.6 0 0 1-.302-2.978c.255-9.472 13.338-9.727 13.338-9.727 17.46-6.183 46.567-3.933 50.566 11.901 3.233 12.762-.048 34.628-1.447 42.625z" class="svgShape color7a5da6-22 svgStroke colorStroke231f20-22 selectable"></path><path fill="#001bff" stroke="#231F20" stroke-miterlimit="10" stroke-width=".55" d="M240.615 70.026c-.218-.01-.416-.02-.624-.02a111 111 0 0 0-4.689-.009h-.057c-1.011.01-2.004.029-2.996.076-.482.019-.974.028-1.456.057-.482.019-.955.047-1.437.085-.076 0-.151 0-.227.01-.926.056-1.843.122-2.751.207-.397.028-.794.066-1.191.104-.397.028-.785.076-1.172.123-.511.057-1.012.104-1.522.17l-.284.029c-.255.028-.52.066-.775.103-.567.095-1.134.18-1.711.246-.378.047-.737.095-1.106.161h-.019c-.491.076-.992.16-1.475.255-.085.01-.16.02-.245.047-.265.048-.53.086-.776.133-.709.132-1.408.264-2.098.416-.161.028-.331.075-.482.104-.066.01-.142.028-.208.047-.757.16-1.494.34-2.231.52-.586.142-1.144.284-1.702.444-.066.02-.132.029-.198.057a.8.8 0 0 0-.208.057c-.539.142-1.078.293-1.607.453-.482.133-.974.265-1.447.416-.605.199-1.21.388-1.796.587a44 44 0 0 0-1.664.595l-1.2.425-.123.048c-.605.236-1.21.472-1.787.709-.52.208-1.021.416-1.531.642-.019.01-.029.01-.057.02-.312.132-.624.264-.926.406-.586.255-1.154.53-1.721.794a40 40 0 0 1 2.609-3.82c3.583-4.66 9.359-10.133 18.113-13.394 4.566-1.72 9.945-2.836 16.24-2.912h.019c1.22-.028 2.364.577 3.082 1.56 2.609 3.592 4.32 7.232 5.398 10.049z" class="svgShape color6c3593-23 svgStroke colorStroke231f20-23 selectable"></path><path stroke="#231F20" stroke-miterlimit="10" stroke-width=".55" d="M197.821 32.817c.766.029 1.56.01 2.383-.028" fill="none" class="svgStroke colorStroke231f20-24 selectable"></path><path fill="#F89921" stroke="#251132" stroke-miterlimit="10" stroke-width=".55" d="M212.37 39.867c0 3.413-1.843 6.258-4.263 6.901a4.2 4.2 0 0 1-1.031.132 4.14 4.14 0 0 1-2.24-.67c1.796-1.116 3.044-3.546 3.044-6.363s-1.248-5.246-3.044-6.362a4.14 4.14 0 0 1 2.24-.671c2.921 0 5.304 3.148 5.304 7.033z" class="svgShape colorf89921-25 svgStroke colorStroke251132-25 selectable"></path><path fill="#F89921" stroke="#251132" stroke-miterlimit="10" stroke-width=".55" d="M215.879 61.32c-8.754 3.261-14.53 8.735-18.113 13.395l-2.562-6.683c-2.354.614-5.577.973-9.765.444-3.299-.416-5.738-3.27-5.71-6.599.048-6.475-.255-11.372-.255-11.372-2.136-.387-2.912-2.325-2.912-2.325s2.751-3.725 1.749-10.853c-1.106-7.921-.331-13.537.369-16.571 1.9 4.103 7.062 11.835 19.152 12.072-.538 4.225 1.428 7.052 1.428 7.052s.955 0 2.543-.303c.075-2.694 1.304-5 3.044-6.06 1.796 1.116 3.044 3.546 3.044 6.363s-1.248 5.246-3.044 6.362c.68.435 1.446.671 2.24.671a4 4 0 0 0 1.03-.132c1.144 7.364 5.36 12.28 7.781 14.548z" class="svgShape colorf89921-26 svgStroke colorStroke251132-26 selectable"></path><path stroke="#231F20" stroke-miterlimit="10" stroke-width=".55" d="M200.279 65.629s-1.579 1.484-5.077 2.401M197.972 75.262l-.208-.54M181.909 45.048c.079 0 .142-1.16.142-2.59 0-1.431-.063-2.59-.142-2.59s-.141 1.159-.141 2.59.063 2.59.141 2.59ZM179.605 54.173s1.674 0 5.086-1.863" fill="none" class="svgStroke colorStroke231f20-27 selectable"></path><path fill="#231F20" stroke="#231F20" stroke-miterlimit="10" stroke-width=".55" d="M179.726 35.34s3.186.547 4.887 1.946c.038.029.076 0 .057-.037-.463-.68-1.267-2.96-5.436-4.415z" class="svgShape color231f20-28 svgStroke colorStroke231f20-28 selectable"></path><path fill="#7A5DA6" d="M174.01 14.004s3.724 4.245 5.303 8.007z" class="svgShape color7a5da6-29 selectable"></path><path stroke="#231F20" stroke-miterlimit="10" stroke-width=".55" d="M174.01 14.004s3.724 4.245 5.303 8.007" fill="none" class="svgStroke colorStroke231f20-30 selectable"></path></g><defs><clipPath id="a"><path fill="#fff" d="M.41 0h333.333v200H.41z" class="svgShape colorffffff-33 selectable"></path></clipPath></defs></svg></g></svg>